%TF.GenerationSoftware,KiCad,Pcbnew,(5.0.2-5-10.14)*%
%TF.CreationDate,2019-04-08T21:19:03+10:00*%
%TF.ProjectId,macropod,6d616372-6f70-46f6-942e-6b696361645f,rev?*%
%TF.SameCoordinates,Original*%
%TF.FileFunction,Soldermask,Bot*%
%TF.FilePolarity,Negative*%
%FSLAX46Y46*%
G04 Gerber Fmt 4.6, Leading zero omitted, Abs format (unit mm)*
G04 Created by KiCad (PCBNEW (5.0.2-5-10.14)) date Monday, 08 April 2019 at 09:19:03 pm*
%MOMM*%
%LPD*%
G01*
G04 APERTURE LIST*
%ADD10C,0.150000*%
G04 APERTURE END LIST*
D10*
X29700000Y-28429951D02*
X29700000Y-134229951D01*
X29700000Y-134229951D02*
X116300000Y-134229951D01*
X116300000Y-28429951D02*
X116300000Y-134229951D01*
X29700000Y-28429951D02*
X116300000Y-28429951D01*
G36*
X111535734Y-127823183D02*
X111745202Y-127909947D01*
X111933723Y-128035913D01*
X112094038Y-128196228D01*
X112220004Y-128384749D01*
X112306768Y-128594217D01*
X112351000Y-128816586D01*
X112351000Y-129043316D01*
X112306768Y-129265685D01*
X112220004Y-129475153D01*
X112094038Y-129663674D01*
X111933723Y-129823989D01*
X111745202Y-129949955D01*
X111535734Y-130036719D01*
X111313365Y-130080951D01*
X111086635Y-130080951D01*
X110864266Y-130036719D01*
X110654798Y-129949955D01*
X110466277Y-129823989D01*
X110305962Y-129663674D01*
X110179996Y-129475153D01*
X110093232Y-129265685D01*
X110049000Y-129043316D01*
X110049000Y-128816586D01*
X110093232Y-128594217D01*
X110179996Y-128384749D01*
X110305962Y-128196228D01*
X110466277Y-128035913D01*
X110654798Y-127909947D01*
X110864266Y-127823183D01*
X111086635Y-127778951D01*
X111313365Y-127778951D01*
X111535734Y-127823183D01*
X111535734Y-127823183D01*
G37*
G36*
X35235734Y-127823183D02*
X35445202Y-127909947D01*
X35633723Y-128035913D01*
X35794038Y-128196228D01*
X35920004Y-128384749D01*
X36006768Y-128594217D01*
X36051000Y-128816586D01*
X36051000Y-129043316D01*
X36006768Y-129265685D01*
X35920004Y-129475153D01*
X35794038Y-129663674D01*
X35633723Y-129823989D01*
X35445202Y-129949955D01*
X35235734Y-130036719D01*
X35013365Y-130080951D01*
X34786635Y-130080951D01*
X34564266Y-130036719D01*
X34354798Y-129949955D01*
X34166277Y-129823989D01*
X34005962Y-129663674D01*
X33879996Y-129475153D01*
X33793232Y-129265685D01*
X33749000Y-129043316D01*
X33749000Y-128816586D01*
X33793232Y-128594217D01*
X33879996Y-128384749D01*
X34005962Y-128196228D01*
X34166277Y-128035913D01*
X34354798Y-127909947D01*
X34564266Y-127823183D01*
X34786635Y-127778951D01*
X35013365Y-127778951D01*
X35235734Y-127823183D01*
X35235734Y-127823183D01*
G37*
G36*
X64098252Y-117407622D02*
X64098254Y-117407623D01*
X64098255Y-117407623D01*
X64471513Y-117562231D01*
X64802905Y-117783661D01*
X64807439Y-117786690D01*
X65093114Y-118072365D01*
X65093116Y-118072368D01*
X65317573Y-118408291D01*
X65472181Y-118781549D01*
X65551000Y-119177798D01*
X65551000Y-119581810D01*
X65472181Y-119978059D01*
X65317573Y-120351317D01*
X65317572Y-120351318D01*
X65093114Y-120687243D01*
X64807439Y-120972918D01*
X64807436Y-120972920D01*
X64471513Y-121197377D01*
X64098255Y-121351985D01*
X64098254Y-121351985D01*
X64098252Y-121351986D01*
X63702007Y-121430804D01*
X63297993Y-121430804D01*
X62901748Y-121351986D01*
X62901746Y-121351985D01*
X62901745Y-121351985D01*
X62528487Y-121197377D01*
X62192564Y-120972920D01*
X62192561Y-120972918D01*
X61906886Y-120687243D01*
X61682428Y-120351318D01*
X61682427Y-120351317D01*
X61527819Y-119978059D01*
X61449000Y-119581810D01*
X61449000Y-119177798D01*
X61527819Y-118781549D01*
X61682427Y-118408291D01*
X61906884Y-118072368D01*
X61906886Y-118072365D01*
X62192561Y-117786690D01*
X62197095Y-117783661D01*
X62528487Y-117562231D01*
X62901745Y-117407623D01*
X62901746Y-117407623D01*
X62901748Y-117407622D01*
X63297993Y-117328804D01*
X63702007Y-117328804D01*
X64098252Y-117407622D01*
X64098252Y-117407622D01*
G37*
G36*
X45048301Y-117407622D02*
X45048303Y-117407623D01*
X45048304Y-117407623D01*
X45421562Y-117562231D01*
X45752954Y-117783661D01*
X45757488Y-117786690D01*
X46043163Y-118072365D01*
X46043165Y-118072368D01*
X46267622Y-118408291D01*
X46422230Y-118781549D01*
X46501049Y-119177798D01*
X46501049Y-119581810D01*
X46422230Y-119978059D01*
X46267622Y-120351317D01*
X46267621Y-120351318D01*
X46043163Y-120687243D01*
X45757488Y-120972918D01*
X45757485Y-120972920D01*
X45421562Y-121197377D01*
X45048304Y-121351985D01*
X45048303Y-121351985D01*
X45048301Y-121351986D01*
X44652056Y-121430804D01*
X44248042Y-121430804D01*
X43851797Y-121351986D01*
X43851795Y-121351985D01*
X43851794Y-121351985D01*
X43478536Y-121197377D01*
X43142613Y-120972920D01*
X43142610Y-120972918D01*
X42856935Y-120687243D01*
X42632477Y-120351318D01*
X42632476Y-120351317D01*
X42477868Y-119978059D01*
X42399049Y-119581810D01*
X42399049Y-119177798D01*
X42477868Y-118781549D01*
X42632476Y-118408291D01*
X42856933Y-118072368D01*
X42856935Y-118072365D01*
X43142610Y-117786690D01*
X43147144Y-117783661D01*
X43478536Y-117562231D01*
X43851794Y-117407623D01*
X43851795Y-117407623D01*
X43851797Y-117407622D01*
X44248042Y-117328804D01*
X44652056Y-117328804D01*
X45048301Y-117407622D01*
X45048301Y-117407622D01*
G37*
G36*
X102198252Y-117407622D02*
X102198254Y-117407623D01*
X102198255Y-117407623D01*
X102571513Y-117562231D01*
X102902905Y-117783661D01*
X102907439Y-117786690D01*
X103193114Y-118072365D01*
X103193116Y-118072368D01*
X103417573Y-118408291D01*
X103572181Y-118781549D01*
X103651000Y-119177798D01*
X103651000Y-119581810D01*
X103572181Y-119978059D01*
X103417573Y-120351317D01*
X103417572Y-120351318D01*
X103193114Y-120687243D01*
X102907439Y-120972918D01*
X102907436Y-120972920D01*
X102571513Y-121197377D01*
X102198255Y-121351985D01*
X102198254Y-121351985D01*
X102198252Y-121351986D01*
X101802007Y-121430804D01*
X101397993Y-121430804D01*
X101001748Y-121351986D01*
X101001746Y-121351985D01*
X101001745Y-121351985D01*
X100628487Y-121197377D01*
X100292564Y-120972920D01*
X100292561Y-120972918D01*
X100006886Y-120687243D01*
X99782428Y-120351318D01*
X99782427Y-120351317D01*
X99627819Y-119978059D01*
X99549000Y-119581810D01*
X99549000Y-119177798D01*
X99627819Y-118781549D01*
X99782427Y-118408291D01*
X100006884Y-118072368D01*
X100006886Y-118072365D01*
X100292561Y-117786690D01*
X100297095Y-117783661D01*
X100628487Y-117562231D01*
X101001745Y-117407623D01*
X101001746Y-117407623D01*
X101001748Y-117407622D01*
X101397993Y-117328804D01*
X101802007Y-117328804D01*
X102198252Y-117407622D01*
X102198252Y-117407622D01*
G37*
G36*
X83148203Y-117407622D02*
X83148205Y-117407623D01*
X83148206Y-117407623D01*
X83521464Y-117562231D01*
X83852856Y-117783661D01*
X83857390Y-117786690D01*
X84143065Y-118072365D01*
X84143067Y-118072368D01*
X84367524Y-118408291D01*
X84522132Y-118781549D01*
X84600951Y-119177798D01*
X84600951Y-119581810D01*
X84522132Y-119978059D01*
X84367524Y-120351317D01*
X84367523Y-120351318D01*
X84143065Y-120687243D01*
X83857390Y-120972918D01*
X83857387Y-120972920D01*
X83521464Y-121197377D01*
X83148206Y-121351985D01*
X83148205Y-121351985D01*
X83148203Y-121351986D01*
X82751958Y-121430804D01*
X82347944Y-121430804D01*
X81951699Y-121351986D01*
X81951697Y-121351985D01*
X81951696Y-121351985D01*
X81578438Y-121197377D01*
X81242515Y-120972920D01*
X81242512Y-120972918D01*
X80956837Y-120687243D01*
X80732379Y-120351318D01*
X80732378Y-120351317D01*
X80577770Y-119978059D01*
X80498951Y-119581810D01*
X80498951Y-119177798D01*
X80577770Y-118781549D01*
X80732378Y-118408291D01*
X80956835Y-118072368D01*
X80956837Y-118072365D01*
X81242512Y-117786690D01*
X81247046Y-117783661D01*
X81578438Y-117562231D01*
X81951696Y-117407623D01*
X81951697Y-117407623D01*
X81951699Y-117407622D01*
X82347944Y-117328804D01*
X82751958Y-117328804D01*
X83148203Y-117407622D01*
X83148203Y-117407622D01*
G37*
G36*
X98125734Y-115733036D02*
X98335202Y-115819800D01*
X98523723Y-115945766D01*
X98684038Y-116106081D01*
X98810004Y-116294602D01*
X98896768Y-116504070D01*
X98941000Y-116726439D01*
X98941000Y-116953169D01*
X98896768Y-117175538D01*
X98810004Y-117385006D01*
X98684038Y-117573527D01*
X98523723Y-117733842D01*
X98335202Y-117859808D01*
X98125734Y-117946572D01*
X97903365Y-117990804D01*
X97676635Y-117990804D01*
X97454266Y-117946572D01*
X97244798Y-117859808D01*
X97056277Y-117733842D01*
X96895962Y-117573527D01*
X96769996Y-117385006D01*
X96683232Y-117175538D01*
X96639000Y-116953169D01*
X96639000Y-116726439D01*
X96683232Y-116504070D01*
X96769996Y-116294602D01*
X96895962Y-116106081D01*
X97056277Y-115945766D01*
X97244798Y-115819800D01*
X97454266Y-115733036D01*
X97676635Y-115688804D01*
X97903365Y-115688804D01*
X98125734Y-115733036D01*
X98125734Y-115733036D01*
G37*
G36*
X79075685Y-115733036D02*
X79285153Y-115819800D01*
X79473674Y-115945766D01*
X79633989Y-116106081D01*
X79759955Y-116294602D01*
X79846719Y-116504070D01*
X79890951Y-116726439D01*
X79890951Y-116953169D01*
X79846719Y-117175538D01*
X79759955Y-117385006D01*
X79633989Y-117573527D01*
X79473674Y-117733842D01*
X79285153Y-117859808D01*
X79075685Y-117946572D01*
X78853316Y-117990804D01*
X78626586Y-117990804D01*
X78404217Y-117946572D01*
X78194749Y-117859808D01*
X78006228Y-117733842D01*
X77845913Y-117573527D01*
X77719947Y-117385006D01*
X77633183Y-117175538D01*
X77588951Y-116953169D01*
X77588951Y-116726439D01*
X77633183Y-116504070D01*
X77719947Y-116294602D01*
X77845913Y-116106081D01*
X78006228Y-115945766D01*
X78194749Y-115819800D01*
X78404217Y-115733036D01*
X78626586Y-115688804D01*
X78853316Y-115688804D01*
X79075685Y-115733036D01*
X79075685Y-115733036D01*
G37*
G36*
X60025734Y-115733036D02*
X60235202Y-115819800D01*
X60423723Y-115945766D01*
X60584038Y-116106081D01*
X60710004Y-116294602D01*
X60796768Y-116504070D01*
X60841000Y-116726439D01*
X60841000Y-116953169D01*
X60796768Y-117175538D01*
X60710004Y-117385006D01*
X60584038Y-117573527D01*
X60423723Y-117733842D01*
X60235202Y-117859808D01*
X60025734Y-117946572D01*
X59803365Y-117990804D01*
X59576635Y-117990804D01*
X59354266Y-117946572D01*
X59144798Y-117859808D01*
X58956277Y-117733842D01*
X58795962Y-117573527D01*
X58669996Y-117385006D01*
X58583232Y-117175538D01*
X58539000Y-116953169D01*
X58539000Y-116726439D01*
X58583232Y-116504070D01*
X58669996Y-116294602D01*
X58795962Y-116106081D01*
X58956277Y-115945766D01*
X59144798Y-115819800D01*
X59354266Y-115733036D01*
X59576635Y-115688804D01*
X59803365Y-115688804D01*
X60025734Y-115733036D01*
X60025734Y-115733036D01*
G37*
G36*
X40975783Y-115733036D02*
X41185251Y-115819800D01*
X41373772Y-115945766D01*
X41534087Y-116106081D01*
X41660053Y-116294602D01*
X41746817Y-116504070D01*
X41791049Y-116726439D01*
X41791049Y-116953169D01*
X41746817Y-117175538D01*
X41660053Y-117385006D01*
X41534087Y-117573527D01*
X41373772Y-117733842D01*
X41185251Y-117859808D01*
X40975783Y-117946572D01*
X40753414Y-117990804D01*
X40526684Y-117990804D01*
X40304315Y-117946572D01*
X40094847Y-117859808D01*
X39906326Y-117733842D01*
X39746011Y-117573527D01*
X39620045Y-117385006D01*
X39533281Y-117175538D01*
X39489049Y-116953169D01*
X39489049Y-116726439D01*
X39533281Y-116504070D01*
X39620045Y-116294602D01*
X39746011Y-116106081D01*
X39906326Y-115945766D01*
X40094847Y-115819800D01*
X40304315Y-115733036D01*
X40526684Y-115688804D01*
X40753414Y-115688804D01*
X40975783Y-115733036D01*
X40975783Y-115733036D01*
G37*
G36*
X104475734Y-113193036D02*
X104685202Y-113279800D01*
X104873723Y-113405766D01*
X105034038Y-113566081D01*
X105160004Y-113754602D01*
X105246768Y-113964070D01*
X105291000Y-114186439D01*
X105291000Y-114413169D01*
X105246768Y-114635538D01*
X105160004Y-114845006D01*
X105034038Y-115033527D01*
X104873723Y-115193842D01*
X104685202Y-115319808D01*
X104475734Y-115406572D01*
X104253365Y-115450804D01*
X104026635Y-115450804D01*
X103804266Y-115406572D01*
X103594798Y-115319808D01*
X103406277Y-115193842D01*
X103245962Y-115033527D01*
X103119996Y-114845006D01*
X103033232Y-114635538D01*
X102989000Y-114413169D01*
X102989000Y-114186439D01*
X103033232Y-113964070D01*
X103119996Y-113754602D01*
X103245962Y-113566081D01*
X103406277Y-113405766D01*
X103594798Y-113279800D01*
X103804266Y-113193036D01*
X104026635Y-113148804D01*
X104253365Y-113148804D01*
X104475734Y-113193036D01*
X104475734Y-113193036D01*
G37*
G36*
X85425685Y-113193036D02*
X85635153Y-113279800D01*
X85823674Y-113405766D01*
X85983989Y-113566081D01*
X86109955Y-113754602D01*
X86196719Y-113964070D01*
X86240951Y-114186439D01*
X86240951Y-114413169D01*
X86196719Y-114635538D01*
X86109955Y-114845006D01*
X85983989Y-115033527D01*
X85823674Y-115193842D01*
X85635153Y-115319808D01*
X85425685Y-115406572D01*
X85203316Y-115450804D01*
X84976586Y-115450804D01*
X84754217Y-115406572D01*
X84544749Y-115319808D01*
X84356228Y-115193842D01*
X84195913Y-115033527D01*
X84069947Y-114845006D01*
X83983183Y-114635538D01*
X83938951Y-114413169D01*
X83938951Y-114186439D01*
X83983183Y-113964070D01*
X84069947Y-113754602D01*
X84195913Y-113566081D01*
X84356228Y-113405766D01*
X84544749Y-113279800D01*
X84754217Y-113193036D01*
X84976586Y-113148804D01*
X85203316Y-113148804D01*
X85425685Y-113193036D01*
X85425685Y-113193036D01*
G37*
G36*
X66375734Y-113193036D02*
X66585202Y-113279800D01*
X66773723Y-113405766D01*
X66934038Y-113566081D01*
X67060004Y-113754602D01*
X67146768Y-113964070D01*
X67191000Y-114186439D01*
X67191000Y-114413169D01*
X67146768Y-114635538D01*
X67060004Y-114845006D01*
X66934038Y-115033527D01*
X66773723Y-115193842D01*
X66585202Y-115319808D01*
X66375734Y-115406572D01*
X66153365Y-115450804D01*
X65926635Y-115450804D01*
X65704266Y-115406572D01*
X65494798Y-115319808D01*
X65306277Y-115193842D01*
X65145962Y-115033527D01*
X65019996Y-114845006D01*
X64933232Y-114635538D01*
X64889000Y-114413169D01*
X64889000Y-114186439D01*
X64933232Y-113964070D01*
X65019996Y-113754602D01*
X65145962Y-113566081D01*
X65306277Y-113405766D01*
X65494798Y-113279800D01*
X65704266Y-113193036D01*
X65926635Y-113148804D01*
X66153365Y-113148804D01*
X66375734Y-113193036D01*
X66375734Y-113193036D01*
G37*
G36*
X47325783Y-113193036D02*
X47535251Y-113279800D01*
X47723772Y-113405766D01*
X47884087Y-113566081D01*
X48010053Y-113754602D01*
X48096817Y-113964070D01*
X48141049Y-114186439D01*
X48141049Y-114413169D01*
X48096817Y-114635538D01*
X48010053Y-114845006D01*
X47884087Y-115033527D01*
X47723772Y-115193842D01*
X47535251Y-115319808D01*
X47325783Y-115406572D01*
X47103414Y-115450804D01*
X46876684Y-115450804D01*
X46654315Y-115406572D01*
X46444847Y-115319808D01*
X46256326Y-115193842D01*
X46096011Y-115033527D01*
X45970045Y-114845006D01*
X45883281Y-114635538D01*
X45839049Y-114413169D01*
X45839049Y-114186439D01*
X45883281Y-113964070D01*
X45970045Y-113754602D01*
X46096011Y-113566081D01*
X46256326Y-113405766D01*
X46444847Y-113279800D01*
X46654315Y-113193036D01*
X46876684Y-113148804D01*
X47103414Y-113148804D01*
X47325783Y-113193036D01*
X47325783Y-113193036D01*
G37*
G36*
X45048301Y-98424526D02*
X45048303Y-98424527D01*
X45048304Y-98424527D01*
X45421562Y-98579135D01*
X45752954Y-98800565D01*
X45757488Y-98803594D01*
X46043163Y-99089269D01*
X46043165Y-99089272D01*
X46267622Y-99425195D01*
X46394538Y-99731598D01*
X46422231Y-99798456D01*
X46501049Y-100194701D01*
X46501049Y-100598715D01*
X46435529Y-100928108D01*
X46422230Y-100994963D01*
X46267622Y-101368221D01*
X46267621Y-101368222D01*
X46043163Y-101704147D01*
X45757488Y-101989822D01*
X45757485Y-101989824D01*
X45421562Y-102214281D01*
X45048304Y-102368889D01*
X45048303Y-102368889D01*
X45048301Y-102368890D01*
X44652056Y-102447708D01*
X44248042Y-102447708D01*
X43851797Y-102368890D01*
X43851795Y-102368889D01*
X43851794Y-102368889D01*
X43478536Y-102214281D01*
X43142613Y-101989824D01*
X43142610Y-101989822D01*
X42856935Y-101704147D01*
X42632477Y-101368222D01*
X42632476Y-101368221D01*
X42477868Y-100994963D01*
X42464570Y-100928108D01*
X42399049Y-100598715D01*
X42399049Y-100194701D01*
X42477867Y-99798456D01*
X42505560Y-99731598D01*
X42632476Y-99425195D01*
X42856933Y-99089272D01*
X42856935Y-99089269D01*
X43142610Y-98803594D01*
X43147144Y-98800565D01*
X43478536Y-98579135D01*
X43851794Y-98424527D01*
X43851795Y-98424527D01*
X43851797Y-98424526D01*
X44248042Y-98345708D01*
X44652056Y-98345708D01*
X45048301Y-98424526D01*
X45048301Y-98424526D01*
G37*
G36*
X83148203Y-98357671D02*
X83148205Y-98357672D01*
X83148206Y-98357672D01*
X83521464Y-98512280D01*
X83852856Y-98733710D01*
X83857390Y-98736739D01*
X84143065Y-99022414D01*
X84143067Y-99022417D01*
X84367524Y-99358340D01*
X84395216Y-99425195D01*
X84522133Y-99731601D01*
X84600951Y-100127846D01*
X84600951Y-100531860D01*
X84587653Y-100598715D01*
X84522132Y-100928108D01*
X84367524Y-101301366D01*
X84367523Y-101301367D01*
X84143065Y-101637292D01*
X83857390Y-101922967D01*
X83857387Y-101922969D01*
X83521464Y-102147426D01*
X83148206Y-102302034D01*
X83148205Y-102302034D01*
X83148203Y-102302035D01*
X82751958Y-102380853D01*
X82347944Y-102380853D01*
X81951699Y-102302035D01*
X81951697Y-102302034D01*
X81951696Y-102302034D01*
X81578438Y-102147426D01*
X81242515Y-101922969D01*
X81242512Y-101922967D01*
X80956837Y-101637292D01*
X80732379Y-101301367D01*
X80732378Y-101301366D01*
X80577770Y-100928108D01*
X80512250Y-100598715D01*
X80498951Y-100531860D01*
X80498951Y-100127846D01*
X80577769Y-99731601D01*
X80704686Y-99425195D01*
X80732378Y-99358340D01*
X80956835Y-99022417D01*
X80956837Y-99022414D01*
X81242512Y-98736739D01*
X81247046Y-98733710D01*
X81578438Y-98512280D01*
X81951696Y-98357672D01*
X81951697Y-98357672D01*
X81951699Y-98357671D01*
X82347944Y-98278853D01*
X82751958Y-98278853D01*
X83148203Y-98357671D01*
X83148203Y-98357671D01*
G37*
G36*
X64098252Y-98357671D02*
X64098254Y-98357672D01*
X64098255Y-98357672D01*
X64471513Y-98512280D01*
X64802905Y-98733710D01*
X64807439Y-98736739D01*
X65093114Y-99022414D01*
X65093116Y-99022417D01*
X65317573Y-99358340D01*
X65345265Y-99425195D01*
X65472182Y-99731601D01*
X65551000Y-100127846D01*
X65551000Y-100531860D01*
X65537702Y-100598715D01*
X65472181Y-100928108D01*
X65317573Y-101301366D01*
X65317572Y-101301367D01*
X65093114Y-101637292D01*
X64807439Y-101922967D01*
X64807436Y-101922969D01*
X64471513Y-102147426D01*
X64098255Y-102302034D01*
X64098254Y-102302034D01*
X64098252Y-102302035D01*
X63702007Y-102380853D01*
X63297993Y-102380853D01*
X62901748Y-102302035D01*
X62901746Y-102302034D01*
X62901745Y-102302034D01*
X62528487Y-102147426D01*
X62192564Y-101922969D01*
X62192561Y-101922967D01*
X61906886Y-101637292D01*
X61682428Y-101301367D01*
X61682427Y-101301366D01*
X61527819Y-100928108D01*
X61462299Y-100598715D01*
X61449000Y-100531860D01*
X61449000Y-100127846D01*
X61527818Y-99731601D01*
X61654735Y-99425195D01*
X61682427Y-99358340D01*
X61906884Y-99022417D01*
X61906886Y-99022414D01*
X62192561Y-98736739D01*
X62197095Y-98733710D01*
X62528487Y-98512280D01*
X62901745Y-98357672D01*
X62901746Y-98357672D01*
X62901748Y-98357671D01*
X63297993Y-98278853D01*
X63702007Y-98278853D01*
X64098252Y-98357671D01*
X64098252Y-98357671D01*
G37*
G36*
X102198154Y-98357671D02*
X102198156Y-98357672D01*
X102198157Y-98357672D01*
X102571415Y-98512280D01*
X102902807Y-98733710D01*
X102907341Y-98736739D01*
X103193016Y-99022414D01*
X103193018Y-99022417D01*
X103417475Y-99358340D01*
X103445167Y-99425195D01*
X103572084Y-99731601D01*
X103650902Y-100127846D01*
X103650902Y-100531860D01*
X103637604Y-100598715D01*
X103572083Y-100928108D01*
X103417475Y-101301366D01*
X103417474Y-101301367D01*
X103193016Y-101637292D01*
X102907341Y-101922967D01*
X102907338Y-101922969D01*
X102571415Y-102147426D01*
X102198157Y-102302034D01*
X102198156Y-102302034D01*
X102198154Y-102302035D01*
X101801909Y-102380853D01*
X101397895Y-102380853D01*
X101001650Y-102302035D01*
X101001648Y-102302034D01*
X101001647Y-102302034D01*
X100628389Y-102147426D01*
X100292466Y-101922969D01*
X100292463Y-101922967D01*
X100006788Y-101637292D01*
X99782330Y-101301367D01*
X99782329Y-101301366D01*
X99627721Y-100928108D01*
X99562201Y-100598715D01*
X99548902Y-100531860D01*
X99548902Y-100127846D01*
X99627720Y-99731601D01*
X99754637Y-99425195D01*
X99782329Y-99358340D01*
X100006786Y-99022417D01*
X100006788Y-99022414D01*
X100292463Y-98736739D01*
X100296997Y-98733710D01*
X100628389Y-98512280D01*
X101001647Y-98357672D01*
X101001648Y-98357672D01*
X101001650Y-98357671D01*
X101397895Y-98278853D01*
X101801909Y-98278853D01*
X102198154Y-98357671D01*
X102198154Y-98357671D01*
G37*
G36*
X40975783Y-96749940D02*
X41185251Y-96836704D01*
X41373772Y-96962670D01*
X41534087Y-97122985D01*
X41660053Y-97311506D01*
X41746817Y-97520974D01*
X41791049Y-97743343D01*
X41791049Y-97970073D01*
X41746817Y-98192442D01*
X41660053Y-98401910D01*
X41534087Y-98590431D01*
X41373772Y-98750746D01*
X41185251Y-98876712D01*
X40975783Y-98963476D01*
X40753414Y-99007708D01*
X40526684Y-99007708D01*
X40304315Y-98963476D01*
X40094847Y-98876712D01*
X39906326Y-98750746D01*
X39746011Y-98590431D01*
X39620045Y-98401910D01*
X39533281Y-98192442D01*
X39489049Y-97970073D01*
X39489049Y-97743343D01*
X39533281Y-97520974D01*
X39620045Y-97311506D01*
X39746011Y-97122985D01*
X39906326Y-96962670D01*
X40094847Y-96836704D01*
X40304315Y-96749940D01*
X40526684Y-96705708D01*
X40753414Y-96705708D01*
X40975783Y-96749940D01*
X40975783Y-96749940D01*
G37*
G36*
X60025734Y-96683085D02*
X60235202Y-96769849D01*
X60423723Y-96895815D01*
X60584038Y-97056130D01*
X60710004Y-97244651D01*
X60796768Y-97454119D01*
X60841000Y-97676488D01*
X60841000Y-97903218D01*
X60796768Y-98125587D01*
X60710004Y-98335055D01*
X60584038Y-98523576D01*
X60423723Y-98683891D01*
X60235202Y-98809857D01*
X60025734Y-98896621D01*
X59803365Y-98940853D01*
X59576635Y-98940853D01*
X59354266Y-98896621D01*
X59144798Y-98809857D01*
X58956277Y-98683891D01*
X58795962Y-98523576D01*
X58669996Y-98335055D01*
X58583232Y-98125587D01*
X58539000Y-97903218D01*
X58539000Y-97676488D01*
X58583232Y-97454119D01*
X58669996Y-97244651D01*
X58795962Y-97056130D01*
X58956277Y-96895815D01*
X59144798Y-96769849D01*
X59354266Y-96683085D01*
X59576635Y-96638853D01*
X59803365Y-96638853D01*
X60025734Y-96683085D01*
X60025734Y-96683085D01*
G37*
G36*
X79075685Y-96683085D02*
X79285153Y-96769849D01*
X79473674Y-96895815D01*
X79633989Y-97056130D01*
X79759955Y-97244651D01*
X79846719Y-97454119D01*
X79890951Y-97676488D01*
X79890951Y-97903218D01*
X79846719Y-98125587D01*
X79759955Y-98335055D01*
X79633989Y-98523576D01*
X79473674Y-98683891D01*
X79285153Y-98809857D01*
X79075685Y-98896621D01*
X78853316Y-98940853D01*
X78626586Y-98940853D01*
X78404217Y-98896621D01*
X78194749Y-98809857D01*
X78006228Y-98683891D01*
X77845913Y-98523576D01*
X77719947Y-98335055D01*
X77633183Y-98125587D01*
X77588951Y-97903218D01*
X77588951Y-97676488D01*
X77633183Y-97454119D01*
X77719947Y-97244651D01*
X77845913Y-97056130D01*
X78006228Y-96895815D01*
X78194749Y-96769849D01*
X78404217Y-96683085D01*
X78626586Y-96638853D01*
X78853316Y-96638853D01*
X79075685Y-96683085D01*
X79075685Y-96683085D01*
G37*
G36*
X98125636Y-96683085D02*
X98335104Y-96769849D01*
X98523625Y-96895815D01*
X98683940Y-97056130D01*
X98809906Y-97244651D01*
X98896670Y-97454119D01*
X98940902Y-97676488D01*
X98940902Y-97903218D01*
X98896670Y-98125587D01*
X98809906Y-98335055D01*
X98683940Y-98523576D01*
X98523625Y-98683891D01*
X98335104Y-98809857D01*
X98125636Y-98896621D01*
X97903267Y-98940853D01*
X97676537Y-98940853D01*
X97454168Y-98896621D01*
X97244700Y-98809857D01*
X97056179Y-98683891D01*
X96895864Y-98523576D01*
X96769898Y-98335055D01*
X96683134Y-98125587D01*
X96638902Y-97903218D01*
X96638902Y-97676488D01*
X96683134Y-97454119D01*
X96769898Y-97244651D01*
X96895864Y-97056130D01*
X97056179Y-96895815D01*
X97244700Y-96769849D01*
X97454168Y-96683085D01*
X97676537Y-96638853D01*
X97903267Y-96638853D01*
X98125636Y-96683085D01*
X98125636Y-96683085D01*
G37*
G36*
X47325783Y-94209940D02*
X47535251Y-94296704D01*
X47723772Y-94422670D01*
X47884087Y-94582985D01*
X48010053Y-94771506D01*
X48096817Y-94980974D01*
X48141049Y-95203343D01*
X48141049Y-95430073D01*
X48096817Y-95652442D01*
X48010053Y-95861910D01*
X47884087Y-96050431D01*
X47723772Y-96210746D01*
X47535251Y-96336712D01*
X47325783Y-96423476D01*
X47103414Y-96467708D01*
X46876684Y-96467708D01*
X46654315Y-96423476D01*
X46444847Y-96336712D01*
X46256326Y-96210746D01*
X46096011Y-96050431D01*
X45970045Y-95861910D01*
X45883281Y-95652442D01*
X45839049Y-95430073D01*
X45839049Y-95203343D01*
X45883281Y-94980974D01*
X45970045Y-94771506D01*
X46096011Y-94582985D01*
X46256326Y-94422670D01*
X46444847Y-94296704D01*
X46654315Y-94209940D01*
X46876684Y-94165708D01*
X47103414Y-94165708D01*
X47325783Y-94209940D01*
X47325783Y-94209940D01*
G37*
G36*
X104475636Y-94143085D02*
X104685104Y-94229849D01*
X104873625Y-94355815D01*
X105033940Y-94516130D01*
X105159906Y-94704651D01*
X105246670Y-94914119D01*
X105290902Y-95136488D01*
X105290902Y-95363218D01*
X105246670Y-95585587D01*
X105159906Y-95795055D01*
X105033940Y-95983576D01*
X104873625Y-96143891D01*
X104685104Y-96269857D01*
X104475636Y-96356621D01*
X104253267Y-96400853D01*
X104026537Y-96400853D01*
X103804168Y-96356621D01*
X103594700Y-96269857D01*
X103406179Y-96143891D01*
X103245864Y-95983576D01*
X103119898Y-95795055D01*
X103033134Y-95585587D01*
X102988902Y-95363218D01*
X102988902Y-95136488D01*
X103033134Y-94914119D01*
X103119898Y-94704651D01*
X103245864Y-94516130D01*
X103406179Y-94355815D01*
X103594700Y-94229849D01*
X103804168Y-94143085D01*
X104026537Y-94098853D01*
X104253267Y-94098853D01*
X104475636Y-94143085D01*
X104475636Y-94143085D01*
G37*
G36*
X85425685Y-94143085D02*
X85635153Y-94229849D01*
X85823674Y-94355815D01*
X85983989Y-94516130D01*
X86109955Y-94704651D01*
X86196719Y-94914119D01*
X86240951Y-95136488D01*
X86240951Y-95363218D01*
X86196719Y-95585587D01*
X86109955Y-95795055D01*
X85983989Y-95983576D01*
X85823674Y-96143891D01*
X85635153Y-96269857D01*
X85425685Y-96356621D01*
X85203316Y-96400853D01*
X84976586Y-96400853D01*
X84754217Y-96356621D01*
X84544749Y-96269857D01*
X84356228Y-96143891D01*
X84195913Y-95983576D01*
X84069947Y-95795055D01*
X83983183Y-95585587D01*
X83938951Y-95363218D01*
X83938951Y-95136488D01*
X83983183Y-94914119D01*
X84069947Y-94704651D01*
X84195913Y-94516130D01*
X84356228Y-94355815D01*
X84544749Y-94229849D01*
X84754217Y-94143085D01*
X84976586Y-94098853D01*
X85203316Y-94098853D01*
X85425685Y-94143085D01*
X85425685Y-94143085D01*
G37*
G36*
X66375734Y-94143085D02*
X66585202Y-94229849D01*
X66773723Y-94355815D01*
X66934038Y-94516130D01*
X67060004Y-94704651D01*
X67146768Y-94914119D01*
X67191000Y-95136488D01*
X67191000Y-95363218D01*
X67146768Y-95585587D01*
X67060004Y-95795055D01*
X66934038Y-95983576D01*
X66773723Y-96143891D01*
X66585202Y-96269857D01*
X66375734Y-96356621D01*
X66153365Y-96400853D01*
X65926635Y-96400853D01*
X65704266Y-96356621D01*
X65494798Y-96269857D01*
X65306277Y-96143891D01*
X65145962Y-95983576D01*
X65019996Y-95795055D01*
X64933232Y-95585587D01*
X64889000Y-95363218D01*
X64889000Y-95136488D01*
X64933232Y-94914119D01*
X65019996Y-94704651D01*
X65145962Y-94516130D01*
X65306277Y-94355815D01*
X65494798Y-94229849D01*
X65704266Y-94143085D01*
X65926635Y-94098853D01*
X66153365Y-94098853D01*
X66375734Y-94143085D01*
X66375734Y-94143085D01*
G37*
G36*
X73335734Y-89623183D02*
X73545202Y-89709947D01*
X73733723Y-89835913D01*
X73894038Y-89996228D01*
X74020004Y-90184749D01*
X74106768Y-90394217D01*
X74151000Y-90616586D01*
X74151000Y-90843316D01*
X74106768Y-91065685D01*
X74020004Y-91275153D01*
X73894038Y-91463674D01*
X73733723Y-91623989D01*
X73545202Y-91749955D01*
X73335734Y-91836719D01*
X73113365Y-91880951D01*
X72886635Y-91880951D01*
X72664266Y-91836719D01*
X72454798Y-91749955D01*
X72266277Y-91623989D01*
X72105962Y-91463674D01*
X71979996Y-91275153D01*
X71893232Y-91065685D01*
X71849000Y-90843316D01*
X71849000Y-90616586D01*
X71893232Y-90394217D01*
X71979996Y-90184749D01*
X72105962Y-89996228D01*
X72266277Y-89835913D01*
X72454798Y-89709947D01*
X72664266Y-89623183D01*
X72886635Y-89578951D01*
X73113365Y-89578951D01*
X73335734Y-89623183D01*
X73335734Y-89623183D01*
G37*
G36*
X64098252Y-79307720D02*
X64098254Y-79307721D01*
X64098255Y-79307721D01*
X64471513Y-79462329D01*
X64802905Y-79683759D01*
X64807439Y-79686788D01*
X65093114Y-79972463D01*
X65093116Y-79972466D01*
X65317573Y-80308389D01*
X65472181Y-80681647D01*
X65551000Y-81077896D01*
X65551000Y-81481908D01*
X65472181Y-81878157D01*
X65317573Y-82251415D01*
X65317572Y-82251416D01*
X65093114Y-82587341D01*
X64807439Y-82873016D01*
X64807436Y-82873018D01*
X64471513Y-83097475D01*
X64098255Y-83252083D01*
X64098254Y-83252083D01*
X64098252Y-83252084D01*
X63702007Y-83330902D01*
X63297993Y-83330902D01*
X62901748Y-83252084D01*
X62901746Y-83252083D01*
X62901745Y-83252083D01*
X62528487Y-83097475D01*
X62192564Y-82873018D01*
X62192561Y-82873016D01*
X61906886Y-82587341D01*
X61682428Y-82251416D01*
X61682427Y-82251415D01*
X61527819Y-81878157D01*
X61449000Y-81481908D01*
X61449000Y-81077896D01*
X61527819Y-80681647D01*
X61682427Y-80308389D01*
X61906884Y-79972466D01*
X61906886Y-79972463D01*
X62192561Y-79686788D01*
X62197095Y-79683759D01*
X62528487Y-79462329D01*
X62901745Y-79307721D01*
X62901746Y-79307721D01*
X62901748Y-79307720D01*
X63297993Y-79228902D01*
X63702007Y-79228902D01*
X64098252Y-79307720D01*
X64098252Y-79307720D01*
G37*
G36*
X102198154Y-79307720D02*
X102198156Y-79307721D01*
X102198157Y-79307721D01*
X102571415Y-79462329D01*
X102902807Y-79683759D01*
X102907341Y-79686788D01*
X103193016Y-79972463D01*
X103193018Y-79972466D01*
X103417475Y-80308389D01*
X103572083Y-80681647D01*
X103650902Y-81077896D01*
X103650902Y-81481908D01*
X103572083Y-81878157D01*
X103417475Y-82251415D01*
X103417474Y-82251416D01*
X103193016Y-82587341D01*
X102907341Y-82873016D01*
X102907338Y-82873018D01*
X102571415Y-83097475D01*
X102198157Y-83252083D01*
X102198156Y-83252083D01*
X102198154Y-83252084D01*
X101801909Y-83330902D01*
X101397895Y-83330902D01*
X101001650Y-83252084D01*
X101001648Y-83252083D01*
X101001647Y-83252083D01*
X100628389Y-83097475D01*
X100292466Y-82873018D01*
X100292463Y-82873016D01*
X100006788Y-82587341D01*
X99782330Y-82251416D01*
X99782329Y-82251415D01*
X99627721Y-81878157D01*
X99548902Y-81481908D01*
X99548902Y-81077896D01*
X99627721Y-80681647D01*
X99782329Y-80308389D01*
X100006786Y-79972466D01*
X100006788Y-79972463D01*
X100292463Y-79686788D01*
X100296997Y-79683759D01*
X100628389Y-79462329D01*
X101001647Y-79307721D01*
X101001648Y-79307721D01*
X101001650Y-79307720D01*
X101397895Y-79228902D01*
X101801909Y-79228902D01*
X102198154Y-79307720D01*
X102198154Y-79307720D01*
G37*
G36*
X83148203Y-79307720D02*
X83148205Y-79307721D01*
X83148206Y-79307721D01*
X83521464Y-79462329D01*
X83852856Y-79683759D01*
X83857390Y-79686788D01*
X84143065Y-79972463D01*
X84143067Y-79972466D01*
X84367524Y-80308389D01*
X84522132Y-80681647D01*
X84600951Y-81077896D01*
X84600951Y-81481908D01*
X84522132Y-81878157D01*
X84367524Y-82251415D01*
X84367523Y-82251416D01*
X84143065Y-82587341D01*
X83857390Y-82873016D01*
X83857387Y-82873018D01*
X83521464Y-83097475D01*
X83148206Y-83252083D01*
X83148205Y-83252083D01*
X83148203Y-83252084D01*
X82751958Y-83330902D01*
X82347944Y-83330902D01*
X81951699Y-83252084D01*
X81951697Y-83252083D01*
X81951696Y-83252083D01*
X81578438Y-83097475D01*
X81242515Y-82873018D01*
X81242512Y-82873016D01*
X80956837Y-82587341D01*
X80732379Y-82251416D01*
X80732378Y-82251415D01*
X80577770Y-81878157D01*
X80498951Y-81481908D01*
X80498951Y-81077896D01*
X80577770Y-80681647D01*
X80732378Y-80308389D01*
X80956835Y-79972466D01*
X80956837Y-79972463D01*
X81242512Y-79686788D01*
X81247046Y-79683759D01*
X81578438Y-79462329D01*
X81951696Y-79307721D01*
X81951697Y-79307721D01*
X81951699Y-79307720D01*
X82347944Y-79228902D01*
X82751958Y-79228902D01*
X83148203Y-79307720D01*
X83148203Y-79307720D01*
G37*
G36*
X45048301Y-79307720D02*
X45048303Y-79307721D01*
X45048304Y-79307721D01*
X45421562Y-79462329D01*
X45752954Y-79683759D01*
X45757488Y-79686788D01*
X46043163Y-79972463D01*
X46043165Y-79972466D01*
X46267622Y-80308389D01*
X46422230Y-80681647D01*
X46501049Y-81077896D01*
X46501049Y-81481908D01*
X46422230Y-81878157D01*
X46267622Y-82251415D01*
X46267621Y-82251416D01*
X46043163Y-82587341D01*
X45757488Y-82873016D01*
X45757485Y-82873018D01*
X45421562Y-83097475D01*
X45048304Y-83252083D01*
X45048303Y-83252083D01*
X45048301Y-83252084D01*
X44652056Y-83330902D01*
X44248042Y-83330902D01*
X43851797Y-83252084D01*
X43851795Y-83252083D01*
X43851794Y-83252083D01*
X43478536Y-83097475D01*
X43142613Y-82873018D01*
X43142610Y-82873016D01*
X42856935Y-82587341D01*
X42632477Y-82251416D01*
X42632476Y-82251415D01*
X42477868Y-81878157D01*
X42399049Y-81481908D01*
X42399049Y-81077896D01*
X42477868Y-80681647D01*
X42632476Y-80308389D01*
X42856933Y-79972466D01*
X42856935Y-79972463D01*
X43142610Y-79686788D01*
X43147144Y-79683759D01*
X43478536Y-79462329D01*
X43851794Y-79307721D01*
X43851795Y-79307721D01*
X43851797Y-79307720D01*
X44248042Y-79228902D01*
X44652056Y-79228902D01*
X45048301Y-79307720D01*
X45048301Y-79307720D01*
G37*
G36*
X73588677Y-79133416D02*
X73626364Y-79144849D01*
X73661103Y-79163417D01*
X73691548Y-79188403D01*
X73716534Y-79218848D01*
X73735102Y-79253587D01*
X73746535Y-79291274D01*
X73751000Y-79336612D01*
X73751000Y-80173290D01*
X73746535Y-80218628D01*
X73735102Y-80256315D01*
X73716534Y-80291054D01*
X73691548Y-80321499D01*
X73661103Y-80346485D01*
X73626364Y-80365053D01*
X73588677Y-80376486D01*
X73543339Y-80380951D01*
X72456661Y-80380951D01*
X72411323Y-80376486D01*
X72373636Y-80365053D01*
X72338897Y-80346485D01*
X72308452Y-80321499D01*
X72283466Y-80291054D01*
X72264898Y-80256315D01*
X72253465Y-80218628D01*
X72249000Y-80173290D01*
X72249000Y-79336612D01*
X72253465Y-79291274D01*
X72264898Y-79253587D01*
X72283466Y-79218848D01*
X72308452Y-79188403D01*
X72338897Y-79163417D01*
X72373636Y-79144849D01*
X72411323Y-79133416D01*
X72456661Y-79128951D01*
X73543339Y-79128951D01*
X73588677Y-79133416D01*
X73588677Y-79133416D01*
G37*
G36*
X76088677Y-79133416D02*
X76126364Y-79144849D01*
X76161103Y-79163417D01*
X76191548Y-79188403D01*
X76216534Y-79218848D01*
X76235102Y-79253587D01*
X76246535Y-79291274D01*
X76251000Y-79336612D01*
X76251000Y-80173290D01*
X76246535Y-80218628D01*
X76235102Y-80256315D01*
X76216534Y-80291054D01*
X76191548Y-80321499D01*
X76161103Y-80346485D01*
X76126364Y-80365053D01*
X76088677Y-80376486D01*
X76043339Y-80380951D01*
X74956661Y-80380951D01*
X74911323Y-80376486D01*
X74873636Y-80365053D01*
X74838897Y-80346485D01*
X74808452Y-80321499D01*
X74783466Y-80291054D01*
X74764898Y-80256315D01*
X74753465Y-80218628D01*
X74749000Y-80173290D01*
X74749000Y-79336612D01*
X74753465Y-79291274D01*
X74764898Y-79253587D01*
X74783466Y-79218848D01*
X74808452Y-79188403D01*
X74838897Y-79163417D01*
X74873636Y-79144849D01*
X74911323Y-79133416D01*
X74956661Y-79128951D01*
X76043339Y-79128951D01*
X76088677Y-79133416D01*
X76088677Y-79133416D01*
G37*
G36*
X60025734Y-77633134D02*
X60235202Y-77719898D01*
X60423723Y-77845864D01*
X60584038Y-78006179D01*
X60710004Y-78194700D01*
X60796768Y-78404168D01*
X60841000Y-78626537D01*
X60841000Y-78853267D01*
X60796768Y-79075636D01*
X60710004Y-79285104D01*
X60584038Y-79473625D01*
X60423723Y-79633940D01*
X60235202Y-79759906D01*
X60025734Y-79846670D01*
X59803365Y-79890902D01*
X59576635Y-79890902D01*
X59354266Y-79846670D01*
X59144798Y-79759906D01*
X58956277Y-79633940D01*
X58795962Y-79473625D01*
X58669996Y-79285104D01*
X58583232Y-79075636D01*
X58539000Y-78853267D01*
X58539000Y-78626537D01*
X58583232Y-78404168D01*
X58669996Y-78194700D01*
X58795962Y-78006179D01*
X58956277Y-77845864D01*
X59144798Y-77719898D01*
X59354266Y-77633134D01*
X59576635Y-77588902D01*
X59803365Y-77588902D01*
X60025734Y-77633134D01*
X60025734Y-77633134D01*
G37*
G36*
X98125636Y-77633134D02*
X98335104Y-77719898D01*
X98523625Y-77845864D01*
X98683940Y-78006179D01*
X98809906Y-78194700D01*
X98896670Y-78404168D01*
X98940902Y-78626537D01*
X98940902Y-78853267D01*
X98896670Y-79075636D01*
X98809906Y-79285104D01*
X98683940Y-79473625D01*
X98523625Y-79633940D01*
X98335104Y-79759906D01*
X98125636Y-79846670D01*
X97903267Y-79890902D01*
X97676537Y-79890902D01*
X97454168Y-79846670D01*
X97244700Y-79759906D01*
X97056179Y-79633940D01*
X96895864Y-79473625D01*
X96769898Y-79285104D01*
X96683134Y-79075636D01*
X96638902Y-78853267D01*
X96638902Y-78626537D01*
X96683134Y-78404168D01*
X96769898Y-78194700D01*
X96895864Y-78006179D01*
X97056179Y-77845864D01*
X97244700Y-77719898D01*
X97454168Y-77633134D01*
X97676537Y-77588902D01*
X97903267Y-77588902D01*
X98125636Y-77633134D01*
X98125636Y-77633134D01*
G37*
G36*
X79075685Y-77633134D02*
X79285153Y-77719898D01*
X79473674Y-77845864D01*
X79633989Y-78006179D01*
X79759955Y-78194700D01*
X79846719Y-78404168D01*
X79890951Y-78626537D01*
X79890951Y-78853267D01*
X79846719Y-79075636D01*
X79759955Y-79285104D01*
X79633989Y-79473625D01*
X79473674Y-79633940D01*
X79285153Y-79759906D01*
X79075685Y-79846670D01*
X78853316Y-79890902D01*
X78626586Y-79890902D01*
X78404217Y-79846670D01*
X78194749Y-79759906D01*
X78006228Y-79633940D01*
X77845913Y-79473625D01*
X77719947Y-79285104D01*
X77633183Y-79075636D01*
X77588951Y-78853267D01*
X77588951Y-78626537D01*
X77633183Y-78404168D01*
X77719947Y-78194700D01*
X77845913Y-78006179D01*
X78006228Y-77845864D01*
X78194749Y-77719898D01*
X78404217Y-77633134D01*
X78626586Y-77588902D01*
X78853316Y-77588902D01*
X79075685Y-77633134D01*
X79075685Y-77633134D01*
G37*
G36*
X40975783Y-77633134D02*
X41185251Y-77719898D01*
X41373772Y-77845864D01*
X41534087Y-78006179D01*
X41660053Y-78194700D01*
X41746817Y-78404168D01*
X41791049Y-78626537D01*
X41791049Y-78853267D01*
X41746817Y-79075636D01*
X41660053Y-79285104D01*
X41534087Y-79473625D01*
X41373772Y-79633940D01*
X41185251Y-79759906D01*
X40975783Y-79846670D01*
X40753414Y-79890902D01*
X40526684Y-79890902D01*
X40304315Y-79846670D01*
X40094847Y-79759906D01*
X39906326Y-79633940D01*
X39746011Y-79473625D01*
X39620045Y-79285104D01*
X39533281Y-79075636D01*
X39489049Y-78853267D01*
X39489049Y-78626537D01*
X39533281Y-78404168D01*
X39620045Y-78194700D01*
X39746011Y-78006179D01*
X39906326Y-77845864D01*
X40094847Y-77719898D01*
X40304315Y-77633134D01*
X40526684Y-77588902D01*
X40753414Y-77588902D01*
X40975783Y-77633134D01*
X40975783Y-77633134D01*
G37*
G36*
X76088677Y-77083416D02*
X76126364Y-77094849D01*
X76161103Y-77113417D01*
X76191548Y-77138403D01*
X76216534Y-77168848D01*
X76235102Y-77203587D01*
X76246535Y-77241274D01*
X76251000Y-77286612D01*
X76251000Y-78123290D01*
X76246535Y-78168628D01*
X76235102Y-78206315D01*
X76216534Y-78241054D01*
X76191548Y-78271499D01*
X76161103Y-78296485D01*
X76126364Y-78315053D01*
X76088677Y-78326486D01*
X76043339Y-78330951D01*
X74956661Y-78330951D01*
X74911323Y-78326486D01*
X74873636Y-78315053D01*
X74838897Y-78296485D01*
X74808452Y-78271499D01*
X74783466Y-78241054D01*
X74764898Y-78206315D01*
X74753465Y-78168628D01*
X74749000Y-78123290D01*
X74749000Y-77286612D01*
X74753465Y-77241274D01*
X74764898Y-77203587D01*
X74783466Y-77168848D01*
X74808452Y-77138403D01*
X74838897Y-77113417D01*
X74873636Y-77094849D01*
X74911323Y-77083416D01*
X74956661Y-77078951D01*
X76043339Y-77078951D01*
X76088677Y-77083416D01*
X76088677Y-77083416D01*
G37*
G36*
X73588677Y-77083416D02*
X73626364Y-77094849D01*
X73661103Y-77113417D01*
X73691548Y-77138403D01*
X73716534Y-77168848D01*
X73735102Y-77203587D01*
X73746535Y-77241274D01*
X73751000Y-77286612D01*
X73751000Y-78123290D01*
X73746535Y-78168628D01*
X73735102Y-78206315D01*
X73716534Y-78241054D01*
X73691548Y-78271499D01*
X73661103Y-78296485D01*
X73626364Y-78315053D01*
X73588677Y-78326486D01*
X73543339Y-78330951D01*
X72456661Y-78330951D01*
X72411323Y-78326486D01*
X72373636Y-78315053D01*
X72338897Y-78296485D01*
X72308452Y-78271499D01*
X72283466Y-78241054D01*
X72264898Y-78206315D01*
X72253465Y-78168628D01*
X72249000Y-78123290D01*
X72249000Y-77286612D01*
X72253465Y-77241274D01*
X72264898Y-77203587D01*
X72283466Y-77168848D01*
X72308452Y-77138403D01*
X72338897Y-77113417D01*
X72373636Y-77094849D01*
X72411323Y-77083416D01*
X72456661Y-77078951D01*
X73543339Y-77078951D01*
X73588677Y-77083416D01*
X73588677Y-77083416D01*
G37*
G36*
X104475636Y-75093134D02*
X104685104Y-75179898D01*
X104873625Y-75305864D01*
X105033940Y-75466179D01*
X105159906Y-75654700D01*
X105246670Y-75864168D01*
X105290902Y-76086537D01*
X105290902Y-76313267D01*
X105246670Y-76535636D01*
X105159906Y-76745104D01*
X105033940Y-76933625D01*
X104873625Y-77093940D01*
X104685104Y-77219906D01*
X104475636Y-77306670D01*
X104253267Y-77350902D01*
X104026537Y-77350902D01*
X103804168Y-77306670D01*
X103594700Y-77219906D01*
X103406179Y-77093940D01*
X103245864Y-76933625D01*
X103119898Y-76745104D01*
X103033134Y-76535636D01*
X102988902Y-76313267D01*
X102988902Y-76086537D01*
X103033134Y-75864168D01*
X103119898Y-75654700D01*
X103245864Y-75466179D01*
X103406179Y-75305864D01*
X103594700Y-75179898D01*
X103804168Y-75093134D01*
X104026537Y-75048902D01*
X104253267Y-75048902D01*
X104475636Y-75093134D01*
X104475636Y-75093134D01*
G37*
G36*
X66375734Y-75093134D02*
X66585202Y-75179898D01*
X66773723Y-75305864D01*
X66934038Y-75466179D01*
X67060004Y-75654700D01*
X67146768Y-75864168D01*
X67191000Y-76086537D01*
X67191000Y-76313267D01*
X67146768Y-76535636D01*
X67060004Y-76745104D01*
X66934038Y-76933625D01*
X66773723Y-77093940D01*
X66585202Y-77219906D01*
X66375734Y-77306670D01*
X66153365Y-77350902D01*
X65926635Y-77350902D01*
X65704266Y-77306670D01*
X65494798Y-77219906D01*
X65306277Y-77093940D01*
X65145962Y-76933625D01*
X65019996Y-76745104D01*
X64933232Y-76535636D01*
X64889000Y-76313267D01*
X64889000Y-76086537D01*
X64933232Y-75864168D01*
X65019996Y-75654700D01*
X65145962Y-75466179D01*
X65306277Y-75305864D01*
X65494798Y-75179898D01*
X65704266Y-75093134D01*
X65926635Y-75048902D01*
X66153365Y-75048902D01*
X66375734Y-75093134D01*
X66375734Y-75093134D01*
G37*
G36*
X85425685Y-75093134D02*
X85635153Y-75179898D01*
X85823674Y-75305864D01*
X85983989Y-75466179D01*
X86109955Y-75654700D01*
X86196719Y-75864168D01*
X86240951Y-76086537D01*
X86240951Y-76313267D01*
X86196719Y-76535636D01*
X86109955Y-76745104D01*
X85983989Y-76933625D01*
X85823674Y-77093940D01*
X85635153Y-77219906D01*
X85425685Y-77306670D01*
X85203316Y-77350902D01*
X84976586Y-77350902D01*
X84754217Y-77306670D01*
X84544749Y-77219906D01*
X84356228Y-77093940D01*
X84195913Y-76933625D01*
X84069947Y-76745104D01*
X83983183Y-76535636D01*
X83938951Y-76313267D01*
X83938951Y-76086537D01*
X83983183Y-75864168D01*
X84069947Y-75654700D01*
X84195913Y-75466179D01*
X84356228Y-75305864D01*
X84544749Y-75179898D01*
X84754217Y-75093134D01*
X84976586Y-75048902D01*
X85203316Y-75048902D01*
X85425685Y-75093134D01*
X85425685Y-75093134D01*
G37*
G36*
X47325783Y-75093134D02*
X47535251Y-75179898D01*
X47723772Y-75305864D01*
X47884087Y-75466179D01*
X48010053Y-75654700D01*
X48096817Y-75864168D01*
X48141049Y-76086537D01*
X48141049Y-76313267D01*
X48096817Y-76535636D01*
X48010053Y-76745104D01*
X47884087Y-76933625D01*
X47723772Y-77093940D01*
X47535251Y-77219906D01*
X47325783Y-77306670D01*
X47103414Y-77350902D01*
X46876684Y-77350902D01*
X46654315Y-77306670D01*
X46444847Y-77219906D01*
X46256326Y-77093940D01*
X46096011Y-76933625D01*
X45970045Y-76745104D01*
X45883281Y-76535636D01*
X45839049Y-76313267D01*
X45839049Y-76086537D01*
X45883281Y-75864168D01*
X45970045Y-75654700D01*
X46096011Y-75466179D01*
X46256326Y-75305864D01*
X46444847Y-75179898D01*
X46654315Y-75093134D01*
X46876684Y-75048902D01*
X47103414Y-75048902D01*
X47325783Y-75093134D01*
X47325783Y-75093134D01*
G37*
G36*
X76651000Y-75130951D02*
X70349000Y-75130951D01*
X70349000Y-73828951D01*
X76651000Y-73828951D01*
X76651000Y-75130951D01*
X76651000Y-75130951D01*
G37*
G36*
X78401000Y-73380951D02*
X77099000Y-73380951D01*
X77099000Y-67078951D01*
X78401000Y-67078951D01*
X78401000Y-73380951D01*
X78401000Y-73380951D01*
G37*
G36*
X69901000Y-73380951D02*
X68599000Y-73380951D01*
X68599000Y-67078951D01*
X69901000Y-67078951D01*
X69901000Y-73380951D01*
X69901000Y-73380951D01*
G37*
G36*
X76651000Y-66630951D02*
X70349000Y-66630951D01*
X70349000Y-65328951D01*
X76651000Y-65328951D01*
X76651000Y-66630951D01*
X76651000Y-66630951D01*
G37*
G36*
X69088677Y-63133416D02*
X69126364Y-63144849D01*
X69161103Y-63163417D01*
X69191548Y-63188403D01*
X69216534Y-63218848D01*
X69235102Y-63253587D01*
X69246535Y-63291274D01*
X69251000Y-63336612D01*
X69251000Y-64173290D01*
X69246535Y-64218628D01*
X69235102Y-64256315D01*
X69216534Y-64291054D01*
X69191548Y-64321499D01*
X69161103Y-64346485D01*
X69126364Y-64365053D01*
X69088677Y-64376486D01*
X69043339Y-64380951D01*
X67956661Y-64380951D01*
X67911323Y-64376486D01*
X67873636Y-64365053D01*
X67838897Y-64346485D01*
X67808452Y-64321499D01*
X67783466Y-64291054D01*
X67764898Y-64256315D01*
X67753465Y-64218628D01*
X67749000Y-64173290D01*
X67749000Y-63336612D01*
X67753465Y-63291274D01*
X67764898Y-63253587D01*
X67783466Y-63218848D01*
X67808452Y-63188403D01*
X67838897Y-63163417D01*
X67873636Y-63144849D01*
X67911323Y-63133416D01*
X67956661Y-63128951D01*
X69043339Y-63128951D01*
X69088677Y-63133416D01*
X69088677Y-63133416D01*
G37*
G36*
X64098252Y-60257769D02*
X64098254Y-60257770D01*
X64098255Y-60257770D01*
X64471513Y-60412378D01*
X64802905Y-60633808D01*
X64807439Y-60636837D01*
X65093114Y-60922512D01*
X65093116Y-60922515D01*
X65317573Y-61258438D01*
X65472181Y-61631696D01*
X65551000Y-62027945D01*
X65551000Y-62431957D01*
X65472181Y-62828206D01*
X65317573Y-63201464D01*
X65305957Y-63218848D01*
X65093114Y-63537390D01*
X64807439Y-63823065D01*
X64807436Y-63823067D01*
X64471513Y-64047524D01*
X64098255Y-64202132D01*
X64098254Y-64202132D01*
X64098252Y-64202133D01*
X63702007Y-64280951D01*
X63297993Y-64280951D01*
X62901748Y-64202133D01*
X62901746Y-64202132D01*
X62901745Y-64202132D01*
X62528487Y-64047524D01*
X62192564Y-63823067D01*
X62192561Y-63823065D01*
X61906886Y-63537390D01*
X61694043Y-63218848D01*
X61682427Y-63201464D01*
X61527819Y-62828206D01*
X61449000Y-62431957D01*
X61449000Y-62027945D01*
X61527819Y-61631696D01*
X61682427Y-61258438D01*
X61906884Y-60922515D01*
X61906886Y-60922512D01*
X62192561Y-60636837D01*
X62197095Y-60633808D01*
X62528487Y-60412378D01*
X62901745Y-60257770D01*
X62901746Y-60257770D01*
X62901748Y-60257769D01*
X63297993Y-60178951D01*
X63702007Y-60178951D01*
X64098252Y-60257769D01*
X64098252Y-60257769D01*
G37*
G36*
X45048301Y-60257769D02*
X45048303Y-60257770D01*
X45048304Y-60257770D01*
X45421562Y-60412378D01*
X45752954Y-60633808D01*
X45757488Y-60636837D01*
X46043163Y-60922512D01*
X46043165Y-60922515D01*
X46267622Y-61258438D01*
X46422230Y-61631696D01*
X46501049Y-62027945D01*
X46501049Y-62431957D01*
X46422230Y-62828206D01*
X46267622Y-63201464D01*
X46256006Y-63218848D01*
X46043163Y-63537390D01*
X45757488Y-63823065D01*
X45757485Y-63823067D01*
X45421562Y-64047524D01*
X45048304Y-64202132D01*
X45048303Y-64202132D01*
X45048301Y-64202133D01*
X44652056Y-64280951D01*
X44248042Y-64280951D01*
X43851797Y-64202133D01*
X43851795Y-64202132D01*
X43851794Y-64202132D01*
X43478536Y-64047524D01*
X43142613Y-63823067D01*
X43142610Y-63823065D01*
X42856935Y-63537390D01*
X42644092Y-63218848D01*
X42632476Y-63201464D01*
X42477868Y-62828206D01*
X42399049Y-62431957D01*
X42399049Y-62027945D01*
X42477868Y-61631696D01*
X42632476Y-61258438D01*
X42856933Y-60922515D01*
X42856935Y-60922512D01*
X43142610Y-60636837D01*
X43147144Y-60633808D01*
X43478536Y-60412378D01*
X43851794Y-60257770D01*
X43851795Y-60257770D01*
X43851797Y-60257769D01*
X44248042Y-60178951D01*
X44652056Y-60178951D01*
X45048301Y-60257769D01*
X45048301Y-60257769D01*
G37*
G36*
X102198154Y-60257769D02*
X102198156Y-60257770D01*
X102198157Y-60257770D01*
X102571415Y-60412378D01*
X102902807Y-60633808D01*
X102907341Y-60636837D01*
X103193016Y-60922512D01*
X103193018Y-60922515D01*
X103417475Y-61258438D01*
X103572083Y-61631696D01*
X103650902Y-62027945D01*
X103650902Y-62431957D01*
X103572083Y-62828206D01*
X103417475Y-63201464D01*
X103405859Y-63218848D01*
X103193016Y-63537390D01*
X102907341Y-63823065D01*
X102907338Y-63823067D01*
X102571415Y-64047524D01*
X102198157Y-64202132D01*
X102198156Y-64202132D01*
X102198154Y-64202133D01*
X101801909Y-64280951D01*
X101397895Y-64280951D01*
X101001650Y-64202133D01*
X101001648Y-64202132D01*
X101001647Y-64202132D01*
X100628389Y-64047524D01*
X100292466Y-63823067D01*
X100292463Y-63823065D01*
X100006788Y-63537390D01*
X99793945Y-63218848D01*
X99782329Y-63201464D01*
X99627721Y-62828206D01*
X99548902Y-62431957D01*
X99548902Y-62027945D01*
X99627721Y-61631696D01*
X99782329Y-61258438D01*
X100006786Y-60922515D01*
X100006788Y-60922512D01*
X100292463Y-60636837D01*
X100296997Y-60633808D01*
X100628389Y-60412378D01*
X101001647Y-60257770D01*
X101001648Y-60257770D01*
X101001650Y-60257769D01*
X101397895Y-60178951D01*
X101801909Y-60178951D01*
X102198154Y-60257769D01*
X102198154Y-60257769D01*
G37*
G36*
X83148203Y-60257769D02*
X83148205Y-60257770D01*
X83148206Y-60257770D01*
X83521464Y-60412378D01*
X83852856Y-60633808D01*
X83857390Y-60636837D01*
X84143065Y-60922512D01*
X84143067Y-60922515D01*
X84367524Y-61258438D01*
X84522132Y-61631696D01*
X84600951Y-62027945D01*
X84600951Y-62431957D01*
X84522132Y-62828206D01*
X84367524Y-63201464D01*
X84355908Y-63218848D01*
X84143065Y-63537390D01*
X83857390Y-63823065D01*
X83857387Y-63823067D01*
X83521464Y-64047524D01*
X83148206Y-64202132D01*
X83148205Y-64202132D01*
X83148203Y-64202133D01*
X82751958Y-64280951D01*
X82347944Y-64280951D01*
X81951699Y-64202133D01*
X81951697Y-64202132D01*
X81951696Y-64202132D01*
X81578438Y-64047524D01*
X81242515Y-63823067D01*
X81242512Y-63823065D01*
X80956837Y-63537390D01*
X80743994Y-63218848D01*
X80732378Y-63201464D01*
X80577770Y-62828206D01*
X80498951Y-62431957D01*
X80498951Y-62027945D01*
X80577770Y-61631696D01*
X80732378Y-61258438D01*
X80956835Y-60922515D01*
X80956837Y-60922512D01*
X81242512Y-60636837D01*
X81247046Y-60633808D01*
X81578438Y-60412378D01*
X81951696Y-60257770D01*
X81951697Y-60257770D01*
X81951699Y-60257769D01*
X82347944Y-60178951D01*
X82751958Y-60178951D01*
X83148203Y-60257769D01*
X83148203Y-60257769D01*
G37*
G36*
X69088677Y-61083416D02*
X69126364Y-61094849D01*
X69161103Y-61113417D01*
X69191548Y-61138403D01*
X69216534Y-61168848D01*
X69235102Y-61203587D01*
X69246535Y-61241274D01*
X69251000Y-61286612D01*
X69251000Y-62123290D01*
X69246535Y-62168628D01*
X69235102Y-62206315D01*
X69216534Y-62241054D01*
X69191548Y-62271499D01*
X69161103Y-62296485D01*
X69126364Y-62315053D01*
X69088677Y-62326486D01*
X69043339Y-62330951D01*
X67956661Y-62330951D01*
X67911323Y-62326486D01*
X67873636Y-62315053D01*
X67838897Y-62296485D01*
X67808452Y-62271499D01*
X67783466Y-62241054D01*
X67764898Y-62206315D01*
X67753465Y-62168628D01*
X67749000Y-62123290D01*
X67749000Y-61286612D01*
X67753465Y-61241274D01*
X67764898Y-61203587D01*
X67783466Y-61168848D01*
X67808452Y-61138403D01*
X67838897Y-61113417D01*
X67873636Y-61094849D01*
X67911323Y-61083416D01*
X67956661Y-61078951D01*
X69043339Y-61078951D01*
X69088677Y-61083416D01*
X69088677Y-61083416D01*
G37*
G36*
X98125636Y-58583183D02*
X98335104Y-58669947D01*
X98523625Y-58795913D01*
X98683940Y-58956228D01*
X98809906Y-59144749D01*
X98896670Y-59354217D01*
X98940902Y-59576586D01*
X98940902Y-59803316D01*
X98896670Y-60025685D01*
X98809906Y-60235153D01*
X98683940Y-60423674D01*
X98523625Y-60583989D01*
X98335104Y-60709955D01*
X98125636Y-60796719D01*
X97903267Y-60840951D01*
X97676537Y-60840951D01*
X97454168Y-60796719D01*
X97244700Y-60709955D01*
X97056179Y-60583989D01*
X96895864Y-60423674D01*
X96769898Y-60235153D01*
X96683134Y-60025685D01*
X96638902Y-59803316D01*
X96638902Y-59576586D01*
X96683134Y-59354217D01*
X96769898Y-59144749D01*
X96895864Y-58956228D01*
X97056179Y-58795913D01*
X97244700Y-58669947D01*
X97454168Y-58583183D01*
X97676537Y-58538951D01*
X97903267Y-58538951D01*
X98125636Y-58583183D01*
X98125636Y-58583183D01*
G37*
G36*
X79075685Y-58583183D02*
X79285153Y-58669947D01*
X79473674Y-58795913D01*
X79633989Y-58956228D01*
X79759955Y-59144749D01*
X79846719Y-59354217D01*
X79890951Y-59576586D01*
X79890951Y-59803316D01*
X79846719Y-60025685D01*
X79759955Y-60235153D01*
X79633989Y-60423674D01*
X79473674Y-60583989D01*
X79285153Y-60709955D01*
X79075685Y-60796719D01*
X78853316Y-60840951D01*
X78626586Y-60840951D01*
X78404217Y-60796719D01*
X78194749Y-60709955D01*
X78006228Y-60583989D01*
X77845913Y-60423674D01*
X77719947Y-60235153D01*
X77633183Y-60025685D01*
X77588951Y-59803316D01*
X77588951Y-59576586D01*
X77633183Y-59354217D01*
X77719947Y-59144749D01*
X77845913Y-58956228D01*
X78006228Y-58795913D01*
X78194749Y-58669947D01*
X78404217Y-58583183D01*
X78626586Y-58538951D01*
X78853316Y-58538951D01*
X79075685Y-58583183D01*
X79075685Y-58583183D01*
G37*
G36*
X60025734Y-58583183D02*
X60235202Y-58669947D01*
X60423723Y-58795913D01*
X60584038Y-58956228D01*
X60710004Y-59144749D01*
X60796768Y-59354217D01*
X60841000Y-59576586D01*
X60841000Y-59803316D01*
X60796768Y-60025685D01*
X60710004Y-60235153D01*
X60584038Y-60423674D01*
X60423723Y-60583989D01*
X60235202Y-60709955D01*
X60025734Y-60796719D01*
X59803365Y-60840951D01*
X59576635Y-60840951D01*
X59354266Y-60796719D01*
X59144798Y-60709955D01*
X58956277Y-60583989D01*
X58795962Y-60423674D01*
X58669996Y-60235153D01*
X58583232Y-60025685D01*
X58539000Y-59803316D01*
X58539000Y-59576586D01*
X58583232Y-59354217D01*
X58669996Y-59144749D01*
X58795962Y-58956228D01*
X58956277Y-58795913D01*
X59144798Y-58669947D01*
X59354266Y-58583183D01*
X59576635Y-58538951D01*
X59803365Y-58538951D01*
X60025734Y-58583183D01*
X60025734Y-58583183D01*
G37*
G36*
X40975783Y-58583183D02*
X41185251Y-58669947D01*
X41373772Y-58795913D01*
X41534087Y-58956228D01*
X41660053Y-59144749D01*
X41746817Y-59354217D01*
X41791049Y-59576586D01*
X41791049Y-59803316D01*
X41746817Y-60025685D01*
X41660053Y-60235153D01*
X41534087Y-60423674D01*
X41373772Y-60583989D01*
X41185251Y-60709955D01*
X40975783Y-60796719D01*
X40753414Y-60840951D01*
X40526684Y-60840951D01*
X40304315Y-60796719D01*
X40094847Y-60709955D01*
X39906326Y-60583989D01*
X39746011Y-60423674D01*
X39620045Y-60235153D01*
X39533281Y-60025685D01*
X39489049Y-59803316D01*
X39489049Y-59576586D01*
X39533281Y-59354217D01*
X39620045Y-59144749D01*
X39746011Y-58956228D01*
X39906326Y-58795913D01*
X40094847Y-58669947D01*
X40304315Y-58583183D01*
X40526684Y-58538951D01*
X40753414Y-58538951D01*
X40975783Y-58583183D01*
X40975783Y-58583183D01*
G37*
G36*
X104475636Y-56043183D02*
X104685104Y-56129947D01*
X104873625Y-56255913D01*
X105033940Y-56416228D01*
X105159906Y-56604749D01*
X105246670Y-56814217D01*
X105290902Y-57036586D01*
X105290902Y-57263316D01*
X105246670Y-57485685D01*
X105159906Y-57695153D01*
X105033940Y-57883674D01*
X104873625Y-58043989D01*
X104685104Y-58169955D01*
X104475636Y-58256719D01*
X104253267Y-58300951D01*
X104026537Y-58300951D01*
X103804168Y-58256719D01*
X103594700Y-58169955D01*
X103406179Y-58043989D01*
X103245864Y-57883674D01*
X103119898Y-57695153D01*
X103033134Y-57485685D01*
X102988902Y-57263316D01*
X102988902Y-57036586D01*
X103033134Y-56814217D01*
X103119898Y-56604749D01*
X103245864Y-56416228D01*
X103406179Y-56255913D01*
X103594700Y-56129947D01*
X103804168Y-56043183D01*
X104026537Y-55998951D01*
X104253267Y-55998951D01*
X104475636Y-56043183D01*
X104475636Y-56043183D01*
G37*
G36*
X66375734Y-56043183D02*
X66585202Y-56129947D01*
X66773723Y-56255913D01*
X66934038Y-56416228D01*
X67060004Y-56604749D01*
X67146768Y-56814217D01*
X67191000Y-57036586D01*
X67191000Y-57263316D01*
X67146768Y-57485685D01*
X67060004Y-57695153D01*
X66934038Y-57883674D01*
X66773723Y-58043989D01*
X66585202Y-58169955D01*
X66375734Y-58256719D01*
X66153365Y-58300951D01*
X65926635Y-58300951D01*
X65704266Y-58256719D01*
X65494798Y-58169955D01*
X65306277Y-58043989D01*
X65145962Y-57883674D01*
X65019996Y-57695153D01*
X64933232Y-57485685D01*
X64889000Y-57263316D01*
X64889000Y-57036586D01*
X64933232Y-56814217D01*
X65019996Y-56604749D01*
X65145962Y-56416228D01*
X65306277Y-56255913D01*
X65494798Y-56129947D01*
X65704266Y-56043183D01*
X65926635Y-55998951D01*
X66153365Y-55998951D01*
X66375734Y-56043183D01*
X66375734Y-56043183D01*
G37*
G36*
X85425685Y-56043183D02*
X85635153Y-56129947D01*
X85823674Y-56255913D01*
X85983989Y-56416228D01*
X86109955Y-56604749D01*
X86196719Y-56814217D01*
X86240951Y-57036586D01*
X86240951Y-57263316D01*
X86196719Y-57485685D01*
X86109955Y-57695153D01*
X85983989Y-57883674D01*
X85823674Y-58043989D01*
X85635153Y-58169955D01*
X85425685Y-58256719D01*
X85203316Y-58300951D01*
X84976586Y-58300951D01*
X84754217Y-58256719D01*
X84544749Y-58169955D01*
X84356228Y-58043989D01*
X84195913Y-57883674D01*
X84069947Y-57695153D01*
X83983183Y-57485685D01*
X83938951Y-57263316D01*
X83938951Y-57036586D01*
X83983183Y-56814217D01*
X84069947Y-56604749D01*
X84195913Y-56416228D01*
X84356228Y-56255913D01*
X84544749Y-56129947D01*
X84754217Y-56043183D01*
X84976586Y-55998951D01*
X85203316Y-55998951D01*
X85425685Y-56043183D01*
X85425685Y-56043183D01*
G37*
G36*
X47325783Y-56043183D02*
X47535251Y-56129947D01*
X47723772Y-56255913D01*
X47884087Y-56416228D01*
X48010053Y-56604749D01*
X48096817Y-56814217D01*
X48141049Y-57036586D01*
X48141049Y-57263316D01*
X48096817Y-57485685D01*
X48010053Y-57695153D01*
X47884087Y-57883674D01*
X47723772Y-58043989D01*
X47535251Y-58169955D01*
X47325783Y-58256719D01*
X47103414Y-58300951D01*
X46876684Y-58300951D01*
X46654315Y-58256719D01*
X46444847Y-58169955D01*
X46256326Y-58043989D01*
X46096011Y-57883674D01*
X45970045Y-57695153D01*
X45883281Y-57485685D01*
X45839049Y-57263316D01*
X45839049Y-57036586D01*
X45883281Y-56814217D01*
X45970045Y-56604749D01*
X46096011Y-56416228D01*
X46256326Y-56255913D01*
X46444847Y-56129947D01*
X46654315Y-56043183D01*
X46876684Y-55998951D01*
X47103414Y-55998951D01*
X47325783Y-56043183D01*
X47325783Y-56043183D01*
G37*
G36*
X74951000Y-56930951D02*
X71049000Y-56930951D01*
X71049000Y-54828951D01*
X74951000Y-54828951D01*
X74951000Y-56930951D01*
X74951000Y-56930951D01*
G37*
G36*
X59438677Y-52733416D02*
X59476364Y-52744849D01*
X59511103Y-52763417D01*
X59541548Y-52788403D01*
X59566534Y-52818848D01*
X59585102Y-52853587D01*
X59596535Y-52891274D01*
X59601000Y-52936612D01*
X59601000Y-54023290D01*
X59596535Y-54068628D01*
X59585102Y-54106315D01*
X59566534Y-54141054D01*
X59541548Y-54171499D01*
X59511103Y-54196485D01*
X59476364Y-54215053D01*
X59438677Y-54226486D01*
X59393339Y-54230951D01*
X58556661Y-54230951D01*
X58511323Y-54226486D01*
X58473636Y-54215053D01*
X58438897Y-54196485D01*
X58408452Y-54171499D01*
X58383466Y-54141054D01*
X58364898Y-54106315D01*
X58353465Y-54068628D01*
X58349000Y-54023290D01*
X58349000Y-52936612D01*
X58353465Y-52891274D01*
X58364898Y-52853587D01*
X58383466Y-52818848D01*
X58408452Y-52788403D01*
X58438897Y-52763417D01*
X58473636Y-52744849D01*
X58511323Y-52733416D01*
X58556661Y-52728951D01*
X59393339Y-52728951D01*
X59438677Y-52733416D01*
X59438677Y-52733416D01*
G37*
G36*
X61488677Y-52733416D02*
X61526364Y-52744849D01*
X61561103Y-52763417D01*
X61591548Y-52788403D01*
X61616534Y-52818848D01*
X61635102Y-52853587D01*
X61646535Y-52891274D01*
X61651000Y-52936612D01*
X61651000Y-54023290D01*
X61646535Y-54068628D01*
X61635102Y-54106315D01*
X61616534Y-54141054D01*
X61591548Y-54171499D01*
X61561103Y-54196485D01*
X61526364Y-54215053D01*
X61488677Y-54226486D01*
X61443339Y-54230951D01*
X60606661Y-54230951D01*
X60561323Y-54226486D01*
X60523636Y-54215053D01*
X60488897Y-54196485D01*
X60458452Y-54171499D01*
X60433466Y-54141054D01*
X60414898Y-54106315D01*
X60403465Y-54068628D01*
X60399000Y-54023290D01*
X60399000Y-52936612D01*
X60403465Y-52891274D01*
X60414898Y-52853587D01*
X60433466Y-52818848D01*
X60458452Y-52788403D01*
X60488897Y-52763417D01*
X60523636Y-52744849D01*
X60561323Y-52733416D01*
X60606661Y-52728951D01*
X61443339Y-52728951D01*
X61488677Y-52733416D01*
X61488677Y-52733416D01*
G37*
G36*
X67488677Y-51983416D02*
X67526364Y-51994849D01*
X67561103Y-52013417D01*
X67591548Y-52038403D01*
X67616534Y-52068848D01*
X67635102Y-52103587D01*
X67646535Y-52141274D01*
X67651000Y-52186612D01*
X67651000Y-53273290D01*
X67646535Y-53318628D01*
X67635102Y-53356315D01*
X67616534Y-53391054D01*
X67591548Y-53421499D01*
X67561103Y-53446485D01*
X67526364Y-53465053D01*
X67488677Y-53476486D01*
X67443339Y-53480951D01*
X66606661Y-53480951D01*
X66561323Y-53476486D01*
X66523636Y-53465053D01*
X66488897Y-53446485D01*
X66458452Y-53421499D01*
X66433466Y-53391054D01*
X66414898Y-53356315D01*
X66403465Y-53318628D01*
X66399000Y-53273290D01*
X66399000Y-52186612D01*
X66403465Y-52141274D01*
X66414898Y-52103587D01*
X66433466Y-52068848D01*
X66458452Y-52038403D01*
X66488897Y-52013417D01*
X66523636Y-51994849D01*
X66561323Y-51983416D01*
X66606661Y-51978951D01*
X67443339Y-51978951D01*
X67488677Y-51983416D01*
X67488677Y-51983416D01*
G37*
G36*
X65438677Y-51983416D02*
X65476364Y-51994849D01*
X65511103Y-52013417D01*
X65541548Y-52038403D01*
X65566534Y-52068848D01*
X65585102Y-52103587D01*
X65596535Y-52141274D01*
X65601000Y-52186612D01*
X65601000Y-53273290D01*
X65596535Y-53318628D01*
X65585102Y-53356315D01*
X65566534Y-53391054D01*
X65541548Y-53421499D01*
X65511103Y-53446485D01*
X65476364Y-53465053D01*
X65438677Y-53476486D01*
X65393339Y-53480951D01*
X64556661Y-53480951D01*
X64511323Y-53476486D01*
X64473636Y-53465053D01*
X64438897Y-53446485D01*
X64408452Y-53421499D01*
X64383466Y-53391054D01*
X64364898Y-53356315D01*
X64353465Y-53318628D01*
X64349000Y-53273290D01*
X64349000Y-52186612D01*
X64353465Y-52141274D01*
X64364898Y-52103587D01*
X64383466Y-52068848D01*
X64408452Y-52038403D01*
X64438897Y-52013417D01*
X64473636Y-51994849D01*
X64511323Y-51983416D01*
X64556661Y-51978951D01*
X65393339Y-51978951D01*
X65438677Y-51983416D01*
X65438677Y-51983416D01*
G37*
G36*
X90121000Y-52941000D02*
X89279000Y-52941000D01*
X89279000Y-50439000D01*
X90121000Y-50439000D01*
X90121000Y-52941000D01*
X90121000Y-52941000D01*
G37*
G36*
X91391000Y-52941000D02*
X90549000Y-52941000D01*
X90549000Y-50439000D01*
X91391000Y-50439000D01*
X91391000Y-52941000D01*
X91391000Y-52941000D01*
G37*
G36*
X92661000Y-52941000D02*
X91819000Y-52941000D01*
X91819000Y-50439000D01*
X92661000Y-50439000D01*
X92661000Y-52941000D01*
X92661000Y-52941000D01*
G37*
G36*
X93931000Y-52941000D02*
X93089000Y-52941000D01*
X93089000Y-50439000D01*
X93931000Y-50439000D01*
X93931000Y-52941000D01*
X93931000Y-52941000D01*
G37*
G36*
X95201000Y-52941000D02*
X94359000Y-52941000D01*
X94359000Y-50439000D01*
X95201000Y-50439000D01*
X95201000Y-52941000D01*
X95201000Y-52941000D01*
G37*
G36*
X56201000Y-52630951D02*
X55199000Y-52630951D01*
X55199000Y-50828951D01*
X56201000Y-50828951D01*
X56201000Y-52630951D01*
X56201000Y-52630951D01*
G37*
G36*
X52801000Y-52630951D02*
X51799000Y-52630951D01*
X51799000Y-50828951D01*
X52801000Y-50828951D01*
X52801000Y-52630951D01*
X52801000Y-52630951D01*
G37*
G36*
X61488677Y-49483416D02*
X61526364Y-49494849D01*
X61561103Y-49513417D01*
X61591548Y-49538403D01*
X61616534Y-49568848D01*
X61635102Y-49603587D01*
X61646535Y-49641274D01*
X61651000Y-49686612D01*
X61651000Y-50773290D01*
X61646535Y-50818628D01*
X61635102Y-50856315D01*
X61616534Y-50891054D01*
X61591548Y-50921499D01*
X61561103Y-50946485D01*
X61526364Y-50965053D01*
X61488677Y-50976486D01*
X61443339Y-50980951D01*
X60606661Y-50980951D01*
X60561323Y-50976486D01*
X60523636Y-50965053D01*
X60488897Y-50946485D01*
X60458452Y-50921499D01*
X60433466Y-50891054D01*
X60414898Y-50856315D01*
X60403465Y-50818628D01*
X60399000Y-50773290D01*
X60399000Y-49686612D01*
X60403465Y-49641274D01*
X60414898Y-49603587D01*
X60433466Y-49568848D01*
X60458452Y-49538403D01*
X60488897Y-49513417D01*
X60523636Y-49494849D01*
X60561323Y-49483416D01*
X60606661Y-49478951D01*
X61443339Y-49478951D01*
X61488677Y-49483416D01*
X61488677Y-49483416D01*
G37*
G36*
X59438677Y-49483416D02*
X59476364Y-49494849D01*
X59511103Y-49513417D01*
X59541548Y-49538403D01*
X59566534Y-49568848D01*
X59585102Y-49603587D01*
X59596535Y-49641274D01*
X59601000Y-49686612D01*
X59601000Y-50773290D01*
X59596535Y-50818628D01*
X59585102Y-50856315D01*
X59566534Y-50891054D01*
X59541548Y-50921499D01*
X59511103Y-50946485D01*
X59476364Y-50965053D01*
X59438677Y-50976486D01*
X59393339Y-50980951D01*
X58556661Y-50980951D01*
X58511323Y-50976486D01*
X58473636Y-50965053D01*
X58438897Y-50946485D01*
X58408452Y-50921499D01*
X58383466Y-50891054D01*
X58364898Y-50856315D01*
X58353465Y-50818628D01*
X58349000Y-50773290D01*
X58349000Y-49686612D01*
X58353465Y-49641274D01*
X58364898Y-49603587D01*
X58383466Y-49568848D01*
X58408452Y-49538403D01*
X58438897Y-49513417D01*
X58473636Y-49494849D01*
X58511323Y-49483416D01*
X58556661Y-49478951D01*
X59393339Y-49478951D01*
X59438677Y-49483416D01*
X59438677Y-49483416D01*
G37*
G36*
X76101000Y-50630951D02*
X74499000Y-50630951D01*
X74499000Y-48528951D01*
X76101000Y-48528951D01*
X76101000Y-50630951D01*
X76101000Y-50630951D01*
G37*
G36*
X73801000Y-50630951D02*
X72199000Y-50630951D01*
X72199000Y-48528951D01*
X73801000Y-48528951D01*
X73801000Y-50630951D01*
X73801000Y-50630951D01*
G37*
G36*
X71501000Y-50630951D02*
X69899000Y-50630951D01*
X69899000Y-48528951D01*
X71501000Y-48528951D01*
X71501000Y-50630951D01*
X71501000Y-50630951D01*
G37*
G36*
X95201000Y-49041000D02*
X94359000Y-49041000D01*
X94359000Y-46539000D01*
X95201000Y-46539000D01*
X95201000Y-49041000D01*
X95201000Y-49041000D01*
G37*
G36*
X93931000Y-49041000D02*
X93089000Y-49041000D01*
X93089000Y-46539000D01*
X93931000Y-46539000D01*
X93931000Y-49041000D01*
X93931000Y-49041000D01*
G37*
G36*
X92661000Y-49041000D02*
X91819000Y-49041000D01*
X91819000Y-46539000D01*
X92661000Y-46539000D01*
X92661000Y-49041000D01*
X92661000Y-49041000D01*
G37*
G36*
X91391000Y-49041000D02*
X90549000Y-49041000D01*
X90549000Y-46539000D01*
X91391000Y-46539000D01*
X91391000Y-49041000D01*
X91391000Y-49041000D01*
G37*
G36*
X90121000Y-49041000D02*
X89279000Y-49041000D01*
X89279000Y-46539000D01*
X90121000Y-46539000D01*
X90121000Y-49041000D01*
X90121000Y-49041000D01*
G37*
G36*
X73988677Y-44983416D02*
X74026364Y-44994849D01*
X74061103Y-45013417D01*
X74091548Y-45038403D01*
X74116534Y-45068848D01*
X74135102Y-45103587D01*
X74146535Y-45141274D01*
X74151000Y-45186612D01*
X74151000Y-46273290D01*
X74146535Y-46318628D01*
X74135102Y-46356315D01*
X74116534Y-46391054D01*
X74091548Y-46421499D01*
X74061103Y-46446485D01*
X74026364Y-46465053D01*
X73988677Y-46476486D01*
X73943339Y-46480951D01*
X73106661Y-46480951D01*
X73061323Y-46476486D01*
X73023636Y-46465053D01*
X72988897Y-46446485D01*
X72958452Y-46421499D01*
X72933466Y-46391054D01*
X72914898Y-46356315D01*
X72903465Y-46318628D01*
X72899000Y-46273290D01*
X72899000Y-45186612D01*
X72903465Y-45141274D01*
X72914898Y-45103587D01*
X72933466Y-45068848D01*
X72958452Y-45038403D01*
X72988897Y-45013417D01*
X73023636Y-44994849D01*
X73061323Y-44983416D01*
X73106661Y-44978951D01*
X73943339Y-44978951D01*
X73988677Y-44983416D01*
X73988677Y-44983416D01*
G37*
G36*
X71938677Y-44983416D02*
X71976364Y-44994849D01*
X72011103Y-45013417D01*
X72041548Y-45038403D01*
X72066534Y-45068848D01*
X72085102Y-45103587D01*
X72096535Y-45141274D01*
X72101000Y-45186612D01*
X72101000Y-46273290D01*
X72096535Y-46318628D01*
X72085102Y-46356315D01*
X72066534Y-46391054D01*
X72041548Y-46421499D01*
X72011103Y-46446485D01*
X71976364Y-46465053D01*
X71938677Y-46476486D01*
X71893339Y-46480951D01*
X71056661Y-46480951D01*
X71011323Y-46476486D01*
X70973636Y-46465053D01*
X70938897Y-46446485D01*
X70908452Y-46421499D01*
X70883466Y-46391054D01*
X70864898Y-46356315D01*
X70853465Y-46318628D01*
X70849000Y-46273290D01*
X70849000Y-45186612D01*
X70853465Y-45141274D01*
X70864898Y-45103587D01*
X70883466Y-45068848D01*
X70908452Y-45038403D01*
X70938897Y-45013417D01*
X70973636Y-44994849D01*
X71011323Y-44983416D01*
X71056661Y-44978951D01*
X71893339Y-44978951D01*
X71938677Y-44983416D01*
X71938677Y-44983416D01*
G37*
G36*
X102198154Y-41207818D02*
X102198156Y-41207819D01*
X102198157Y-41207819D01*
X102571415Y-41362427D01*
X102902807Y-41583857D01*
X102907341Y-41586886D01*
X103193016Y-41872561D01*
X103193018Y-41872564D01*
X103417475Y-42208487D01*
X103572083Y-42581745D01*
X103650902Y-42977994D01*
X103650902Y-43382006D01*
X103572083Y-43778255D01*
X103417475Y-44151513D01*
X103417474Y-44151514D01*
X103193016Y-44487439D01*
X102907341Y-44773114D01*
X102907338Y-44773116D01*
X102571415Y-44997573D01*
X102198157Y-45152181D01*
X102198156Y-45152181D01*
X102198154Y-45152182D01*
X101801909Y-45231000D01*
X101397895Y-45231000D01*
X101001650Y-45152182D01*
X101001648Y-45152181D01*
X101001647Y-45152181D01*
X100628389Y-44997573D01*
X100292466Y-44773116D01*
X100292463Y-44773114D01*
X100006788Y-44487439D01*
X99782330Y-44151514D01*
X99782329Y-44151513D01*
X99627721Y-43778255D01*
X99548902Y-43382006D01*
X99548902Y-42977994D01*
X99627721Y-42581745D01*
X99782329Y-42208487D01*
X100006786Y-41872564D01*
X100006788Y-41872561D01*
X100292463Y-41586886D01*
X100296997Y-41583857D01*
X100628389Y-41362427D01*
X101001647Y-41207819D01*
X101001648Y-41207819D01*
X101001650Y-41207818D01*
X101397895Y-41129000D01*
X101801909Y-41129000D01*
X102198154Y-41207818D01*
X102198154Y-41207818D01*
G37*
G36*
X83148203Y-41207818D02*
X83148205Y-41207819D01*
X83148206Y-41207819D01*
X83521464Y-41362427D01*
X83852856Y-41583857D01*
X83857390Y-41586886D01*
X84143065Y-41872561D01*
X84143067Y-41872564D01*
X84367524Y-42208487D01*
X84522132Y-42581745D01*
X84600951Y-42977994D01*
X84600951Y-43382006D01*
X84522132Y-43778255D01*
X84367524Y-44151513D01*
X84367523Y-44151514D01*
X84143065Y-44487439D01*
X83857390Y-44773114D01*
X83857387Y-44773116D01*
X83521464Y-44997573D01*
X83148206Y-45152181D01*
X83148205Y-45152181D01*
X83148203Y-45152182D01*
X82751958Y-45231000D01*
X82347944Y-45231000D01*
X81951699Y-45152182D01*
X81951697Y-45152181D01*
X81951696Y-45152181D01*
X81578438Y-44997573D01*
X81242515Y-44773116D01*
X81242512Y-44773114D01*
X80956837Y-44487439D01*
X80732379Y-44151514D01*
X80732378Y-44151513D01*
X80577770Y-43778255D01*
X80498951Y-43382006D01*
X80498951Y-42977994D01*
X80577770Y-42581745D01*
X80732378Y-42208487D01*
X80956835Y-41872564D01*
X80956837Y-41872561D01*
X81242512Y-41586886D01*
X81247046Y-41583857D01*
X81578438Y-41362427D01*
X81951696Y-41207819D01*
X81951697Y-41207819D01*
X81951699Y-41207818D01*
X82347944Y-41129000D01*
X82751958Y-41129000D01*
X83148203Y-41207818D01*
X83148203Y-41207818D01*
G37*
G36*
X64098252Y-41207818D02*
X64098254Y-41207819D01*
X64098255Y-41207819D01*
X64471513Y-41362427D01*
X64802905Y-41583857D01*
X64807439Y-41586886D01*
X65093114Y-41872561D01*
X65093116Y-41872564D01*
X65317573Y-42208487D01*
X65472181Y-42581745D01*
X65551000Y-42977994D01*
X65551000Y-43382006D01*
X65472181Y-43778255D01*
X65317573Y-44151513D01*
X65317572Y-44151514D01*
X65093114Y-44487439D01*
X64807439Y-44773114D01*
X64807436Y-44773116D01*
X64471513Y-44997573D01*
X64098255Y-45152181D01*
X64098254Y-45152181D01*
X64098252Y-45152182D01*
X63702007Y-45231000D01*
X63297993Y-45231000D01*
X62901748Y-45152182D01*
X62901746Y-45152181D01*
X62901745Y-45152181D01*
X62528487Y-44997573D01*
X62192564Y-44773116D01*
X62192561Y-44773114D01*
X61906886Y-44487439D01*
X61682428Y-44151514D01*
X61682427Y-44151513D01*
X61527819Y-43778255D01*
X61449000Y-43382006D01*
X61449000Y-42977994D01*
X61527819Y-42581745D01*
X61682427Y-42208487D01*
X61906884Y-41872564D01*
X61906886Y-41872561D01*
X62192561Y-41586886D01*
X62197095Y-41583857D01*
X62528487Y-41362427D01*
X62901745Y-41207819D01*
X62901746Y-41207819D01*
X62901748Y-41207818D01*
X63297993Y-41129000D01*
X63702007Y-41129000D01*
X64098252Y-41207818D01*
X64098252Y-41207818D01*
G37*
G36*
X45048301Y-41207818D02*
X45048303Y-41207819D01*
X45048304Y-41207819D01*
X45421562Y-41362427D01*
X45752954Y-41583857D01*
X45757488Y-41586886D01*
X46043163Y-41872561D01*
X46043165Y-41872564D01*
X46267622Y-42208487D01*
X46422230Y-42581745D01*
X46501049Y-42977994D01*
X46501049Y-43382006D01*
X46422230Y-43778255D01*
X46267622Y-44151513D01*
X46267621Y-44151514D01*
X46043163Y-44487439D01*
X45757488Y-44773114D01*
X45757485Y-44773116D01*
X45421562Y-44997573D01*
X45048304Y-45152181D01*
X45048303Y-45152181D01*
X45048301Y-45152182D01*
X44652056Y-45231000D01*
X44248042Y-45231000D01*
X43851797Y-45152182D01*
X43851795Y-45152181D01*
X43851794Y-45152181D01*
X43478536Y-44997573D01*
X43142613Y-44773116D01*
X43142610Y-44773114D01*
X42856935Y-44487439D01*
X42632477Y-44151514D01*
X42632476Y-44151513D01*
X42477868Y-43778255D01*
X42399049Y-43382006D01*
X42399049Y-42977994D01*
X42477868Y-42581745D01*
X42632476Y-42208487D01*
X42856933Y-41872564D01*
X42856935Y-41872561D01*
X43142610Y-41586886D01*
X43147144Y-41583857D01*
X43478536Y-41362427D01*
X43851794Y-41207819D01*
X43851795Y-41207819D01*
X43851797Y-41207818D01*
X44248042Y-41129000D01*
X44652056Y-41129000D01*
X45048301Y-41207818D01*
X45048301Y-41207818D01*
G37*
G36*
X60025734Y-39533232D02*
X60235202Y-39619996D01*
X60423723Y-39745962D01*
X60584038Y-39906277D01*
X60710004Y-40094798D01*
X60796768Y-40304266D01*
X60841000Y-40526635D01*
X60841000Y-40753365D01*
X60796768Y-40975734D01*
X60710004Y-41185202D01*
X60584038Y-41373723D01*
X60423723Y-41534038D01*
X60235202Y-41660004D01*
X60025734Y-41746768D01*
X59803365Y-41791000D01*
X59576635Y-41791000D01*
X59354266Y-41746768D01*
X59144798Y-41660004D01*
X58956277Y-41534038D01*
X58795962Y-41373723D01*
X58669996Y-41185202D01*
X58583232Y-40975734D01*
X58539000Y-40753365D01*
X58539000Y-40526635D01*
X58583232Y-40304266D01*
X58669996Y-40094798D01*
X58795962Y-39906277D01*
X58956277Y-39745962D01*
X59144798Y-39619996D01*
X59354266Y-39533232D01*
X59576635Y-39489000D01*
X59803365Y-39489000D01*
X60025734Y-39533232D01*
X60025734Y-39533232D01*
G37*
G36*
X79075685Y-39533232D02*
X79285153Y-39619996D01*
X79473674Y-39745962D01*
X79633989Y-39906277D01*
X79759955Y-40094798D01*
X79846719Y-40304266D01*
X79890951Y-40526635D01*
X79890951Y-40753365D01*
X79846719Y-40975734D01*
X79759955Y-41185202D01*
X79633989Y-41373723D01*
X79473674Y-41534038D01*
X79285153Y-41660004D01*
X79075685Y-41746768D01*
X78853316Y-41791000D01*
X78626586Y-41791000D01*
X78404217Y-41746768D01*
X78194749Y-41660004D01*
X78006228Y-41534038D01*
X77845913Y-41373723D01*
X77719947Y-41185202D01*
X77633183Y-40975734D01*
X77588951Y-40753365D01*
X77588951Y-40526635D01*
X77633183Y-40304266D01*
X77719947Y-40094798D01*
X77845913Y-39906277D01*
X78006228Y-39745962D01*
X78194749Y-39619996D01*
X78404217Y-39533232D01*
X78626586Y-39489000D01*
X78853316Y-39489000D01*
X79075685Y-39533232D01*
X79075685Y-39533232D01*
G37*
G36*
X40975783Y-39533232D02*
X41185251Y-39619996D01*
X41373772Y-39745962D01*
X41534087Y-39906277D01*
X41660053Y-40094798D01*
X41746817Y-40304266D01*
X41791049Y-40526635D01*
X41791049Y-40753365D01*
X41746817Y-40975734D01*
X41660053Y-41185202D01*
X41534087Y-41373723D01*
X41373772Y-41534038D01*
X41185251Y-41660004D01*
X40975783Y-41746768D01*
X40753414Y-41791000D01*
X40526684Y-41791000D01*
X40304315Y-41746768D01*
X40094847Y-41660004D01*
X39906326Y-41534038D01*
X39746011Y-41373723D01*
X39620045Y-41185202D01*
X39533281Y-40975734D01*
X39489049Y-40753365D01*
X39489049Y-40526635D01*
X39533281Y-40304266D01*
X39620045Y-40094798D01*
X39746011Y-39906277D01*
X39906326Y-39745962D01*
X40094847Y-39619996D01*
X40304315Y-39533232D01*
X40526684Y-39489000D01*
X40753414Y-39489000D01*
X40975783Y-39533232D01*
X40975783Y-39533232D01*
G37*
G36*
X98125636Y-39533232D02*
X98335104Y-39619996D01*
X98523625Y-39745962D01*
X98683940Y-39906277D01*
X98809906Y-40094798D01*
X98896670Y-40304266D01*
X98940902Y-40526635D01*
X98940902Y-40753365D01*
X98896670Y-40975734D01*
X98809906Y-41185202D01*
X98683940Y-41373723D01*
X98523625Y-41534038D01*
X98335104Y-41660004D01*
X98125636Y-41746768D01*
X97903267Y-41791000D01*
X97676537Y-41791000D01*
X97454168Y-41746768D01*
X97244700Y-41660004D01*
X97056179Y-41534038D01*
X96895864Y-41373723D01*
X96769898Y-41185202D01*
X96683134Y-40975734D01*
X96638902Y-40753365D01*
X96638902Y-40526635D01*
X96683134Y-40304266D01*
X96769898Y-40094798D01*
X96895864Y-39906277D01*
X97056179Y-39745962D01*
X97244700Y-39619996D01*
X97454168Y-39533232D01*
X97676537Y-39489000D01*
X97903267Y-39489000D01*
X98125636Y-39533232D01*
X98125636Y-39533232D01*
G37*
G36*
X47325783Y-36993232D02*
X47535251Y-37079996D01*
X47723772Y-37205962D01*
X47884087Y-37366277D01*
X48010053Y-37554798D01*
X48096817Y-37764266D01*
X48141049Y-37986635D01*
X48141049Y-38213365D01*
X48096817Y-38435734D01*
X48010053Y-38645202D01*
X47884087Y-38833723D01*
X47723772Y-38994038D01*
X47535251Y-39120004D01*
X47325783Y-39206768D01*
X47103414Y-39251000D01*
X46876684Y-39251000D01*
X46654315Y-39206768D01*
X46444847Y-39120004D01*
X46256326Y-38994038D01*
X46096011Y-38833723D01*
X45970045Y-38645202D01*
X45883281Y-38435734D01*
X45839049Y-38213365D01*
X45839049Y-37986635D01*
X45883281Y-37764266D01*
X45970045Y-37554798D01*
X46096011Y-37366277D01*
X46256326Y-37205962D01*
X46444847Y-37079996D01*
X46654315Y-36993232D01*
X46876684Y-36949000D01*
X47103414Y-36949000D01*
X47325783Y-36993232D01*
X47325783Y-36993232D01*
G37*
G36*
X66375734Y-36993232D02*
X66585202Y-37079996D01*
X66773723Y-37205962D01*
X66934038Y-37366277D01*
X67060004Y-37554798D01*
X67146768Y-37764266D01*
X67191000Y-37986635D01*
X67191000Y-38213365D01*
X67146768Y-38435734D01*
X67060004Y-38645202D01*
X66934038Y-38833723D01*
X66773723Y-38994038D01*
X66585202Y-39120004D01*
X66375734Y-39206768D01*
X66153365Y-39251000D01*
X65926635Y-39251000D01*
X65704266Y-39206768D01*
X65494798Y-39120004D01*
X65306277Y-38994038D01*
X65145962Y-38833723D01*
X65019996Y-38645202D01*
X64933232Y-38435734D01*
X64889000Y-38213365D01*
X64889000Y-37986635D01*
X64933232Y-37764266D01*
X65019996Y-37554798D01*
X65145962Y-37366277D01*
X65306277Y-37205962D01*
X65494798Y-37079996D01*
X65704266Y-36993232D01*
X65926635Y-36949000D01*
X66153365Y-36949000D01*
X66375734Y-36993232D01*
X66375734Y-36993232D01*
G37*
G36*
X85425685Y-36993232D02*
X85635153Y-37079996D01*
X85823674Y-37205962D01*
X85983989Y-37366277D01*
X86109955Y-37554798D01*
X86196719Y-37764266D01*
X86240951Y-37986635D01*
X86240951Y-38213365D01*
X86196719Y-38435734D01*
X86109955Y-38645202D01*
X85983989Y-38833723D01*
X85823674Y-38994038D01*
X85635153Y-39120004D01*
X85425685Y-39206768D01*
X85203316Y-39251000D01*
X84976586Y-39251000D01*
X84754217Y-39206768D01*
X84544749Y-39120004D01*
X84356228Y-38994038D01*
X84195913Y-38833723D01*
X84069947Y-38645202D01*
X83983183Y-38435734D01*
X83938951Y-38213365D01*
X83938951Y-37986635D01*
X83983183Y-37764266D01*
X84069947Y-37554798D01*
X84195913Y-37366277D01*
X84356228Y-37205962D01*
X84544749Y-37079996D01*
X84754217Y-36993232D01*
X84976586Y-36949000D01*
X85203316Y-36949000D01*
X85425685Y-36993232D01*
X85425685Y-36993232D01*
G37*
G36*
X104475636Y-36993232D02*
X104685104Y-37079996D01*
X104873625Y-37205962D01*
X105033940Y-37366277D01*
X105159906Y-37554798D01*
X105246670Y-37764266D01*
X105290902Y-37986635D01*
X105290902Y-38213365D01*
X105246670Y-38435734D01*
X105159906Y-38645202D01*
X105033940Y-38833723D01*
X104873625Y-38994038D01*
X104685104Y-39120004D01*
X104475636Y-39206768D01*
X104253267Y-39251000D01*
X104026537Y-39251000D01*
X103804168Y-39206768D01*
X103594700Y-39120004D01*
X103406179Y-38994038D01*
X103245864Y-38833723D01*
X103119898Y-38645202D01*
X103033134Y-38435734D01*
X102988902Y-38213365D01*
X102988902Y-37986635D01*
X103033134Y-37764266D01*
X103119898Y-37554798D01*
X103245864Y-37366277D01*
X103406179Y-37205962D01*
X103594700Y-37079996D01*
X103804168Y-36993232D01*
X104026537Y-36949000D01*
X104253267Y-36949000D01*
X104475636Y-36993232D01*
X104475636Y-36993232D01*
G37*
G36*
X111435734Y-32523183D02*
X111645202Y-32609947D01*
X111833723Y-32735913D01*
X111994038Y-32896228D01*
X112120004Y-33084749D01*
X112206768Y-33294217D01*
X112251000Y-33516586D01*
X112251000Y-33743316D01*
X112206768Y-33965685D01*
X112120004Y-34175153D01*
X111994038Y-34363674D01*
X111833723Y-34523989D01*
X111645202Y-34649955D01*
X111435734Y-34736719D01*
X111213365Y-34780951D01*
X110986635Y-34780951D01*
X110764266Y-34736719D01*
X110554798Y-34649955D01*
X110366277Y-34523989D01*
X110205962Y-34363674D01*
X110079996Y-34175153D01*
X109993232Y-33965685D01*
X109949000Y-33743316D01*
X109949000Y-33516586D01*
X109993232Y-33294217D01*
X110079996Y-33084749D01*
X110205962Y-32896228D01*
X110366277Y-32735913D01*
X110554798Y-32609947D01*
X110764266Y-32523183D01*
X110986635Y-32478951D01*
X111213365Y-32478951D01*
X111435734Y-32523183D01*
X111435734Y-32523183D01*
G37*
G36*
X35235734Y-32523183D02*
X35445202Y-32609947D01*
X35633723Y-32735913D01*
X35794038Y-32896228D01*
X35920004Y-33084749D01*
X36006768Y-33294217D01*
X36051000Y-33516586D01*
X36051000Y-33743316D01*
X36006768Y-33965685D01*
X35920004Y-34175153D01*
X35794038Y-34363674D01*
X35633723Y-34523989D01*
X35445202Y-34649955D01*
X35235734Y-34736719D01*
X35013365Y-34780951D01*
X34786635Y-34780951D01*
X34564266Y-34736719D01*
X34354798Y-34649955D01*
X34166277Y-34523989D01*
X34005962Y-34363674D01*
X33879996Y-34175153D01*
X33793232Y-33965685D01*
X33749000Y-33743316D01*
X33749000Y-33516586D01*
X33793232Y-33294217D01*
X33879996Y-33084749D01*
X34005962Y-32896228D01*
X34166277Y-32735913D01*
X34354798Y-32609947D01*
X34564266Y-32523183D01*
X34786635Y-32478951D01*
X35013365Y-32478951D01*
X35235734Y-32523183D01*
X35235734Y-32523183D01*
G37*
G36*
X70726349Y-31876271D02*
X70726352Y-31876272D01*
X70726351Y-31876272D01*
X70867574Y-31934768D01*
X70867575Y-31934769D01*
X70994674Y-32019694D01*
X71102757Y-32127777D01*
X71102759Y-32127780D01*
X71187683Y-32254877D01*
X71188701Y-32257335D01*
X71208515Y-32305171D01*
X71220067Y-32326782D01*
X71235612Y-32345724D01*
X71254554Y-32361269D01*
X71276165Y-32372820D01*
X71299614Y-32379933D01*
X71324000Y-32382335D01*
X71348387Y-32379933D01*
X71371836Y-32372820D01*
X71393447Y-32361268D01*
X71412389Y-32345723D01*
X71427934Y-32326781D01*
X71439485Y-32305170D01*
X71446598Y-32281721D01*
X71449000Y-32257335D01*
X71449000Y-31896451D01*
X74551000Y-31896451D01*
X74551000Y-32257335D01*
X74553402Y-32281721D01*
X74560515Y-32305170D01*
X74572066Y-32326781D01*
X74587612Y-32345723D01*
X74606554Y-32361269D01*
X74628165Y-32372820D01*
X74651614Y-32379933D01*
X74676000Y-32382335D01*
X74700386Y-32379933D01*
X74723835Y-32372820D01*
X74745446Y-32361269D01*
X74764388Y-32345723D01*
X74779934Y-32326781D01*
X74791485Y-32305171D01*
X74811299Y-32257335D01*
X74812317Y-32254877D01*
X74897241Y-32127780D01*
X74897243Y-32127777D01*
X75005326Y-32019694D01*
X75132425Y-31934769D01*
X75132426Y-31934768D01*
X75273649Y-31876272D01*
X75273648Y-31876272D01*
X75273651Y-31876271D01*
X75423569Y-31846451D01*
X75576431Y-31846451D01*
X75726349Y-31876271D01*
X75726352Y-31876272D01*
X75726351Y-31876272D01*
X75867574Y-31934768D01*
X75867575Y-31934769D01*
X75994674Y-32019694D01*
X76102757Y-32127777D01*
X76102759Y-32127780D01*
X76187683Y-32254877D01*
X76188701Y-32257335D01*
X76246180Y-32396102D01*
X76276000Y-32546020D01*
X76276000Y-32698882D01*
X76246180Y-32848800D01*
X76236536Y-32872082D01*
X76187683Y-32990025D01*
X76187682Y-32990026D01*
X76102757Y-33117125D01*
X75994674Y-33225208D01*
X75994671Y-33225210D01*
X75867574Y-33310134D01*
X75775068Y-33348451D01*
X75726349Y-33368631D01*
X75576431Y-33398451D01*
X75423569Y-33398451D01*
X75273651Y-33368631D01*
X75224932Y-33348451D01*
X75132426Y-33310134D01*
X75005329Y-33225210D01*
X75005326Y-33225208D01*
X74897243Y-33117125D01*
X74812318Y-32990026D01*
X74812317Y-32990025D01*
X74791484Y-32939729D01*
X74779933Y-32918120D01*
X74764388Y-32899178D01*
X74745446Y-32883633D01*
X74723835Y-32872082D01*
X74700386Y-32864969D01*
X74676000Y-32862567D01*
X74651613Y-32864969D01*
X74628164Y-32872082D01*
X74606553Y-32883634D01*
X74587611Y-32899179D01*
X74572066Y-32918121D01*
X74560515Y-32939732D01*
X74553402Y-32963181D01*
X74551000Y-32987567D01*
X74551000Y-33348451D01*
X71449000Y-33348451D01*
X71449000Y-32987567D01*
X71446598Y-32963181D01*
X71439485Y-32939732D01*
X71427934Y-32918121D01*
X71412388Y-32899179D01*
X71393446Y-32883633D01*
X71371835Y-32872082D01*
X71348386Y-32864969D01*
X71324000Y-32862567D01*
X71299614Y-32864969D01*
X71276165Y-32872082D01*
X71254554Y-32883633D01*
X71235612Y-32899179D01*
X71220066Y-32918121D01*
X71208516Y-32939729D01*
X71187683Y-32990025D01*
X71187682Y-32990026D01*
X71102757Y-33117125D01*
X70994674Y-33225208D01*
X70994671Y-33225210D01*
X70867574Y-33310134D01*
X70775068Y-33348451D01*
X70726349Y-33368631D01*
X70576431Y-33398451D01*
X70423569Y-33398451D01*
X70273651Y-33368631D01*
X70224932Y-33348451D01*
X70132426Y-33310134D01*
X70005329Y-33225210D01*
X70005326Y-33225208D01*
X69897243Y-33117125D01*
X69812318Y-32990026D01*
X69812317Y-32990025D01*
X69763464Y-32872082D01*
X69753820Y-32848800D01*
X69724000Y-32698882D01*
X69724000Y-32546020D01*
X69753820Y-32396102D01*
X69811299Y-32257335D01*
X69812317Y-32254877D01*
X69897241Y-32127780D01*
X69897243Y-32127777D01*
X70005326Y-32019694D01*
X70132425Y-31934769D01*
X70132426Y-31934768D01*
X70273649Y-31876272D01*
X70273648Y-31876272D01*
X70273651Y-31876271D01*
X70423569Y-31846451D01*
X70576431Y-31846451D01*
X70726349Y-31876271D01*
X70726349Y-31876271D01*
G37*
G36*
X69525862Y-28920849D02*
X69538114Y-28921451D01*
X70751000Y-28921451D01*
X70751000Y-30923451D01*
X69538114Y-30923451D01*
X69525862Y-30924053D01*
X69500000Y-30926600D01*
X69474138Y-30924053D01*
X69461886Y-30923451D01*
X69388593Y-30923451D01*
X69371835Y-30914494D01*
X69360292Y-30910364D01*
X69297118Y-30891200D01*
X69249667Y-30876806D01*
X69136576Y-30816357D01*
X69136574Y-30816356D01*
X69037447Y-30735004D01*
X68956095Y-30635876D01*
X68895646Y-30522784D01*
X68895645Y-30522783D01*
X68883237Y-30481877D01*
X68858420Y-30400068D01*
X68849000Y-30304423D01*
X68849000Y-29540478D01*
X68858420Y-29444833D01*
X68895645Y-29322119D01*
X68956096Y-29209025D01*
X69037448Y-29109898D01*
X69136575Y-29028546D01*
X69249669Y-28968096D01*
X69360295Y-28934538D01*
X69382924Y-28925165D01*
X69388482Y-28921451D01*
X69461886Y-28921451D01*
X69474138Y-28920849D01*
X69500000Y-28918302D01*
X69525862Y-28920849D01*
X69525862Y-28920849D01*
G37*
G36*
X76525862Y-28920849D02*
X76538114Y-28921451D01*
X76611405Y-28921451D01*
X76628165Y-28930409D01*
X76639695Y-28934535D01*
X76750331Y-28968096D01*
X76863425Y-29028546D01*
X76962553Y-29109898D01*
X77043905Y-29209025D01*
X77043906Y-29209027D01*
X77104355Y-29322118D01*
X77104356Y-29322121D01*
X77141580Y-29444833D01*
X77151000Y-29540478D01*
X77151000Y-30304424D01*
X77141580Y-30400069D01*
X77116763Y-30481878D01*
X77104355Y-30522784D01*
X77050819Y-30622942D01*
X77043905Y-30635877D01*
X76962553Y-30735004D01*
X76863426Y-30816356D01*
X76863424Y-30816357D01*
X76750333Y-30876806D01*
X76702882Y-30891200D01*
X76639711Y-30910363D01*
X76617076Y-30919739D01*
X76611520Y-30923451D01*
X76538114Y-30923451D01*
X76525862Y-30924053D01*
X76500000Y-30926600D01*
X76474138Y-30924053D01*
X76461886Y-30923451D01*
X75249000Y-30923451D01*
X75249000Y-28921451D01*
X76461886Y-28921451D01*
X76474138Y-28920849D01*
X76500000Y-28918302D01*
X76525862Y-28920849D01*
X76525862Y-28920849D01*
G37*
G36*
X72801000Y-30923451D02*
X71199000Y-30923451D01*
X71199000Y-28921451D01*
X72801000Y-28921451D01*
X72801000Y-30923451D01*
X72801000Y-30923451D01*
G37*
G36*
X74801000Y-30923451D02*
X73199000Y-30923451D01*
X73199000Y-28921451D01*
X74801000Y-28921451D01*
X74801000Y-30923451D01*
X74801000Y-30923451D01*
G37*
M02*
