%TF.GenerationSoftware,KiCad,Pcbnew,(5.0.2-5-10.14)*%
%TF.CreationDate,2019-04-08T21:19:03+10:00*%
%TF.ProjectId,macropod,6d616372-6f70-46f6-942e-6b696361645f,rev?*%
%TF.SameCoordinates,Original*%
%TF.FileFunction,Legend,Top*%
%TF.FilePolarity,Positive*%
%FSLAX46Y46*%
G04 Gerber Fmt 4.6, Leading zero omitted, Abs format (unit mm)*
G04 Created by KiCad (PCBNEW (5.0.2-5-10.14)) date Monday, 08 April 2019 at 09:19:03 pm*
%MOMM*%
%LPD*%
G01*
G04 APERTURE LIST*
%ADD10C,0.150000*%
%ADD11C,0.120000*%
G04 APERTURE END LIST*
D10*
X29700000Y-28429951D02*
X29700000Y-134229951D01*
X29700000Y-134229951D02*
X116300000Y-134229951D01*
X116300000Y-28429951D02*
X116300000Y-134229951D01*
X29700000Y-28429951D02*
X116300000Y-28429951D01*
D11*
X37465049Y-36195000D02*
X51435049Y-36195000D01*
X51435049Y-36195000D02*
X51435049Y-50165000D01*
X51435049Y-50165000D02*
X37465049Y-50165000D01*
X37465049Y-50165000D02*
X37465049Y-36195000D01*
X37465049Y-55244951D02*
X51435049Y-55244951D01*
X51435049Y-55244951D02*
X51435049Y-69214951D01*
X51435049Y-69214951D02*
X37465049Y-69214951D01*
X37465049Y-69214951D02*
X37465049Y-55244951D01*
X37465049Y-74294902D02*
X51435049Y-74294902D01*
X51435049Y-74294902D02*
X51435049Y-88264902D01*
X51435049Y-88264902D02*
X37465049Y-88264902D01*
X37465049Y-88264902D02*
X37465049Y-74294902D01*
X37465049Y-93411708D02*
X51435049Y-93411708D01*
X51435049Y-93411708D02*
X51435049Y-107381708D01*
X51435049Y-107381708D02*
X37465049Y-107381708D01*
X37465049Y-107381708D02*
X37465049Y-93411708D01*
X37465049Y-112394804D02*
X51435049Y-112394804D01*
X51435049Y-112394804D02*
X51435049Y-126364804D01*
X51435049Y-126364804D02*
X37465049Y-126364804D01*
X37465049Y-126364804D02*
X37465049Y-112394804D01*
X56515000Y-50165000D02*
X56515000Y-36195000D01*
X70485000Y-50165000D02*
X56515000Y-50165000D01*
X70485000Y-36195000D02*
X70485000Y-50165000D01*
X56515000Y-36195000D02*
X70485000Y-36195000D01*
X56515000Y-55244951D02*
X70485000Y-55244951D01*
X70485000Y-55244951D02*
X70485000Y-69214951D01*
X70485000Y-69214951D02*
X56515000Y-69214951D01*
X56515000Y-69214951D02*
X56515000Y-55244951D01*
X56515000Y-88264902D02*
X56515000Y-74294902D01*
X70485000Y-88264902D02*
X56515000Y-88264902D01*
X70485000Y-74294902D02*
X70485000Y-88264902D01*
X56515000Y-74294902D02*
X70485000Y-74294902D01*
X56515000Y-107314853D02*
X56515000Y-93344853D01*
X70485000Y-107314853D02*
X56515000Y-107314853D01*
X70485000Y-93344853D02*
X70485000Y-107314853D01*
X56515000Y-93344853D02*
X70485000Y-93344853D01*
X56515000Y-112394804D02*
X70485000Y-112394804D01*
X70485000Y-112394804D02*
X70485000Y-126364804D01*
X70485000Y-126364804D02*
X56515000Y-126364804D01*
X56515000Y-126364804D02*
X56515000Y-112394804D01*
X75564951Y-50165000D02*
X75564951Y-36195000D01*
X89534951Y-50165000D02*
X75564951Y-50165000D01*
X89534951Y-36195000D02*
X89534951Y-50165000D01*
X75564951Y-36195000D02*
X89534951Y-36195000D01*
X75564951Y-55244951D02*
X89534951Y-55244951D01*
X89534951Y-55244951D02*
X89534951Y-69214951D01*
X89534951Y-69214951D02*
X75564951Y-69214951D01*
X75564951Y-69214951D02*
X75564951Y-55244951D01*
X75564951Y-88264902D02*
X75564951Y-74294902D01*
X89534951Y-88264902D02*
X75564951Y-88264902D01*
X89534951Y-74294902D02*
X89534951Y-88264902D01*
X75564951Y-74294902D02*
X89534951Y-74294902D01*
X75564951Y-93344853D02*
X89534951Y-93344853D01*
X89534951Y-93344853D02*
X89534951Y-107314853D01*
X89534951Y-107314853D02*
X75564951Y-107314853D01*
X75564951Y-107314853D02*
X75564951Y-93344853D01*
X75564951Y-126364804D02*
X75564951Y-112394804D01*
X89534951Y-126364804D02*
X75564951Y-126364804D01*
X89534951Y-112394804D02*
X89534951Y-126364804D01*
X75564951Y-112394804D02*
X89534951Y-112394804D01*
X94614902Y-36195000D02*
X108584902Y-36195000D01*
X108584902Y-36195000D02*
X108584902Y-50165000D01*
X108584902Y-50165000D02*
X94614902Y-50165000D01*
X94614902Y-50165000D02*
X94614902Y-36195000D01*
X94614902Y-69214951D02*
X94614902Y-55244951D01*
X108584902Y-69214951D02*
X94614902Y-69214951D01*
X108584902Y-55244951D02*
X108584902Y-69214951D01*
X94614902Y-55244951D02*
X108584902Y-55244951D01*
X94614902Y-88264902D02*
X94614902Y-74294902D01*
X108584902Y-88264902D02*
X94614902Y-88264902D01*
X108584902Y-74294902D02*
X108584902Y-88264902D01*
X94614902Y-74294902D02*
X108584902Y-74294902D01*
X94614902Y-107314853D02*
X94614902Y-93344853D01*
X108584902Y-107314853D02*
X94614902Y-107314853D01*
X108584902Y-93344853D02*
X108584902Y-107314853D01*
X94614902Y-93344853D02*
X108584902Y-93344853D01*
X94615000Y-126364804D02*
X94615000Y-112394804D01*
X108585000Y-126364804D02*
X94615000Y-126364804D01*
X108585000Y-112394804D02*
X108585000Y-126364804D01*
X94615000Y-112394804D02*
X108585000Y-112394804D01*
X33740000Y-43990000D02*
X35740000Y-43990000D01*
X35740000Y-43990000D02*
X35740000Y-40090000D01*
X33740000Y-43990000D02*
X33740000Y-40090000D01*
X33740000Y-62965000D02*
X35740000Y-62965000D01*
X35740000Y-62965000D02*
X35740000Y-59065000D01*
X33740000Y-62965000D02*
X33740000Y-59065000D01*
X33740000Y-82015000D02*
X35740000Y-82015000D01*
X35740000Y-82015000D02*
X35740000Y-78115000D01*
X33740000Y-82015000D02*
X33740000Y-78115000D01*
X33740000Y-101015000D02*
X35740000Y-101015000D01*
X35740000Y-101015000D02*
X35740000Y-97115000D01*
X33740000Y-101015000D02*
X33740000Y-97115000D01*
X33740000Y-120015000D02*
X35740000Y-120015000D01*
X35740000Y-120015000D02*
X35740000Y-116115000D01*
X33740000Y-120015000D02*
X33740000Y-116115000D01*
X52740000Y-43990000D02*
X54740000Y-43990000D01*
X54740000Y-43990000D02*
X54740000Y-40090000D01*
X52740000Y-43990000D02*
X52740000Y-40090000D01*
X52740000Y-63015000D02*
X52740000Y-59115000D01*
X54740000Y-63015000D02*
X54740000Y-59115000D01*
X52740000Y-63015000D02*
X54740000Y-63015000D01*
X52740000Y-81990000D02*
X52740000Y-78090000D01*
X54740000Y-81990000D02*
X54740000Y-78090000D01*
X52740000Y-81990000D02*
X54740000Y-81990000D01*
X52740000Y-101015000D02*
X52740000Y-97115000D01*
X54740000Y-101015000D02*
X54740000Y-97115000D01*
X52740000Y-101015000D02*
X54740000Y-101015000D01*
X52740000Y-120015000D02*
X52740000Y-116115000D01*
X54740000Y-120015000D02*
X54740000Y-116115000D01*
X52740000Y-120015000D02*
X54740000Y-120015000D01*
X71740000Y-44015000D02*
X73740000Y-44015000D01*
X73740000Y-44015000D02*
X73740000Y-40115000D01*
X71740000Y-44015000D02*
X71740000Y-40115000D01*
X71740000Y-63015000D02*
X71740000Y-59115000D01*
X73740000Y-63015000D02*
X73740000Y-59115000D01*
X71740000Y-63015000D02*
X73740000Y-63015000D01*
X71740000Y-82015000D02*
X71740000Y-78115000D01*
X73740000Y-82015000D02*
X73740000Y-78115000D01*
X71740000Y-82015000D02*
X73740000Y-82015000D01*
X71740000Y-101015000D02*
X71740000Y-97115000D01*
X73740000Y-101015000D02*
X73740000Y-97115000D01*
X71740000Y-101015000D02*
X73740000Y-101015000D01*
X71740000Y-120015000D02*
X71740000Y-116115000D01*
X73740000Y-120015000D02*
X73740000Y-116115000D01*
X71740000Y-120015000D02*
X73740000Y-120015000D01*
X90740000Y-44015000D02*
X90740000Y-40115000D01*
X92740000Y-44015000D02*
X92740000Y-40115000D01*
X90740000Y-44015000D02*
X92740000Y-44015000D01*
X90740000Y-63015000D02*
X92740000Y-63015000D01*
X92740000Y-63015000D02*
X92740000Y-59115000D01*
X90740000Y-63015000D02*
X90740000Y-59115000D01*
X90740000Y-81990000D02*
X92740000Y-81990000D01*
X92740000Y-81990000D02*
X92740000Y-78090000D01*
X90740000Y-81990000D02*
X90740000Y-78090000D01*
X90740000Y-101015000D02*
X90740000Y-97115000D01*
X92740000Y-101015000D02*
X92740000Y-97115000D01*
X90740000Y-101015000D02*
X92740000Y-101015000D01*
X90740000Y-119990000D02*
X92740000Y-119990000D01*
X92740000Y-119990000D02*
X92740000Y-116090000D01*
X90740000Y-119990000D02*
X90740000Y-116090000D01*
D10*
X43116715Y-35710761D02*
X43259572Y-35758380D01*
X43497668Y-35758380D01*
X43592906Y-35710761D01*
X43640525Y-35663142D01*
X43688144Y-35567904D01*
X43688144Y-35472666D01*
X43640525Y-35377428D01*
X43592906Y-35329809D01*
X43497668Y-35282190D01*
X43307191Y-35234571D01*
X43211953Y-35186952D01*
X43164334Y-35139333D01*
X43116715Y-35044095D01*
X43116715Y-34948857D01*
X43164334Y-34853619D01*
X43211953Y-34806000D01*
X43307191Y-34758380D01*
X43545287Y-34758380D01*
X43688144Y-34806000D01*
X44021477Y-34758380D02*
X44259572Y-35758380D01*
X44450049Y-35044095D01*
X44640525Y-35758380D01*
X44878620Y-34758380D01*
X45783382Y-35758380D02*
X45211953Y-35758380D01*
X45497668Y-35758380D02*
X45497668Y-34758380D01*
X45402429Y-34901238D01*
X45307191Y-34996476D01*
X45211953Y-35044095D01*
X43116715Y-54760712D02*
X43259572Y-54808331D01*
X43497668Y-54808331D01*
X43592906Y-54760712D01*
X43640525Y-54713093D01*
X43688144Y-54617855D01*
X43688144Y-54522617D01*
X43640525Y-54427379D01*
X43592906Y-54379760D01*
X43497668Y-54332141D01*
X43307191Y-54284522D01*
X43211953Y-54236903D01*
X43164334Y-54189284D01*
X43116715Y-54094046D01*
X43116715Y-53998808D01*
X43164334Y-53903570D01*
X43211953Y-53855951D01*
X43307191Y-53808331D01*
X43545287Y-53808331D01*
X43688144Y-53855951D01*
X44021477Y-53808331D02*
X44259572Y-54808331D01*
X44450049Y-54094046D01*
X44640525Y-54808331D01*
X44878620Y-53808331D01*
X45211953Y-53903570D02*
X45259572Y-53855951D01*
X45354810Y-53808331D01*
X45592906Y-53808331D01*
X45688144Y-53855951D01*
X45735763Y-53903570D01*
X45783382Y-53998808D01*
X45783382Y-54094046D01*
X45735763Y-54236903D01*
X45164334Y-54808331D01*
X45783382Y-54808331D01*
X43116715Y-73810663D02*
X43259572Y-73858282D01*
X43497668Y-73858282D01*
X43592906Y-73810663D01*
X43640525Y-73763044D01*
X43688144Y-73667806D01*
X43688144Y-73572568D01*
X43640525Y-73477330D01*
X43592906Y-73429711D01*
X43497668Y-73382092D01*
X43307191Y-73334473D01*
X43211953Y-73286854D01*
X43164334Y-73239235D01*
X43116715Y-73143997D01*
X43116715Y-73048759D01*
X43164334Y-72953521D01*
X43211953Y-72905902D01*
X43307191Y-72858282D01*
X43545287Y-72858282D01*
X43688144Y-72905902D01*
X44021477Y-72858282D02*
X44259572Y-73858282D01*
X44450049Y-73143997D01*
X44640525Y-73858282D01*
X44878620Y-72858282D01*
X45164334Y-72858282D02*
X45783382Y-72858282D01*
X45450049Y-73239235D01*
X45592906Y-73239235D01*
X45688144Y-73286854D01*
X45735763Y-73334473D01*
X45783382Y-73429711D01*
X45783382Y-73667806D01*
X45735763Y-73763044D01*
X45688144Y-73810663D01*
X45592906Y-73858282D01*
X45307191Y-73858282D01*
X45211953Y-73810663D01*
X45164334Y-73763044D01*
X43116715Y-92927469D02*
X43259572Y-92975088D01*
X43497668Y-92975088D01*
X43592906Y-92927469D01*
X43640525Y-92879850D01*
X43688144Y-92784612D01*
X43688144Y-92689374D01*
X43640525Y-92594136D01*
X43592906Y-92546517D01*
X43497668Y-92498898D01*
X43307191Y-92451279D01*
X43211953Y-92403660D01*
X43164334Y-92356041D01*
X43116715Y-92260803D01*
X43116715Y-92165565D01*
X43164334Y-92070327D01*
X43211953Y-92022708D01*
X43307191Y-91975088D01*
X43545287Y-91975088D01*
X43688144Y-92022708D01*
X44021477Y-91975088D02*
X44259572Y-92975088D01*
X44450049Y-92260803D01*
X44640525Y-92975088D01*
X44878620Y-91975088D01*
X45688144Y-92308422D02*
X45688144Y-92975088D01*
X45450049Y-91927469D02*
X45211953Y-92641755D01*
X45831001Y-92641755D01*
X43116715Y-111910565D02*
X43259572Y-111958184D01*
X43497668Y-111958184D01*
X43592906Y-111910565D01*
X43640525Y-111862946D01*
X43688144Y-111767708D01*
X43688144Y-111672470D01*
X43640525Y-111577232D01*
X43592906Y-111529613D01*
X43497668Y-111481994D01*
X43307191Y-111434375D01*
X43211953Y-111386756D01*
X43164334Y-111339137D01*
X43116715Y-111243899D01*
X43116715Y-111148661D01*
X43164334Y-111053423D01*
X43211953Y-111005804D01*
X43307191Y-110958184D01*
X43545287Y-110958184D01*
X43688144Y-111005804D01*
X44021477Y-110958184D02*
X44259572Y-111958184D01*
X44450049Y-111243899D01*
X44640525Y-111958184D01*
X44878620Y-110958184D01*
X45735763Y-110958184D02*
X45259572Y-110958184D01*
X45211953Y-111434375D01*
X45259572Y-111386756D01*
X45354810Y-111339137D01*
X45592906Y-111339137D01*
X45688144Y-111386756D01*
X45735763Y-111434375D01*
X45783382Y-111529613D01*
X45783382Y-111767708D01*
X45735763Y-111862946D01*
X45688144Y-111910565D01*
X45592906Y-111958184D01*
X45354810Y-111958184D01*
X45259572Y-111910565D01*
X45211953Y-111862946D01*
X62166666Y-35710761D02*
X62309523Y-35758380D01*
X62547619Y-35758380D01*
X62642857Y-35710761D01*
X62690476Y-35663142D01*
X62738095Y-35567904D01*
X62738095Y-35472666D01*
X62690476Y-35377428D01*
X62642857Y-35329809D01*
X62547619Y-35282190D01*
X62357142Y-35234571D01*
X62261904Y-35186952D01*
X62214285Y-35139333D01*
X62166666Y-35044095D01*
X62166666Y-34948857D01*
X62214285Y-34853619D01*
X62261904Y-34806000D01*
X62357142Y-34758380D01*
X62595238Y-34758380D01*
X62738095Y-34806000D01*
X63071428Y-34758380D02*
X63309523Y-35758380D01*
X63500000Y-35044095D01*
X63690476Y-35758380D01*
X63928571Y-34758380D01*
X64738095Y-34758380D02*
X64547619Y-34758380D01*
X64452380Y-34806000D01*
X64404761Y-34853619D01*
X64309523Y-34996476D01*
X64261904Y-35186952D01*
X64261904Y-35567904D01*
X64309523Y-35663142D01*
X64357142Y-35710761D01*
X64452380Y-35758380D01*
X64642857Y-35758380D01*
X64738095Y-35710761D01*
X64785714Y-35663142D01*
X64833333Y-35567904D01*
X64833333Y-35329809D01*
X64785714Y-35234571D01*
X64738095Y-35186952D01*
X64642857Y-35139333D01*
X64452380Y-35139333D01*
X64357142Y-35186952D01*
X64309523Y-35234571D01*
X64261904Y-35329809D01*
X62166666Y-54760712D02*
X62309523Y-54808331D01*
X62547619Y-54808331D01*
X62642857Y-54760712D01*
X62690476Y-54713093D01*
X62738095Y-54617855D01*
X62738095Y-54522617D01*
X62690476Y-54427379D01*
X62642857Y-54379760D01*
X62547619Y-54332141D01*
X62357142Y-54284522D01*
X62261904Y-54236903D01*
X62214285Y-54189284D01*
X62166666Y-54094046D01*
X62166666Y-53998808D01*
X62214285Y-53903570D01*
X62261904Y-53855951D01*
X62357142Y-53808331D01*
X62595238Y-53808331D01*
X62738095Y-53855951D01*
X63071428Y-53808331D02*
X63309523Y-54808331D01*
X63500000Y-54094046D01*
X63690476Y-54808331D01*
X63928571Y-53808331D01*
X64214285Y-53808331D02*
X64880952Y-53808331D01*
X64452380Y-54808331D01*
X62166666Y-73810663D02*
X62309523Y-73858282D01*
X62547619Y-73858282D01*
X62642857Y-73810663D01*
X62690476Y-73763044D01*
X62738095Y-73667806D01*
X62738095Y-73572568D01*
X62690476Y-73477330D01*
X62642857Y-73429711D01*
X62547619Y-73382092D01*
X62357142Y-73334473D01*
X62261904Y-73286854D01*
X62214285Y-73239235D01*
X62166666Y-73143997D01*
X62166666Y-73048759D01*
X62214285Y-72953521D01*
X62261904Y-72905902D01*
X62357142Y-72858282D01*
X62595238Y-72858282D01*
X62738095Y-72905902D01*
X63071428Y-72858282D02*
X63309523Y-73858282D01*
X63500000Y-73143997D01*
X63690476Y-73858282D01*
X63928571Y-72858282D01*
X64452380Y-73286854D02*
X64357142Y-73239235D01*
X64309523Y-73191616D01*
X64261904Y-73096378D01*
X64261904Y-73048759D01*
X64309523Y-72953521D01*
X64357142Y-72905902D01*
X64452380Y-72858282D01*
X64642857Y-72858282D01*
X64738095Y-72905902D01*
X64785714Y-72953521D01*
X64833333Y-73048759D01*
X64833333Y-73096378D01*
X64785714Y-73191616D01*
X64738095Y-73239235D01*
X64642857Y-73286854D01*
X64452380Y-73286854D01*
X64357142Y-73334473D01*
X64309523Y-73382092D01*
X64261904Y-73477330D01*
X64261904Y-73667806D01*
X64309523Y-73763044D01*
X64357142Y-73810663D01*
X64452380Y-73858282D01*
X64642857Y-73858282D01*
X64738095Y-73810663D01*
X64785714Y-73763044D01*
X64833333Y-73667806D01*
X64833333Y-73477330D01*
X64785714Y-73382092D01*
X64738095Y-73334473D01*
X64642857Y-73286854D01*
X62166666Y-92860614D02*
X62309523Y-92908233D01*
X62547619Y-92908233D01*
X62642857Y-92860614D01*
X62690476Y-92812995D01*
X62738095Y-92717757D01*
X62738095Y-92622519D01*
X62690476Y-92527281D01*
X62642857Y-92479662D01*
X62547619Y-92432043D01*
X62357142Y-92384424D01*
X62261904Y-92336805D01*
X62214285Y-92289186D01*
X62166666Y-92193948D01*
X62166666Y-92098710D01*
X62214285Y-92003472D01*
X62261904Y-91955853D01*
X62357142Y-91908233D01*
X62595238Y-91908233D01*
X62738095Y-91955853D01*
X63071428Y-91908233D02*
X63309523Y-92908233D01*
X63500000Y-92193948D01*
X63690476Y-92908233D01*
X63928571Y-91908233D01*
X64357142Y-92908233D02*
X64547619Y-92908233D01*
X64642857Y-92860614D01*
X64690476Y-92812995D01*
X64785714Y-92670138D01*
X64833333Y-92479662D01*
X64833333Y-92098710D01*
X64785714Y-92003472D01*
X64738095Y-91955853D01*
X64642857Y-91908233D01*
X64452380Y-91908233D01*
X64357142Y-91955853D01*
X64309523Y-92003472D01*
X64261904Y-92098710D01*
X64261904Y-92336805D01*
X64309523Y-92432043D01*
X64357142Y-92479662D01*
X64452380Y-92527281D01*
X64642857Y-92527281D01*
X64738095Y-92479662D01*
X64785714Y-92432043D01*
X64833333Y-92336805D01*
X61690476Y-111910565D02*
X61833333Y-111958184D01*
X62071428Y-111958184D01*
X62166666Y-111910565D01*
X62214285Y-111862946D01*
X62261904Y-111767708D01*
X62261904Y-111672470D01*
X62214285Y-111577232D01*
X62166666Y-111529613D01*
X62071428Y-111481994D01*
X61880952Y-111434375D01*
X61785714Y-111386756D01*
X61738095Y-111339137D01*
X61690476Y-111243899D01*
X61690476Y-111148661D01*
X61738095Y-111053423D01*
X61785714Y-111005804D01*
X61880952Y-110958184D01*
X62119047Y-110958184D01*
X62261904Y-111005804D01*
X62595238Y-110958184D02*
X62833333Y-111958184D01*
X63023809Y-111243899D01*
X63214285Y-111958184D01*
X63452380Y-110958184D01*
X64357142Y-111958184D02*
X63785714Y-111958184D01*
X64071428Y-111958184D02*
X64071428Y-110958184D01*
X63976190Y-111101042D01*
X63880952Y-111196280D01*
X63785714Y-111243899D01*
X64976190Y-110958184D02*
X65071428Y-110958184D01*
X65166666Y-111005804D01*
X65214285Y-111053423D01*
X65261904Y-111148661D01*
X65309523Y-111339137D01*
X65309523Y-111577232D01*
X65261904Y-111767708D01*
X65214285Y-111862946D01*
X65166666Y-111910565D01*
X65071428Y-111958184D01*
X64976190Y-111958184D01*
X64880952Y-111910565D01*
X64833333Y-111862946D01*
X64785714Y-111767708D01*
X64738095Y-111577232D01*
X64738095Y-111339137D01*
X64785714Y-111148661D01*
X64833333Y-111053423D01*
X64880952Y-111005804D01*
X64976190Y-110958184D01*
X80740427Y-35710761D02*
X80883284Y-35758380D01*
X81121379Y-35758380D01*
X81216617Y-35710761D01*
X81264236Y-35663142D01*
X81311855Y-35567904D01*
X81311855Y-35472666D01*
X81264236Y-35377428D01*
X81216617Y-35329809D01*
X81121379Y-35282190D01*
X80930903Y-35234571D01*
X80835665Y-35186952D01*
X80788046Y-35139333D01*
X80740427Y-35044095D01*
X80740427Y-34948857D01*
X80788046Y-34853619D01*
X80835665Y-34806000D01*
X80930903Y-34758380D01*
X81168998Y-34758380D01*
X81311855Y-34806000D01*
X81645189Y-34758380D02*
X81883284Y-35758380D01*
X82073760Y-35044095D01*
X82264236Y-35758380D01*
X82502331Y-34758380D01*
X83407093Y-35758380D02*
X82835665Y-35758380D01*
X83121379Y-35758380D02*
X83121379Y-34758380D01*
X83026141Y-34901238D01*
X82930903Y-34996476D01*
X82835665Y-35044095D01*
X84359474Y-35758380D02*
X83788046Y-35758380D01*
X84073760Y-35758380D02*
X84073760Y-34758380D01*
X83978522Y-34901238D01*
X83883284Y-34996476D01*
X83788046Y-35044095D01*
X80740427Y-54760712D02*
X80883284Y-54808331D01*
X81121379Y-54808331D01*
X81216617Y-54760712D01*
X81264236Y-54713093D01*
X81311855Y-54617855D01*
X81311855Y-54522617D01*
X81264236Y-54427379D01*
X81216617Y-54379760D01*
X81121379Y-54332141D01*
X80930903Y-54284522D01*
X80835665Y-54236903D01*
X80788046Y-54189284D01*
X80740427Y-54094046D01*
X80740427Y-53998808D01*
X80788046Y-53903570D01*
X80835665Y-53855951D01*
X80930903Y-53808331D01*
X81168998Y-53808331D01*
X81311855Y-53855951D01*
X81645189Y-53808331D02*
X81883284Y-54808331D01*
X82073760Y-54094046D01*
X82264236Y-54808331D01*
X82502331Y-53808331D01*
X83407093Y-54808331D02*
X82835665Y-54808331D01*
X83121379Y-54808331D02*
X83121379Y-53808331D01*
X83026141Y-53951189D01*
X82930903Y-54046427D01*
X82835665Y-54094046D01*
X83788046Y-53903570D02*
X83835665Y-53855951D01*
X83930903Y-53808331D01*
X84168998Y-53808331D01*
X84264236Y-53855951D01*
X84311855Y-53903570D01*
X84359474Y-53998808D01*
X84359474Y-54094046D01*
X84311855Y-54236903D01*
X83740427Y-54808331D01*
X84359474Y-54808331D01*
X80740427Y-73810663D02*
X80883284Y-73858282D01*
X81121379Y-73858282D01*
X81216617Y-73810663D01*
X81264236Y-73763044D01*
X81311855Y-73667806D01*
X81311855Y-73572568D01*
X81264236Y-73477330D01*
X81216617Y-73429711D01*
X81121379Y-73382092D01*
X80930903Y-73334473D01*
X80835665Y-73286854D01*
X80788046Y-73239235D01*
X80740427Y-73143997D01*
X80740427Y-73048759D01*
X80788046Y-72953521D01*
X80835665Y-72905902D01*
X80930903Y-72858282D01*
X81168998Y-72858282D01*
X81311855Y-72905902D01*
X81645189Y-72858282D02*
X81883284Y-73858282D01*
X82073760Y-73143997D01*
X82264236Y-73858282D01*
X82502331Y-72858282D01*
X83407093Y-73858282D02*
X82835665Y-73858282D01*
X83121379Y-73858282D02*
X83121379Y-72858282D01*
X83026141Y-73001140D01*
X82930903Y-73096378D01*
X82835665Y-73143997D01*
X83740427Y-72858282D02*
X84359474Y-72858282D01*
X84026141Y-73239235D01*
X84168998Y-73239235D01*
X84264236Y-73286854D01*
X84311855Y-73334473D01*
X84359474Y-73429711D01*
X84359474Y-73667806D01*
X84311855Y-73763044D01*
X84264236Y-73810663D01*
X84168998Y-73858282D01*
X83883284Y-73858282D01*
X83788046Y-73810663D01*
X83740427Y-73763044D01*
X80740427Y-92860614D02*
X80883284Y-92908233D01*
X81121379Y-92908233D01*
X81216617Y-92860614D01*
X81264236Y-92812995D01*
X81311855Y-92717757D01*
X81311855Y-92622519D01*
X81264236Y-92527281D01*
X81216617Y-92479662D01*
X81121379Y-92432043D01*
X80930903Y-92384424D01*
X80835665Y-92336805D01*
X80788046Y-92289186D01*
X80740427Y-92193948D01*
X80740427Y-92098710D01*
X80788046Y-92003472D01*
X80835665Y-91955853D01*
X80930903Y-91908233D01*
X81168998Y-91908233D01*
X81311855Y-91955853D01*
X81645189Y-91908233D02*
X81883284Y-92908233D01*
X82073760Y-92193948D01*
X82264236Y-92908233D01*
X82502331Y-91908233D01*
X83407093Y-92908233D02*
X82835665Y-92908233D01*
X83121379Y-92908233D02*
X83121379Y-91908233D01*
X83026141Y-92051091D01*
X82930903Y-92146329D01*
X82835665Y-92193948D01*
X84264236Y-92241567D02*
X84264236Y-92908233D01*
X84026141Y-91860614D02*
X83788046Y-92574900D01*
X84407093Y-92574900D01*
X80740427Y-111910565D02*
X80883284Y-111958184D01*
X81121379Y-111958184D01*
X81216617Y-111910565D01*
X81264236Y-111862946D01*
X81311855Y-111767708D01*
X81311855Y-111672470D01*
X81264236Y-111577232D01*
X81216617Y-111529613D01*
X81121379Y-111481994D01*
X80930903Y-111434375D01*
X80835665Y-111386756D01*
X80788046Y-111339137D01*
X80740427Y-111243899D01*
X80740427Y-111148661D01*
X80788046Y-111053423D01*
X80835665Y-111005804D01*
X80930903Y-110958184D01*
X81168998Y-110958184D01*
X81311855Y-111005804D01*
X81645189Y-110958184D02*
X81883284Y-111958184D01*
X82073760Y-111243899D01*
X82264236Y-111958184D01*
X82502331Y-110958184D01*
X83407093Y-111958184D02*
X82835665Y-111958184D01*
X83121379Y-111958184D02*
X83121379Y-110958184D01*
X83026141Y-111101042D01*
X82930903Y-111196280D01*
X82835665Y-111243899D01*
X84311855Y-110958184D02*
X83835665Y-110958184D01*
X83788046Y-111434375D01*
X83835665Y-111386756D01*
X83930903Y-111339137D01*
X84168998Y-111339137D01*
X84264236Y-111386756D01*
X84311855Y-111434375D01*
X84359474Y-111529613D01*
X84359474Y-111767708D01*
X84311855Y-111862946D01*
X84264236Y-111910565D01*
X84168998Y-111958184D01*
X83930903Y-111958184D01*
X83835665Y-111910565D01*
X83788046Y-111862946D01*
X99790378Y-35710761D02*
X99933235Y-35758380D01*
X100171330Y-35758380D01*
X100266568Y-35710761D01*
X100314187Y-35663142D01*
X100361806Y-35567904D01*
X100361806Y-35472666D01*
X100314187Y-35377428D01*
X100266568Y-35329809D01*
X100171330Y-35282190D01*
X99980854Y-35234571D01*
X99885616Y-35186952D01*
X99837997Y-35139333D01*
X99790378Y-35044095D01*
X99790378Y-34948857D01*
X99837997Y-34853619D01*
X99885616Y-34806000D01*
X99980854Y-34758380D01*
X100218949Y-34758380D01*
X100361806Y-34806000D01*
X100695140Y-34758380D02*
X100933235Y-35758380D01*
X101123711Y-35044095D01*
X101314187Y-35758380D01*
X101552282Y-34758380D01*
X102457044Y-35758380D02*
X101885616Y-35758380D01*
X102171330Y-35758380D02*
X102171330Y-34758380D01*
X102076092Y-34901238D01*
X101980854Y-34996476D01*
X101885616Y-35044095D01*
X103314187Y-34758380D02*
X103123711Y-34758380D01*
X103028473Y-34806000D01*
X102980854Y-34853619D01*
X102885616Y-34996476D01*
X102837997Y-35186952D01*
X102837997Y-35567904D01*
X102885616Y-35663142D01*
X102933235Y-35710761D01*
X103028473Y-35758380D01*
X103218949Y-35758380D01*
X103314187Y-35710761D01*
X103361806Y-35663142D01*
X103409425Y-35567904D01*
X103409425Y-35329809D01*
X103361806Y-35234571D01*
X103314187Y-35186952D01*
X103218949Y-35139333D01*
X103028473Y-35139333D01*
X102933235Y-35186952D01*
X102885616Y-35234571D01*
X102837997Y-35329809D01*
X99790378Y-54760712D02*
X99933235Y-54808331D01*
X100171330Y-54808331D01*
X100266568Y-54760712D01*
X100314187Y-54713093D01*
X100361806Y-54617855D01*
X100361806Y-54522617D01*
X100314187Y-54427379D01*
X100266568Y-54379760D01*
X100171330Y-54332141D01*
X99980854Y-54284522D01*
X99885616Y-54236903D01*
X99837997Y-54189284D01*
X99790378Y-54094046D01*
X99790378Y-53998808D01*
X99837997Y-53903570D01*
X99885616Y-53855951D01*
X99980854Y-53808331D01*
X100218949Y-53808331D01*
X100361806Y-53855951D01*
X100695140Y-53808331D02*
X100933235Y-54808331D01*
X101123711Y-54094046D01*
X101314187Y-54808331D01*
X101552282Y-53808331D01*
X102457044Y-54808331D02*
X101885616Y-54808331D01*
X102171330Y-54808331D02*
X102171330Y-53808331D01*
X102076092Y-53951189D01*
X101980854Y-54046427D01*
X101885616Y-54094046D01*
X102790378Y-53808331D02*
X103457044Y-53808331D01*
X103028473Y-54808331D01*
X99790378Y-73810663D02*
X99933235Y-73858282D01*
X100171330Y-73858282D01*
X100266568Y-73810663D01*
X100314187Y-73763044D01*
X100361806Y-73667806D01*
X100361806Y-73572568D01*
X100314187Y-73477330D01*
X100266568Y-73429711D01*
X100171330Y-73382092D01*
X99980854Y-73334473D01*
X99885616Y-73286854D01*
X99837997Y-73239235D01*
X99790378Y-73143997D01*
X99790378Y-73048759D01*
X99837997Y-72953521D01*
X99885616Y-72905902D01*
X99980854Y-72858282D01*
X100218949Y-72858282D01*
X100361806Y-72905902D01*
X100695140Y-72858282D02*
X100933235Y-73858282D01*
X101123711Y-73143997D01*
X101314187Y-73858282D01*
X101552282Y-72858282D01*
X102457044Y-73858282D02*
X101885616Y-73858282D01*
X102171330Y-73858282D02*
X102171330Y-72858282D01*
X102076092Y-73001140D01*
X101980854Y-73096378D01*
X101885616Y-73143997D01*
X103028473Y-73286854D02*
X102933235Y-73239235D01*
X102885616Y-73191616D01*
X102837997Y-73096378D01*
X102837997Y-73048759D01*
X102885616Y-72953521D01*
X102933235Y-72905902D01*
X103028473Y-72858282D01*
X103218949Y-72858282D01*
X103314187Y-72905902D01*
X103361806Y-72953521D01*
X103409425Y-73048759D01*
X103409425Y-73096378D01*
X103361806Y-73191616D01*
X103314187Y-73239235D01*
X103218949Y-73286854D01*
X103028473Y-73286854D01*
X102933235Y-73334473D01*
X102885616Y-73382092D01*
X102837997Y-73477330D01*
X102837997Y-73667806D01*
X102885616Y-73763044D01*
X102933235Y-73810663D01*
X103028473Y-73858282D01*
X103218949Y-73858282D01*
X103314187Y-73810663D01*
X103361806Y-73763044D01*
X103409425Y-73667806D01*
X103409425Y-73477330D01*
X103361806Y-73382092D01*
X103314187Y-73334473D01*
X103218949Y-73286854D01*
X99790378Y-92860614D02*
X99933235Y-92908233D01*
X100171330Y-92908233D01*
X100266568Y-92860614D01*
X100314187Y-92812995D01*
X100361806Y-92717757D01*
X100361806Y-92622519D01*
X100314187Y-92527281D01*
X100266568Y-92479662D01*
X100171330Y-92432043D01*
X99980854Y-92384424D01*
X99885616Y-92336805D01*
X99837997Y-92289186D01*
X99790378Y-92193948D01*
X99790378Y-92098710D01*
X99837997Y-92003472D01*
X99885616Y-91955853D01*
X99980854Y-91908233D01*
X100218949Y-91908233D01*
X100361806Y-91955853D01*
X100695140Y-91908233D02*
X100933235Y-92908233D01*
X101123711Y-92193948D01*
X101314187Y-92908233D01*
X101552282Y-91908233D01*
X102457044Y-92908233D02*
X101885616Y-92908233D01*
X102171330Y-92908233D02*
X102171330Y-91908233D01*
X102076092Y-92051091D01*
X101980854Y-92146329D01*
X101885616Y-92193948D01*
X102933235Y-92908233D02*
X103123711Y-92908233D01*
X103218949Y-92860614D01*
X103266568Y-92812995D01*
X103361806Y-92670138D01*
X103409425Y-92479662D01*
X103409425Y-92098710D01*
X103361806Y-92003472D01*
X103314187Y-91955853D01*
X103218949Y-91908233D01*
X103028473Y-91908233D01*
X102933235Y-91955853D01*
X102885616Y-92003472D01*
X102837997Y-92098710D01*
X102837997Y-92336805D01*
X102885616Y-92432043D01*
X102933235Y-92479662D01*
X103028473Y-92527281D01*
X103218949Y-92527281D01*
X103314187Y-92479662D01*
X103361806Y-92432043D01*
X103409425Y-92336805D01*
X99790476Y-111910565D02*
X99933333Y-111958184D01*
X100171428Y-111958184D01*
X100266666Y-111910565D01*
X100314285Y-111862946D01*
X100361904Y-111767708D01*
X100361904Y-111672470D01*
X100314285Y-111577232D01*
X100266666Y-111529613D01*
X100171428Y-111481994D01*
X99980952Y-111434375D01*
X99885714Y-111386756D01*
X99838095Y-111339137D01*
X99790476Y-111243899D01*
X99790476Y-111148661D01*
X99838095Y-111053423D01*
X99885714Y-111005804D01*
X99980952Y-110958184D01*
X100219047Y-110958184D01*
X100361904Y-111005804D01*
X100695238Y-110958184D02*
X100933333Y-111958184D01*
X101123809Y-111243899D01*
X101314285Y-111958184D01*
X101552380Y-110958184D01*
X101885714Y-111053423D02*
X101933333Y-111005804D01*
X102028571Y-110958184D01*
X102266666Y-110958184D01*
X102361904Y-111005804D01*
X102409523Y-111053423D01*
X102457142Y-111148661D01*
X102457142Y-111243899D01*
X102409523Y-111386756D01*
X101838095Y-111958184D01*
X102457142Y-111958184D01*
X103076190Y-110958184D02*
X103171428Y-110958184D01*
X103266666Y-111005804D01*
X103314285Y-111053423D01*
X103361904Y-111148661D01*
X103409523Y-111339137D01*
X103409523Y-111577232D01*
X103361904Y-111767708D01*
X103314285Y-111862946D01*
X103266666Y-111910565D01*
X103171428Y-111958184D01*
X103076190Y-111958184D01*
X102980952Y-111910565D01*
X102933333Y-111862946D01*
X102885714Y-111767708D01*
X102838095Y-111577232D01*
X102838095Y-111339137D01*
X102885714Y-111148661D01*
X102933333Y-111053423D01*
X102980952Y-111005804D01*
X103076190Y-110958184D01*
X33961904Y-45452380D02*
X33961904Y-44452380D01*
X34200000Y-44452380D01*
X34342857Y-44500000D01*
X34438095Y-44595238D01*
X34485714Y-44690476D01*
X34533333Y-44880952D01*
X34533333Y-45023809D01*
X34485714Y-45214285D01*
X34438095Y-45309523D01*
X34342857Y-45404761D01*
X34200000Y-45452380D01*
X33961904Y-45452380D01*
X35485714Y-45452380D02*
X34914285Y-45452380D01*
X35200000Y-45452380D02*
X35200000Y-44452380D01*
X35104761Y-44595238D01*
X35009523Y-44690476D01*
X34914285Y-44738095D01*
X34061904Y-64452380D02*
X34061904Y-63452380D01*
X34300000Y-63452380D01*
X34442857Y-63500000D01*
X34538095Y-63595238D01*
X34585714Y-63690476D01*
X34633333Y-63880952D01*
X34633333Y-64023809D01*
X34585714Y-64214285D01*
X34538095Y-64309523D01*
X34442857Y-64404761D01*
X34300000Y-64452380D01*
X34061904Y-64452380D01*
X35014285Y-63547619D02*
X35061904Y-63500000D01*
X35157142Y-63452380D01*
X35395238Y-63452380D01*
X35490476Y-63500000D01*
X35538095Y-63547619D01*
X35585714Y-63642857D01*
X35585714Y-63738095D01*
X35538095Y-63880952D01*
X34966666Y-64452380D01*
X35585714Y-64452380D01*
X34061904Y-83452380D02*
X34061904Y-82452380D01*
X34300000Y-82452380D01*
X34442857Y-82500000D01*
X34538095Y-82595238D01*
X34585714Y-82690476D01*
X34633333Y-82880952D01*
X34633333Y-83023809D01*
X34585714Y-83214285D01*
X34538095Y-83309523D01*
X34442857Y-83404761D01*
X34300000Y-83452380D01*
X34061904Y-83452380D01*
X34966666Y-82452380D02*
X35585714Y-82452380D01*
X35252380Y-82833333D01*
X35395238Y-82833333D01*
X35490476Y-82880952D01*
X35538095Y-82928571D01*
X35585714Y-83023809D01*
X35585714Y-83261904D01*
X35538095Y-83357142D01*
X35490476Y-83404761D01*
X35395238Y-83452380D01*
X35109523Y-83452380D01*
X35014285Y-83404761D01*
X34966666Y-83357142D01*
X34061904Y-102452380D02*
X34061904Y-101452380D01*
X34300000Y-101452380D01*
X34442857Y-101500000D01*
X34538095Y-101595238D01*
X34585714Y-101690476D01*
X34633333Y-101880952D01*
X34633333Y-102023809D01*
X34585714Y-102214285D01*
X34538095Y-102309523D01*
X34442857Y-102404761D01*
X34300000Y-102452380D01*
X34061904Y-102452380D01*
X35490476Y-101785714D02*
X35490476Y-102452380D01*
X35252380Y-101404761D02*
X35014285Y-102119047D01*
X35633333Y-102119047D01*
X34061904Y-121452380D02*
X34061904Y-120452380D01*
X34300000Y-120452380D01*
X34442857Y-120500000D01*
X34538095Y-120595238D01*
X34585714Y-120690476D01*
X34633333Y-120880952D01*
X34633333Y-121023809D01*
X34585714Y-121214285D01*
X34538095Y-121309523D01*
X34442857Y-121404761D01*
X34300000Y-121452380D01*
X34061904Y-121452380D01*
X35538095Y-120452380D02*
X35061904Y-120452380D01*
X35014285Y-120928571D01*
X35061904Y-120880952D01*
X35157142Y-120833333D01*
X35395238Y-120833333D01*
X35490476Y-120880952D01*
X35538095Y-120928571D01*
X35585714Y-121023809D01*
X35585714Y-121261904D01*
X35538095Y-121357142D01*
X35490476Y-121404761D01*
X35395238Y-121452380D01*
X35157142Y-121452380D01*
X35061904Y-121404761D01*
X35014285Y-121357142D01*
X53061904Y-45452380D02*
X53061904Y-44452380D01*
X53300000Y-44452380D01*
X53442857Y-44500000D01*
X53538095Y-44595238D01*
X53585714Y-44690476D01*
X53633333Y-44880952D01*
X53633333Y-45023809D01*
X53585714Y-45214285D01*
X53538095Y-45309523D01*
X53442857Y-45404761D01*
X53300000Y-45452380D01*
X53061904Y-45452380D01*
X54490476Y-44452380D02*
X54300000Y-44452380D01*
X54204761Y-44500000D01*
X54157142Y-44547619D01*
X54061904Y-44690476D01*
X54014285Y-44880952D01*
X54014285Y-45261904D01*
X54061904Y-45357142D01*
X54109523Y-45404761D01*
X54204761Y-45452380D01*
X54395238Y-45452380D01*
X54490476Y-45404761D01*
X54538095Y-45357142D01*
X54585714Y-45261904D01*
X54585714Y-45023809D01*
X54538095Y-44928571D01*
X54490476Y-44880952D01*
X54395238Y-44833333D01*
X54204761Y-44833333D01*
X54109523Y-44880952D01*
X54061904Y-44928571D01*
X54014285Y-45023809D01*
X53061904Y-64452380D02*
X53061904Y-63452380D01*
X53300000Y-63452380D01*
X53442857Y-63500000D01*
X53538095Y-63595238D01*
X53585714Y-63690476D01*
X53633333Y-63880952D01*
X53633333Y-64023809D01*
X53585714Y-64214285D01*
X53538095Y-64309523D01*
X53442857Y-64404761D01*
X53300000Y-64452380D01*
X53061904Y-64452380D01*
X53966666Y-63452380D02*
X54633333Y-63452380D01*
X54204761Y-64452380D01*
X53061904Y-83452380D02*
X53061904Y-82452380D01*
X53300000Y-82452380D01*
X53442857Y-82500000D01*
X53538095Y-82595238D01*
X53585714Y-82690476D01*
X53633333Y-82880952D01*
X53633333Y-83023809D01*
X53585714Y-83214285D01*
X53538095Y-83309523D01*
X53442857Y-83404761D01*
X53300000Y-83452380D01*
X53061904Y-83452380D01*
X54204761Y-82880952D02*
X54109523Y-82833333D01*
X54061904Y-82785714D01*
X54014285Y-82690476D01*
X54014285Y-82642857D01*
X54061904Y-82547619D01*
X54109523Y-82500000D01*
X54204761Y-82452380D01*
X54395238Y-82452380D01*
X54490476Y-82500000D01*
X54538095Y-82547619D01*
X54585714Y-82642857D01*
X54585714Y-82690476D01*
X54538095Y-82785714D01*
X54490476Y-82833333D01*
X54395238Y-82880952D01*
X54204761Y-82880952D01*
X54109523Y-82928571D01*
X54061904Y-82976190D01*
X54014285Y-83071428D01*
X54014285Y-83261904D01*
X54061904Y-83357142D01*
X54109523Y-83404761D01*
X54204761Y-83452380D01*
X54395238Y-83452380D01*
X54490476Y-83404761D01*
X54538095Y-83357142D01*
X54585714Y-83261904D01*
X54585714Y-83071428D01*
X54538095Y-82976190D01*
X54490476Y-82928571D01*
X54395238Y-82880952D01*
X53061904Y-102452380D02*
X53061904Y-101452380D01*
X53300000Y-101452380D01*
X53442857Y-101500000D01*
X53538095Y-101595238D01*
X53585714Y-101690476D01*
X53633333Y-101880952D01*
X53633333Y-102023809D01*
X53585714Y-102214285D01*
X53538095Y-102309523D01*
X53442857Y-102404761D01*
X53300000Y-102452380D01*
X53061904Y-102452380D01*
X54109523Y-102452380D02*
X54300000Y-102452380D01*
X54395238Y-102404761D01*
X54442857Y-102357142D01*
X54538095Y-102214285D01*
X54585714Y-102023809D01*
X54585714Y-101642857D01*
X54538095Y-101547619D01*
X54490476Y-101500000D01*
X54395238Y-101452380D01*
X54204761Y-101452380D01*
X54109523Y-101500000D01*
X54061904Y-101547619D01*
X54014285Y-101642857D01*
X54014285Y-101880952D01*
X54061904Y-101976190D01*
X54109523Y-102023809D01*
X54204761Y-102071428D01*
X54395238Y-102071428D01*
X54490476Y-102023809D01*
X54538095Y-101976190D01*
X54585714Y-101880952D01*
X52585714Y-121452380D02*
X52585714Y-120452380D01*
X52823809Y-120452380D01*
X52966666Y-120500000D01*
X53061904Y-120595238D01*
X53109523Y-120690476D01*
X53157142Y-120880952D01*
X53157142Y-121023809D01*
X53109523Y-121214285D01*
X53061904Y-121309523D01*
X52966666Y-121404761D01*
X52823809Y-121452380D01*
X52585714Y-121452380D01*
X54109523Y-121452380D02*
X53538095Y-121452380D01*
X53823809Y-121452380D02*
X53823809Y-120452380D01*
X53728571Y-120595238D01*
X53633333Y-120690476D01*
X53538095Y-120738095D01*
X54728571Y-120452380D02*
X54823809Y-120452380D01*
X54919047Y-120500000D01*
X54966666Y-120547619D01*
X55014285Y-120642857D01*
X55061904Y-120833333D01*
X55061904Y-121071428D01*
X55014285Y-121261904D01*
X54966666Y-121357142D01*
X54919047Y-121404761D01*
X54823809Y-121452380D01*
X54728571Y-121452380D01*
X54633333Y-121404761D01*
X54585714Y-121357142D01*
X54538095Y-121261904D01*
X54490476Y-121071428D01*
X54490476Y-120833333D01*
X54538095Y-120642857D01*
X54585714Y-120547619D01*
X54633333Y-120500000D01*
X54728571Y-120452380D01*
X71585714Y-45452380D02*
X71585714Y-44452380D01*
X71823809Y-44452380D01*
X71966666Y-44500000D01*
X72061904Y-44595238D01*
X72109523Y-44690476D01*
X72157142Y-44880952D01*
X72157142Y-45023809D01*
X72109523Y-45214285D01*
X72061904Y-45309523D01*
X71966666Y-45404761D01*
X71823809Y-45452380D01*
X71585714Y-45452380D01*
X73109523Y-45452380D02*
X72538095Y-45452380D01*
X72823809Y-45452380D02*
X72823809Y-44452380D01*
X72728571Y-44595238D01*
X72633333Y-44690476D01*
X72538095Y-44738095D01*
X74061904Y-45452380D02*
X73490476Y-45452380D01*
X73776190Y-45452380D02*
X73776190Y-44452380D01*
X73680952Y-44595238D01*
X73585714Y-44690476D01*
X73490476Y-44738095D01*
X71585714Y-64452380D02*
X71585714Y-63452380D01*
X71823809Y-63452380D01*
X71966666Y-63500000D01*
X72061904Y-63595238D01*
X72109523Y-63690476D01*
X72157142Y-63880952D01*
X72157142Y-64023809D01*
X72109523Y-64214285D01*
X72061904Y-64309523D01*
X71966666Y-64404761D01*
X71823809Y-64452380D01*
X71585714Y-64452380D01*
X73109523Y-64452380D02*
X72538095Y-64452380D01*
X72823809Y-64452380D02*
X72823809Y-63452380D01*
X72728571Y-63595238D01*
X72633333Y-63690476D01*
X72538095Y-63738095D01*
X73490476Y-63547619D02*
X73538095Y-63500000D01*
X73633333Y-63452380D01*
X73871428Y-63452380D01*
X73966666Y-63500000D01*
X74014285Y-63547619D01*
X74061904Y-63642857D01*
X74061904Y-63738095D01*
X74014285Y-63880952D01*
X73442857Y-64452380D01*
X74061904Y-64452380D01*
X71585714Y-83452380D02*
X71585714Y-82452380D01*
X71823809Y-82452380D01*
X71966666Y-82500000D01*
X72061904Y-82595238D01*
X72109523Y-82690476D01*
X72157142Y-82880952D01*
X72157142Y-83023809D01*
X72109523Y-83214285D01*
X72061904Y-83309523D01*
X71966666Y-83404761D01*
X71823809Y-83452380D01*
X71585714Y-83452380D01*
X73109523Y-83452380D02*
X72538095Y-83452380D01*
X72823809Y-83452380D02*
X72823809Y-82452380D01*
X72728571Y-82595238D01*
X72633333Y-82690476D01*
X72538095Y-82738095D01*
X73442857Y-82452380D02*
X74061904Y-82452380D01*
X73728571Y-82833333D01*
X73871428Y-82833333D01*
X73966666Y-82880952D01*
X74014285Y-82928571D01*
X74061904Y-83023809D01*
X74061904Y-83261904D01*
X74014285Y-83357142D01*
X73966666Y-83404761D01*
X73871428Y-83452380D01*
X73585714Y-83452380D01*
X73490476Y-83404761D01*
X73442857Y-83357142D01*
X71585714Y-102452380D02*
X71585714Y-101452380D01*
X71823809Y-101452380D01*
X71966666Y-101500000D01*
X72061904Y-101595238D01*
X72109523Y-101690476D01*
X72157142Y-101880952D01*
X72157142Y-102023809D01*
X72109523Y-102214285D01*
X72061904Y-102309523D01*
X71966666Y-102404761D01*
X71823809Y-102452380D01*
X71585714Y-102452380D01*
X73109523Y-102452380D02*
X72538095Y-102452380D01*
X72823809Y-102452380D02*
X72823809Y-101452380D01*
X72728571Y-101595238D01*
X72633333Y-101690476D01*
X72538095Y-101738095D01*
X73966666Y-101785714D02*
X73966666Y-102452380D01*
X73728571Y-101404761D02*
X73490476Y-102119047D01*
X74109523Y-102119047D01*
X71585714Y-121452380D02*
X71585714Y-120452380D01*
X71823809Y-120452380D01*
X71966666Y-120500000D01*
X72061904Y-120595238D01*
X72109523Y-120690476D01*
X72157142Y-120880952D01*
X72157142Y-121023809D01*
X72109523Y-121214285D01*
X72061904Y-121309523D01*
X71966666Y-121404761D01*
X71823809Y-121452380D01*
X71585714Y-121452380D01*
X73109523Y-121452380D02*
X72538095Y-121452380D01*
X72823809Y-121452380D02*
X72823809Y-120452380D01*
X72728571Y-120595238D01*
X72633333Y-120690476D01*
X72538095Y-120738095D01*
X74014285Y-120452380D02*
X73538095Y-120452380D01*
X73490476Y-120928571D01*
X73538095Y-120880952D01*
X73633333Y-120833333D01*
X73871428Y-120833333D01*
X73966666Y-120880952D01*
X74014285Y-120928571D01*
X74061904Y-121023809D01*
X74061904Y-121261904D01*
X74014285Y-121357142D01*
X73966666Y-121404761D01*
X73871428Y-121452380D01*
X73633333Y-121452380D01*
X73538095Y-121404761D01*
X73490476Y-121357142D01*
X90585714Y-45452380D02*
X90585714Y-44452380D01*
X90823809Y-44452380D01*
X90966666Y-44500000D01*
X91061904Y-44595238D01*
X91109523Y-44690476D01*
X91157142Y-44880952D01*
X91157142Y-45023809D01*
X91109523Y-45214285D01*
X91061904Y-45309523D01*
X90966666Y-45404761D01*
X90823809Y-45452380D01*
X90585714Y-45452380D01*
X92109523Y-45452380D02*
X91538095Y-45452380D01*
X91823809Y-45452380D02*
X91823809Y-44452380D01*
X91728571Y-44595238D01*
X91633333Y-44690476D01*
X91538095Y-44738095D01*
X92966666Y-44452380D02*
X92776190Y-44452380D01*
X92680952Y-44500000D01*
X92633333Y-44547619D01*
X92538095Y-44690476D01*
X92490476Y-44880952D01*
X92490476Y-45261904D01*
X92538095Y-45357142D01*
X92585714Y-45404761D01*
X92680952Y-45452380D01*
X92871428Y-45452380D01*
X92966666Y-45404761D01*
X93014285Y-45357142D01*
X93061904Y-45261904D01*
X93061904Y-45023809D01*
X93014285Y-44928571D01*
X92966666Y-44880952D01*
X92871428Y-44833333D01*
X92680952Y-44833333D01*
X92585714Y-44880952D01*
X92538095Y-44928571D01*
X92490476Y-45023809D01*
X90585714Y-64452380D02*
X90585714Y-63452380D01*
X90823809Y-63452380D01*
X90966666Y-63500000D01*
X91061904Y-63595238D01*
X91109523Y-63690476D01*
X91157142Y-63880952D01*
X91157142Y-64023809D01*
X91109523Y-64214285D01*
X91061904Y-64309523D01*
X90966666Y-64404761D01*
X90823809Y-64452380D01*
X90585714Y-64452380D01*
X92109523Y-64452380D02*
X91538095Y-64452380D01*
X91823809Y-64452380D02*
X91823809Y-63452380D01*
X91728571Y-63595238D01*
X91633333Y-63690476D01*
X91538095Y-63738095D01*
X92442857Y-63452380D02*
X93109523Y-63452380D01*
X92680952Y-64452380D01*
X90585714Y-83452380D02*
X90585714Y-82452380D01*
X90823809Y-82452380D01*
X90966666Y-82500000D01*
X91061904Y-82595238D01*
X91109523Y-82690476D01*
X91157142Y-82880952D01*
X91157142Y-83023809D01*
X91109523Y-83214285D01*
X91061904Y-83309523D01*
X90966666Y-83404761D01*
X90823809Y-83452380D01*
X90585714Y-83452380D01*
X92109523Y-83452380D02*
X91538095Y-83452380D01*
X91823809Y-83452380D02*
X91823809Y-82452380D01*
X91728571Y-82595238D01*
X91633333Y-82690476D01*
X91538095Y-82738095D01*
X92680952Y-82880952D02*
X92585714Y-82833333D01*
X92538095Y-82785714D01*
X92490476Y-82690476D01*
X92490476Y-82642857D01*
X92538095Y-82547619D01*
X92585714Y-82500000D01*
X92680952Y-82452380D01*
X92871428Y-82452380D01*
X92966666Y-82500000D01*
X93014285Y-82547619D01*
X93061904Y-82642857D01*
X93061904Y-82690476D01*
X93014285Y-82785714D01*
X92966666Y-82833333D01*
X92871428Y-82880952D01*
X92680952Y-82880952D01*
X92585714Y-82928571D01*
X92538095Y-82976190D01*
X92490476Y-83071428D01*
X92490476Y-83261904D01*
X92538095Y-83357142D01*
X92585714Y-83404761D01*
X92680952Y-83452380D01*
X92871428Y-83452380D01*
X92966666Y-83404761D01*
X93014285Y-83357142D01*
X93061904Y-83261904D01*
X93061904Y-83071428D01*
X93014285Y-82976190D01*
X92966666Y-82928571D01*
X92871428Y-82880952D01*
X90585714Y-102452380D02*
X90585714Y-101452380D01*
X90823809Y-101452380D01*
X90966666Y-101500000D01*
X91061904Y-101595238D01*
X91109523Y-101690476D01*
X91157142Y-101880952D01*
X91157142Y-102023809D01*
X91109523Y-102214285D01*
X91061904Y-102309523D01*
X90966666Y-102404761D01*
X90823809Y-102452380D01*
X90585714Y-102452380D01*
X92109523Y-102452380D02*
X91538095Y-102452380D01*
X91823809Y-102452380D02*
X91823809Y-101452380D01*
X91728571Y-101595238D01*
X91633333Y-101690476D01*
X91538095Y-101738095D01*
X92585714Y-102452380D02*
X92776190Y-102452380D01*
X92871428Y-102404761D01*
X92919047Y-102357142D01*
X93014285Y-102214285D01*
X93061904Y-102023809D01*
X93061904Y-101642857D01*
X93014285Y-101547619D01*
X92966666Y-101500000D01*
X92871428Y-101452380D01*
X92680952Y-101452380D01*
X92585714Y-101500000D01*
X92538095Y-101547619D01*
X92490476Y-101642857D01*
X92490476Y-101880952D01*
X92538095Y-101976190D01*
X92585714Y-102023809D01*
X92680952Y-102071428D01*
X92871428Y-102071428D01*
X92966666Y-102023809D01*
X93014285Y-101976190D01*
X93061904Y-101880952D01*
X90585714Y-121452380D02*
X90585714Y-120452380D01*
X90823809Y-120452380D01*
X90966666Y-120500000D01*
X91061904Y-120595238D01*
X91109523Y-120690476D01*
X91157142Y-120880952D01*
X91157142Y-121023809D01*
X91109523Y-121214285D01*
X91061904Y-121309523D01*
X90966666Y-121404761D01*
X90823809Y-121452380D01*
X90585714Y-121452380D01*
X91538095Y-120547619D02*
X91585714Y-120500000D01*
X91680952Y-120452380D01*
X91919047Y-120452380D01*
X92014285Y-120500000D01*
X92061904Y-120547619D01*
X92109523Y-120642857D01*
X92109523Y-120738095D01*
X92061904Y-120880952D01*
X91490476Y-121452380D01*
X92109523Y-121452380D01*
X92728571Y-120452380D02*
X92823809Y-120452380D01*
X92919047Y-120500000D01*
X92966666Y-120547619D01*
X93014285Y-120642857D01*
X93061904Y-120833333D01*
X93061904Y-121071428D01*
X93014285Y-121261904D01*
X92966666Y-121357142D01*
X92919047Y-121404761D01*
X92823809Y-121452380D01*
X92728571Y-121452380D01*
X92633333Y-121404761D01*
X92585714Y-121357142D01*
X92538095Y-121261904D01*
X92490476Y-121071428D01*
X92490476Y-120833333D01*
X92538095Y-120642857D01*
X92585714Y-120547619D01*
X92633333Y-120500000D01*
X92728571Y-120452380D01*
M02*
