%TF.GenerationSoftware,KiCad,Pcbnew,(5.0.2-5-10.14)*%
%TF.CreationDate,2019-04-08T21:19:03+10:00*%
%TF.ProjectId,macropod,6d616372-6f70-46f6-942e-6b696361645f,rev?*%
%TF.SameCoordinates,Original*%
%TF.FileFunction,Paste,Top*%
%TF.FilePolarity,Positive*%
%FSLAX46Y46*%
G04 Gerber Fmt 4.6, Leading zero omitted, Abs format (unit mm)*
G04 Created by KiCad (PCBNEW (5.0.2-5-10.14)) date Monday, 08 April 2019 at 09:19:03 pm*
%MOMM*%
%LPD*%
G01*
G04 APERTURE LIST*
%ADD10C,0.150000*%
%ADD11R,1.200000X0.900000*%
G04 APERTURE END LIST*
D10*
X29700000Y-28429951D02*
X29700000Y-134229951D01*
X29700000Y-134229951D02*
X116300000Y-134229951D01*
X116300000Y-28429951D02*
X116300000Y-134229951D01*
X29700000Y-28429951D02*
X116300000Y-28429951D01*
D11*
X34740000Y-43390000D03*
X34740000Y-40090000D03*
X34740000Y-62365000D03*
X34740000Y-59065000D03*
X34740000Y-81415000D03*
X34740000Y-78115000D03*
X34740000Y-100415000D03*
X34740000Y-97115000D03*
X34740000Y-119415000D03*
X34740000Y-116115000D03*
X53740000Y-43390000D03*
X53740000Y-40090000D03*
X53740000Y-59115000D03*
X53740000Y-62415000D03*
X53740000Y-78090000D03*
X53740000Y-81390000D03*
X53740000Y-97115000D03*
X53740000Y-100415000D03*
X53740000Y-116115000D03*
X53740000Y-119415000D03*
X72740000Y-43415000D03*
X72740000Y-40115000D03*
X72740000Y-59115000D03*
X72740000Y-62415000D03*
X72740000Y-78115000D03*
X72740000Y-81415000D03*
X72740000Y-97115000D03*
X72740000Y-100415000D03*
X72740000Y-116115000D03*
X72740000Y-119415000D03*
X91740000Y-40115000D03*
X91740000Y-43415000D03*
X91740000Y-62415000D03*
X91740000Y-59115000D03*
X91740000Y-81390000D03*
X91740000Y-78090000D03*
X91740000Y-97115000D03*
X91740000Y-100415000D03*
X91740000Y-119390000D03*
X91740000Y-116090000D03*
M02*
