%TF.GenerationSoftware,KiCad,Pcbnew,(5.0.2-5-10.14)*%
%TF.CreationDate,2019-04-08T21:19:03+10:00*%
%TF.ProjectId,macropod,6d616372-6f70-46f6-942e-6b696361645f,rev?*%
%TF.SameCoordinates,Original*%
%TF.FileFunction,Copper,L2,Bot*%
%TF.FilePolarity,Positive*%
%FSLAX46Y46*%
G04 Gerber Fmt 4.6, Leading zero omitted, Abs format (unit mm)*
G04 Created by KiCad (PCBNEW (5.0.2-5-10.14)) date Monday, 08 April 2019 at 09:19:03 pm*
%MOMM*%
%LPD*%
G01*
G04 APERTURE LIST*
%ADD10C,0.150000*%
%ADD11C,2.200000*%
%ADD12C,1.150000*%
%ADD13R,1.200000X1.900000*%
%ADD14O,1.200000X1.900000*%
%ADD15R,1.500000X1.900000*%
%ADD16C,1.450000*%
%ADD17R,0.400000X1.350000*%
%ADD18R,0.740000X2.400000*%
%ADD19R,0.600000X1.200000*%
%ADD20R,1.200000X0.600000*%
%ADD21R,3.800000X2.000000*%
%ADD22R,1.500000X2.000000*%
%ADD23R,0.900000X1.700000*%
%ADD24C,0.800000*%
%ADD25C,0.250000*%
%ADD26C,0.254000*%
G04 APERTURE END LIST*
D10*
X29700000Y-28429951D02*
X29700000Y-134229951D01*
X29700000Y-134229951D02*
X116300000Y-134229951D01*
X116300000Y-28429951D02*
X116300000Y-134229951D01*
X29700000Y-28429951D02*
X116300000Y-28429951D01*
D11*
X46990049Y-38100000D03*
X40640049Y-40640000D03*
D10*
G36*
X73874505Y-45031155D02*
X73898773Y-45034755D01*
X73922572Y-45040716D01*
X73945671Y-45048981D01*
X73967850Y-45059471D01*
X73988893Y-45072083D01*
X74008599Y-45086698D01*
X74026777Y-45103174D01*
X74043253Y-45121352D01*
X74057868Y-45141058D01*
X74070480Y-45162101D01*
X74080970Y-45184280D01*
X74089235Y-45207379D01*
X74095196Y-45231178D01*
X74098796Y-45255446D01*
X74100000Y-45279950D01*
X74100000Y-46179952D01*
X74098796Y-46204456D01*
X74095196Y-46228724D01*
X74089235Y-46252523D01*
X74080970Y-46275622D01*
X74070480Y-46297801D01*
X74057868Y-46318844D01*
X74043253Y-46338550D01*
X74026777Y-46356728D01*
X74008599Y-46373204D01*
X73988893Y-46387819D01*
X73967850Y-46400431D01*
X73945671Y-46410921D01*
X73922572Y-46419186D01*
X73898773Y-46425147D01*
X73874505Y-46428747D01*
X73850001Y-46429951D01*
X73199999Y-46429951D01*
X73175495Y-46428747D01*
X73151227Y-46425147D01*
X73127428Y-46419186D01*
X73104329Y-46410921D01*
X73082150Y-46400431D01*
X73061107Y-46387819D01*
X73041401Y-46373204D01*
X73023223Y-46356728D01*
X73006747Y-46338550D01*
X72992132Y-46318844D01*
X72979520Y-46297801D01*
X72969030Y-46275622D01*
X72960765Y-46252523D01*
X72954804Y-46228724D01*
X72951204Y-46204456D01*
X72950000Y-46179952D01*
X72950000Y-45279950D01*
X72951204Y-45255446D01*
X72954804Y-45231178D01*
X72960765Y-45207379D01*
X72969030Y-45184280D01*
X72979520Y-45162101D01*
X72992132Y-45141058D01*
X73006747Y-45121352D01*
X73023223Y-45103174D01*
X73041401Y-45086698D01*
X73061107Y-45072083D01*
X73082150Y-45059471D01*
X73104329Y-45048981D01*
X73127428Y-45040716D01*
X73151227Y-45034755D01*
X73175495Y-45031155D01*
X73199999Y-45029951D01*
X73850001Y-45029951D01*
X73874505Y-45031155D01*
X73874505Y-45031155D01*
G37*
D12*
X73525000Y-45729951D03*
D10*
G36*
X71824505Y-45031155D02*
X71848773Y-45034755D01*
X71872572Y-45040716D01*
X71895671Y-45048981D01*
X71917850Y-45059471D01*
X71938893Y-45072083D01*
X71958599Y-45086698D01*
X71976777Y-45103174D01*
X71993253Y-45121352D01*
X72007868Y-45141058D01*
X72020480Y-45162101D01*
X72030970Y-45184280D01*
X72039235Y-45207379D01*
X72045196Y-45231178D01*
X72048796Y-45255446D01*
X72050000Y-45279950D01*
X72050000Y-46179952D01*
X72048796Y-46204456D01*
X72045196Y-46228724D01*
X72039235Y-46252523D01*
X72030970Y-46275622D01*
X72020480Y-46297801D01*
X72007868Y-46318844D01*
X71993253Y-46338550D01*
X71976777Y-46356728D01*
X71958599Y-46373204D01*
X71938893Y-46387819D01*
X71917850Y-46400431D01*
X71895671Y-46410921D01*
X71872572Y-46419186D01*
X71848773Y-46425147D01*
X71824505Y-46428747D01*
X71800001Y-46429951D01*
X71149999Y-46429951D01*
X71125495Y-46428747D01*
X71101227Y-46425147D01*
X71077428Y-46419186D01*
X71054329Y-46410921D01*
X71032150Y-46400431D01*
X71011107Y-46387819D01*
X70991401Y-46373204D01*
X70973223Y-46356728D01*
X70956747Y-46338550D01*
X70942132Y-46318844D01*
X70929520Y-46297801D01*
X70919030Y-46275622D01*
X70910765Y-46252523D01*
X70904804Y-46228724D01*
X70901204Y-46204456D01*
X70900000Y-46179952D01*
X70900000Y-45279950D01*
X70901204Y-45255446D01*
X70904804Y-45231178D01*
X70910765Y-45207379D01*
X70919030Y-45184280D01*
X70929520Y-45162101D01*
X70942132Y-45141058D01*
X70956747Y-45121352D01*
X70973223Y-45103174D01*
X70991401Y-45086698D01*
X71011107Y-45072083D01*
X71032150Y-45059471D01*
X71054329Y-45048981D01*
X71077428Y-45040716D01*
X71101227Y-45034755D01*
X71125495Y-45031155D01*
X71149999Y-45029951D01*
X71800001Y-45029951D01*
X71824505Y-45031155D01*
X71824505Y-45031155D01*
G37*
D12*
X71475000Y-45729951D03*
D10*
G36*
X67374505Y-52031155D02*
X67398773Y-52034755D01*
X67422572Y-52040716D01*
X67445671Y-52048981D01*
X67467850Y-52059471D01*
X67488893Y-52072083D01*
X67508599Y-52086698D01*
X67526777Y-52103174D01*
X67543253Y-52121352D01*
X67557868Y-52141058D01*
X67570480Y-52162101D01*
X67580970Y-52184280D01*
X67589235Y-52207379D01*
X67595196Y-52231178D01*
X67598796Y-52255446D01*
X67600000Y-52279950D01*
X67600000Y-53179952D01*
X67598796Y-53204456D01*
X67595196Y-53228724D01*
X67589235Y-53252523D01*
X67580970Y-53275622D01*
X67570480Y-53297801D01*
X67557868Y-53318844D01*
X67543253Y-53338550D01*
X67526777Y-53356728D01*
X67508599Y-53373204D01*
X67488893Y-53387819D01*
X67467850Y-53400431D01*
X67445671Y-53410921D01*
X67422572Y-53419186D01*
X67398773Y-53425147D01*
X67374505Y-53428747D01*
X67350001Y-53429951D01*
X66699999Y-53429951D01*
X66675495Y-53428747D01*
X66651227Y-53425147D01*
X66627428Y-53419186D01*
X66604329Y-53410921D01*
X66582150Y-53400431D01*
X66561107Y-53387819D01*
X66541401Y-53373204D01*
X66523223Y-53356728D01*
X66506747Y-53338550D01*
X66492132Y-53318844D01*
X66479520Y-53297801D01*
X66469030Y-53275622D01*
X66460765Y-53252523D01*
X66454804Y-53228724D01*
X66451204Y-53204456D01*
X66450000Y-53179952D01*
X66450000Y-52279950D01*
X66451204Y-52255446D01*
X66454804Y-52231178D01*
X66460765Y-52207379D01*
X66469030Y-52184280D01*
X66479520Y-52162101D01*
X66492132Y-52141058D01*
X66506747Y-52121352D01*
X66523223Y-52103174D01*
X66541401Y-52086698D01*
X66561107Y-52072083D01*
X66582150Y-52059471D01*
X66604329Y-52048981D01*
X66627428Y-52040716D01*
X66651227Y-52034755D01*
X66675495Y-52031155D01*
X66699999Y-52029951D01*
X67350001Y-52029951D01*
X67374505Y-52031155D01*
X67374505Y-52031155D01*
G37*
D12*
X67025000Y-52729951D03*
D10*
G36*
X65324505Y-52031155D02*
X65348773Y-52034755D01*
X65372572Y-52040716D01*
X65395671Y-52048981D01*
X65417850Y-52059471D01*
X65438893Y-52072083D01*
X65458599Y-52086698D01*
X65476777Y-52103174D01*
X65493253Y-52121352D01*
X65507868Y-52141058D01*
X65520480Y-52162101D01*
X65530970Y-52184280D01*
X65539235Y-52207379D01*
X65545196Y-52231178D01*
X65548796Y-52255446D01*
X65550000Y-52279950D01*
X65550000Y-53179952D01*
X65548796Y-53204456D01*
X65545196Y-53228724D01*
X65539235Y-53252523D01*
X65530970Y-53275622D01*
X65520480Y-53297801D01*
X65507868Y-53318844D01*
X65493253Y-53338550D01*
X65476777Y-53356728D01*
X65458599Y-53373204D01*
X65438893Y-53387819D01*
X65417850Y-53400431D01*
X65395671Y-53410921D01*
X65372572Y-53419186D01*
X65348773Y-53425147D01*
X65324505Y-53428747D01*
X65300001Y-53429951D01*
X64649999Y-53429951D01*
X64625495Y-53428747D01*
X64601227Y-53425147D01*
X64577428Y-53419186D01*
X64554329Y-53410921D01*
X64532150Y-53400431D01*
X64511107Y-53387819D01*
X64491401Y-53373204D01*
X64473223Y-53356728D01*
X64456747Y-53338550D01*
X64442132Y-53318844D01*
X64429520Y-53297801D01*
X64419030Y-53275622D01*
X64410765Y-53252523D01*
X64404804Y-53228724D01*
X64401204Y-53204456D01*
X64400000Y-53179952D01*
X64400000Y-52279950D01*
X64401204Y-52255446D01*
X64404804Y-52231178D01*
X64410765Y-52207379D01*
X64419030Y-52184280D01*
X64429520Y-52162101D01*
X64442132Y-52141058D01*
X64456747Y-52121352D01*
X64473223Y-52103174D01*
X64491401Y-52086698D01*
X64511107Y-52072083D01*
X64532150Y-52059471D01*
X64554329Y-52048981D01*
X64577428Y-52040716D01*
X64601227Y-52034755D01*
X64625495Y-52031155D01*
X64649999Y-52029951D01*
X65300001Y-52029951D01*
X65324505Y-52031155D01*
X65324505Y-52031155D01*
G37*
D12*
X64975000Y-52729951D03*
D10*
G36*
X75974505Y-77131155D02*
X75998773Y-77134755D01*
X76022572Y-77140716D01*
X76045671Y-77148981D01*
X76067850Y-77159471D01*
X76088893Y-77172083D01*
X76108599Y-77186698D01*
X76126777Y-77203174D01*
X76143253Y-77221352D01*
X76157868Y-77241058D01*
X76170480Y-77262101D01*
X76180970Y-77284280D01*
X76189235Y-77307379D01*
X76195196Y-77331178D01*
X76198796Y-77355446D01*
X76200000Y-77379950D01*
X76200000Y-78029952D01*
X76198796Y-78054456D01*
X76195196Y-78078724D01*
X76189235Y-78102523D01*
X76180970Y-78125622D01*
X76170480Y-78147801D01*
X76157868Y-78168844D01*
X76143253Y-78188550D01*
X76126777Y-78206728D01*
X76108599Y-78223204D01*
X76088893Y-78237819D01*
X76067850Y-78250431D01*
X76045671Y-78260921D01*
X76022572Y-78269186D01*
X75998773Y-78275147D01*
X75974505Y-78278747D01*
X75950001Y-78279951D01*
X75049999Y-78279951D01*
X75025495Y-78278747D01*
X75001227Y-78275147D01*
X74977428Y-78269186D01*
X74954329Y-78260921D01*
X74932150Y-78250431D01*
X74911107Y-78237819D01*
X74891401Y-78223204D01*
X74873223Y-78206728D01*
X74856747Y-78188550D01*
X74842132Y-78168844D01*
X74829520Y-78147801D01*
X74819030Y-78125622D01*
X74810765Y-78102523D01*
X74804804Y-78078724D01*
X74801204Y-78054456D01*
X74800000Y-78029952D01*
X74800000Y-77379950D01*
X74801204Y-77355446D01*
X74804804Y-77331178D01*
X74810765Y-77307379D01*
X74819030Y-77284280D01*
X74829520Y-77262101D01*
X74842132Y-77241058D01*
X74856747Y-77221352D01*
X74873223Y-77203174D01*
X74891401Y-77186698D01*
X74911107Y-77172083D01*
X74932150Y-77159471D01*
X74954329Y-77148981D01*
X74977428Y-77140716D01*
X75001227Y-77134755D01*
X75025495Y-77131155D01*
X75049999Y-77129951D01*
X75950001Y-77129951D01*
X75974505Y-77131155D01*
X75974505Y-77131155D01*
G37*
D12*
X75500000Y-77704951D03*
D10*
G36*
X75974505Y-79181155D02*
X75998773Y-79184755D01*
X76022572Y-79190716D01*
X76045671Y-79198981D01*
X76067850Y-79209471D01*
X76088893Y-79222083D01*
X76108599Y-79236698D01*
X76126777Y-79253174D01*
X76143253Y-79271352D01*
X76157868Y-79291058D01*
X76170480Y-79312101D01*
X76180970Y-79334280D01*
X76189235Y-79357379D01*
X76195196Y-79381178D01*
X76198796Y-79405446D01*
X76200000Y-79429950D01*
X76200000Y-80079952D01*
X76198796Y-80104456D01*
X76195196Y-80128724D01*
X76189235Y-80152523D01*
X76180970Y-80175622D01*
X76170480Y-80197801D01*
X76157868Y-80218844D01*
X76143253Y-80238550D01*
X76126777Y-80256728D01*
X76108599Y-80273204D01*
X76088893Y-80287819D01*
X76067850Y-80300431D01*
X76045671Y-80310921D01*
X76022572Y-80319186D01*
X75998773Y-80325147D01*
X75974505Y-80328747D01*
X75950001Y-80329951D01*
X75049999Y-80329951D01*
X75025495Y-80328747D01*
X75001227Y-80325147D01*
X74977428Y-80319186D01*
X74954329Y-80310921D01*
X74932150Y-80300431D01*
X74911107Y-80287819D01*
X74891401Y-80273204D01*
X74873223Y-80256728D01*
X74856747Y-80238550D01*
X74842132Y-80218844D01*
X74829520Y-80197801D01*
X74819030Y-80175622D01*
X74810765Y-80152523D01*
X74804804Y-80128724D01*
X74801204Y-80104456D01*
X74800000Y-80079952D01*
X74800000Y-79429950D01*
X74801204Y-79405446D01*
X74804804Y-79381178D01*
X74810765Y-79357379D01*
X74819030Y-79334280D01*
X74829520Y-79312101D01*
X74842132Y-79291058D01*
X74856747Y-79271352D01*
X74873223Y-79253174D01*
X74891401Y-79236698D01*
X74911107Y-79222083D01*
X74932150Y-79209471D01*
X74954329Y-79198981D01*
X74977428Y-79190716D01*
X75001227Y-79184755D01*
X75025495Y-79181155D01*
X75049999Y-79179951D01*
X75950001Y-79179951D01*
X75974505Y-79181155D01*
X75974505Y-79181155D01*
G37*
D12*
X75500000Y-79754951D03*
D10*
G36*
X68974505Y-63181155D02*
X68998773Y-63184755D01*
X69022572Y-63190716D01*
X69045671Y-63198981D01*
X69067850Y-63209471D01*
X69088893Y-63222083D01*
X69108599Y-63236698D01*
X69126777Y-63253174D01*
X69143253Y-63271352D01*
X69157868Y-63291058D01*
X69170480Y-63312101D01*
X69180970Y-63334280D01*
X69189235Y-63357379D01*
X69195196Y-63381178D01*
X69198796Y-63405446D01*
X69200000Y-63429950D01*
X69200000Y-64079952D01*
X69198796Y-64104456D01*
X69195196Y-64128724D01*
X69189235Y-64152523D01*
X69180970Y-64175622D01*
X69170480Y-64197801D01*
X69157868Y-64218844D01*
X69143253Y-64238550D01*
X69126777Y-64256728D01*
X69108599Y-64273204D01*
X69088893Y-64287819D01*
X69067850Y-64300431D01*
X69045671Y-64310921D01*
X69022572Y-64319186D01*
X68998773Y-64325147D01*
X68974505Y-64328747D01*
X68950001Y-64329951D01*
X68049999Y-64329951D01*
X68025495Y-64328747D01*
X68001227Y-64325147D01*
X67977428Y-64319186D01*
X67954329Y-64310921D01*
X67932150Y-64300431D01*
X67911107Y-64287819D01*
X67891401Y-64273204D01*
X67873223Y-64256728D01*
X67856747Y-64238550D01*
X67842132Y-64218844D01*
X67829520Y-64197801D01*
X67819030Y-64175622D01*
X67810765Y-64152523D01*
X67804804Y-64128724D01*
X67801204Y-64104456D01*
X67800000Y-64079952D01*
X67800000Y-63429950D01*
X67801204Y-63405446D01*
X67804804Y-63381178D01*
X67810765Y-63357379D01*
X67819030Y-63334280D01*
X67829520Y-63312101D01*
X67842132Y-63291058D01*
X67856747Y-63271352D01*
X67873223Y-63253174D01*
X67891401Y-63236698D01*
X67911107Y-63222083D01*
X67932150Y-63209471D01*
X67954329Y-63198981D01*
X67977428Y-63190716D01*
X68001227Y-63184755D01*
X68025495Y-63181155D01*
X68049999Y-63179951D01*
X68950001Y-63179951D01*
X68974505Y-63181155D01*
X68974505Y-63181155D01*
G37*
D12*
X68500000Y-63754951D03*
D10*
G36*
X68974505Y-61131155D02*
X68998773Y-61134755D01*
X69022572Y-61140716D01*
X69045671Y-61148981D01*
X69067850Y-61159471D01*
X69088893Y-61172083D01*
X69108599Y-61186698D01*
X69126777Y-61203174D01*
X69143253Y-61221352D01*
X69157868Y-61241058D01*
X69170480Y-61262101D01*
X69180970Y-61284280D01*
X69189235Y-61307379D01*
X69195196Y-61331178D01*
X69198796Y-61355446D01*
X69200000Y-61379950D01*
X69200000Y-62029952D01*
X69198796Y-62054456D01*
X69195196Y-62078724D01*
X69189235Y-62102523D01*
X69180970Y-62125622D01*
X69170480Y-62147801D01*
X69157868Y-62168844D01*
X69143253Y-62188550D01*
X69126777Y-62206728D01*
X69108599Y-62223204D01*
X69088893Y-62237819D01*
X69067850Y-62250431D01*
X69045671Y-62260921D01*
X69022572Y-62269186D01*
X68998773Y-62275147D01*
X68974505Y-62278747D01*
X68950001Y-62279951D01*
X68049999Y-62279951D01*
X68025495Y-62278747D01*
X68001227Y-62275147D01*
X67977428Y-62269186D01*
X67954329Y-62260921D01*
X67932150Y-62250431D01*
X67911107Y-62237819D01*
X67891401Y-62223204D01*
X67873223Y-62206728D01*
X67856747Y-62188550D01*
X67842132Y-62168844D01*
X67829520Y-62147801D01*
X67819030Y-62125622D01*
X67810765Y-62102523D01*
X67804804Y-62078724D01*
X67801204Y-62054456D01*
X67800000Y-62029952D01*
X67800000Y-61379950D01*
X67801204Y-61355446D01*
X67804804Y-61331178D01*
X67810765Y-61307379D01*
X67819030Y-61284280D01*
X67829520Y-61262101D01*
X67842132Y-61241058D01*
X67856747Y-61221352D01*
X67873223Y-61203174D01*
X67891401Y-61186698D01*
X67911107Y-61172083D01*
X67932150Y-61159471D01*
X67954329Y-61148981D01*
X67977428Y-61140716D01*
X68001227Y-61134755D01*
X68025495Y-61131155D01*
X68049999Y-61129951D01*
X68950001Y-61129951D01*
X68974505Y-61131155D01*
X68974505Y-61131155D01*
G37*
D12*
X68500000Y-61704951D03*
D13*
X70100000Y-29922451D03*
X75900000Y-29922451D03*
D14*
X76500000Y-29922451D03*
X69500000Y-29922451D03*
D15*
X72000000Y-29922451D03*
D16*
X75500000Y-32622451D03*
D17*
X73000000Y-32622451D03*
X73650000Y-32622451D03*
X74300000Y-32622451D03*
X71700000Y-32622451D03*
X72350000Y-32622451D03*
D16*
X70500000Y-32622451D03*
D15*
X74000000Y-29922451D03*
D18*
X94780000Y-51690000D03*
X94780000Y-47790000D03*
X93510000Y-51690000D03*
X93510000Y-47790000D03*
X92240000Y-51690000D03*
X92240000Y-47790000D03*
X90970000Y-51690000D03*
X90970000Y-47790000D03*
X89700000Y-51690000D03*
X89700000Y-47790000D03*
D19*
X76300000Y-74479951D03*
X75500000Y-74479951D03*
X74700000Y-74479951D03*
X73900000Y-74479951D03*
X73100000Y-74479951D03*
X72300000Y-74479951D03*
X71500000Y-74479951D03*
X70700000Y-74479951D03*
D20*
X69250000Y-73029951D03*
X69250000Y-72229951D03*
X69250000Y-71429951D03*
X69250000Y-70629951D03*
X69250000Y-69829951D03*
X69250000Y-69029951D03*
X69250000Y-68229951D03*
X69250000Y-67429951D03*
D19*
X70700000Y-65979951D03*
X71500000Y-65979951D03*
X72300000Y-65979951D03*
X73100000Y-65979951D03*
X73900000Y-65979951D03*
X74700000Y-65979951D03*
X75500000Y-65979951D03*
X76300000Y-65979951D03*
D20*
X77750000Y-67429951D03*
X77750000Y-68229951D03*
X77750000Y-69029951D03*
X77750000Y-69829951D03*
X77750000Y-70629951D03*
X77750000Y-71429951D03*
X77750000Y-72229951D03*
X77750000Y-73029951D03*
D21*
X73000000Y-55879951D03*
D22*
X73000000Y-49579951D03*
X75300000Y-49579951D03*
X70700000Y-49579951D03*
D11*
X46990049Y-57149951D03*
X40640049Y-59689951D03*
X46990049Y-76199902D03*
X40640049Y-78739902D03*
X46990049Y-95316708D03*
X40640049Y-97856708D03*
X46990049Y-114299804D03*
X40640049Y-116839804D03*
X59690000Y-40640000D03*
X66040000Y-38100000D03*
X66040000Y-57149951D03*
X59690000Y-59689951D03*
X59690000Y-78739902D03*
X66040000Y-76199902D03*
X59690000Y-97789853D03*
X66040000Y-95249853D03*
X66040000Y-114299804D03*
X59690000Y-116839804D03*
X78739951Y-40640000D03*
X85089951Y-38100000D03*
X85089951Y-57149951D03*
X78739951Y-59689951D03*
X78739951Y-78739902D03*
X85089951Y-76199902D03*
X85089951Y-95249853D03*
X78739951Y-97789853D03*
X78739951Y-116839804D03*
X85089951Y-114299804D03*
X104139902Y-38100000D03*
X97789902Y-40640000D03*
X97789902Y-59689951D03*
X104139902Y-57149951D03*
X97789902Y-78739902D03*
X104139902Y-76199902D03*
X97789902Y-97789853D03*
X104139902Y-95249853D03*
X97790000Y-116839804D03*
X104140000Y-114299804D03*
D10*
G36*
X73474505Y-77131155D02*
X73498773Y-77134755D01*
X73522572Y-77140716D01*
X73545671Y-77148981D01*
X73567850Y-77159471D01*
X73588893Y-77172083D01*
X73608599Y-77186698D01*
X73626777Y-77203174D01*
X73643253Y-77221352D01*
X73657868Y-77241058D01*
X73670480Y-77262101D01*
X73680970Y-77284280D01*
X73689235Y-77307379D01*
X73695196Y-77331178D01*
X73698796Y-77355446D01*
X73700000Y-77379950D01*
X73700000Y-78029952D01*
X73698796Y-78054456D01*
X73695196Y-78078724D01*
X73689235Y-78102523D01*
X73680970Y-78125622D01*
X73670480Y-78147801D01*
X73657868Y-78168844D01*
X73643253Y-78188550D01*
X73626777Y-78206728D01*
X73608599Y-78223204D01*
X73588893Y-78237819D01*
X73567850Y-78250431D01*
X73545671Y-78260921D01*
X73522572Y-78269186D01*
X73498773Y-78275147D01*
X73474505Y-78278747D01*
X73450001Y-78279951D01*
X72549999Y-78279951D01*
X72525495Y-78278747D01*
X72501227Y-78275147D01*
X72477428Y-78269186D01*
X72454329Y-78260921D01*
X72432150Y-78250431D01*
X72411107Y-78237819D01*
X72391401Y-78223204D01*
X72373223Y-78206728D01*
X72356747Y-78188550D01*
X72342132Y-78168844D01*
X72329520Y-78147801D01*
X72319030Y-78125622D01*
X72310765Y-78102523D01*
X72304804Y-78078724D01*
X72301204Y-78054456D01*
X72300000Y-78029952D01*
X72300000Y-77379950D01*
X72301204Y-77355446D01*
X72304804Y-77331178D01*
X72310765Y-77307379D01*
X72319030Y-77284280D01*
X72329520Y-77262101D01*
X72342132Y-77241058D01*
X72356747Y-77221352D01*
X72373223Y-77203174D01*
X72391401Y-77186698D01*
X72411107Y-77172083D01*
X72432150Y-77159471D01*
X72454329Y-77148981D01*
X72477428Y-77140716D01*
X72501227Y-77134755D01*
X72525495Y-77131155D01*
X72549999Y-77129951D01*
X73450001Y-77129951D01*
X73474505Y-77131155D01*
X73474505Y-77131155D01*
G37*
D12*
X73000000Y-77704951D03*
D10*
G36*
X73474505Y-79181155D02*
X73498773Y-79184755D01*
X73522572Y-79190716D01*
X73545671Y-79198981D01*
X73567850Y-79209471D01*
X73588893Y-79222083D01*
X73608599Y-79236698D01*
X73626777Y-79253174D01*
X73643253Y-79271352D01*
X73657868Y-79291058D01*
X73670480Y-79312101D01*
X73680970Y-79334280D01*
X73689235Y-79357379D01*
X73695196Y-79381178D01*
X73698796Y-79405446D01*
X73700000Y-79429950D01*
X73700000Y-80079952D01*
X73698796Y-80104456D01*
X73695196Y-80128724D01*
X73689235Y-80152523D01*
X73680970Y-80175622D01*
X73670480Y-80197801D01*
X73657868Y-80218844D01*
X73643253Y-80238550D01*
X73626777Y-80256728D01*
X73608599Y-80273204D01*
X73588893Y-80287819D01*
X73567850Y-80300431D01*
X73545671Y-80310921D01*
X73522572Y-80319186D01*
X73498773Y-80325147D01*
X73474505Y-80328747D01*
X73450001Y-80329951D01*
X72549999Y-80329951D01*
X72525495Y-80328747D01*
X72501227Y-80325147D01*
X72477428Y-80319186D01*
X72454329Y-80310921D01*
X72432150Y-80300431D01*
X72411107Y-80287819D01*
X72391401Y-80273204D01*
X72373223Y-80256728D01*
X72356747Y-80238550D01*
X72342132Y-80218844D01*
X72329520Y-80197801D01*
X72319030Y-80175622D01*
X72310765Y-80152523D01*
X72304804Y-80128724D01*
X72301204Y-80104456D01*
X72300000Y-80079952D01*
X72300000Y-79429950D01*
X72301204Y-79405446D01*
X72304804Y-79381178D01*
X72310765Y-79357379D01*
X72319030Y-79334280D01*
X72329520Y-79312101D01*
X72342132Y-79291058D01*
X72356747Y-79271352D01*
X72373223Y-79253174D01*
X72391401Y-79236698D01*
X72411107Y-79222083D01*
X72432150Y-79209471D01*
X72454329Y-79198981D01*
X72477428Y-79190716D01*
X72501227Y-79184755D01*
X72525495Y-79181155D01*
X72549999Y-79179951D01*
X73450001Y-79179951D01*
X73474505Y-79181155D01*
X73474505Y-79181155D01*
G37*
D12*
X73000000Y-79754951D03*
D10*
G36*
X61374505Y-52781155D02*
X61398773Y-52784755D01*
X61422572Y-52790716D01*
X61445671Y-52798981D01*
X61467850Y-52809471D01*
X61488893Y-52822083D01*
X61508599Y-52836698D01*
X61526777Y-52853174D01*
X61543253Y-52871352D01*
X61557868Y-52891058D01*
X61570480Y-52912101D01*
X61580970Y-52934280D01*
X61589235Y-52957379D01*
X61595196Y-52981178D01*
X61598796Y-53005446D01*
X61600000Y-53029950D01*
X61600000Y-53929952D01*
X61598796Y-53954456D01*
X61595196Y-53978724D01*
X61589235Y-54002523D01*
X61580970Y-54025622D01*
X61570480Y-54047801D01*
X61557868Y-54068844D01*
X61543253Y-54088550D01*
X61526777Y-54106728D01*
X61508599Y-54123204D01*
X61488893Y-54137819D01*
X61467850Y-54150431D01*
X61445671Y-54160921D01*
X61422572Y-54169186D01*
X61398773Y-54175147D01*
X61374505Y-54178747D01*
X61350001Y-54179951D01*
X60699999Y-54179951D01*
X60675495Y-54178747D01*
X60651227Y-54175147D01*
X60627428Y-54169186D01*
X60604329Y-54160921D01*
X60582150Y-54150431D01*
X60561107Y-54137819D01*
X60541401Y-54123204D01*
X60523223Y-54106728D01*
X60506747Y-54088550D01*
X60492132Y-54068844D01*
X60479520Y-54047801D01*
X60469030Y-54025622D01*
X60460765Y-54002523D01*
X60454804Y-53978724D01*
X60451204Y-53954456D01*
X60450000Y-53929952D01*
X60450000Y-53029950D01*
X60451204Y-53005446D01*
X60454804Y-52981178D01*
X60460765Y-52957379D01*
X60469030Y-52934280D01*
X60479520Y-52912101D01*
X60492132Y-52891058D01*
X60506747Y-52871352D01*
X60523223Y-52853174D01*
X60541401Y-52836698D01*
X60561107Y-52822083D01*
X60582150Y-52809471D01*
X60604329Y-52798981D01*
X60627428Y-52790716D01*
X60651227Y-52784755D01*
X60675495Y-52781155D01*
X60699999Y-52779951D01*
X61350001Y-52779951D01*
X61374505Y-52781155D01*
X61374505Y-52781155D01*
G37*
D12*
X61025000Y-53479951D03*
D10*
G36*
X59324505Y-52781155D02*
X59348773Y-52784755D01*
X59372572Y-52790716D01*
X59395671Y-52798981D01*
X59417850Y-52809471D01*
X59438893Y-52822083D01*
X59458599Y-52836698D01*
X59476777Y-52853174D01*
X59493253Y-52871352D01*
X59507868Y-52891058D01*
X59520480Y-52912101D01*
X59530970Y-52934280D01*
X59539235Y-52957379D01*
X59545196Y-52981178D01*
X59548796Y-53005446D01*
X59550000Y-53029950D01*
X59550000Y-53929952D01*
X59548796Y-53954456D01*
X59545196Y-53978724D01*
X59539235Y-54002523D01*
X59530970Y-54025622D01*
X59520480Y-54047801D01*
X59507868Y-54068844D01*
X59493253Y-54088550D01*
X59476777Y-54106728D01*
X59458599Y-54123204D01*
X59438893Y-54137819D01*
X59417850Y-54150431D01*
X59395671Y-54160921D01*
X59372572Y-54169186D01*
X59348773Y-54175147D01*
X59324505Y-54178747D01*
X59300001Y-54179951D01*
X58649999Y-54179951D01*
X58625495Y-54178747D01*
X58601227Y-54175147D01*
X58577428Y-54169186D01*
X58554329Y-54160921D01*
X58532150Y-54150431D01*
X58511107Y-54137819D01*
X58491401Y-54123204D01*
X58473223Y-54106728D01*
X58456747Y-54088550D01*
X58442132Y-54068844D01*
X58429520Y-54047801D01*
X58419030Y-54025622D01*
X58410765Y-54002523D01*
X58404804Y-53978724D01*
X58401204Y-53954456D01*
X58400000Y-53929952D01*
X58400000Y-53029950D01*
X58401204Y-53005446D01*
X58404804Y-52981178D01*
X58410765Y-52957379D01*
X58419030Y-52934280D01*
X58429520Y-52912101D01*
X58442132Y-52891058D01*
X58456747Y-52871352D01*
X58473223Y-52853174D01*
X58491401Y-52836698D01*
X58511107Y-52822083D01*
X58532150Y-52809471D01*
X58554329Y-52798981D01*
X58577428Y-52790716D01*
X58601227Y-52784755D01*
X58625495Y-52781155D01*
X58649999Y-52779951D01*
X59300001Y-52779951D01*
X59324505Y-52781155D01*
X59324505Y-52781155D01*
G37*
D12*
X58975000Y-53479951D03*
D10*
G36*
X61374505Y-49531155D02*
X61398773Y-49534755D01*
X61422572Y-49540716D01*
X61445671Y-49548981D01*
X61467850Y-49559471D01*
X61488893Y-49572083D01*
X61508599Y-49586698D01*
X61526777Y-49603174D01*
X61543253Y-49621352D01*
X61557868Y-49641058D01*
X61570480Y-49662101D01*
X61580970Y-49684280D01*
X61589235Y-49707379D01*
X61595196Y-49731178D01*
X61598796Y-49755446D01*
X61600000Y-49779950D01*
X61600000Y-50679952D01*
X61598796Y-50704456D01*
X61595196Y-50728724D01*
X61589235Y-50752523D01*
X61580970Y-50775622D01*
X61570480Y-50797801D01*
X61557868Y-50818844D01*
X61543253Y-50838550D01*
X61526777Y-50856728D01*
X61508599Y-50873204D01*
X61488893Y-50887819D01*
X61467850Y-50900431D01*
X61445671Y-50910921D01*
X61422572Y-50919186D01*
X61398773Y-50925147D01*
X61374505Y-50928747D01*
X61350001Y-50929951D01*
X60699999Y-50929951D01*
X60675495Y-50928747D01*
X60651227Y-50925147D01*
X60627428Y-50919186D01*
X60604329Y-50910921D01*
X60582150Y-50900431D01*
X60561107Y-50887819D01*
X60541401Y-50873204D01*
X60523223Y-50856728D01*
X60506747Y-50838550D01*
X60492132Y-50818844D01*
X60479520Y-50797801D01*
X60469030Y-50775622D01*
X60460765Y-50752523D01*
X60454804Y-50728724D01*
X60451204Y-50704456D01*
X60450000Y-50679952D01*
X60450000Y-49779950D01*
X60451204Y-49755446D01*
X60454804Y-49731178D01*
X60460765Y-49707379D01*
X60469030Y-49684280D01*
X60479520Y-49662101D01*
X60492132Y-49641058D01*
X60506747Y-49621352D01*
X60523223Y-49603174D01*
X60541401Y-49586698D01*
X60561107Y-49572083D01*
X60582150Y-49559471D01*
X60604329Y-49548981D01*
X60627428Y-49540716D01*
X60651227Y-49534755D01*
X60675495Y-49531155D01*
X60699999Y-49529951D01*
X61350001Y-49529951D01*
X61374505Y-49531155D01*
X61374505Y-49531155D01*
G37*
D12*
X61025000Y-50229951D03*
D10*
G36*
X59324505Y-49531155D02*
X59348773Y-49534755D01*
X59372572Y-49540716D01*
X59395671Y-49548981D01*
X59417850Y-49559471D01*
X59438893Y-49572083D01*
X59458599Y-49586698D01*
X59476777Y-49603174D01*
X59493253Y-49621352D01*
X59507868Y-49641058D01*
X59520480Y-49662101D01*
X59530970Y-49684280D01*
X59539235Y-49707379D01*
X59545196Y-49731178D01*
X59548796Y-49755446D01*
X59550000Y-49779950D01*
X59550000Y-50679952D01*
X59548796Y-50704456D01*
X59545196Y-50728724D01*
X59539235Y-50752523D01*
X59530970Y-50775622D01*
X59520480Y-50797801D01*
X59507868Y-50818844D01*
X59493253Y-50838550D01*
X59476777Y-50856728D01*
X59458599Y-50873204D01*
X59438893Y-50887819D01*
X59417850Y-50900431D01*
X59395671Y-50910921D01*
X59372572Y-50919186D01*
X59348773Y-50925147D01*
X59324505Y-50928747D01*
X59300001Y-50929951D01*
X58649999Y-50929951D01*
X58625495Y-50928747D01*
X58601227Y-50925147D01*
X58577428Y-50919186D01*
X58554329Y-50910921D01*
X58532150Y-50900431D01*
X58511107Y-50887819D01*
X58491401Y-50873204D01*
X58473223Y-50856728D01*
X58456747Y-50838550D01*
X58442132Y-50818844D01*
X58429520Y-50797801D01*
X58419030Y-50775622D01*
X58410765Y-50752523D01*
X58404804Y-50728724D01*
X58401204Y-50704456D01*
X58400000Y-50679952D01*
X58400000Y-49779950D01*
X58401204Y-49755446D01*
X58404804Y-49731178D01*
X58410765Y-49707379D01*
X58419030Y-49684280D01*
X58429520Y-49662101D01*
X58442132Y-49641058D01*
X58456747Y-49621352D01*
X58473223Y-49603174D01*
X58491401Y-49586698D01*
X58511107Y-49572083D01*
X58532150Y-49559471D01*
X58554329Y-49548981D01*
X58577428Y-49540716D01*
X58601227Y-49534755D01*
X58625495Y-49531155D01*
X58649999Y-49529951D01*
X59300001Y-49529951D01*
X59324505Y-49531155D01*
X59324505Y-49531155D01*
G37*
D12*
X58975000Y-50229951D03*
D23*
X52300000Y-51729951D03*
X55700000Y-51729951D03*
D24*
X67250000Y-65229951D03*
X80000000Y-76229951D03*
X78000000Y-74479951D03*
X74800000Y-34729949D03*
X71000000Y-63229951D03*
X80500000Y-74229951D03*
X88500000Y-53979951D03*
X85500000Y-53979951D03*
X79500000Y-53979951D03*
X73250000Y-52729951D03*
X36332433Y-120382433D03*
X36282482Y-101332482D03*
X36232531Y-82282531D03*
X36232580Y-63232580D03*
X36157629Y-44182629D03*
X71250000Y-78979951D03*
X70000000Y-81479951D03*
X68000000Y-83479951D03*
X55332433Y-120382433D03*
X55282482Y-101332482D03*
X55257531Y-82282531D03*
X55182580Y-63232580D03*
X55157629Y-44182629D03*
X70000000Y-78479951D03*
X69000000Y-80729951D03*
X67000000Y-82729951D03*
X74332433Y-120382433D03*
X74282482Y-101332482D03*
X74232531Y-82282531D03*
X66500000Y-59229951D03*
X63500000Y-51229951D03*
X64000000Y-66729951D03*
X64000000Y-74979951D03*
X93357433Y-120382433D03*
X93282482Y-101332482D03*
X93257531Y-82282531D03*
X93182580Y-63232580D03*
X93132629Y-44182629D03*
X67750000Y-77479951D03*
X77750000Y-65979951D03*
X72250000Y-68229951D03*
X62750000Y-65979951D03*
X76000000Y-67729951D03*
X61000000Y-69229951D03*
X61000000Y-67979951D03*
X70823002Y-61979951D03*
X62250000Y-58229951D03*
D25*
X71700000Y-37339951D02*
X71700000Y-32629951D01*
X71690000Y-37349951D02*
X71700000Y-37339951D01*
X75300000Y-49579951D02*
X75300000Y-47554951D01*
X73500000Y-45754951D02*
X75500000Y-43754951D01*
X75500000Y-43754951D02*
X75500000Y-41159951D01*
X75500000Y-41159951D02*
X71690000Y-37349951D01*
X75300000Y-47554951D02*
X73500000Y-45754951D01*
X67250000Y-65229951D02*
X67250000Y-62954951D01*
X67250000Y-62954951D02*
X68500000Y-61704951D01*
X74300000Y-32729951D02*
X74300000Y-34229949D01*
X74300000Y-34229949D02*
X74400001Y-34329950D01*
X74400001Y-34329950D02*
X74800000Y-34729949D01*
X67700000Y-52729951D02*
X67025000Y-52729951D01*
X70100000Y-52729951D02*
X67700000Y-52729951D01*
X73000000Y-49829951D02*
X70100000Y-52729951D01*
X73000000Y-49579951D02*
X73000000Y-49829951D01*
X76300000Y-76904951D02*
X76300000Y-74479951D01*
X75500000Y-77704951D02*
X76300000Y-76904951D01*
X73100000Y-77604951D02*
X73000000Y-77704951D01*
X73100000Y-74479951D02*
X73100000Y-77604951D01*
X73000000Y-77704951D02*
X75500000Y-77704951D01*
X67025000Y-53529951D02*
X67025000Y-52729951D01*
X70000000Y-56504951D02*
X67025000Y-53529951D01*
X70000000Y-62229951D02*
X70000000Y-56504951D01*
X69123372Y-63106579D02*
X70000000Y-62229951D01*
X69123372Y-63131579D02*
X69123372Y-63106579D01*
X68500000Y-63754951D02*
X69123372Y-63131579D01*
X68775000Y-63754951D02*
X68500000Y-63754951D01*
X70700000Y-65679951D02*
X68775000Y-63754951D01*
X70700000Y-65979951D02*
X70700000Y-65679951D01*
X70000000Y-62229951D02*
X71000000Y-63229951D01*
X71000000Y-63229951D02*
X71000000Y-63229951D01*
X77025000Y-77704951D02*
X80500000Y-74229951D01*
X75500000Y-77704951D02*
X77025000Y-77704951D01*
X94780000Y-51690000D02*
X94780000Y-53699951D01*
X94780000Y-53699951D02*
X94500000Y-53979951D01*
X94500000Y-53979951D02*
X88500000Y-53979951D01*
X88500000Y-53979951D02*
X88500000Y-53979951D01*
X85500000Y-53979951D02*
X79500000Y-53979951D01*
X79500000Y-53979951D02*
X79500000Y-53979951D01*
X73250000Y-49829951D02*
X73000000Y-49579951D01*
X73250000Y-52729951D02*
X73250000Y-49829951D01*
X36157629Y-63157629D02*
X36232580Y-63232580D01*
X36157629Y-44182629D02*
X36157629Y-63157629D01*
X36232580Y-82282482D02*
X36232531Y-82282531D01*
X36232580Y-63232580D02*
X36232580Y-82282482D01*
X36232531Y-101282531D02*
X36282482Y-101332482D01*
X36232531Y-82282531D02*
X36232531Y-101282531D01*
X36282482Y-120332482D02*
X36332433Y-120382433D01*
X36282482Y-101332482D02*
X36282482Y-120332482D01*
X72300000Y-74479951D02*
X72300000Y-75929951D01*
X72300000Y-75929951D02*
X71250000Y-76979951D01*
X71250000Y-76979951D02*
X71250000Y-77479951D01*
X71250000Y-77479951D02*
X71250000Y-78979951D01*
X71250000Y-78479951D02*
X71250000Y-78979951D01*
X71250000Y-78979951D02*
X71250000Y-78479951D01*
X70000000Y-81479951D02*
X68000000Y-83479951D01*
X68000000Y-83479951D02*
X68000000Y-83479951D01*
X55282482Y-82307482D02*
X55257531Y-82282531D01*
X55282482Y-101332482D02*
X55282482Y-82307482D01*
X55257531Y-63307531D02*
X55182580Y-63232580D01*
X55257531Y-82282531D02*
X55257531Y-63307531D01*
X55332433Y-101382433D02*
X55282482Y-101332482D01*
X55332433Y-120382433D02*
X55332433Y-101382433D01*
X51000000Y-59050000D02*
X54782581Y-62832581D01*
X54782581Y-62832581D02*
X55182580Y-63232580D01*
X51000000Y-48340258D02*
X51000000Y-59050000D01*
X55157629Y-44182629D02*
X51000000Y-48340258D01*
X71500000Y-74479951D02*
X71500000Y-75329951D01*
X71500000Y-75329951D02*
X71500000Y-75979951D01*
X71500000Y-75979951D02*
X70750000Y-76729951D01*
X70750000Y-76729951D02*
X70750000Y-77729951D01*
X70750000Y-77729951D02*
X70000000Y-78479951D01*
X70000000Y-78479951D02*
X70000000Y-78479951D01*
X69000000Y-80729951D02*
X67000000Y-82729951D01*
X67000000Y-82729951D02*
X67000000Y-82729951D01*
X74332433Y-101382433D02*
X74282482Y-101332482D01*
X74332433Y-120382433D02*
X74332433Y-101382433D01*
X64000000Y-66729951D02*
X64000000Y-66729951D01*
X64000000Y-77229951D02*
X64000000Y-74979951D01*
X66500000Y-64229951D02*
X66500000Y-59229951D01*
X63500000Y-51229951D02*
X63500000Y-57229951D01*
X63500000Y-57229951D02*
X65500000Y-59229951D01*
X65500000Y-59229951D02*
X66500000Y-59229951D01*
X63500000Y-51229951D02*
X63500000Y-51229951D01*
X64000000Y-66729951D02*
X66500000Y-64229951D01*
X74282482Y-82332482D02*
X74232531Y-82282531D01*
X70700000Y-75779951D02*
X70700000Y-74479951D01*
X69000000Y-77479951D02*
X70700000Y-75779951D01*
X69000000Y-79229951D02*
X69000000Y-77479951D01*
X72052580Y-82282531D02*
X69000000Y-79229951D01*
X74232531Y-82282531D02*
X72052580Y-82282531D01*
X69000000Y-79229951D02*
X66000000Y-79229951D01*
X66000000Y-79229951D02*
X64000000Y-77229951D01*
X74232531Y-82848216D02*
X75900000Y-84515685D01*
X74232531Y-82282531D02*
X74232531Y-82848216D01*
X75900000Y-99714964D02*
X74282482Y-101332482D01*
X75900000Y-84515685D02*
X75900000Y-99714964D01*
X93132629Y-44182629D02*
X95584128Y-44182629D01*
X95584128Y-44182629D02*
X97589386Y-46187887D01*
X97589386Y-46187887D02*
X97589386Y-53206290D01*
X93182580Y-57613096D02*
X93182580Y-63232580D01*
X97589386Y-53206290D02*
X93182580Y-57613096D01*
X93357433Y-101407433D02*
X93282482Y-101332482D01*
X93357433Y-120382433D02*
X93357433Y-101407433D01*
X93282482Y-82307482D02*
X93257531Y-82282531D01*
X93282482Y-101332482D02*
X93282482Y-82307482D01*
X93257531Y-63307531D02*
X93182580Y-63232580D01*
X93257531Y-82282531D02*
X93257531Y-63307531D01*
X68950000Y-73029951D02*
X69250000Y-73029951D01*
X67750000Y-74229951D02*
X68950000Y-73029951D01*
X67750000Y-77479951D02*
X67750000Y-74229951D01*
X70100000Y-29922451D02*
X72000000Y-29922451D01*
X74000000Y-29922451D02*
X75900000Y-29922451D01*
X75900000Y-32222451D02*
X75500000Y-32622451D01*
X75900000Y-29922451D02*
X75900000Y-32222451D01*
X70100000Y-32222451D02*
X70500000Y-32622451D01*
X70100000Y-29922451D02*
X70100000Y-32222451D01*
X77000000Y-47729951D02*
X76000000Y-46729951D01*
X77000000Y-54229951D02*
X77000000Y-47729951D01*
X76000000Y-46729951D02*
X76000000Y-41019951D01*
X76500000Y-62802953D02*
X76500000Y-54729951D01*
X73900000Y-65402953D02*
X76500000Y-62802953D01*
X72300000Y-37319951D02*
X72300000Y-32629951D01*
X76000000Y-41019951D02*
X72300000Y-37319951D01*
X76500000Y-54729951D02*
X77000000Y-54229951D01*
X73900000Y-65979951D02*
X73900000Y-65402953D01*
X73000000Y-37349951D02*
X73000000Y-32729951D01*
X72990000Y-37359951D02*
X73000000Y-37349951D01*
X76500000Y-40869951D02*
X72990000Y-37359951D01*
X76500000Y-46593541D02*
X76500000Y-40869951D01*
X76950010Y-54916351D02*
X77450009Y-54416352D01*
X76950010Y-63044939D02*
X76950010Y-54916351D01*
X77450010Y-47543551D02*
X76500000Y-46593541D01*
X74700000Y-65979951D02*
X74700000Y-65294949D01*
X77450009Y-54416352D02*
X77450010Y-47543551D01*
X74700000Y-65294949D02*
X76950010Y-63044939D01*
X88322321Y-44907630D02*
X93927679Y-44907630D01*
X86750000Y-46479951D02*
X88322321Y-44907630D01*
X94780000Y-45759951D02*
X94780000Y-47790000D01*
X86750000Y-57759855D02*
X86750000Y-46479951D01*
X86514952Y-57994903D02*
X86750000Y-57759855D01*
X93927679Y-44907630D02*
X94780000Y-45759951D01*
X86514952Y-60714999D02*
X86514952Y-57994903D01*
X85250000Y-63729951D02*
X85250000Y-61979951D01*
X76064998Y-64729951D02*
X84250000Y-64729951D01*
X84250000Y-64729951D02*
X85250000Y-63729951D01*
X85250000Y-61979951D02*
X86514952Y-60714999D01*
X75500000Y-65294949D02*
X76064998Y-64729951D01*
X75500000Y-65979951D02*
X75500000Y-65294949D01*
X93510000Y-46340000D02*
X92527640Y-45357640D01*
X93510000Y-47790000D02*
X93510000Y-46340000D01*
X92527640Y-45357640D02*
X88508721Y-45357640D01*
X88508721Y-45357640D02*
X87200010Y-46666351D01*
X87200010Y-46666351D02*
X87200009Y-57946256D01*
X87200009Y-57946256D02*
X86964962Y-58181303D01*
X86964962Y-58181303D02*
X86964961Y-60901400D01*
X85700010Y-62166351D02*
X85700009Y-63916352D01*
X86964961Y-60901400D02*
X85700010Y-62166351D01*
X76300000Y-65429951D02*
X76549990Y-65179961D01*
X76300000Y-65979951D02*
X76300000Y-65429951D01*
X84436400Y-65179961D02*
X85700009Y-63916352D01*
X76549990Y-65179961D02*
X84436400Y-65179961D01*
X73900000Y-74479951D02*
X73900000Y-70329951D01*
X73900000Y-70329951D02*
X73900000Y-69829951D01*
X89700000Y-46340000D02*
X89167650Y-45807650D01*
X89700000Y-47790000D02*
X89700000Y-46340000D01*
X89167650Y-45807650D02*
X88695121Y-45807650D01*
X88695121Y-45807650D02*
X87650019Y-46852752D01*
X87650019Y-46852752D02*
X87650018Y-58132657D01*
X87650018Y-58132657D02*
X87414971Y-58367704D01*
X87414971Y-58367704D02*
X87414970Y-61087801D01*
X86150019Y-62352752D02*
X86150018Y-64102753D01*
X87414970Y-61087801D02*
X86150019Y-62352752D01*
X86150018Y-64102753D02*
X84622800Y-65629971D01*
X77750000Y-65729951D02*
X77849980Y-65629971D01*
X77750000Y-65979951D02*
X77750000Y-65729951D01*
X77849980Y-65629971D02*
X84622800Y-65629971D01*
X73900000Y-69829951D02*
X73850000Y-69829951D01*
X73850000Y-69829951D02*
X72250000Y-68229951D01*
X72250000Y-68229951D02*
X72250000Y-68229951D01*
X55700000Y-58929951D02*
X55700000Y-51729951D01*
X62750000Y-65979951D02*
X55700000Y-58929951D01*
X73900000Y-69829951D02*
X76000000Y-67729951D01*
X69200000Y-68979951D02*
X69250000Y-69029951D01*
X62250000Y-68979951D02*
X69200000Y-68979951D01*
X62250000Y-68979951D02*
X62000000Y-68979951D01*
X62000000Y-68979951D02*
X61750000Y-69229951D01*
X61750000Y-69229951D02*
X61000000Y-69229951D01*
X61000000Y-69229951D02*
X61000000Y-69229951D01*
X62250000Y-68229951D02*
X69250000Y-68229951D01*
X62250000Y-68229951D02*
X62000000Y-68229951D01*
X62000000Y-68229951D02*
X61750000Y-67979951D01*
X61750000Y-67979951D02*
X61000000Y-67979951D01*
X61000000Y-67979951D02*
X61000000Y-67979951D01*
X78675634Y-68229951D02*
X78600000Y-68229951D01*
X78600000Y-68229951D02*
X77750000Y-68229951D01*
X85089951Y-74644268D02*
X78675634Y-68229951D01*
X85089951Y-76199902D02*
X85089951Y-74644268D01*
X78436410Y-69029951D02*
X81700010Y-72293551D01*
X77750000Y-69029951D02*
X78436410Y-69029951D01*
X81700010Y-72293551D02*
X81700010Y-75793551D01*
X81700010Y-75793551D02*
X85950010Y-80043551D01*
X85950010Y-80043551D02*
X85950009Y-82916352D01*
X85089951Y-83776410D02*
X85950009Y-82916352D01*
X85089951Y-95249853D02*
X85089951Y-83776410D01*
X85089951Y-114299804D02*
X85089951Y-103140000D01*
X85089951Y-103140000D02*
X85089951Y-102640000D01*
X85089951Y-102640000D02*
X85500000Y-102229951D01*
X85500000Y-102229951D02*
X85500000Y-99229951D01*
X85500000Y-99229951D02*
X83000000Y-96729951D01*
X85500000Y-82729951D02*
X84500000Y-83729951D01*
X84500000Y-83729951D02*
X84500000Y-93229951D01*
X81250000Y-75979951D02*
X85500000Y-80229951D01*
X83000000Y-96729951D02*
X83000000Y-94729951D01*
X78600000Y-69829951D02*
X81250000Y-72479951D01*
X84500000Y-93229951D02*
X83000000Y-94729951D01*
X77750000Y-69829951D02*
X78600000Y-69829951D01*
X85500000Y-80229951D02*
X85500000Y-82729951D01*
X81250000Y-72479951D02*
X81250000Y-75979951D01*
X58975000Y-53479951D02*
X58975000Y-50229951D01*
X73100000Y-64256949D02*
X70823002Y-61979951D01*
X73100000Y-65979951D02*
X73100000Y-64256949D01*
X70823002Y-61979951D02*
X70823002Y-61979951D01*
X62250000Y-58229951D02*
X61000000Y-56979951D01*
X61025000Y-56954951D02*
X61025000Y-53479951D01*
X61000000Y-56979951D02*
X61025000Y-56954951D01*
D26*
G36*
X68265000Y-29450815D02*
X68265000Y-30394086D01*
X68336656Y-30754323D01*
X68609615Y-31162836D01*
X69018127Y-31435795D01*
X69340001Y-31499820D01*
X69340001Y-31869086D01*
X69140000Y-32351930D01*
X69140000Y-32892972D01*
X69347048Y-33392829D01*
X69729622Y-33775403D01*
X70229479Y-33982451D01*
X70770521Y-33982451D01*
X70940001Y-33912250D01*
X70940000Y-37224831D01*
X70915112Y-37349951D01*
X70974097Y-37646488D01*
X71142071Y-37897880D01*
X71205529Y-37940281D01*
X74740001Y-41474754D01*
X74740000Y-43440149D01*
X73797639Y-44382511D01*
X73199999Y-44382511D01*
X72856564Y-44450824D01*
X72565414Y-44645365D01*
X72564623Y-44646548D01*
X72409698Y-44491624D01*
X72176309Y-44394951D01*
X71760750Y-44394951D01*
X71602000Y-44553701D01*
X71602000Y-45602951D01*
X71622000Y-45602951D01*
X71622000Y-45856951D01*
X71602000Y-45856951D01*
X71602000Y-46906201D01*
X71760750Y-47064951D01*
X72176309Y-47064951D01*
X72409698Y-46968278D01*
X72564623Y-46813354D01*
X72565414Y-46814537D01*
X72856564Y-47009078D01*
X73199999Y-47077391D01*
X73747638Y-47077391D01*
X74540001Y-47869755D01*
X74540001Y-47934500D01*
X74302235Y-47981794D01*
X74150000Y-48083515D01*
X73997765Y-47981794D01*
X73750000Y-47932511D01*
X72250000Y-47932511D01*
X72002235Y-47981794D01*
X71850953Y-48082878D01*
X71809699Y-48041624D01*
X71576310Y-47944951D01*
X70985750Y-47944951D01*
X70827000Y-48103701D01*
X70827000Y-49452951D01*
X70847000Y-49452951D01*
X70847000Y-49706951D01*
X70827000Y-49706951D01*
X70827000Y-49726951D01*
X70573000Y-49726951D01*
X70573000Y-49706951D01*
X69473750Y-49706951D01*
X69315000Y-49865701D01*
X69315000Y-50706260D01*
X69411673Y-50939649D01*
X69590301Y-51118278D01*
X69823690Y-51214951D01*
X70414250Y-51214951D01*
X70572998Y-51056203D01*
X70572998Y-51182151D01*
X69785199Y-51969951D01*
X68185778Y-51969951D01*
X68179127Y-51936515D01*
X67984586Y-51645365D01*
X67693436Y-51450824D01*
X67350001Y-51382511D01*
X66699999Y-51382511D01*
X66356564Y-51450824D01*
X66065414Y-51645365D01*
X66064623Y-51646548D01*
X65909698Y-51491624D01*
X65676309Y-51394951D01*
X65260750Y-51394951D01*
X65102000Y-51553701D01*
X65102000Y-52602951D01*
X65122000Y-52602951D01*
X65122000Y-52856951D01*
X65102000Y-52856951D01*
X65102000Y-53906201D01*
X65260750Y-54064951D01*
X65676309Y-54064951D01*
X65909698Y-53968278D01*
X66064623Y-53813354D01*
X66065414Y-53814537D01*
X66356564Y-54009078D01*
X66442524Y-54026176D01*
X66477071Y-54077880D01*
X66540530Y-54120282D01*
X69240001Y-56819755D01*
X69240000Y-60494951D01*
X68785750Y-60494951D01*
X68627000Y-60653701D01*
X68627000Y-61577951D01*
X68647000Y-61577951D01*
X68647000Y-61831951D01*
X68627000Y-61831951D01*
X68627000Y-61851951D01*
X68373000Y-61851951D01*
X68373000Y-61831951D01*
X68353000Y-61831951D01*
X68353000Y-61577951D01*
X68373000Y-61577951D01*
X68373000Y-60653701D01*
X68214250Y-60494951D01*
X67673690Y-60494951D01*
X67440301Y-60591624D01*
X67261673Y-60770253D01*
X67260000Y-60774292D01*
X67260000Y-59933662D01*
X67377431Y-59816231D01*
X67535000Y-59435825D01*
X67535000Y-59024077D01*
X67377431Y-58643671D01*
X67188686Y-58454926D01*
X67510862Y-58132750D01*
X67775000Y-57495064D01*
X67775000Y-56804838D01*
X67510862Y-56167152D01*
X67022799Y-55679089D01*
X66385113Y-55414951D01*
X65694887Y-55414951D01*
X65057201Y-55679089D01*
X64569138Y-56167152D01*
X64305000Y-56804838D01*
X64305000Y-56960150D01*
X64260000Y-56915150D01*
X64260000Y-54059280D01*
X64273691Y-54064951D01*
X64689250Y-54064951D01*
X64848000Y-53906201D01*
X64848000Y-52856951D01*
X64828000Y-52856951D01*
X64828000Y-52602951D01*
X64848000Y-52602951D01*
X64848000Y-51553701D01*
X64689250Y-51394951D01*
X64535000Y-51394951D01*
X64535000Y-51024077D01*
X64377431Y-50643671D01*
X64086280Y-50352520D01*
X63705874Y-50194951D01*
X63294126Y-50194951D01*
X62913720Y-50352520D01*
X62622569Y-50643671D01*
X62465000Y-51024077D01*
X62465000Y-51435825D01*
X62622569Y-51816231D01*
X62740000Y-51933662D01*
X62740001Y-57155099D01*
X62725112Y-57229951D01*
X62741700Y-57313344D01*
X62455874Y-57194951D01*
X62289802Y-57194951D01*
X61785000Y-56690150D01*
X61785000Y-54697897D01*
X61984586Y-54564537D01*
X62179127Y-54273387D01*
X62247440Y-53929952D01*
X62247440Y-53029950D01*
X62179127Y-52686515D01*
X61984586Y-52395365D01*
X61693436Y-52200824D01*
X61350001Y-52132511D01*
X60699999Y-52132511D01*
X60356564Y-52200824D01*
X60065414Y-52395365D01*
X60000000Y-52493264D01*
X59934586Y-52395365D01*
X59735000Y-52262005D01*
X59735000Y-51447897D01*
X59934586Y-51314537D01*
X59935377Y-51313354D01*
X60090302Y-51468278D01*
X60323691Y-51564951D01*
X60739250Y-51564951D01*
X60898000Y-51406201D01*
X60898000Y-50356951D01*
X61152000Y-50356951D01*
X61152000Y-51406201D01*
X61310750Y-51564951D01*
X61726309Y-51564951D01*
X61959698Y-51468278D01*
X62138327Y-51289650D01*
X62235000Y-51056261D01*
X62235000Y-50515701D01*
X62076250Y-50356951D01*
X61152000Y-50356951D01*
X60898000Y-50356951D01*
X60878000Y-50356951D01*
X60878000Y-50102951D01*
X60898000Y-50102951D01*
X60898000Y-49053701D01*
X61152000Y-49053701D01*
X61152000Y-50102951D01*
X62076250Y-50102951D01*
X62235000Y-49944201D01*
X62235000Y-49403641D01*
X62138327Y-49170252D01*
X61959698Y-48991624D01*
X61726309Y-48894951D01*
X61310750Y-48894951D01*
X61152000Y-49053701D01*
X60898000Y-49053701D01*
X60739250Y-48894951D01*
X60323691Y-48894951D01*
X60090302Y-48991624D01*
X59935377Y-49146548D01*
X59934586Y-49145365D01*
X59643436Y-48950824D01*
X59300001Y-48882511D01*
X58649999Y-48882511D01*
X58306564Y-48950824D01*
X58015414Y-49145365D01*
X57820873Y-49436515D01*
X57752560Y-49779950D01*
X57752560Y-50679952D01*
X57820873Y-51023387D01*
X58015414Y-51314537D01*
X58215001Y-51447897D01*
X58215000Y-52262005D01*
X58015414Y-52395365D01*
X57820873Y-52686515D01*
X57752560Y-53029950D01*
X57752560Y-53929952D01*
X57820873Y-54273387D01*
X58015414Y-54564537D01*
X58306564Y-54759078D01*
X58649999Y-54827391D01*
X59300001Y-54827391D01*
X59643436Y-54759078D01*
X59934586Y-54564537D01*
X60000000Y-54466638D01*
X60065414Y-54564537D01*
X60265001Y-54697897D01*
X60265000Y-56779421D01*
X60225112Y-56979951D01*
X60284097Y-57276488D01*
X60452071Y-57527880D01*
X60515529Y-57570281D01*
X61215000Y-58269753D01*
X61215000Y-58435825D01*
X61372569Y-58816231D01*
X61663720Y-59107382D01*
X62044126Y-59264951D01*
X62455874Y-59264951D01*
X62836280Y-59107382D01*
X63127431Y-58816231D01*
X63285000Y-58435825D01*
X63285000Y-58089752D01*
X64909671Y-59714424D01*
X64952071Y-59777880D01*
X65203463Y-59945855D01*
X65425148Y-59989951D01*
X65425152Y-59989951D01*
X65499999Y-60004839D01*
X65574846Y-59989951D01*
X65740001Y-59989951D01*
X65740001Y-60752204D01*
X65733845Y-60737343D01*
X64992608Y-59996106D01*
X64024134Y-59594951D01*
X62975866Y-59594951D01*
X62007392Y-59996106D01*
X61266155Y-60737343D01*
X60865000Y-61705817D01*
X60865000Y-62754085D01*
X61053136Y-63208285D01*
X59216708Y-61371858D01*
X59344887Y-61424951D01*
X60035113Y-61424951D01*
X60672799Y-61160813D01*
X61160862Y-60672750D01*
X61425000Y-60035064D01*
X61425000Y-59344838D01*
X61160862Y-58707152D01*
X60672799Y-58219089D01*
X60035113Y-57954951D01*
X59344887Y-57954951D01*
X58707201Y-58219089D01*
X58219138Y-58707152D01*
X57955000Y-59344838D01*
X57955000Y-60035064D01*
X58008094Y-60163243D01*
X56460000Y-58615150D01*
X56460000Y-53136524D01*
X56607809Y-53037760D01*
X56748157Y-52827716D01*
X56797440Y-52579951D01*
X56797440Y-50879951D01*
X56748157Y-50632186D01*
X56607809Y-50422142D01*
X56397765Y-50281794D01*
X56150000Y-50232511D01*
X55250000Y-50232511D01*
X55002235Y-50281794D01*
X54792191Y-50422142D01*
X54651843Y-50632186D01*
X54602560Y-50879951D01*
X54602560Y-52579951D01*
X54651843Y-52827716D01*
X54792191Y-53037760D01*
X54940001Y-53136524D01*
X54940000Y-58855104D01*
X54925112Y-58929951D01*
X54940000Y-59004798D01*
X54940000Y-59004802D01*
X54984096Y-59226487D01*
X55152071Y-59477880D01*
X55215530Y-59520282D01*
X61715000Y-66019753D01*
X61715000Y-66185825D01*
X61872569Y-66566231D01*
X62163720Y-66857382D01*
X62544126Y-67014951D01*
X62955874Y-67014951D01*
X62991639Y-67000137D01*
X63122569Y-67316231D01*
X63276289Y-67469951D01*
X62323272Y-67469951D01*
X62297929Y-67432022D01*
X62046537Y-67264047D01*
X61824852Y-67219951D01*
X61824847Y-67219951D01*
X61750000Y-67205063D01*
X61698973Y-67215213D01*
X61586280Y-67102520D01*
X61205874Y-66944951D01*
X60794126Y-66944951D01*
X60413720Y-67102520D01*
X60122569Y-67393671D01*
X59965000Y-67774077D01*
X59965000Y-68185825D01*
X60122569Y-68566231D01*
X60161289Y-68604951D01*
X60122569Y-68643671D01*
X59965000Y-69024077D01*
X59965000Y-69435825D01*
X60122569Y-69816231D01*
X60413720Y-70107382D01*
X60794126Y-70264951D01*
X61205874Y-70264951D01*
X61586280Y-70107382D01*
X61698973Y-69994689D01*
X61750000Y-70004839D01*
X61824847Y-69989951D01*
X61824852Y-69989951D01*
X62046537Y-69945855D01*
X62297929Y-69777880D01*
X62323272Y-69739951D01*
X68002560Y-69739951D01*
X68002560Y-70129951D01*
X68022451Y-70229951D01*
X68002560Y-70329951D01*
X68002560Y-70929951D01*
X68022451Y-71029951D01*
X68002560Y-71129951D01*
X68002560Y-71729951D01*
X68022451Y-71829951D01*
X68002560Y-71929951D01*
X68002560Y-72529951D01*
X68022451Y-72629951D01*
X68002560Y-72729951D01*
X68002560Y-72902589D01*
X67265528Y-73639622D01*
X67202072Y-73682022D01*
X67159672Y-73745478D01*
X67159671Y-73745479D01*
X67034097Y-73933414D01*
X66975112Y-74229951D01*
X66990001Y-74304803D01*
X66990001Y-74715455D01*
X66385113Y-74464902D01*
X65694887Y-74464902D01*
X65057201Y-74729040D01*
X65028312Y-74757929D01*
X64877431Y-74393671D01*
X64586280Y-74102520D01*
X64205874Y-73944951D01*
X63794126Y-73944951D01*
X63413720Y-74102520D01*
X63122569Y-74393671D01*
X62965000Y-74774077D01*
X62965000Y-75185825D01*
X63122569Y-75566231D01*
X63240001Y-75683663D01*
X63240000Y-77155104D01*
X63225112Y-77229951D01*
X63240000Y-77304798D01*
X63240000Y-77304802D01*
X63284096Y-77526487D01*
X63452071Y-77777880D01*
X63515530Y-77820282D01*
X64563606Y-78868359D01*
X64024134Y-78644902D01*
X62975866Y-78644902D01*
X62007392Y-79046057D01*
X61266155Y-79787294D01*
X60865000Y-80755768D01*
X60865000Y-81804036D01*
X61266155Y-82772510D01*
X62007392Y-83513747D01*
X62975866Y-83914902D01*
X64024134Y-83914902D01*
X64992608Y-83513747D01*
X65733845Y-82772510D01*
X66135000Y-81804036D01*
X66135000Y-80755768D01*
X65808148Y-79966678D01*
X65925148Y-79989951D01*
X65925152Y-79989951D01*
X65999999Y-80004839D01*
X66074846Y-79989951D01*
X68276289Y-79989951D01*
X68122569Y-80143671D01*
X67965000Y-80524077D01*
X67965000Y-80690149D01*
X66960199Y-81694951D01*
X66794126Y-81694951D01*
X66413720Y-81852520D01*
X66122569Y-82143671D01*
X65965000Y-82524077D01*
X65965000Y-82935825D01*
X66122569Y-83316231D01*
X66413720Y-83607382D01*
X66794126Y-83764951D01*
X66997775Y-83764951D01*
X67122569Y-84066231D01*
X67413720Y-84357382D01*
X67794126Y-84514951D01*
X68205874Y-84514951D01*
X68586280Y-84357382D01*
X68877431Y-84066231D01*
X69035000Y-83685825D01*
X69035000Y-83519752D01*
X70039802Y-82514951D01*
X70205874Y-82514951D01*
X70586280Y-82357382D01*
X70819455Y-82124207D01*
X71462250Y-82767003D01*
X71504651Y-82830460D01*
X71756043Y-82998435D01*
X71977728Y-83042531D01*
X71977732Y-83042531D01*
X72052579Y-83057419D01*
X72127426Y-83042531D01*
X73496294Y-83042531D01*
X73516627Y-83144753D01*
X73684603Y-83396145D01*
X73748059Y-83438545D01*
X75140000Y-84830487D01*
X75140001Y-99400161D01*
X74242681Y-100297482D01*
X74076608Y-100297482D01*
X73696202Y-100455051D01*
X73405051Y-100746202D01*
X73247482Y-101126608D01*
X73247482Y-101538356D01*
X73405051Y-101918762D01*
X73572434Y-102086145D01*
X73572433Y-119678722D01*
X73455002Y-119796153D01*
X73297433Y-120176559D01*
X73297433Y-120588307D01*
X73455002Y-120968713D01*
X73746153Y-121259864D01*
X74126559Y-121417433D01*
X74538307Y-121417433D01*
X74918713Y-121259864D01*
X75209864Y-120968713D01*
X75367433Y-120588307D01*
X75367433Y-120176559D01*
X75209864Y-119796153D01*
X75092433Y-119678722D01*
X75092433Y-118855670D01*
X79914951Y-118855670D01*
X79914951Y-119903938D01*
X80316106Y-120872412D01*
X81057343Y-121613649D01*
X82025817Y-122014804D01*
X83074085Y-122014804D01*
X84042559Y-121613649D01*
X84783796Y-120872412D01*
X85184951Y-119903938D01*
X85184951Y-118855670D01*
X84783796Y-117887196D01*
X84042559Y-117145959D01*
X83074085Y-116744804D01*
X82025817Y-116744804D01*
X81057343Y-117145959D01*
X80316106Y-117887196D01*
X79914951Y-118855670D01*
X75092433Y-118855670D01*
X75092433Y-116494691D01*
X77004951Y-116494691D01*
X77004951Y-117184917D01*
X77269089Y-117822603D01*
X77757152Y-118310666D01*
X78394838Y-118574804D01*
X79085064Y-118574804D01*
X79722750Y-118310666D01*
X80210813Y-117822603D01*
X80474951Y-117184917D01*
X80474951Y-116494691D01*
X80210813Y-115857005D01*
X79722750Y-115368942D01*
X79085064Y-115104804D01*
X78394838Y-115104804D01*
X77757152Y-115368942D01*
X77269089Y-115857005D01*
X77004951Y-116494691D01*
X75092433Y-116494691D01*
X75092433Y-101986242D01*
X75159913Y-101918762D01*
X75317482Y-101538356D01*
X75317482Y-101372283D01*
X76384473Y-100305293D01*
X76447929Y-100262893D01*
X76615904Y-100011501D01*
X76660000Y-99789816D01*
X76660000Y-99789811D01*
X76674888Y-99714964D01*
X76660000Y-99640117D01*
X76660000Y-97444740D01*
X77004951Y-97444740D01*
X77004951Y-98134966D01*
X77269089Y-98772652D01*
X77757152Y-99260715D01*
X78394838Y-99524853D01*
X79085064Y-99524853D01*
X79722750Y-99260715D01*
X80210813Y-98772652D01*
X80474951Y-98134966D01*
X80474951Y-97444740D01*
X80210813Y-96807054D01*
X79722750Y-96318991D01*
X79085064Y-96054853D01*
X78394838Y-96054853D01*
X77757152Y-96318991D01*
X77269089Y-96807054D01*
X77004951Y-97444740D01*
X76660000Y-97444740D01*
X76660000Y-84590531D01*
X76674888Y-84515684D01*
X76660000Y-84440837D01*
X76660000Y-84440833D01*
X76615904Y-84219148D01*
X76447929Y-83967756D01*
X76384473Y-83925356D01*
X75173802Y-82714686D01*
X75267531Y-82488405D01*
X75267531Y-82076657D01*
X75109962Y-81696251D01*
X74818811Y-81405100D01*
X74438405Y-81247531D01*
X74026657Y-81247531D01*
X73646251Y-81405100D01*
X73528820Y-81522531D01*
X72367382Y-81522531D01*
X70729465Y-79884614D01*
X71044126Y-80014951D01*
X71455874Y-80014951D01*
X71776960Y-79881953D01*
X71823748Y-79881953D01*
X71665000Y-80040701D01*
X71665000Y-80456260D01*
X71761673Y-80689649D01*
X71940301Y-80868278D01*
X72173690Y-80964951D01*
X72714250Y-80964951D01*
X72873000Y-80806201D01*
X72873000Y-79881951D01*
X73127000Y-79881951D01*
X73127000Y-80806201D01*
X73285750Y-80964951D01*
X73826310Y-80964951D01*
X74059699Y-80868278D01*
X74238327Y-80689649D01*
X74250000Y-80661468D01*
X74261673Y-80689649D01*
X74440301Y-80868278D01*
X74673690Y-80964951D01*
X75214250Y-80964951D01*
X75373000Y-80806201D01*
X75373000Y-79881951D01*
X75627000Y-79881951D01*
X75627000Y-80806201D01*
X75785750Y-80964951D01*
X76326310Y-80964951D01*
X76559699Y-80868278D01*
X76738327Y-80689649D01*
X76835000Y-80456260D01*
X76835000Y-80040701D01*
X76676250Y-79881951D01*
X75627000Y-79881951D01*
X75373000Y-79881951D01*
X74323750Y-79881951D01*
X74250000Y-79955701D01*
X74176250Y-79881951D01*
X73127000Y-79881951D01*
X72873000Y-79881951D01*
X72853000Y-79881951D01*
X72853000Y-79627951D01*
X72873000Y-79627951D01*
X72873000Y-79607951D01*
X73127000Y-79607951D01*
X73127000Y-79627951D01*
X74176250Y-79627951D01*
X74250000Y-79554201D01*
X74323750Y-79627951D01*
X75373000Y-79627951D01*
X75373000Y-79607951D01*
X75627000Y-79607951D01*
X75627000Y-79627951D01*
X76676250Y-79627951D01*
X76835000Y-79469201D01*
X76835000Y-79053642D01*
X76738327Y-78820253D01*
X76583403Y-78665328D01*
X76584586Y-78664537D01*
X76717946Y-78464951D01*
X76950153Y-78464951D01*
X77004951Y-78475851D01*
X77004951Y-79085015D01*
X77269089Y-79722701D01*
X77757152Y-80210764D01*
X78394838Y-80474902D01*
X79085064Y-80474902D01*
X79722750Y-80210764D01*
X80210813Y-79722701D01*
X80474951Y-79085015D01*
X80474951Y-78394789D01*
X80210813Y-77757103D01*
X79722750Y-77269040D01*
X79085064Y-77004902D01*
X78799850Y-77004902D01*
X80490001Y-75314752D01*
X80490001Y-75905099D01*
X80475112Y-75979951D01*
X80490001Y-76054803D01*
X80516704Y-76189047D01*
X80534097Y-76276488D01*
X80646661Y-76444951D01*
X80702072Y-76527880D01*
X80765528Y-76570280D01*
X82840149Y-78644902D01*
X82025817Y-78644902D01*
X81057343Y-79046057D01*
X80316106Y-79787294D01*
X79914951Y-80755768D01*
X79914951Y-81804036D01*
X80316106Y-82772510D01*
X81057343Y-83513747D01*
X82025817Y-83914902D01*
X83074085Y-83914902D01*
X83743475Y-83637632D01*
X83740000Y-83655100D01*
X83740000Y-83655104D01*
X83725112Y-83729951D01*
X83740000Y-83804798D01*
X83740001Y-92915147D01*
X82515528Y-94139622D01*
X82452072Y-94182022D01*
X82409672Y-94245478D01*
X82409671Y-94245479D01*
X82284097Y-94433414D01*
X82225112Y-94729951D01*
X82240001Y-94804803D01*
X82240000Y-96655104D01*
X82225112Y-96729951D01*
X82240000Y-96804798D01*
X82240000Y-96804802D01*
X82284096Y-97026487D01*
X82452071Y-97277880D01*
X82515530Y-97320282D01*
X82890101Y-97694853D01*
X82025817Y-97694853D01*
X81057343Y-98096008D01*
X80316106Y-98837245D01*
X79914951Y-99805719D01*
X79914951Y-100853987D01*
X80316106Y-101822461D01*
X81057343Y-102563698D01*
X82025817Y-102964853D01*
X83074085Y-102964853D01*
X84042559Y-102563698D01*
X84740000Y-101866257D01*
X84740000Y-101915150D01*
X84605479Y-102049671D01*
X84542023Y-102092071D01*
X84374047Y-102343463D01*
X84329951Y-102565148D01*
X84329951Y-102565153D01*
X84315063Y-102640000D01*
X84329951Y-102714847D01*
X84329951Y-103214851D01*
X84329952Y-103214856D01*
X84329951Y-112736656D01*
X84107152Y-112828942D01*
X83619089Y-113317005D01*
X83354951Y-113954691D01*
X83354951Y-114644917D01*
X83619089Y-115282603D01*
X84107152Y-115770666D01*
X84744838Y-116034804D01*
X85435064Y-116034804D01*
X86072750Y-115770666D01*
X86560813Y-115282603D01*
X86824951Y-114644917D01*
X86824951Y-113954691D01*
X86560813Y-113317005D01*
X86072750Y-112828942D01*
X85849951Y-112736656D01*
X85849951Y-102954801D01*
X85984470Y-102820282D01*
X86047929Y-102777880D01*
X86215904Y-102526488D01*
X86260000Y-102304803D01*
X86260000Y-102304798D01*
X86274888Y-102229951D01*
X86260000Y-102155104D01*
X86260000Y-99304798D01*
X86274888Y-99229951D01*
X86260000Y-99155104D01*
X86260000Y-99155099D01*
X86215904Y-98933414D01*
X86047929Y-98682022D01*
X85984473Y-98639622D01*
X83760000Y-96415150D01*
X83760000Y-96373563D01*
X84107152Y-96720715D01*
X84744838Y-96984853D01*
X85435064Y-96984853D01*
X86072750Y-96720715D01*
X86560813Y-96232652D01*
X86824951Y-95594966D01*
X86824951Y-94904740D01*
X86560813Y-94267054D01*
X86072750Y-93778991D01*
X85849951Y-93686705D01*
X85849951Y-84091211D01*
X86434484Y-83506679D01*
X86497937Y-83464281D01*
X86540335Y-83400828D01*
X86540338Y-83400825D01*
X86665913Y-83212890D01*
X86724897Y-82916352D01*
X86710008Y-82841499D01*
X86710010Y-80118400D01*
X86724898Y-80043551D01*
X86710010Y-79968703D01*
X86710010Y-79968700D01*
X86673926Y-79787294D01*
X86665914Y-79747014D01*
X86540339Y-79559078D01*
X86540337Y-79559076D01*
X86497939Y-79495623D01*
X86434486Y-79453225D01*
X84916163Y-77934902D01*
X85435064Y-77934902D01*
X86072750Y-77670764D01*
X86560813Y-77182701D01*
X86824951Y-76545015D01*
X86824951Y-75854789D01*
X86560813Y-75217103D01*
X86072750Y-74729040D01*
X85864547Y-74642800D01*
X85849951Y-74569420D01*
X85849951Y-74569416D01*
X85805855Y-74347731D01*
X85637880Y-74096339D01*
X85574424Y-74053939D01*
X79265965Y-67745481D01*
X79223563Y-67682022D01*
X78997440Y-67530931D01*
X78997440Y-67129951D01*
X78948157Y-66882186D01*
X78807809Y-66672142D01*
X78632172Y-66554784D01*
X78700440Y-66389971D01*
X84547953Y-66389971D01*
X84622800Y-66404859D01*
X84697647Y-66389971D01*
X84697652Y-66389971D01*
X84919337Y-66345875D01*
X85170729Y-66177900D01*
X85213131Y-66114441D01*
X86634496Y-64693078D01*
X86697946Y-64650682D01*
X86740342Y-64587232D01*
X86740347Y-64587227D01*
X86865921Y-64399291D01*
X86924906Y-64102754D01*
X86910017Y-64027903D01*
X86910019Y-62667554D01*
X87899445Y-61678128D01*
X87962898Y-61635730D01*
X88005296Y-61572277D01*
X88005299Y-61572274D01*
X88130873Y-61384339D01*
X88189858Y-61087801D01*
X88174969Y-61012950D01*
X88174971Y-58695938D01*
X88197946Y-58680586D01*
X88261660Y-58585232D01*
X88365922Y-58429194D01*
X88424906Y-58132657D01*
X88410017Y-58057804D01*
X88410018Y-55014951D01*
X88705874Y-55014951D01*
X89086280Y-54857382D01*
X89203711Y-54739951D01*
X94425153Y-54739951D01*
X94500000Y-54754839D01*
X94574847Y-54739951D01*
X94574852Y-54739951D01*
X94796537Y-54695855D01*
X95047929Y-54527880D01*
X95090331Y-54464421D01*
X95264470Y-54290282D01*
X95327929Y-54247880D01*
X95495904Y-53996488D01*
X95540000Y-53774803D01*
X95540000Y-53774799D01*
X95554888Y-53699951D01*
X95540000Y-53625103D01*
X95540000Y-53393118D01*
X95607809Y-53347809D01*
X95748157Y-53137765D01*
X95797440Y-52890000D01*
X95797440Y-50490000D01*
X95748157Y-50242235D01*
X95607809Y-50032191D01*
X95397765Y-49891843D01*
X95150000Y-49842560D01*
X94410000Y-49842560D01*
X94162235Y-49891843D01*
X94136604Y-49908969D01*
X94006310Y-49855000D01*
X93795750Y-49855000D01*
X93637000Y-50013750D01*
X93637000Y-51563000D01*
X93657000Y-51563000D01*
X93657000Y-51817000D01*
X93637000Y-51817000D01*
X93637000Y-51837000D01*
X93383000Y-51837000D01*
X93383000Y-51817000D01*
X92367000Y-51817000D01*
X92367000Y-51837000D01*
X92113000Y-51837000D01*
X92113000Y-51817000D01*
X92093000Y-51817000D01*
X92093000Y-51563000D01*
X92113000Y-51563000D01*
X92113000Y-50013750D01*
X92367000Y-50013750D01*
X92367000Y-51563000D01*
X93383000Y-51563000D01*
X93383000Y-50013750D01*
X93224250Y-49855000D01*
X93013690Y-49855000D01*
X92875000Y-49912447D01*
X92736310Y-49855000D01*
X92525750Y-49855000D01*
X92367000Y-50013750D01*
X92113000Y-50013750D01*
X91954250Y-49855000D01*
X91743690Y-49855000D01*
X91613396Y-49908969D01*
X91587765Y-49891843D01*
X91340000Y-49842560D01*
X90600000Y-49842560D01*
X90352235Y-49891843D01*
X90326604Y-49908969D01*
X90196310Y-49855000D01*
X89985750Y-49855000D01*
X89827000Y-50013750D01*
X89827000Y-51563000D01*
X89847000Y-51563000D01*
X89847000Y-51817000D01*
X89827000Y-51817000D01*
X89827000Y-51837000D01*
X89573000Y-51837000D01*
X89573000Y-51817000D01*
X88853750Y-51817000D01*
X88695000Y-51975750D01*
X88695000Y-52944951D01*
X88410018Y-52944951D01*
X88410018Y-50363691D01*
X88695000Y-50363691D01*
X88695000Y-51404250D01*
X88853750Y-51563000D01*
X89573000Y-51563000D01*
X89573000Y-50013750D01*
X89414250Y-49855000D01*
X89203690Y-49855000D01*
X88970301Y-49951673D01*
X88791673Y-50130302D01*
X88695000Y-50363691D01*
X88410018Y-50363691D01*
X88410019Y-47167554D01*
X88682560Y-46895013D01*
X88682560Y-48990000D01*
X88731843Y-49237765D01*
X88872191Y-49447809D01*
X89082235Y-49588157D01*
X89330000Y-49637440D01*
X90070000Y-49637440D01*
X90317765Y-49588157D01*
X90335000Y-49576641D01*
X90352235Y-49588157D01*
X90600000Y-49637440D01*
X91340000Y-49637440D01*
X91587765Y-49588157D01*
X91605000Y-49576641D01*
X91622235Y-49588157D01*
X91870000Y-49637440D01*
X92610000Y-49637440D01*
X92857765Y-49588157D01*
X92875000Y-49576641D01*
X92892235Y-49588157D01*
X93140000Y-49637440D01*
X93880000Y-49637440D01*
X94127765Y-49588157D01*
X94145000Y-49576641D01*
X94162235Y-49588157D01*
X94410000Y-49637440D01*
X95150000Y-49637440D01*
X95397765Y-49588157D01*
X95607809Y-49447809D01*
X95748157Y-49237765D01*
X95797440Y-48990000D01*
X95797440Y-46590000D01*
X95748157Y-46342235D01*
X95607809Y-46132191D01*
X95540000Y-46086882D01*
X95540000Y-45834798D01*
X95554888Y-45759951D01*
X95540000Y-45685104D01*
X95540000Y-45685099D01*
X95495904Y-45463414D01*
X95327929Y-45212022D01*
X95264473Y-45169622D01*
X95037480Y-44942629D01*
X95269327Y-44942629D01*
X96829386Y-46502689D01*
X96829387Y-52891487D01*
X92698110Y-57022765D01*
X92634651Y-57065167D01*
X92466676Y-57316560D01*
X92422580Y-57538245D01*
X92422580Y-57538249D01*
X92407692Y-57613096D01*
X92422580Y-57687943D01*
X92422581Y-62528868D01*
X92305149Y-62646300D01*
X92147580Y-63026706D01*
X92147580Y-63438454D01*
X92305149Y-63818860D01*
X92497532Y-64011243D01*
X92497531Y-81578820D01*
X92380100Y-81696251D01*
X92222531Y-82076657D01*
X92222531Y-82488405D01*
X92380100Y-82868811D01*
X92522483Y-83011194D01*
X92522482Y-100628771D01*
X92405051Y-100746202D01*
X92247482Y-101126608D01*
X92247482Y-101538356D01*
X92405051Y-101918762D01*
X92597434Y-102111145D01*
X92597433Y-119678722D01*
X92480002Y-119796153D01*
X92322433Y-120176559D01*
X92322433Y-120588307D01*
X92480002Y-120968713D01*
X92771153Y-121259864D01*
X93151559Y-121417433D01*
X93563307Y-121417433D01*
X93943713Y-121259864D01*
X94234864Y-120968713D01*
X94392433Y-120588307D01*
X94392433Y-120176559D01*
X94234864Y-119796153D01*
X94117433Y-119678722D01*
X94117433Y-118855670D01*
X98965000Y-118855670D01*
X98965000Y-119903938D01*
X99366155Y-120872412D01*
X100107392Y-121613649D01*
X101075866Y-122014804D01*
X102124134Y-122014804D01*
X103092608Y-121613649D01*
X103833845Y-120872412D01*
X104235000Y-119903938D01*
X104235000Y-118855670D01*
X103833845Y-117887196D01*
X103092608Y-117145959D01*
X102124134Y-116744804D01*
X101075866Y-116744804D01*
X100107392Y-117145959D01*
X99366155Y-117887196D01*
X98965000Y-118855670D01*
X94117433Y-118855670D01*
X94117433Y-116494691D01*
X96055000Y-116494691D01*
X96055000Y-117184917D01*
X96319138Y-117822603D01*
X96807201Y-118310666D01*
X97444887Y-118574804D01*
X98135113Y-118574804D01*
X98772799Y-118310666D01*
X99260862Y-117822603D01*
X99525000Y-117184917D01*
X99525000Y-116494691D01*
X99260862Y-115857005D01*
X98772799Y-115368942D01*
X98135113Y-115104804D01*
X97444887Y-115104804D01*
X96807201Y-115368942D01*
X96319138Y-115857005D01*
X96055000Y-116494691D01*
X94117433Y-116494691D01*
X94117433Y-113954691D01*
X102405000Y-113954691D01*
X102405000Y-114644917D01*
X102669138Y-115282603D01*
X103157201Y-115770666D01*
X103794887Y-116034804D01*
X104485113Y-116034804D01*
X105122799Y-115770666D01*
X105610862Y-115282603D01*
X105875000Y-114644917D01*
X105875000Y-113954691D01*
X105610862Y-113317005D01*
X105122799Y-112828942D01*
X104485113Y-112564804D01*
X103794887Y-112564804D01*
X103157201Y-112828942D01*
X102669138Y-113317005D01*
X102405000Y-113954691D01*
X94117433Y-113954691D01*
X94117433Y-101961242D01*
X94159913Y-101918762D01*
X94317482Y-101538356D01*
X94317482Y-101126608D01*
X94159913Y-100746202D01*
X94042482Y-100628771D01*
X94042482Y-99805719D01*
X98964902Y-99805719D01*
X98964902Y-100853987D01*
X99366057Y-101822461D01*
X100107294Y-102563698D01*
X101075768Y-102964853D01*
X102124036Y-102964853D01*
X103092510Y-102563698D01*
X103833747Y-101822461D01*
X104234902Y-100853987D01*
X104234902Y-99805719D01*
X103833747Y-98837245D01*
X103092510Y-98096008D01*
X102124036Y-97694853D01*
X101075768Y-97694853D01*
X100107294Y-98096008D01*
X99366057Y-98837245D01*
X98964902Y-99805719D01*
X94042482Y-99805719D01*
X94042482Y-97444740D01*
X96054902Y-97444740D01*
X96054902Y-98134966D01*
X96319040Y-98772652D01*
X96807103Y-99260715D01*
X97444789Y-99524853D01*
X98135015Y-99524853D01*
X98772701Y-99260715D01*
X99260764Y-98772652D01*
X99524902Y-98134966D01*
X99524902Y-97444740D01*
X99260764Y-96807054D01*
X98772701Y-96318991D01*
X98135015Y-96054853D01*
X97444789Y-96054853D01*
X96807103Y-96318991D01*
X96319040Y-96807054D01*
X96054902Y-97444740D01*
X94042482Y-97444740D01*
X94042482Y-94904740D01*
X102404902Y-94904740D01*
X102404902Y-95594966D01*
X102669040Y-96232652D01*
X103157103Y-96720715D01*
X103794789Y-96984853D01*
X104485015Y-96984853D01*
X105122701Y-96720715D01*
X105610764Y-96232652D01*
X105874902Y-95594966D01*
X105874902Y-94904740D01*
X105610764Y-94267054D01*
X105122701Y-93778991D01*
X104485015Y-93514853D01*
X103794789Y-93514853D01*
X103157103Y-93778991D01*
X102669040Y-94267054D01*
X102404902Y-94904740D01*
X94042482Y-94904740D01*
X94042482Y-82961291D01*
X94134962Y-82868811D01*
X94292531Y-82488405D01*
X94292531Y-82076657D01*
X94134962Y-81696251D01*
X94017531Y-81578820D01*
X94017531Y-80755768D01*
X98964902Y-80755768D01*
X98964902Y-81804036D01*
X99366057Y-82772510D01*
X100107294Y-83513747D01*
X101075768Y-83914902D01*
X102124036Y-83914902D01*
X103092510Y-83513747D01*
X103833747Y-82772510D01*
X104234902Y-81804036D01*
X104234902Y-80755768D01*
X103833747Y-79787294D01*
X103092510Y-79046057D01*
X102124036Y-78644902D01*
X101075768Y-78644902D01*
X100107294Y-79046057D01*
X99366057Y-79787294D01*
X98964902Y-80755768D01*
X94017531Y-80755768D01*
X94017531Y-78394789D01*
X96054902Y-78394789D01*
X96054902Y-79085015D01*
X96319040Y-79722701D01*
X96807103Y-80210764D01*
X97444789Y-80474902D01*
X98135015Y-80474902D01*
X98772701Y-80210764D01*
X99260764Y-79722701D01*
X99524902Y-79085015D01*
X99524902Y-78394789D01*
X99260764Y-77757103D01*
X98772701Y-77269040D01*
X98135015Y-77004902D01*
X97444789Y-77004902D01*
X96807103Y-77269040D01*
X96319040Y-77757103D01*
X96054902Y-78394789D01*
X94017531Y-78394789D01*
X94017531Y-75854789D01*
X102404902Y-75854789D01*
X102404902Y-76545015D01*
X102669040Y-77182701D01*
X103157103Y-77670764D01*
X103794789Y-77934902D01*
X104485015Y-77934902D01*
X105122701Y-77670764D01*
X105610764Y-77182701D01*
X105874902Y-76545015D01*
X105874902Y-75854789D01*
X105610764Y-75217103D01*
X105122701Y-74729040D01*
X104485015Y-74464902D01*
X103794789Y-74464902D01*
X103157103Y-74729040D01*
X102669040Y-75217103D01*
X102404902Y-75854789D01*
X94017531Y-75854789D01*
X94017531Y-63861340D01*
X94060011Y-63818860D01*
X94217580Y-63438454D01*
X94217580Y-63026706D01*
X94060011Y-62646300D01*
X93942580Y-62528869D01*
X93942580Y-61705817D01*
X98964902Y-61705817D01*
X98964902Y-62754085D01*
X99366057Y-63722559D01*
X100107294Y-64463796D01*
X101075768Y-64864951D01*
X102124036Y-64864951D01*
X103092510Y-64463796D01*
X103833747Y-63722559D01*
X104234902Y-62754085D01*
X104234902Y-61705817D01*
X103833747Y-60737343D01*
X103092510Y-59996106D01*
X102124036Y-59594951D01*
X101075768Y-59594951D01*
X100107294Y-59996106D01*
X99366057Y-60737343D01*
X98964902Y-61705817D01*
X93942580Y-61705817D01*
X93942580Y-59344838D01*
X96054902Y-59344838D01*
X96054902Y-60035064D01*
X96319040Y-60672750D01*
X96807103Y-61160813D01*
X97444789Y-61424951D01*
X98135015Y-61424951D01*
X98772701Y-61160813D01*
X99260764Y-60672750D01*
X99524902Y-60035064D01*
X99524902Y-59344838D01*
X99260764Y-58707152D01*
X98772701Y-58219089D01*
X98135015Y-57954951D01*
X97444789Y-57954951D01*
X96807103Y-58219089D01*
X96319040Y-58707152D01*
X96054902Y-59344838D01*
X93942580Y-59344838D01*
X93942580Y-57927897D01*
X95065639Y-56804838D01*
X102404902Y-56804838D01*
X102404902Y-57495064D01*
X102669040Y-58132750D01*
X103157103Y-58620813D01*
X103794789Y-58884951D01*
X104485015Y-58884951D01*
X105122701Y-58620813D01*
X105610764Y-58132750D01*
X105874902Y-57495064D01*
X105874902Y-56804838D01*
X105610764Y-56167152D01*
X105122701Y-55679089D01*
X104485015Y-55414951D01*
X103794789Y-55414951D01*
X103157103Y-55679089D01*
X102669040Y-56167152D01*
X102404902Y-56804838D01*
X95065639Y-56804838D01*
X98073859Y-53796619D01*
X98137315Y-53754219D01*
X98212656Y-53641464D01*
X98305290Y-53502828D01*
X98324729Y-53405099D01*
X98349386Y-53281142D01*
X98349386Y-53281138D01*
X98364274Y-53206290D01*
X98349386Y-53131442D01*
X98349386Y-46262733D01*
X98364274Y-46187886D01*
X98349386Y-46113039D01*
X98349386Y-46113035D01*
X98305290Y-45891350D01*
X98137315Y-45639958D01*
X98073859Y-45597558D01*
X96174459Y-43698159D01*
X96132057Y-43634700D01*
X95880665Y-43466725D01*
X95658980Y-43422629D01*
X95658975Y-43422629D01*
X95584128Y-43407741D01*
X95509281Y-43422629D01*
X93836340Y-43422629D01*
X93718909Y-43305198D01*
X93338503Y-43147629D01*
X92926755Y-43147629D01*
X92546349Y-43305198D01*
X92255198Y-43596349D01*
X92097629Y-43976755D01*
X92097629Y-44147630D01*
X88397169Y-44147630D01*
X88322321Y-44132742D01*
X88247473Y-44147630D01*
X88247469Y-44147630D01*
X88073926Y-44182150D01*
X88025783Y-44191726D01*
X87838739Y-44316706D01*
X87774392Y-44359701D01*
X87731992Y-44423157D01*
X86265528Y-45889622D01*
X86202072Y-45932022D01*
X86159672Y-45995478D01*
X86159671Y-45995479D01*
X86034097Y-46183414D01*
X85975112Y-46479951D01*
X85990001Y-46554803D01*
X85990000Y-53062640D01*
X85705874Y-52944951D01*
X85294126Y-52944951D01*
X84913720Y-53102520D01*
X84796289Y-53219951D01*
X80203711Y-53219951D01*
X80086280Y-53102520D01*
X79705874Y-52944951D01*
X79294126Y-52944951D01*
X78913720Y-53102520D01*
X78622569Y-53393671D01*
X78465000Y-53774077D01*
X78465000Y-54185825D01*
X78622569Y-54566231D01*
X78913720Y-54857382D01*
X79294126Y-55014951D01*
X79705874Y-55014951D01*
X80086280Y-54857382D01*
X80203711Y-54739951D01*
X84796289Y-54739951D01*
X84913720Y-54857382D01*
X85294126Y-55014951D01*
X85705874Y-55014951D01*
X85990000Y-54897262D01*
X85990000Y-55644813D01*
X85435064Y-55414951D01*
X84744838Y-55414951D01*
X84107152Y-55679089D01*
X83619089Y-56167152D01*
X83354951Y-56804838D01*
X83354951Y-57495064D01*
X83619089Y-58132750D01*
X84107152Y-58620813D01*
X84744838Y-58884951D01*
X85435064Y-58884951D01*
X85754953Y-58752449D01*
X85754952Y-60400197D01*
X84969493Y-61185656D01*
X84783796Y-60737343D01*
X84042559Y-59996106D01*
X83074085Y-59594951D01*
X82025817Y-59594951D01*
X81057343Y-59996106D01*
X80316106Y-60737343D01*
X79914951Y-61705817D01*
X79914951Y-62754085D01*
X80316106Y-63722559D01*
X80563498Y-63969951D01*
X77099800Y-63969951D01*
X77434483Y-63635268D01*
X77497939Y-63592868D01*
X77571979Y-63482060D01*
X77665914Y-63341477D01*
X77687575Y-63232579D01*
X77710010Y-63119791D01*
X77710010Y-63119787D01*
X77724898Y-63044939D01*
X77710010Y-62970091D01*
X77710010Y-61113671D01*
X77757152Y-61160813D01*
X78394838Y-61424951D01*
X79085064Y-61424951D01*
X79722750Y-61160813D01*
X80210813Y-60672750D01*
X80474951Y-60035064D01*
X80474951Y-59344838D01*
X80210813Y-58707152D01*
X79722750Y-58219089D01*
X79085064Y-57954951D01*
X78394838Y-57954951D01*
X77757152Y-58219089D01*
X77710010Y-58266231D01*
X77710010Y-55231153D01*
X77934486Y-55006678D01*
X77997937Y-54964281D01*
X78040333Y-54900831D01*
X78040338Y-54900826D01*
X78165912Y-54712890D01*
X78224897Y-54416353D01*
X78210008Y-54341501D01*
X78210010Y-47618397D01*
X78224898Y-47543550D01*
X78210010Y-47468703D01*
X78210010Y-47468700D01*
X78165914Y-47247015D01*
X78144137Y-47214423D01*
X78040339Y-47059078D01*
X78040337Y-47059076D01*
X77997939Y-46995623D01*
X77934486Y-46953225D01*
X77260000Y-46278740D01*
X77260000Y-42655866D01*
X79914951Y-42655866D01*
X79914951Y-43704134D01*
X80316106Y-44672608D01*
X81057343Y-45413845D01*
X82025817Y-45815000D01*
X83074085Y-45815000D01*
X84042559Y-45413845D01*
X84783796Y-44672608D01*
X85184951Y-43704134D01*
X85184951Y-42655866D01*
X98964902Y-42655866D01*
X98964902Y-43704134D01*
X99366057Y-44672608D01*
X100107294Y-45413845D01*
X101075768Y-45815000D01*
X102124036Y-45815000D01*
X103092510Y-45413845D01*
X103833747Y-44672608D01*
X104234902Y-43704134D01*
X104234902Y-42655866D01*
X103833747Y-41687392D01*
X103092510Y-40946155D01*
X102124036Y-40545000D01*
X101075768Y-40545000D01*
X100107294Y-40946155D01*
X99366057Y-41687392D01*
X98964902Y-42655866D01*
X85184951Y-42655866D01*
X84783796Y-41687392D01*
X84042559Y-40946155D01*
X83074085Y-40545000D01*
X82025817Y-40545000D01*
X81057343Y-40946155D01*
X80316106Y-41687392D01*
X79914951Y-42655866D01*
X77260000Y-42655866D01*
X77260000Y-41600856D01*
X77269089Y-41622799D01*
X77757152Y-42110862D01*
X78394838Y-42375000D01*
X79085064Y-42375000D01*
X79722750Y-42110862D01*
X80210813Y-41622799D01*
X80474951Y-40985113D01*
X80474951Y-40294887D01*
X96054902Y-40294887D01*
X96054902Y-40985113D01*
X96319040Y-41622799D01*
X96807103Y-42110862D01*
X97444789Y-42375000D01*
X98135015Y-42375000D01*
X98772701Y-42110862D01*
X99260764Y-41622799D01*
X99524902Y-40985113D01*
X99524902Y-40294887D01*
X99260764Y-39657201D01*
X98772701Y-39169138D01*
X98135015Y-38905000D01*
X97444789Y-38905000D01*
X96807103Y-39169138D01*
X96319040Y-39657201D01*
X96054902Y-40294887D01*
X80474951Y-40294887D01*
X80210813Y-39657201D01*
X79722750Y-39169138D01*
X79085064Y-38905000D01*
X78394838Y-38905000D01*
X77757152Y-39169138D01*
X77269089Y-39657201D01*
X77005464Y-40293648D01*
X76984473Y-40279622D01*
X74459738Y-37754887D01*
X83354951Y-37754887D01*
X83354951Y-38445113D01*
X83619089Y-39082799D01*
X84107152Y-39570862D01*
X84744838Y-39835000D01*
X85435064Y-39835000D01*
X86072750Y-39570862D01*
X86560813Y-39082799D01*
X86824951Y-38445113D01*
X86824951Y-37754887D01*
X102404902Y-37754887D01*
X102404902Y-38445113D01*
X102669040Y-39082799D01*
X103157103Y-39570862D01*
X103794789Y-39835000D01*
X104485015Y-39835000D01*
X105122701Y-39570862D01*
X105610764Y-39082799D01*
X105874902Y-38445113D01*
X105874902Y-37754887D01*
X105610764Y-37117201D01*
X105122701Y-36629138D01*
X104485015Y-36365000D01*
X103794789Y-36365000D01*
X103157103Y-36629138D01*
X102669040Y-37117201D01*
X102404902Y-37754887D01*
X86824951Y-37754887D01*
X86560813Y-37117201D01*
X86072750Y-36629138D01*
X85435064Y-36365000D01*
X84744838Y-36365000D01*
X84107152Y-36629138D01*
X83619089Y-37117201D01*
X83354951Y-37754887D01*
X74459738Y-37754887D01*
X73760000Y-37055150D01*
X73760000Y-33944891D01*
X73850000Y-33944891D01*
X73953853Y-33924234D01*
X73973691Y-33932451D01*
X74041250Y-33932451D01*
X74073208Y-33900493D01*
X74097765Y-33895608D01*
X74307809Y-33755260D01*
X74400000Y-33617287D01*
X74400000Y-33773701D01*
X74558750Y-33932451D01*
X74626309Y-33932451D01*
X74859698Y-33835778D01*
X74864291Y-33831185D01*
X75229479Y-33982451D01*
X75770521Y-33982451D01*
X76270378Y-33775403D01*
X76652952Y-33392829D01*
X76697683Y-33284838D01*
X109365000Y-33284838D01*
X109365000Y-33975064D01*
X109629138Y-34612750D01*
X110117201Y-35100813D01*
X110754887Y-35364951D01*
X111445113Y-35364951D01*
X112082799Y-35100813D01*
X112570862Y-34612750D01*
X112835000Y-33975064D01*
X112835000Y-33284838D01*
X112570862Y-32647152D01*
X112082799Y-32159089D01*
X111445113Y-31894951D01*
X110754887Y-31894951D01*
X110117201Y-32159089D01*
X109629138Y-32647152D01*
X109365000Y-33284838D01*
X76697683Y-33284838D01*
X76860000Y-32892972D01*
X76860000Y-32351930D01*
X76660000Y-31869088D01*
X76660000Y-31499820D01*
X76981873Y-31435795D01*
X77390385Y-31162836D01*
X77663344Y-30754324D01*
X77735000Y-30394086D01*
X77735000Y-29450815D01*
X77673165Y-29139951D01*
X115590000Y-29139951D01*
X115590001Y-133519951D01*
X30410000Y-133519951D01*
X30410000Y-128584838D01*
X33165000Y-128584838D01*
X33165000Y-129275064D01*
X33429138Y-129912750D01*
X33917201Y-130400813D01*
X34554887Y-130664951D01*
X35245113Y-130664951D01*
X35882799Y-130400813D01*
X36370862Y-129912750D01*
X36635000Y-129275064D01*
X36635000Y-128584838D01*
X109465000Y-128584838D01*
X109465000Y-129275064D01*
X109729138Y-129912750D01*
X110217201Y-130400813D01*
X110854887Y-130664951D01*
X111545113Y-130664951D01*
X112182799Y-130400813D01*
X112670862Y-129912750D01*
X112935000Y-129275064D01*
X112935000Y-128584838D01*
X112670862Y-127947152D01*
X112182799Y-127459089D01*
X111545113Y-127194951D01*
X110854887Y-127194951D01*
X110217201Y-127459089D01*
X109729138Y-127947152D01*
X109465000Y-128584838D01*
X36635000Y-128584838D01*
X36370862Y-127947152D01*
X35882799Y-127459089D01*
X35245113Y-127194951D01*
X34554887Y-127194951D01*
X33917201Y-127459089D01*
X33429138Y-127947152D01*
X33165000Y-128584838D01*
X30410000Y-128584838D01*
X30410000Y-43976755D01*
X35122629Y-43976755D01*
X35122629Y-44388503D01*
X35280198Y-44768909D01*
X35397629Y-44886340D01*
X35397630Y-62603819D01*
X35355149Y-62646300D01*
X35197580Y-63026706D01*
X35197580Y-63438454D01*
X35355149Y-63818860D01*
X35472580Y-63936291D01*
X35472581Y-81578770D01*
X35355100Y-81696251D01*
X35197531Y-82076657D01*
X35197531Y-82488405D01*
X35355100Y-82868811D01*
X35472531Y-82986242D01*
X35472532Y-100678721D01*
X35405051Y-100746202D01*
X35247482Y-101126608D01*
X35247482Y-101538356D01*
X35405051Y-101918762D01*
X35522482Y-102036193D01*
X35522483Y-119728672D01*
X35455002Y-119796153D01*
X35297433Y-120176559D01*
X35297433Y-120588307D01*
X35455002Y-120968713D01*
X35746153Y-121259864D01*
X36126559Y-121417433D01*
X36538307Y-121417433D01*
X36918713Y-121259864D01*
X37209864Y-120968713D01*
X37367433Y-120588307D01*
X37367433Y-120176559D01*
X37209864Y-119796153D01*
X37042482Y-119628771D01*
X37042482Y-118855670D01*
X41815049Y-118855670D01*
X41815049Y-119903938D01*
X42216204Y-120872412D01*
X42957441Y-121613649D01*
X43925915Y-122014804D01*
X44974183Y-122014804D01*
X45942657Y-121613649D01*
X46683894Y-120872412D01*
X47085049Y-119903938D01*
X47085049Y-118855670D01*
X46683894Y-117887196D01*
X45942657Y-117145959D01*
X44974183Y-116744804D01*
X43925915Y-116744804D01*
X42957441Y-117145959D01*
X42216204Y-117887196D01*
X41815049Y-118855670D01*
X37042482Y-118855670D01*
X37042482Y-116494691D01*
X38905049Y-116494691D01*
X38905049Y-117184917D01*
X39169187Y-117822603D01*
X39657250Y-118310666D01*
X40294936Y-118574804D01*
X40985162Y-118574804D01*
X41622848Y-118310666D01*
X42110911Y-117822603D01*
X42375049Y-117184917D01*
X42375049Y-116494691D01*
X42110911Y-115857005D01*
X41622848Y-115368942D01*
X40985162Y-115104804D01*
X40294936Y-115104804D01*
X39657250Y-115368942D01*
X39169187Y-115857005D01*
X38905049Y-116494691D01*
X37042482Y-116494691D01*
X37042482Y-113954691D01*
X45255049Y-113954691D01*
X45255049Y-114644917D01*
X45519187Y-115282603D01*
X46007250Y-115770666D01*
X46644936Y-116034804D01*
X47335162Y-116034804D01*
X47972848Y-115770666D01*
X48460911Y-115282603D01*
X48725049Y-114644917D01*
X48725049Y-113954691D01*
X48460911Y-113317005D01*
X47972848Y-112828942D01*
X47335162Y-112564804D01*
X46644936Y-112564804D01*
X46007250Y-112828942D01*
X45519187Y-113317005D01*
X45255049Y-113954691D01*
X37042482Y-113954691D01*
X37042482Y-102036193D01*
X37159913Y-101918762D01*
X37317482Y-101538356D01*
X37317482Y-101126608D01*
X37159913Y-100746202D01*
X36992531Y-100578820D01*
X36992531Y-99872574D01*
X41815049Y-99872574D01*
X41815049Y-100920842D01*
X42216204Y-101889316D01*
X42957441Y-102630553D01*
X43925915Y-103031708D01*
X44974183Y-103031708D01*
X45942657Y-102630553D01*
X46683894Y-101889316D01*
X47085049Y-100920842D01*
X47085049Y-99872574D01*
X46683894Y-98904100D01*
X45942657Y-98162863D01*
X44974183Y-97761708D01*
X43925915Y-97761708D01*
X42957441Y-98162863D01*
X42216204Y-98904100D01*
X41815049Y-99872574D01*
X36992531Y-99872574D01*
X36992531Y-97511595D01*
X38905049Y-97511595D01*
X38905049Y-98201821D01*
X39169187Y-98839507D01*
X39657250Y-99327570D01*
X40294936Y-99591708D01*
X40985162Y-99591708D01*
X41622848Y-99327570D01*
X42110911Y-98839507D01*
X42375049Y-98201821D01*
X42375049Y-97511595D01*
X42110911Y-96873909D01*
X41622848Y-96385846D01*
X40985162Y-96121708D01*
X40294936Y-96121708D01*
X39657250Y-96385846D01*
X39169187Y-96873909D01*
X38905049Y-97511595D01*
X36992531Y-97511595D01*
X36992531Y-94971595D01*
X45255049Y-94971595D01*
X45255049Y-95661821D01*
X45519187Y-96299507D01*
X46007250Y-96787570D01*
X46644936Y-97051708D01*
X47335162Y-97051708D01*
X47972848Y-96787570D01*
X48460911Y-96299507D01*
X48725049Y-95661821D01*
X48725049Y-94971595D01*
X48460911Y-94333909D01*
X47972848Y-93845846D01*
X47335162Y-93581708D01*
X46644936Y-93581708D01*
X46007250Y-93845846D01*
X45519187Y-94333909D01*
X45255049Y-94971595D01*
X36992531Y-94971595D01*
X36992531Y-82986242D01*
X37109962Y-82868811D01*
X37267531Y-82488405D01*
X37267531Y-82076657D01*
X37109962Y-81696251D01*
X36992580Y-81578869D01*
X36992580Y-80755768D01*
X41815049Y-80755768D01*
X41815049Y-81804036D01*
X42216204Y-82772510D01*
X42957441Y-83513747D01*
X43925915Y-83914902D01*
X44974183Y-83914902D01*
X45942657Y-83513747D01*
X46683894Y-82772510D01*
X47085049Y-81804036D01*
X47085049Y-80755768D01*
X46683894Y-79787294D01*
X45942657Y-79046057D01*
X44974183Y-78644902D01*
X43925915Y-78644902D01*
X42957441Y-79046057D01*
X42216204Y-79787294D01*
X41815049Y-80755768D01*
X36992580Y-80755768D01*
X36992580Y-78394789D01*
X38905049Y-78394789D01*
X38905049Y-79085015D01*
X39169187Y-79722701D01*
X39657250Y-80210764D01*
X40294936Y-80474902D01*
X40985162Y-80474902D01*
X41622848Y-80210764D01*
X42110911Y-79722701D01*
X42375049Y-79085015D01*
X42375049Y-78394789D01*
X42110911Y-77757103D01*
X41622848Y-77269040D01*
X40985162Y-77004902D01*
X40294936Y-77004902D01*
X39657250Y-77269040D01*
X39169187Y-77757103D01*
X38905049Y-78394789D01*
X36992580Y-78394789D01*
X36992580Y-75854789D01*
X45255049Y-75854789D01*
X45255049Y-76545015D01*
X45519187Y-77182701D01*
X46007250Y-77670764D01*
X46644936Y-77934902D01*
X47335162Y-77934902D01*
X47972848Y-77670764D01*
X48460911Y-77182701D01*
X48725049Y-76545015D01*
X48725049Y-75854789D01*
X48460911Y-75217103D01*
X47972848Y-74729040D01*
X47335162Y-74464902D01*
X46644936Y-74464902D01*
X46007250Y-74729040D01*
X45519187Y-75217103D01*
X45255049Y-75854789D01*
X36992580Y-75854789D01*
X36992580Y-63936291D01*
X37110011Y-63818860D01*
X37267580Y-63438454D01*
X37267580Y-63026706D01*
X37110011Y-62646300D01*
X36917629Y-62453918D01*
X36917629Y-61705817D01*
X41815049Y-61705817D01*
X41815049Y-62754085D01*
X42216204Y-63722559D01*
X42957441Y-64463796D01*
X43925915Y-64864951D01*
X44974183Y-64864951D01*
X45942657Y-64463796D01*
X46683894Y-63722559D01*
X47085049Y-62754085D01*
X47085049Y-61705817D01*
X46683894Y-60737343D01*
X45942657Y-59996106D01*
X44974183Y-59594951D01*
X43925915Y-59594951D01*
X42957441Y-59996106D01*
X42216204Y-60737343D01*
X41815049Y-61705817D01*
X36917629Y-61705817D01*
X36917629Y-59344838D01*
X38905049Y-59344838D01*
X38905049Y-60035064D01*
X39169187Y-60672750D01*
X39657250Y-61160813D01*
X40294936Y-61424951D01*
X40985162Y-61424951D01*
X41622848Y-61160813D01*
X42110911Y-60672750D01*
X42375049Y-60035064D01*
X42375049Y-59344838D01*
X42110911Y-58707152D01*
X41622848Y-58219089D01*
X40985162Y-57954951D01*
X40294936Y-57954951D01*
X39657250Y-58219089D01*
X39169187Y-58707152D01*
X38905049Y-59344838D01*
X36917629Y-59344838D01*
X36917629Y-56804838D01*
X45255049Y-56804838D01*
X45255049Y-57495064D01*
X45519187Y-58132750D01*
X46007250Y-58620813D01*
X46644936Y-58884951D01*
X47335162Y-58884951D01*
X47972848Y-58620813D01*
X48460911Y-58132750D01*
X48725049Y-57495064D01*
X48725049Y-56804838D01*
X48460911Y-56167152D01*
X47972848Y-55679089D01*
X47335162Y-55414951D01*
X46644936Y-55414951D01*
X46007250Y-55679089D01*
X45519187Y-56167152D01*
X45255049Y-56804838D01*
X36917629Y-56804838D01*
X36917629Y-48340258D01*
X50225112Y-48340258D01*
X50240000Y-48415105D01*
X50240001Y-58975148D01*
X50225112Y-59050000D01*
X50240001Y-59124852D01*
X50283759Y-59344838D01*
X50284097Y-59346537D01*
X50404337Y-59526488D01*
X50452072Y-59597929D01*
X50515528Y-59640329D01*
X54147580Y-63272383D01*
X54147580Y-63438454D01*
X54305149Y-63818860D01*
X54497532Y-64011243D01*
X54497531Y-81578820D01*
X54380100Y-81696251D01*
X54222531Y-82076657D01*
X54222531Y-82488405D01*
X54380100Y-82868811D01*
X54522483Y-83011194D01*
X54522482Y-100628771D01*
X54405051Y-100746202D01*
X54247482Y-101126608D01*
X54247482Y-101538356D01*
X54405051Y-101918762D01*
X54572434Y-102086145D01*
X54572433Y-119678722D01*
X54455002Y-119796153D01*
X54297433Y-120176559D01*
X54297433Y-120588307D01*
X54455002Y-120968713D01*
X54746153Y-121259864D01*
X55126559Y-121417433D01*
X55538307Y-121417433D01*
X55918713Y-121259864D01*
X56209864Y-120968713D01*
X56367433Y-120588307D01*
X56367433Y-120176559D01*
X56209864Y-119796153D01*
X56092433Y-119678722D01*
X56092433Y-118855670D01*
X60865000Y-118855670D01*
X60865000Y-119903938D01*
X61266155Y-120872412D01*
X62007392Y-121613649D01*
X62975866Y-122014804D01*
X64024134Y-122014804D01*
X64992608Y-121613649D01*
X65733845Y-120872412D01*
X66135000Y-119903938D01*
X66135000Y-118855670D01*
X65733845Y-117887196D01*
X64992608Y-117145959D01*
X64024134Y-116744804D01*
X62975866Y-116744804D01*
X62007392Y-117145959D01*
X61266155Y-117887196D01*
X60865000Y-118855670D01*
X56092433Y-118855670D01*
X56092433Y-116494691D01*
X57955000Y-116494691D01*
X57955000Y-117184917D01*
X58219138Y-117822603D01*
X58707201Y-118310666D01*
X59344887Y-118574804D01*
X60035113Y-118574804D01*
X60672799Y-118310666D01*
X61160862Y-117822603D01*
X61425000Y-117184917D01*
X61425000Y-116494691D01*
X61160862Y-115857005D01*
X60672799Y-115368942D01*
X60035113Y-115104804D01*
X59344887Y-115104804D01*
X58707201Y-115368942D01*
X58219138Y-115857005D01*
X57955000Y-116494691D01*
X56092433Y-116494691D01*
X56092433Y-113954691D01*
X64305000Y-113954691D01*
X64305000Y-114644917D01*
X64569138Y-115282603D01*
X65057201Y-115770666D01*
X65694887Y-116034804D01*
X66385113Y-116034804D01*
X67022799Y-115770666D01*
X67510862Y-115282603D01*
X67775000Y-114644917D01*
X67775000Y-113954691D01*
X67510862Y-113317005D01*
X67022799Y-112828942D01*
X66385113Y-112564804D01*
X65694887Y-112564804D01*
X65057201Y-112828942D01*
X64569138Y-113317005D01*
X64305000Y-113954691D01*
X56092433Y-113954691D01*
X56092433Y-101986242D01*
X56159913Y-101918762D01*
X56317482Y-101538356D01*
X56317482Y-101126608D01*
X56159913Y-100746202D01*
X56042482Y-100628771D01*
X56042482Y-99805719D01*
X60865000Y-99805719D01*
X60865000Y-100853987D01*
X61266155Y-101822461D01*
X62007392Y-102563698D01*
X62975866Y-102964853D01*
X64024134Y-102964853D01*
X64992608Y-102563698D01*
X65733845Y-101822461D01*
X66135000Y-100853987D01*
X66135000Y-99805719D01*
X65733845Y-98837245D01*
X64992608Y-98096008D01*
X64024134Y-97694853D01*
X62975866Y-97694853D01*
X62007392Y-98096008D01*
X61266155Y-98837245D01*
X60865000Y-99805719D01*
X56042482Y-99805719D01*
X56042482Y-97444740D01*
X57955000Y-97444740D01*
X57955000Y-98134966D01*
X58219138Y-98772652D01*
X58707201Y-99260715D01*
X59344887Y-99524853D01*
X60035113Y-99524853D01*
X60672799Y-99260715D01*
X61160862Y-98772652D01*
X61425000Y-98134966D01*
X61425000Y-97444740D01*
X61160862Y-96807054D01*
X60672799Y-96318991D01*
X60035113Y-96054853D01*
X59344887Y-96054853D01*
X58707201Y-96318991D01*
X58219138Y-96807054D01*
X57955000Y-97444740D01*
X56042482Y-97444740D01*
X56042482Y-94904740D01*
X64305000Y-94904740D01*
X64305000Y-95594966D01*
X64569138Y-96232652D01*
X65057201Y-96720715D01*
X65694887Y-96984853D01*
X66385113Y-96984853D01*
X67022799Y-96720715D01*
X67510862Y-96232652D01*
X67775000Y-95594966D01*
X67775000Y-94904740D01*
X67510862Y-94267054D01*
X67022799Y-93778991D01*
X66385113Y-93514853D01*
X65694887Y-93514853D01*
X65057201Y-93778991D01*
X64569138Y-94267054D01*
X64305000Y-94904740D01*
X56042482Y-94904740D01*
X56042482Y-90384838D01*
X71265000Y-90384838D01*
X71265000Y-91075064D01*
X71529138Y-91712750D01*
X72017201Y-92200813D01*
X72654887Y-92464951D01*
X73345113Y-92464951D01*
X73982799Y-92200813D01*
X74470862Y-91712750D01*
X74735000Y-91075064D01*
X74735000Y-90384838D01*
X74470862Y-89747152D01*
X73982799Y-89259089D01*
X73345113Y-88994951D01*
X72654887Y-88994951D01*
X72017201Y-89259089D01*
X71529138Y-89747152D01*
X71265000Y-90384838D01*
X56042482Y-90384838D01*
X56042482Y-82961291D01*
X56134962Y-82868811D01*
X56292531Y-82488405D01*
X56292531Y-82076657D01*
X56134962Y-81696251D01*
X56017531Y-81578820D01*
X56017531Y-78394789D01*
X57955000Y-78394789D01*
X57955000Y-79085015D01*
X58219138Y-79722701D01*
X58707201Y-80210764D01*
X59344887Y-80474902D01*
X60035113Y-80474902D01*
X60672799Y-80210764D01*
X61160862Y-79722701D01*
X61425000Y-79085015D01*
X61425000Y-78394789D01*
X61160862Y-77757103D01*
X60672799Y-77269040D01*
X60035113Y-77004902D01*
X59344887Y-77004902D01*
X58707201Y-77269040D01*
X58219138Y-77757103D01*
X57955000Y-78394789D01*
X56017531Y-78394789D01*
X56017531Y-63861340D01*
X56060011Y-63818860D01*
X56217580Y-63438454D01*
X56217580Y-63026706D01*
X56060011Y-62646300D01*
X55768860Y-62355149D01*
X55388454Y-62197580D01*
X55222383Y-62197580D01*
X51760000Y-58735199D01*
X51760000Y-53214951D01*
X52014250Y-53214951D01*
X52173000Y-53056201D01*
X52173000Y-51856951D01*
X52427000Y-51856951D01*
X52427000Y-53056201D01*
X52585750Y-53214951D01*
X52876309Y-53214951D01*
X53109698Y-53118278D01*
X53288327Y-52939650D01*
X53385000Y-52706261D01*
X53385000Y-52015701D01*
X53226250Y-51856951D01*
X52427000Y-51856951D01*
X52173000Y-51856951D01*
X52153000Y-51856951D01*
X52153000Y-51602951D01*
X52173000Y-51602951D01*
X52173000Y-50403701D01*
X52427000Y-50403701D01*
X52427000Y-51602951D01*
X53226250Y-51602951D01*
X53385000Y-51444201D01*
X53385000Y-50753641D01*
X53288327Y-50520252D01*
X53109698Y-50341624D01*
X52876309Y-50244951D01*
X52585750Y-50244951D01*
X52427000Y-50403701D01*
X52173000Y-50403701D01*
X52014250Y-50244951D01*
X51760000Y-50244951D01*
X51760000Y-48655059D01*
X51961417Y-48453642D01*
X69315000Y-48453642D01*
X69315000Y-49294201D01*
X69473750Y-49452951D01*
X70573000Y-49452951D01*
X70573000Y-48103701D01*
X70414250Y-47944951D01*
X69823690Y-47944951D01*
X69590301Y-48041624D01*
X69411673Y-48220253D01*
X69315000Y-48453642D01*
X51961417Y-48453642D01*
X54399359Y-46015701D01*
X70265000Y-46015701D01*
X70265000Y-46556261D01*
X70361673Y-46789650D01*
X70540302Y-46968278D01*
X70773691Y-47064951D01*
X71189250Y-47064951D01*
X71348000Y-46906201D01*
X71348000Y-45856951D01*
X70423750Y-45856951D01*
X70265000Y-46015701D01*
X54399359Y-46015701D01*
X55197432Y-45217629D01*
X55363503Y-45217629D01*
X55743909Y-45060060D01*
X56035060Y-44768909D01*
X56192629Y-44388503D01*
X56192629Y-43976755D01*
X56035060Y-43596349D01*
X55743909Y-43305198D01*
X55363503Y-43147629D01*
X54951755Y-43147629D01*
X54571349Y-43305198D01*
X54280198Y-43596349D01*
X54122629Y-43976755D01*
X54122629Y-44142826D01*
X50515530Y-47749927D01*
X50452071Y-47792329D01*
X50284096Y-48043722D01*
X50240000Y-48265407D01*
X50240000Y-48265411D01*
X50225112Y-48340258D01*
X36917629Y-48340258D01*
X36917629Y-44886340D01*
X37035060Y-44768909D01*
X37192629Y-44388503D01*
X37192629Y-43976755D01*
X37035060Y-43596349D01*
X36743909Y-43305198D01*
X36363503Y-43147629D01*
X35951755Y-43147629D01*
X35571349Y-43305198D01*
X35280198Y-43596349D01*
X35122629Y-43976755D01*
X30410000Y-43976755D01*
X30410000Y-42655866D01*
X41815049Y-42655866D01*
X41815049Y-43704134D01*
X42216204Y-44672608D01*
X42957441Y-45413845D01*
X43925915Y-45815000D01*
X44974183Y-45815000D01*
X45942657Y-45413845D01*
X46683894Y-44672608D01*
X47085049Y-43704134D01*
X47085049Y-42655866D01*
X60865000Y-42655866D01*
X60865000Y-43704134D01*
X61266155Y-44672608D01*
X62007392Y-45413845D01*
X62975866Y-45815000D01*
X64024134Y-45815000D01*
X64992608Y-45413845D01*
X65502812Y-44903641D01*
X70265000Y-44903641D01*
X70265000Y-45444201D01*
X70423750Y-45602951D01*
X71348000Y-45602951D01*
X71348000Y-44553701D01*
X71189250Y-44394951D01*
X70773691Y-44394951D01*
X70540302Y-44491624D01*
X70361673Y-44670252D01*
X70265000Y-44903641D01*
X65502812Y-44903641D01*
X65733845Y-44672608D01*
X66135000Y-43704134D01*
X66135000Y-42655866D01*
X65733845Y-41687392D01*
X64992608Y-40946155D01*
X64024134Y-40545000D01*
X62975866Y-40545000D01*
X62007392Y-40946155D01*
X61266155Y-41687392D01*
X60865000Y-42655866D01*
X47085049Y-42655866D01*
X46683894Y-41687392D01*
X45942657Y-40946155D01*
X44974183Y-40545000D01*
X43925915Y-40545000D01*
X42957441Y-40946155D01*
X42216204Y-41687392D01*
X41815049Y-42655866D01*
X30410000Y-42655866D01*
X30410000Y-40294887D01*
X38905049Y-40294887D01*
X38905049Y-40985113D01*
X39169187Y-41622799D01*
X39657250Y-42110862D01*
X40294936Y-42375000D01*
X40985162Y-42375000D01*
X41622848Y-42110862D01*
X42110911Y-41622799D01*
X42375049Y-40985113D01*
X42375049Y-40294887D01*
X57955000Y-40294887D01*
X57955000Y-40985113D01*
X58219138Y-41622799D01*
X58707201Y-42110862D01*
X59344887Y-42375000D01*
X60035113Y-42375000D01*
X60672799Y-42110862D01*
X61160862Y-41622799D01*
X61425000Y-40985113D01*
X61425000Y-40294887D01*
X61160862Y-39657201D01*
X60672799Y-39169138D01*
X60035113Y-38905000D01*
X59344887Y-38905000D01*
X58707201Y-39169138D01*
X58219138Y-39657201D01*
X57955000Y-40294887D01*
X42375049Y-40294887D01*
X42110911Y-39657201D01*
X41622848Y-39169138D01*
X40985162Y-38905000D01*
X40294936Y-38905000D01*
X39657250Y-39169138D01*
X39169187Y-39657201D01*
X38905049Y-40294887D01*
X30410000Y-40294887D01*
X30410000Y-37754887D01*
X45255049Y-37754887D01*
X45255049Y-38445113D01*
X45519187Y-39082799D01*
X46007250Y-39570862D01*
X46644936Y-39835000D01*
X47335162Y-39835000D01*
X47972848Y-39570862D01*
X48460911Y-39082799D01*
X48725049Y-38445113D01*
X48725049Y-37754887D01*
X64305000Y-37754887D01*
X64305000Y-38445113D01*
X64569138Y-39082799D01*
X65057201Y-39570862D01*
X65694887Y-39835000D01*
X66385113Y-39835000D01*
X67022799Y-39570862D01*
X67510862Y-39082799D01*
X67775000Y-38445113D01*
X67775000Y-37754887D01*
X67510862Y-37117201D01*
X67022799Y-36629138D01*
X66385113Y-36365000D01*
X65694887Y-36365000D01*
X65057201Y-36629138D01*
X64569138Y-37117201D01*
X64305000Y-37754887D01*
X48725049Y-37754887D01*
X48460911Y-37117201D01*
X47972848Y-36629138D01*
X47335162Y-36365000D01*
X46644936Y-36365000D01*
X46007250Y-36629138D01*
X45519187Y-37117201D01*
X45255049Y-37754887D01*
X30410000Y-37754887D01*
X30410000Y-33284838D01*
X33165000Y-33284838D01*
X33165000Y-33975064D01*
X33429138Y-34612750D01*
X33917201Y-35100813D01*
X34554887Y-35364951D01*
X35245113Y-35364951D01*
X35882799Y-35100813D01*
X36370862Y-34612750D01*
X36635000Y-33975064D01*
X36635000Y-33284838D01*
X36370862Y-32647152D01*
X35882799Y-32159089D01*
X35245113Y-31894951D01*
X34554887Y-31894951D01*
X33917201Y-32159089D01*
X33429138Y-32647152D01*
X33165000Y-33284838D01*
X30410000Y-33284838D01*
X30410000Y-29139951D01*
X68326835Y-29139951D01*
X68265000Y-29450815D01*
X68265000Y-29450815D01*
G37*
X68265000Y-29450815D02*
X68265000Y-30394086D01*
X68336656Y-30754323D01*
X68609615Y-31162836D01*
X69018127Y-31435795D01*
X69340001Y-31499820D01*
X69340001Y-31869086D01*
X69140000Y-32351930D01*
X69140000Y-32892972D01*
X69347048Y-33392829D01*
X69729622Y-33775403D01*
X70229479Y-33982451D01*
X70770521Y-33982451D01*
X70940001Y-33912250D01*
X70940000Y-37224831D01*
X70915112Y-37349951D01*
X70974097Y-37646488D01*
X71142071Y-37897880D01*
X71205529Y-37940281D01*
X74740001Y-41474754D01*
X74740000Y-43440149D01*
X73797639Y-44382511D01*
X73199999Y-44382511D01*
X72856564Y-44450824D01*
X72565414Y-44645365D01*
X72564623Y-44646548D01*
X72409698Y-44491624D01*
X72176309Y-44394951D01*
X71760750Y-44394951D01*
X71602000Y-44553701D01*
X71602000Y-45602951D01*
X71622000Y-45602951D01*
X71622000Y-45856951D01*
X71602000Y-45856951D01*
X71602000Y-46906201D01*
X71760750Y-47064951D01*
X72176309Y-47064951D01*
X72409698Y-46968278D01*
X72564623Y-46813354D01*
X72565414Y-46814537D01*
X72856564Y-47009078D01*
X73199999Y-47077391D01*
X73747638Y-47077391D01*
X74540001Y-47869755D01*
X74540001Y-47934500D01*
X74302235Y-47981794D01*
X74150000Y-48083515D01*
X73997765Y-47981794D01*
X73750000Y-47932511D01*
X72250000Y-47932511D01*
X72002235Y-47981794D01*
X71850953Y-48082878D01*
X71809699Y-48041624D01*
X71576310Y-47944951D01*
X70985750Y-47944951D01*
X70827000Y-48103701D01*
X70827000Y-49452951D01*
X70847000Y-49452951D01*
X70847000Y-49706951D01*
X70827000Y-49706951D01*
X70827000Y-49726951D01*
X70573000Y-49726951D01*
X70573000Y-49706951D01*
X69473750Y-49706951D01*
X69315000Y-49865701D01*
X69315000Y-50706260D01*
X69411673Y-50939649D01*
X69590301Y-51118278D01*
X69823690Y-51214951D01*
X70414250Y-51214951D01*
X70572998Y-51056203D01*
X70572998Y-51182151D01*
X69785199Y-51969951D01*
X68185778Y-51969951D01*
X68179127Y-51936515D01*
X67984586Y-51645365D01*
X67693436Y-51450824D01*
X67350001Y-51382511D01*
X66699999Y-51382511D01*
X66356564Y-51450824D01*
X66065414Y-51645365D01*
X66064623Y-51646548D01*
X65909698Y-51491624D01*
X65676309Y-51394951D01*
X65260750Y-51394951D01*
X65102000Y-51553701D01*
X65102000Y-52602951D01*
X65122000Y-52602951D01*
X65122000Y-52856951D01*
X65102000Y-52856951D01*
X65102000Y-53906201D01*
X65260750Y-54064951D01*
X65676309Y-54064951D01*
X65909698Y-53968278D01*
X66064623Y-53813354D01*
X66065414Y-53814537D01*
X66356564Y-54009078D01*
X66442524Y-54026176D01*
X66477071Y-54077880D01*
X66540530Y-54120282D01*
X69240001Y-56819755D01*
X69240000Y-60494951D01*
X68785750Y-60494951D01*
X68627000Y-60653701D01*
X68627000Y-61577951D01*
X68647000Y-61577951D01*
X68647000Y-61831951D01*
X68627000Y-61831951D01*
X68627000Y-61851951D01*
X68373000Y-61851951D01*
X68373000Y-61831951D01*
X68353000Y-61831951D01*
X68353000Y-61577951D01*
X68373000Y-61577951D01*
X68373000Y-60653701D01*
X68214250Y-60494951D01*
X67673690Y-60494951D01*
X67440301Y-60591624D01*
X67261673Y-60770253D01*
X67260000Y-60774292D01*
X67260000Y-59933662D01*
X67377431Y-59816231D01*
X67535000Y-59435825D01*
X67535000Y-59024077D01*
X67377431Y-58643671D01*
X67188686Y-58454926D01*
X67510862Y-58132750D01*
X67775000Y-57495064D01*
X67775000Y-56804838D01*
X67510862Y-56167152D01*
X67022799Y-55679089D01*
X66385113Y-55414951D01*
X65694887Y-55414951D01*
X65057201Y-55679089D01*
X64569138Y-56167152D01*
X64305000Y-56804838D01*
X64305000Y-56960150D01*
X64260000Y-56915150D01*
X64260000Y-54059280D01*
X64273691Y-54064951D01*
X64689250Y-54064951D01*
X64848000Y-53906201D01*
X64848000Y-52856951D01*
X64828000Y-52856951D01*
X64828000Y-52602951D01*
X64848000Y-52602951D01*
X64848000Y-51553701D01*
X64689250Y-51394951D01*
X64535000Y-51394951D01*
X64535000Y-51024077D01*
X64377431Y-50643671D01*
X64086280Y-50352520D01*
X63705874Y-50194951D01*
X63294126Y-50194951D01*
X62913720Y-50352520D01*
X62622569Y-50643671D01*
X62465000Y-51024077D01*
X62465000Y-51435825D01*
X62622569Y-51816231D01*
X62740000Y-51933662D01*
X62740001Y-57155099D01*
X62725112Y-57229951D01*
X62741700Y-57313344D01*
X62455874Y-57194951D01*
X62289802Y-57194951D01*
X61785000Y-56690150D01*
X61785000Y-54697897D01*
X61984586Y-54564537D01*
X62179127Y-54273387D01*
X62247440Y-53929952D01*
X62247440Y-53029950D01*
X62179127Y-52686515D01*
X61984586Y-52395365D01*
X61693436Y-52200824D01*
X61350001Y-52132511D01*
X60699999Y-52132511D01*
X60356564Y-52200824D01*
X60065414Y-52395365D01*
X60000000Y-52493264D01*
X59934586Y-52395365D01*
X59735000Y-52262005D01*
X59735000Y-51447897D01*
X59934586Y-51314537D01*
X59935377Y-51313354D01*
X60090302Y-51468278D01*
X60323691Y-51564951D01*
X60739250Y-51564951D01*
X60898000Y-51406201D01*
X60898000Y-50356951D01*
X61152000Y-50356951D01*
X61152000Y-51406201D01*
X61310750Y-51564951D01*
X61726309Y-51564951D01*
X61959698Y-51468278D01*
X62138327Y-51289650D01*
X62235000Y-51056261D01*
X62235000Y-50515701D01*
X62076250Y-50356951D01*
X61152000Y-50356951D01*
X60898000Y-50356951D01*
X60878000Y-50356951D01*
X60878000Y-50102951D01*
X60898000Y-50102951D01*
X60898000Y-49053701D01*
X61152000Y-49053701D01*
X61152000Y-50102951D01*
X62076250Y-50102951D01*
X62235000Y-49944201D01*
X62235000Y-49403641D01*
X62138327Y-49170252D01*
X61959698Y-48991624D01*
X61726309Y-48894951D01*
X61310750Y-48894951D01*
X61152000Y-49053701D01*
X60898000Y-49053701D01*
X60739250Y-48894951D01*
X60323691Y-48894951D01*
X60090302Y-48991624D01*
X59935377Y-49146548D01*
X59934586Y-49145365D01*
X59643436Y-48950824D01*
X59300001Y-48882511D01*
X58649999Y-48882511D01*
X58306564Y-48950824D01*
X58015414Y-49145365D01*
X57820873Y-49436515D01*
X57752560Y-49779950D01*
X57752560Y-50679952D01*
X57820873Y-51023387D01*
X58015414Y-51314537D01*
X58215001Y-51447897D01*
X58215000Y-52262005D01*
X58015414Y-52395365D01*
X57820873Y-52686515D01*
X57752560Y-53029950D01*
X57752560Y-53929952D01*
X57820873Y-54273387D01*
X58015414Y-54564537D01*
X58306564Y-54759078D01*
X58649999Y-54827391D01*
X59300001Y-54827391D01*
X59643436Y-54759078D01*
X59934586Y-54564537D01*
X60000000Y-54466638D01*
X60065414Y-54564537D01*
X60265001Y-54697897D01*
X60265000Y-56779421D01*
X60225112Y-56979951D01*
X60284097Y-57276488D01*
X60452071Y-57527880D01*
X60515529Y-57570281D01*
X61215000Y-58269753D01*
X61215000Y-58435825D01*
X61372569Y-58816231D01*
X61663720Y-59107382D01*
X62044126Y-59264951D01*
X62455874Y-59264951D01*
X62836280Y-59107382D01*
X63127431Y-58816231D01*
X63285000Y-58435825D01*
X63285000Y-58089752D01*
X64909671Y-59714424D01*
X64952071Y-59777880D01*
X65203463Y-59945855D01*
X65425148Y-59989951D01*
X65425152Y-59989951D01*
X65499999Y-60004839D01*
X65574846Y-59989951D01*
X65740001Y-59989951D01*
X65740001Y-60752204D01*
X65733845Y-60737343D01*
X64992608Y-59996106D01*
X64024134Y-59594951D01*
X62975866Y-59594951D01*
X62007392Y-59996106D01*
X61266155Y-60737343D01*
X60865000Y-61705817D01*
X60865000Y-62754085D01*
X61053136Y-63208285D01*
X59216708Y-61371858D01*
X59344887Y-61424951D01*
X60035113Y-61424951D01*
X60672799Y-61160813D01*
X61160862Y-60672750D01*
X61425000Y-60035064D01*
X61425000Y-59344838D01*
X61160862Y-58707152D01*
X60672799Y-58219089D01*
X60035113Y-57954951D01*
X59344887Y-57954951D01*
X58707201Y-58219089D01*
X58219138Y-58707152D01*
X57955000Y-59344838D01*
X57955000Y-60035064D01*
X58008094Y-60163243D01*
X56460000Y-58615150D01*
X56460000Y-53136524D01*
X56607809Y-53037760D01*
X56748157Y-52827716D01*
X56797440Y-52579951D01*
X56797440Y-50879951D01*
X56748157Y-50632186D01*
X56607809Y-50422142D01*
X56397765Y-50281794D01*
X56150000Y-50232511D01*
X55250000Y-50232511D01*
X55002235Y-50281794D01*
X54792191Y-50422142D01*
X54651843Y-50632186D01*
X54602560Y-50879951D01*
X54602560Y-52579951D01*
X54651843Y-52827716D01*
X54792191Y-53037760D01*
X54940001Y-53136524D01*
X54940000Y-58855104D01*
X54925112Y-58929951D01*
X54940000Y-59004798D01*
X54940000Y-59004802D01*
X54984096Y-59226487D01*
X55152071Y-59477880D01*
X55215530Y-59520282D01*
X61715000Y-66019753D01*
X61715000Y-66185825D01*
X61872569Y-66566231D01*
X62163720Y-66857382D01*
X62544126Y-67014951D01*
X62955874Y-67014951D01*
X62991639Y-67000137D01*
X63122569Y-67316231D01*
X63276289Y-67469951D01*
X62323272Y-67469951D01*
X62297929Y-67432022D01*
X62046537Y-67264047D01*
X61824852Y-67219951D01*
X61824847Y-67219951D01*
X61750000Y-67205063D01*
X61698973Y-67215213D01*
X61586280Y-67102520D01*
X61205874Y-66944951D01*
X60794126Y-66944951D01*
X60413720Y-67102520D01*
X60122569Y-67393671D01*
X59965000Y-67774077D01*
X59965000Y-68185825D01*
X60122569Y-68566231D01*
X60161289Y-68604951D01*
X60122569Y-68643671D01*
X59965000Y-69024077D01*
X59965000Y-69435825D01*
X60122569Y-69816231D01*
X60413720Y-70107382D01*
X60794126Y-70264951D01*
X61205874Y-70264951D01*
X61586280Y-70107382D01*
X61698973Y-69994689D01*
X61750000Y-70004839D01*
X61824847Y-69989951D01*
X61824852Y-69989951D01*
X62046537Y-69945855D01*
X62297929Y-69777880D01*
X62323272Y-69739951D01*
X68002560Y-69739951D01*
X68002560Y-70129951D01*
X68022451Y-70229951D01*
X68002560Y-70329951D01*
X68002560Y-70929951D01*
X68022451Y-71029951D01*
X68002560Y-71129951D01*
X68002560Y-71729951D01*
X68022451Y-71829951D01*
X68002560Y-71929951D01*
X68002560Y-72529951D01*
X68022451Y-72629951D01*
X68002560Y-72729951D01*
X68002560Y-72902589D01*
X67265528Y-73639622D01*
X67202072Y-73682022D01*
X67159672Y-73745478D01*
X67159671Y-73745479D01*
X67034097Y-73933414D01*
X66975112Y-74229951D01*
X66990001Y-74304803D01*
X66990001Y-74715455D01*
X66385113Y-74464902D01*
X65694887Y-74464902D01*
X65057201Y-74729040D01*
X65028312Y-74757929D01*
X64877431Y-74393671D01*
X64586280Y-74102520D01*
X64205874Y-73944951D01*
X63794126Y-73944951D01*
X63413720Y-74102520D01*
X63122569Y-74393671D01*
X62965000Y-74774077D01*
X62965000Y-75185825D01*
X63122569Y-75566231D01*
X63240001Y-75683663D01*
X63240000Y-77155104D01*
X63225112Y-77229951D01*
X63240000Y-77304798D01*
X63240000Y-77304802D01*
X63284096Y-77526487D01*
X63452071Y-77777880D01*
X63515530Y-77820282D01*
X64563606Y-78868359D01*
X64024134Y-78644902D01*
X62975866Y-78644902D01*
X62007392Y-79046057D01*
X61266155Y-79787294D01*
X60865000Y-80755768D01*
X60865000Y-81804036D01*
X61266155Y-82772510D01*
X62007392Y-83513747D01*
X62975866Y-83914902D01*
X64024134Y-83914902D01*
X64992608Y-83513747D01*
X65733845Y-82772510D01*
X66135000Y-81804036D01*
X66135000Y-80755768D01*
X65808148Y-79966678D01*
X65925148Y-79989951D01*
X65925152Y-79989951D01*
X65999999Y-80004839D01*
X66074846Y-79989951D01*
X68276289Y-79989951D01*
X68122569Y-80143671D01*
X67965000Y-80524077D01*
X67965000Y-80690149D01*
X66960199Y-81694951D01*
X66794126Y-81694951D01*
X66413720Y-81852520D01*
X66122569Y-82143671D01*
X65965000Y-82524077D01*
X65965000Y-82935825D01*
X66122569Y-83316231D01*
X66413720Y-83607382D01*
X66794126Y-83764951D01*
X66997775Y-83764951D01*
X67122569Y-84066231D01*
X67413720Y-84357382D01*
X67794126Y-84514951D01*
X68205874Y-84514951D01*
X68586280Y-84357382D01*
X68877431Y-84066231D01*
X69035000Y-83685825D01*
X69035000Y-83519752D01*
X70039802Y-82514951D01*
X70205874Y-82514951D01*
X70586280Y-82357382D01*
X70819455Y-82124207D01*
X71462250Y-82767003D01*
X71504651Y-82830460D01*
X71756043Y-82998435D01*
X71977728Y-83042531D01*
X71977732Y-83042531D01*
X72052579Y-83057419D01*
X72127426Y-83042531D01*
X73496294Y-83042531D01*
X73516627Y-83144753D01*
X73684603Y-83396145D01*
X73748059Y-83438545D01*
X75140000Y-84830487D01*
X75140001Y-99400161D01*
X74242681Y-100297482D01*
X74076608Y-100297482D01*
X73696202Y-100455051D01*
X73405051Y-100746202D01*
X73247482Y-101126608D01*
X73247482Y-101538356D01*
X73405051Y-101918762D01*
X73572434Y-102086145D01*
X73572433Y-119678722D01*
X73455002Y-119796153D01*
X73297433Y-120176559D01*
X73297433Y-120588307D01*
X73455002Y-120968713D01*
X73746153Y-121259864D01*
X74126559Y-121417433D01*
X74538307Y-121417433D01*
X74918713Y-121259864D01*
X75209864Y-120968713D01*
X75367433Y-120588307D01*
X75367433Y-120176559D01*
X75209864Y-119796153D01*
X75092433Y-119678722D01*
X75092433Y-118855670D01*
X79914951Y-118855670D01*
X79914951Y-119903938D01*
X80316106Y-120872412D01*
X81057343Y-121613649D01*
X82025817Y-122014804D01*
X83074085Y-122014804D01*
X84042559Y-121613649D01*
X84783796Y-120872412D01*
X85184951Y-119903938D01*
X85184951Y-118855670D01*
X84783796Y-117887196D01*
X84042559Y-117145959D01*
X83074085Y-116744804D01*
X82025817Y-116744804D01*
X81057343Y-117145959D01*
X80316106Y-117887196D01*
X79914951Y-118855670D01*
X75092433Y-118855670D01*
X75092433Y-116494691D01*
X77004951Y-116494691D01*
X77004951Y-117184917D01*
X77269089Y-117822603D01*
X77757152Y-118310666D01*
X78394838Y-118574804D01*
X79085064Y-118574804D01*
X79722750Y-118310666D01*
X80210813Y-117822603D01*
X80474951Y-117184917D01*
X80474951Y-116494691D01*
X80210813Y-115857005D01*
X79722750Y-115368942D01*
X79085064Y-115104804D01*
X78394838Y-115104804D01*
X77757152Y-115368942D01*
X77269089Y-115857005D01*
X77004951Y-116494691D01*
X75092433Y-116494691D01*
X75092433Y-101986242D01*
X75159913Y-101918762D01*
X75317482Y-101538356D01*
X75317482Y-101372283D01*
X76384473Y-100305293D01*
X76447929Y-100262893D01*
X76615904Y-100011501D01*
X76660000Y-99789816D01*
X76660000Y-99789811D01*
X76674888Y-99714964D01*
X76660000Y-99640117D01*
X76660000Y-97444740D01*
X77004951Y-97444740D01*
X77004951Y-98134966D01*
X77269089Y-98772652D01*
X77757152Y-99260715D01*
X78394838Y-99524853D01*
X79085064Y-99524853D01*
X79722750Y-99260715D01*
X80210813Y-98772652D01*
X80474951Y-98134966D01*
X80474951Y-97444740D01*
X80210813Y-96807054D01*
X79722750Y-96318991D01*
X79085064Y-96054853D01*
X78394838Y-96054853D01*
X77757152Y-96318991D01*
X77269089Y-96807054D01*
X77004951Y-97444740D01*
X76660000Y-97444740D01*
X76660000Y-84590531D01*
X76674888Y-84515684D01*
X76660000Y-84440837D01*
X76660000Y-84440833D01*
X76615904Y-84219148D01*
X76447929Y-83967756D01*
X76384473Y-83925356D01*
X75173802Y-82714686D01*
X75267531Y-82488405D01*
X75267531Y-82076657D01*
X75109962Y-81696251D01*
X74818811Y-81405100D01*
X74438405Y-81247531D01*
X74026657Y-81247531D01*
X73646251Y-81405100D01*
X73528820Y-81522531D01*
X72367382Y-81522531D01*
X70729465Y-79884614D01*
X71044126Y-80014951D01*
X71455874Y-80014951D01*
X71776960Y-79881953D01*
X71823748Y-79881953D01*
X71665000Y-80040701D01*
X71665000Y-80456260D01*
X71761673Y-80689649D01*
X71940301Y-80868278D01*
X72173690Y-80964951D01*
X72714250Y-80964951D01*
X72873000Y-80806201D01*
X72873000Y-79881951D01*
X73127000Y-79881951D01*
X73127000Y-80806201D01*
X73285750Y-80964951D01*
X73826310Y-80964951D01*
X74059699Y-80868278D01*
X74238327Y-80689649D01*
X74250000Y-80661468D01*
X74261673Y-80689649D01*
X74440301Y-80868278D01*
X74673690Y-80964951D01*
X75214250Y-80964951D01*
X75373000Y-80806201D01*
X75373000Y-79881951D01*
X75627000Y-79881951D01*
X75627000Y-80806201D01*
X75785750Y-80964951D01*
X76326310Y-80964951D01*
X76559699Y-80868278D01*
X76738327Y-80689649D01*
X76835000Y-80456260D01*
X76835000Y-80040701D01*
X76676250Y-79881951D01*
X75627000Y-79881951D01*
X75373000Y-79881951D01*
X74323750Y-79881951D01*
X74250000Y-79955701D01*
X74176250Y-79881951D01*
X73127000Y-79881951D01*
X72873000Y-79881951D01*
X72853000Y-79881951D01*
X72853000Y-79627951D01*
X72873000Y-79627951D01*
X72873000Y-79607951D01*
X73127000Y-79607951D01*
X73127000Y-79627951D01*
X74176250Y-79627951D01*
X74250000Y-79554201D01*
X74323750Y-79627951D01*
X75373000Y-79627951D01*
X75373000Y-79607951D01*
X75627000Y-79607951D01*
X75627000Y-79627951D01*
X76676250Y-79627951D01*
X76835000Y-79469201D01*
X76835000Y-79053642D01*
X76738327Y-78820253D01*
X76583403Y-78665328D01*
X76584586Y-78664537D01*
X76717946Y-78464951D01*
X76950153Y-78464951D01*
X77004951Y-78475851D01*
X77004951Y-79085015D01*
X77269089Y-79722701D01*
X77757152Y-80210764D01*
X78394838Y-80474902D01*
X79085064Y-80474902D01*
X79722750Y-80210764D01*
X80210813Y-79722701D01*
X80474951Y-79085015D01*
X80474951Y-78394789D01*
X80210813Y-77757103D01*
X79722750Y-77269040D01*
X79085064Y-77004902D01*
X78799850Y-77004902D01*
X80490001Y-75314752D01*
X80490001Y-75905099D01*
X80475112Y-75979951D01*
X80490001Y-76054803D01*
X80516704Y-76189047D01*
X80534097Y-76276488D01*
X80646661Y-76444951D01*
X80702072Y-76527880D01*
X80765528Y-76570280D01*
X82840149Y-78644902D01*
X82025817Y-78644902D01*
X81057343Y-79046057D01*
X80316106Y-79787294D01*
X79914951Y-80755768D01*
X79914951Y-81804036D01*
X80316106Y-82772510D01*
X81057343Y-83513747D01*
X82025817Y-83914902D01*
X83074085Y-83914902D01*
X83743475Y-83637632D01*
X83740000Y-83655100D01*
X83740000Y-83655104D01*
X83725112Y-83729951D01*
X83740000Y-83804798D01*
X83740001Y-92915147D01*
X82515528Y-94139622D01*
X82452072Y-94182022D01*
X82409672Y-94245478D01*
X82409671Y-94245479D01*
X82284097Y-94433414D01*
X82225112Y-94729951D01*
X82240001Y-94804803D01*
X82240000Y-96655104D01*
X82225112Y-96729951D01*
X82240000Y-96804798D01*
X82240000Y-96804802D01*
X82284096Y-97026487D01*
X82452071Y-97277880D01*
X82515530Y-97320282D01*
X82890101Y-97694853D01*
X82025817Y-97694853D01*
X81057343Y-98096008D01*
X80316106Y-98837245D01*
X79914951Y-99805719D01*
X79914951Y-100853987D01*
X80316106Y-101822461D01*
X81057343Y-102563698D01*
X82025817Y-102964853D01*
X83074085Y-102964853D01*
X84042559Y-102563698D01*
X84740000Y-101866257D01*
X84740000Y-101915150D01*
X84605479Y-102049671D01*
X84542023Y-102092071D01*
X84374047Y-102343463D01*
X84329951Y-102565148D01*
X84329951Y-102565153D01*
X84315063Y-102640000D01*
X84329951Y-102714847D01*
X84329951Y-103214851D01*
X84329952Y-103214856D01*
X84329951Y-112736656D01*
X84107152Y-112828942D01*
X83619089Y-113317005D01*
X83354951Y-113954691D01*
X83354951Y-114644917D01*
X83619089Y-115282603D01*
X84107152Y-115770666D01*
X84744838Y-116034804D01*
X85435064Y-116034804D01*
X86072750Y-115770666D01*
X86560813Y-115282603D01*
X86824951Y-114644917D01*
X86824951Y-113954691D01*
X86560813Y-113317005D01*
X86072750Y-112828942D01*
X85849951Y-112736656D01*
X85849951Y-102954801D01*
X85984470Y-102820282D01*
X86047929Y-102777880D01*
X86215904Y-102526488D01*
X86260000Y-102304803D01*
X86260000Y-102304798D01*
X86274888Y-102229951D01*
X86260000Y-102155104D01*
X86260000Y-99304798D01*
X86274888Y-99229951D01*
X86260000Y-99155104D01*
X86260000Y-99155099D01*
X86215904Y-98933414D01*
X86047929Y-98682022D01*
X85984473Y-98639622D01*
X83760000Y-96415150D01*
X83760000Y-96373563D01*
X84107152Y-96720715D01*
X84744838Y-96984853D01*
X85435064Y-96984853D01*
X86072750Y-96720715D01*
X86560813Y-96232652D01*
X86824951Y-95594966D01*
X86824951Y-94904740D01*
X86560813Y-94267054D01*
X86072750Y-93778991D01*
X85849951Y-93686705D01*
X85849951Y-84091211D01*
X86434484Y-83506679D01*
X86497937Y-83464281D01*
X86540335Y-83400828D01*
X86540338Y-83400825D01*
X86665913Y-83212890D01*
X86724897Y-82916352D01*
X86710008Y-82841499D01*
X86710010Y-80118400D01*
X86724898Y-80043551D01*
X86710010Y-79968703D01*
X86710010Y-79968700D01*
X86673926Y-79787294D01*
X86665914Y-79747014D01*
X86540339Y-79559078D01*
X86540337Y-79559076D01*
X86497939Y-79495623D01*
X86434486Y-79453225D01*
X84916163Y-77934902D01*
X85435064Y-77934902D01*
X86072750Y-77670764D01*
X86560813Y-77182701D01*
X86824951Y-76545015D01*
X86824951Y-75854789D01*
X86560813Y-75217103D01*
X86072750Y-74729040D01*
X85864547Y-74642800D01*
X85849951Y-74569420D01*
X85849951Y-74569416D01*
X85805855Y-74347731D01*
X85637880Y-74096339D01*
X85574424Y-74053939D01*
X79265965Y-67745481D01*
X79223563Y-67682022D01*
X78997440Y-67530931D01*
X78997440Y-67129951D01*
X78948157Y-66882186D01*
X78807809Y-66672142D01*
X78632172Y-66554784D01*
X78700440Y-66389971D01*
X84547953Y-66389971D01*
X84622800Y-66404859D01*
X84697647Y-66389971D01*
X84697652Y-66389971D01*
X84919337Y-66345875D01*
X85170729Y-66177900D01*
X85213131Y-66114441D01*
X86634496Y-64693078D01*
X86697946Y-64650682D01*
X86740342Y-64587232D01*
X86740347Y-64587227D01*
X86865921Y-64399291D01*
X86924906Y-64102754D01*
X86910017Y-64027903D01*
X86910019Y-62667554D01*
X87899445Y-61678128D01*
X87962898Y-61635730D01*
X88005296Y-61572277D01*
X88005299Y-61572274D01*
X88130873Y-61384339D01*
X88189858Y-61087801D01*
X88174969Y-61012950D01*
X88174971Y-58695938D01*
X88197946Y-58680586D01*
X88261660Y-58585232D01*
X88365922Y-58429194D01*
X88424906Y-58132657D01*
X88410017Y-58057804D01*
X88410018Y-55014951D01*
X88705874Y-55014951D01*
X89086280Y-54857382D01*
X89203711Y-54739951D01*
X94425153Y-54739951D01*
X94500000Y-54754839D01*
X94574847Y-54739951D01*
X94574852Y-54739951D01*
X94796537Y-54695855D01*
X95047929Y-54527880D01*
X95090331Y-54464421D01*
X95264470Y-54290282D01*
X95327929Y-54247880D01*
X95495904Y-53996488D01*
X95540000Y-53774803D01*
X95540000Y-53774799D01*
X95554888Y-53699951D01*
X95540000Y-53625103D01*
X95540000Y-53393118D01*
X95607809Y-53347809D01*
X95748157Y-53137765D01*
X95797440Y-52890000D01*
X95797440Y-50490000D01*
X95748157Y-50242235D01*
X95607809Y-50032191D01*
X95397765Y-49891843D01*
X95150000Y-49842560D01*
X94410000Y-49842560D01*
X94162235Y-49891843D01*
X94136604Y-49908969D01*
X94006310Y-49855000D01*
X93795750Y-49855000D01*
X93637000Y-50013750D01*
X93637000Y-51563000D01*
X93657000Y-51563000D01*
X93657000Y-51817000D01*
X93637000Y-51817000D01*
X93637000Y-51837000D01*
X93383000Y-51837000D01*
X93383000Y-51817000D01*
X92367000Y-51817000D01*
X92367000Y-51837000D01*
X92113000Y-51837000D01*
X92113000Y-51817000D01*
X92093000Y-51817000D01*
X92093000Y-51563000D01*
X92113000Y-51563000D01*
X92113000Y-50013750D01*
X92367000Y-50013750D01*
X92367000Y-51563000D01*
X93383000Y-51563000D01*
X93383000Y-50013750D01*
X93224250Y-49855000D01*
X93013690Y-49855000D01*
X92875000Y-49912447D01*
X92736310Y-49855000D01*
X92525750Y-49855000D01*
X92367000Y-50013750D01*
X92113000Y-50013750D01*
X91954250Y-49855000D01*
X91743690Y-49855000D01*
X91613396Y-49908969D01*
X91587765Y-49891843D01*
X91340000Y-49842560D01*
X90600000Y-49842560D01*
X90352235Y-49891843D01*
X90326604Y-49908969D01*
X90196310Y-49855000D01*
X89985750Y-49855000D01*
X89827000Y-50013750D01*
X89827000Y-51563000D01*
X89847000Y-51563000D01*
X89847000Y-51817000D01*
X89827000Y-51817000D01*
X89827000Y-51837000D01*
X89573000Y-51837000D01*
X89573000Y-51817000D01*
X88853750Y-51817000D01*
X88695000Y-51975750D01*
X88695000Y-52944951D01*
X88410018Y-52944951D01*
X88410018Y-50363691D01*
X88695000Y-50363691D01*
X88695000Y-51404250D01*
X88853750Y-51563000D01*
X89573000Y-51563000D01*
X89573000Y-50013750D01*
X89414250Y-49855000D01*
X89203690Y-49855000D01*
X88970301Y-49951673D01*
X88791673Y-50130302D01*
X88695000Y-50363691D01*
X88410018Y-50363691D01*
X88410019Y-47167554D01*
X88682560Y-46895013D01*
X88682560Y-48990000D01*
X88731843Y-49237765D01*
X88872191Y-49447809D01*
X89082235Y-49588157D01*
X89330000Y-49637440D01*
X90070000Y-49637440D01*
X90317765Y-49588157D01*
X90335000Y-49576641D01*
X90352235Y-49588157D01*
X90600000Y-49637440D01*
X91340000Y-49637440D01*
X91587765Y-49588157D01*
X91605000Y-49576641D01*
X91622235Y-49588157D01*
X91870000Y-49637440D01*
X92610000Y-49637440D01*
X92857765Y-49588157D01*
X92875000Y-49576641D01*
X92892235Y-49588157D01*
X93140000Y-49637440D01*
X93880000Y-49637440D01*
X94127765Y-49588157D01*
X94145000Y-49576641D01*
X94162235Y-49588157D01*
X94410000Y-49637440D01*
X95150000Y-49637440D01*
X95397765Y-49588157D01*
X95607809Y-49447809D01*
X95748157Y-49237765D01*
X95797440Y-48990000D01*
X95797440Y-46590000D01*
X95748157Y-46342235D01*
X95607809Y-46132191D01*
X95540000Y-46086882D01*
X95540000Y-45834798D01*
X95554888Y-45759951D01*
X95540000Y-45685104D01*
X95540000Y-45685099D01*
X95495904Y-45463414D01*
X95327929Y-45212022D01*
X95264473Y-45169622D01*
X95037480Y-44942629D01*
X95269327Y-44942629D01*
X96829386Y-46502689D01*
X96829387Y-52891487D01*
X92698110Y-57022765D01*
X92634651Y-57065167D01*
X92466676Y-57316560D01*
X92422580Y-57538245D01*
X92422580Y-57538249D01*
X92407692Y-57613096D01*
X92422580Y-57687943D01*
X92422581Y-62528868D01*
X92305149Y-62646300D01*
X92147580Y-63026706D01*
X92147580Y-63438454D01*
X92305149Y-63818860D01*
X92497532Y-64011243D01*
X92497531Y-81578820D01*
X92380100Y-81696251D01*
X92222531Y-82076657D01*
X92222531Y-82488405D01*
X92380100Y-82868811D01*
X92522483Y-83011194D01*
X92522482Y-100628771D01*
X92405051Y-100746202D01*
X92247482Y-101126608D01*
X92247482Y-101538356D01*
X92405051Y-101918762D01*
X92597434Y-102111145D01*
X92597433Y-119678722D01*
X92480002Y-119796153D01*
X92322433Y-120176559D01*
X92322433Y-120588307D01*
X92480002Y-120968713D01*
X92771153Y-121259864D01*
X93151559Y-121417433D01*
X93563307Y-121417433D01*
X93943713Y-121259864D01*
X94234864Y-120968713D01*
X94392433Y-120588307D01*
X94392433Y-120176559D01*
X94234864Y-119796153D01*
X94117433Y-119678722D01*
X94117433Y-118855670D01*
X98965000Y-118855670D01*
X98965000Y-119903938D01*
X99366155Y-120872412D01*
X100107392Y-121613649D01*
X101075866Y-122014804D01*
X102124134Y-122014804D01*
X103092608Y-121613649D01*
X103833845Y-120872412D01*
X104235000Y-119903938D01*
X104235000Y-118855670D01*
X103833845Y-117887196D01*
X103092608Y-117145959D01*
X102124134Y-116744804D01*
X101075866Y-116744804D01*
X100107392Y-117145959D01*
X99366155Y-117887196D01*
X98965000Y-118855670D01*
X94117433Y-118855670D01*
X94117433Y-116494691D01*
X96055000Y-116494691D01*
X96055000Y-117184917D01*
X96319138Y-117822603D01*
X96807201Y-118310666D01*
X97444887Y-118574804D01*
X98135113Y-118574804D01*
X98772799Y-118310666D01*
X99260862Y-117822603D01*
X99525000Y-117184917D01*
X99525000Y-116494691D01*
X99260862Y-115857005D01*
X98772799Y-115368942D01*
X98135113Y-115104804D01*
X97444887Y-115104804D01*
X96807201Y-115368942D01*
X96319138Y-115857005D01*
X96055000Y-116494691D01*
X94117433Y-116494691D01*
X94117433Y-113954691D01*
X102405000Y-113954691D01*
X102405000Y-114644917D01*
X102669138Y-115282603D01*
X103157201Y-115770666D01*
X103794887Y-116034804D01*
X104485113Y-116034804D01*
X105122799Y-115770666D01*
X105610862Y-115282603D01*
X105875000Y-114644917D01*
X105875000Y-113954691D01*
X105610862Y-113317005D01*
X105122799Y-112828942D01*
X104485113Y-112564804D01*
X103794887Y-112564804D01*
X103157201Y-112828942D01*
X102669138Y-113317005D01*
X102405000Y-113954691D01*
X94117433Y-113954691D01*
X94117433Y-101961242D01*
X94159913Y-101918762D01*
X94317482Y-101538356D01*
X94317482Y-101126608D01*
X94159913Y-100746202D01*
X94042482Y-100628771D01*
X94042482Y-99805719D01*
X98964902Y-99805719D01*
X98964902Y-100853987D01*
X99366057Y-101822461D01*
X100107294Y-102563698D01*
X101075768Y-102964853D01*
X102124036Y-102964853D01*
X103092510Y-102563698D01*
X103833747Y-101822461D01*
X104234902Y-100853987D01*
X104234902Y-99805719D01*
X103833747Y-98837245D01*
X103092510Y-98096008D01*
X102124036Y-97694853D01*
X101075768Y-97694853D01*
X100107294Y-98096008D01*
X99366057Y-98837245D01*
X98964902Y-99805719D01*
X94042482Y-99805719D01*
X94042482Y-97444740D01*
X96054902Y-97444740D01*
X96054902Y-98134966D01*
X96319040Y-98772652D01*
X96807103Y-99260715D01*
X97444789Y-99524853D01*
X98135015Y-99524853D01*
X98772701Y-99260715D01*
X99260764Y-98772652D01*
X99524902Y-98134966D01*
X99524902Y-97444740D01*
X99260764Y-96807054D01*
X98772701Y-96318991D01*
X98135015Y-96054853D01*
X97444789Y-96054853D01*
X96807103Y-96318991D01*
X96319040Y-96807054D01*
X96054902Y-97444740D01*
X94042482Y-97444740D01*
X94042482Y-94904740D01*
X102404902Y-94904740D01*
X102404902Y-95594966D01*
X102669040Y-96232652D01*
X103157103Y-96720715D01*
X103794789Y-96984853D01*
X104485015Y-96984853D01*
X105122701Y-96720715D01*
X105610764Y-96232652D01*
X105874902Y-95594966D01*
X105874902Y-94904740D01*
X105610764Y-94267054D01*
X105122701Y-93778991D01*
X104485015Y-93514853D01*
X103794789Y-93514853D01*
X103157103Y-93778991D01*
X102669040Y-94267054D01*
X102404902Y-94904740D01*
X94042482Y-94904740D01*
X94042482Y-82961291D01*
X94134962Y-82868811D01*
X94292531Y-82488405D01*
X94292531Y-82076657D01*
X94134962Y-81696251D01*
X94017531Y-81578820D01*
X94017531Y-80755768D01*
X98964902Y-80755768D01*
X98964902Y-81804036D01*
X99366057Y-82772510D01*
X100107294Y-83513747D01*
X101075768Y-83914902D01*
X102124036Y-83914902D01*
X103092510Y-83513747D01*
X103833747Y-82772510D01*
X104234902Y-81804036D01*
X104234902Y-80755768D01*
X103833747Y-79787294D01*
X103092510Y-79046057D01*
X102124036Y-78644902D01*
X101075768Y-78644902D01*
X100107294Y-79046057D01*
X99366057Y-79787294D01*
X98964902Y-80755768D01*
X94017531Y-80755768D01*
X94017531Y-78394789D01*
X96054902Y-78394789D01*
X96054902Y-79085015D01*
X96319040Y-79722701D01*
X96807103Y-80210764D01*
X97444789Y-80474902D01*
X98135015Y-80474902D01*
X98772701Y-80210764D01*
X99260764Y-79722701D01*
X99524902Y-79085015D01*
X99524902Y-78394789D01*
X99260764Y-77757103D01*
X98772701Y-77269040D01*
X98135015Y-77004902D01*
X97444789Y-77004902D01*
X96807103Y-77269040D01*
X96319040Y-77757103D01*
X96054902Y-78394789D01*
X94017531Y-78394789D01*
X94017531Y-75854789D01*
X102404902Y-75854789D01*
X102404902Y-76545015D01*
X102669040Y-77182701D01*
X103157103Y-77670764D01*
X103794789Y-77934902D01*
X104485015Y-77934902D01*
X105122701Y-77670764D01*
X105610764Y-77182701D01*
X105874902Y-76545015D01*
X105874902Y-75854789D01*
X105610764Y-75217103D01*
X105122701Y-74729040D01*
X104485015Y-74464902D01*
X103794789Y-74464902D01*
X103157103Y-74729040D01*
X102669040Y-75217103D01*
X102404902Y-75854789D01*
X94017531Y-75854789D01*
X94017531Y-63861340D01*
X94060011Y-63818860D01*
X94217580Y-63438454D01*
X94217580Y-63026706D01*
X94060011Y-62646300D01*
X93942580Y-62528869D01*
X93942580Y-61705817D01*
X98964902Y-61705817D01*
X98964902Y-62754085D01*
X99366057Y-63722559D01*
X100107294Y-64463796D01*
X101075768Y-64864951D01*
X102124036Y-64864951D01*
X103092510Y-64463796D01*
X103833747Y-63722559D01*
X104234902Y-62754085D01*
X104234902Y-61705817D01*
X103833747Y-60737343D01*
X103092510Y-59996106D01*
X102124036Y-59594951D01*
X101075768Y-59594951D01*
X100107294Y-59996106D01*
X99366057Y-60737343D01*
X98964902Y-61705817D01*
X93942580Y-61705817D01*
X93942580Y-59344838D01*
X96054902Y-59344838D01*
X96054902Y-60035064D01*
X96319040Y-60672750D01*
X96807103Y-61160813D01*
X97444789Y-61424951D01*
X98135015Y-61424951D01*
X98772701Y-61160813D01*
X99260764Y-60672750D01*
X99524902Y-60035064D01*
X99524902Y-59344838D01*
X99260764Y-58707152D01*
X98772701Y-58219089D01*
X98135015Y-57954951D01*
X97444789Y-57954951D01*
X96807103Y-58219089D01*
X96319040Y-58707152D01*
X96054902Y-59344838D01*
X93942580Y-59344838D01*
X93942580Y-57927897D01*
X95065639Y-56804838D01*
X102404902Y-56804838D01*
X102404902Y-57495064D01*
X102669040Y-58132750D01*
X103157103Y-58620813D01*
X103794789Y-58884951D01*
X104485015Y-58884951D01*
X105122701Y-58620813D01*
X105610764Y-58132750D01*
X105874902Y-57495064D01*
X105874902Y-56804838D01*
X105610764Y-56167152D01*
X105122701Y-55679089D01*
X104485015Y-55414951D01*
X103794789Y-55414951D01*
X103157103Y-55679089D01*
X102669040Y-56167152D01*
X102404902Y-56804838D01*
X95065639Y-56804838D01*
X98073859Y-53796619D01*
X98137315Y-53754219D01*
X98212656Y-53641464D01*
X98305290Y-53502828D01*
X98324729Y-53405099D01*
X98349386Y-53281142D01*
X98349386Y-53281138D01*
X98364274Y-53206290D01*
X98349386Y-53131442D01*
X98349386Y-46262733D01*
X98364274Y-46187886D01*
X98349386Y-46113039D01*
X98349386Y-46113035D01*
X98305290Y-45891350D01*
X98137315Y-45639958D01*
X98073859Y-45597558D01*
X96174459Y-43698159D01*
X96132057Y-43634700D01*
X95880665Y-43466725D01*
X95658980Y-43422629D01*
X95658975Y-43422629D01*
X95584128Y-43407741D01*
X95509281Y-43422629D01*
X93836340Y-43422629D01*
X93718909Y-43305198D01*
X93338503Y-43147629D01*
X92926755Y-43147629D01*
X92546349Y-43305198D01*
X92255198Y-43596349D01*
X92097629Y-43976755D01*
X92097629Y-44147630D01*
X88397169Y-44147630D01*
X88322321Y-44132742D01*
X88247473Y-44147630D01*
X88247469Y-44147630D01*
X88073926Y-44182150D01*
X88025783Y-44191726D01*
X87838739Y-44316706D01*
X87774392Y-44359701D01*
X87731992Y-44423157D01*
X86265528Y-45889622D01*
X86202072Y-45932022D01*
X86159672Y-45995478D01*
X86159671Y-45995479D01*
X86034097Y-46183414D01*
X85975112Y-46479951D01*
X85990001Y-46554803D01*
X85990000Y-53062640D01*
X85705874Y-52944951D01*
X85294126Y-52944951D01*
X84913720Y-53102520D01*
X84796289Y-53219951D01*
X80203711Y-53219951D01*
X80086280Y-53102520D01*
X79705874Y-52944951D01*
X79294126Y-52944951D01*
X78913720Y-53102520D01*
X78622569Y-53393671D01*
X78465000Y-53774077D01*
X78465000Y-54185825D01*
X78622569Y-54566231D01*
X78913720Y-54857382D01*
X79294126Y-55014951D01*
X79705874Y-55014951D01*
X80086280Y-54857382D01*
X80203711Y-54739951D01*
X84796289Y-54739951D01*
X84913720Y-54857382D01*
X85294126Y-55014951D01*
X85705874Y-55014951D01*
X85990000Y-54897262D01*
X85990000Y-55644813D01*
X85435064Y-55414951D01*
X84744838Y-55414951D01*
X84107152Y-55679089D01*
X83619089Y-56167152D01*
X83354951Y-56804838D01*
X83354951Y-57495064D01*
X83619089Y-58132750D01*
X84107152Y-58620813D01*
X84744838Y-58884951D01*
X85435064Y-58884951D01*
X85754953Y-58752449D01*
X85754952Y-60400197D01*
X84969493Y-61185656D01*
X84783796Y-60737343D01*
X84042559Y-59996106D01*
X83074085Y-59594951D01*
X82025817Y-59594951D01*
X81057343Y-59996106D01*
X80316106Y-60737343D01*
X79914951Y-61705817D01*
X79914951Y-62754085D01*
X80316106Y-63722559D01*
X80563498Y-63969951D01*
X77099800Y-63969951D01*
X77434483Y-63635268D01*
X77497939Y-63592868D01*
X77571979Y-63482060D01*
X77665914Y-63341477D01*
X77687575Y-63232579D01*
X77710010Y-63119791D01*
X77710010Y-63119787D01*
X77724898Y-63044939D01*
X77710010Y-62970091D01*
X77710010Y-61113671D01*
X77757152Y-61160813D01*
X78394838Y-61424951D01*
X79085064Y-61424951D01*
X79722750Y-61160813D01*
X80210813Y-60672750D01*
X80474951Y-60035064D01*
X80474951Y-59344838D01*
X80210813Y-58707152D01*
X79722750Y-58219089D01*
X79085064Y-57954951D01*
X78394838Y-57954951D01*
X77757152Y-58219089D01*
X77710010Y-58266231D01*
X77710010Y-55231153D01*
X77934486Y-55006678D01*
X77997937Y-54964281D01*
X78040333Y-54900831D01*
X78040338Y-54900826D01*
X78165912Y-54712890D01*
X78224897Y-54416353D01*
X78210008Y-54341501D01*
X78210010Y-47618397D01*
X78224898Y-47543550D01*
X78210010Y-47468703D01*
X78210010Y-47468700D01*
X78165914Y-47247015D01*
X78144137Y-47214423D01*
X78040339Y-47059078D01*
X78040337Y-47059076D01*
X77997939Y-46995623D01*
X77934486Y-46953225D01*
X77260000Y-46278740D01*
X77260000Y-42655866D01*
X79914951Y-42655866D01*
X79914951Y-43704134D01*
X80316106Y-44672608D01*
X81057343Y-45413845D01*
X82025817Y-45815000D01*
X83074085Y-45815000D01*
X84042559Y-45413845D01*
X84783796Y-44672608D01*
X85184951Y-43704134D01*
X85184951Y-42655866D01*
X98964902Y-42655866D01*
X98964902Y-43704134D01*
X99366057Y-44672608D01*
X100107294Y-45413845D01*
X101075768Y-45815000D01*
X102124036Y-45815000D01*
X103092510Y-45413845D01*
X103833747Y-44672608D01*
X104234902Y-43704134D01*
X104234902Y-42655866D01*
X103833747Y-41687392D01*
X103092510Y-40946155D01*
X102124036Y-40545000D01*
X101075768Y-40545000D01*
X100107294Y-40946155D01*
X99366057Y-41687392D01*
X98964902Y-42655866D01*
X85184951Y-42655866D01*
X84783796Y-41687392D01*
X84042559Y-40946155D01*
X83074085Y-40545000D01*
X82025817Y-40545000D01*
X81057343Y-40946155D01*
X80316106Y-41687392D01*
X79914951Y-42655866D01*
X77260000Y-42655866D01*
X77260000Y-41600856D01*
X77269089Y-41622799D01*
X77757152Y-42110862D01*
X78394838Y-42375000D01*
X79085064Y-42375000D01*
X79722750Y-42110862D01*
X80210813Y-41622799D01*
X80474951Y-40985113D01*
X80474951Y-40294887D01*
X96054902Y-40294887D01*
X96054902Y-40985113D01*
X96319040Y-41622799D01*
X96807103Y-42110862D01*
X97444789Y-42375000D01*
X98135015Y-42375000D01*
X98772701Y-42110862D01*
X99260764Y-41622799D01*
X99524902Y-40985113D01*
X99524902Y-40294887D01*
X99260764Y-39657201D01*
X98772701Y-39169138D01*
X98135015Y-38905000D01*
X97444789Y-38905000D01*
X96807103Y-39169138D01*
X96319040Y-39657201D01*
X96054902Y-40294887D01*
X80474951Y-40294887D01*
X80210813Y-39657201D01*
X79722750Y-39169138D01*
X79085064Y-38905000D01*
X78394838Y-38905000D01*
X77757152Y-39169138D01*
X77269089Y-39657201D01*
X77005464Y-40293648D01*
X76984473Y-40279622D01*
X74459738Y-37754887D01*
X83354951Y-37754887D01*
X83354951Y-38445113D01*
X83619089Y-39082799D01*
X84107152Y-39570862D01*
X84744838Y-39835000D01*
X85435064Y-39835000D01*
X86072750Y-39570862D01*
X86560813Y-39082799D01*
X86824951Y-38445113D01*
X86824951Y-37754887D01*
X102404902Y-37754887D01*
X102404902Y-38445113D01*
X102669040Y-39082799D01*
X103157103Y-39570862D01*
X103794789Y-39835000D01*
X104485015Y-39835000D01*
X105122701Y-39570862D01*
X105610764Y-39082799D01*
X105874902Y-38445113D01*
X105874902Y-37754887D01*
X105610764Y-37117201D01*
X105122701Y-36629138D01*
X104485015Y-36365000D01*
X103794789Y-36365000D01*
X103157103Y-36629138D01*
X102669040Y-37117201D01*
X102404902Y-37754887D01*
X86824951Y-37754887D01*
X86560813Y-37117201D01*
X86072750Y-36629138D01*
X85435064Y-36365000D01*
X84744838Y-36365000D01*
X84107152Y-36629138D01*
X83619089Y-37117201D01*
X83354951Y-37754887D01*
X74459738Y-37754887D01*
X73760000Y-37055150D01*
X73760000Y-33944891D01*
X73850000Y-33944891D01*
X73953853Y-33924234D01*
X73973691Y-33932451D01*
X74041250Y-33932451D01*
X74073208Y-33900493D01*
X74097765Y-33895608D01*
X74307809Y-33755260D01*
X74400000Y-33617287D01*
X74400000Y-33773701D01*
X74558750Y-33932451D01*
X74626309Y-33932451D01*
X74859698Y-33835778D01*
X74864291Y-33831185D01*
X75229479Y-33982451D01*
X75770521Y-33982451D01*
X76270378Y-33775403D01*
X76652952Y-33392829D01*
X76697683Y-33284838D01*
X109365000Y-33284838D01*
X109365000Y-33975064D01*
X109629138Y-34612750D01*
X110117201Y-35100813D01*
X110754887Y-35364951D01*
X111445113Y-35364951D01*
X112082799Y-35100813D01*
X112570862Y-34612750D01*
X112835000Y-33975064D01*
X112835000Y-33284838D01*
X112570862Y-32647152D01*
X112082799Y-32159089D01*
X111445113Y-31894951D01*
X110754887Y-31894951D01*
X110117201Y-32159089D01*
X109629138Y-32647152D01*
X109365000Y-33284838D01*
X76697683Y-33284838D01*
X76860000Y-32892972D01*
X76860000Y-32351930D01*
X76660000Y-31869088D01*
X76660000Y-31499820D01*
X76981873Y-31435795D01*
X77390385Y-31162836D01*
X77663344Y-30754324D01*
X77735000Y-30394086D01*
X77735000Y-29450815D01*
X77673165Y-29139951D01*
X115590000Y-29139951D01*
X115590001Y-133519951D01*
X30410000Y-133519951D01*
X30410000Y-128584838D01*
X33165000Y-128584838D01*
X33165000Y-129275064D01*
X33429138Y-129912750D01*
X33917201Y-130400813D01*
X34554887Y-130664951D01*
X35245113Y-130664951D01*
X35882799Y-130400813D01*
X36370862Y-129912750D01*
X36635000Y-129275064D01*
X36635000Y-128584838D01*
X109465000Y-128584838D01*
X109465000Y-129275064D01*
X109729138Y-129912750D01*
X110217201Y-130400813D01*
X110854887Y-130664951D01*
X111545113Y-130664951D01*
X112182799Y-130400813D01*
X112670862Y-129912750D01*
X112935000Y-129275064D01*
X112935000Y-128584838D01*
X112670862Y-127947152D01*
X112182799Y-127459089D01*
X111545113Y-127194951D01*
X110854887Y-127194951D01*
X110217201Y-127459089D01*
X109729138Y-127947152D01*
X109465000Y-128584838D01*
X36635000Y-128584838D01*
X36370862Y-127947152D01*
X35882799Y-127459089D01*
X35245113Y-127194951D01*
X34554887Y-127194951D01*
X33917201Y-127459089D01*
X33429138Y-127947152D01*
X33165000Y-128584838D01*
X30410000Y-128584838D01*
X30410000Y-43976755D01*
X35122629Y-43976755D01*
X35122629Y-44388503D01*
X35280198Y-44768909D01*
X35397629Y-44886340D01*
X35397630Y-62603819D01*
X35355149Y-62646300D01*
X35197580Y-63026706D01*
X35197580Y-63438454D01*
X35355149Y-63818860D01*
X35472580Y-63936291D01*
X35472581Y-81578770D01*
X35355100Y-81696251D01*
X35197531Y-82076657D01*
X35197531Y-82488405D01*
X35355100Y-82868811D01*
X35472531Y-82986242D01*
X35472532Y-100678721D01*
X35405051Y-100746202D01*
X35247482Y-101126608D01*
X35247482Y-101538356D01*
X35405051Y-101918762D01*
X35522482Y-102036193D01*
X35522483Y-119728672D01*
X35455002Y-119796153D01*
X35297433Y-120176559D01*
X35297433Y-120588307D01*
X35455002Y-120968713D01*
X35746153Y-121259864D01*
X36126559Y-121417433D01*
X36538307Y-121417433D01*
X36918713Y-121259864D01*
X37209864Y-120968713D01*
X37367433Y-120588307D01*
X37367433Y-120176559D01*
X37209864Y-119796153D01*
X37042482Y-119628771D01*
X37042482Y-118855670D01*
X41815049Y-118855670D01*
X41815049Y-119903938D01*
X42216204Y-120872412D01*
X42957441Y-121613649D01*
X43925915Y-122014804D01*
X44974183Y-122014804D01*
X45942657Y-121613649D01*
X46683894Y-120872412D01*
X47085049Y-119903938D01*
X47085049Y-118855670D01*
X46683894Y-117887196D01*
X45942657Y-117145959D01*
X44974183Y-116744804D01*
X43925915Y-116744804D01*
X42957441Y-117145959D01*
X42216204Y-117887196D01*
X41815049Y-118855670D01*
X37042482Y-118855670D01*
X37042482Y-116494691D01*
X38905049Y-116494691D01*
X38905049Y-117184917D01*
X39169187Y-117822603D01*
X39657250Y-118310666D01*
X40294936Y-118574804D01*
X40985162Y-118574804D01*
X41622848Y-118310666D01*
X42110911Y-117822603D01*
X42375049Y-117184917D01*
X42375049Y-116494691D01*
X42110911Y-115857005D01*
X41622848Y-115368942D01*
X40985162Y-115104804D01*
X40294936Y-115104804D01*
X39657250Y-115368942D01*
X39169187Y-115857005D01*
X38905049Y-116494691D01*
X37042482Y-116494691D01*
X37042482Y-113954691D01*
X45255049Y-113954691D01*
X45255049Y-114644917D01*
X45519187Y-115282603D01*
X46007250Y-115770666D01*
X46644936Y-116034804D01*
X47335162Y-116034804D01*
X47972848Y-115770666D01*
X48460911Y-115282603D01*
X48725049Y-114644917D01*
X48725049Y-113954691D01*
X48460911Y-113317005D01*
X47972848Y-112828942D01*
X47335162Y-112564804D01*
X46644936Y-112564804D01*
X46007250Y-112828942D01*
X45519187Y-113317005D01*
X45255049Y-113954691D01*
X37042482Y-113954691D01*
X37042482Y-102036193D01*
X37159913Y-101918762D01*
X37317482Y-101538356D01*
X37317482Y-101126608D01*
X37159913Y-100746202D01*
X36992531Y-100578820D01*
X36992531Y-99872574D01*
X41815049Y-99872574D01*
X41815049Y-100920842D01*
X42216204Y-101889316D01*
X42957441Y-102630553D01*
X43925915Y-103031708D01*
X44974183Y-103031708D01*
X45942657Y-102630553D01*
X46683894Y-101889316D01*
X47085049Y-100920842D01*
X47085049Y-99872574D01*
X46683894Y-98904100D01*
X45942657Y-98162863D01*
X44974183Y-97761708D01*
X43925915Y-97761708D01*
X42957441Y-98162863D01*
X42216204Y-98904100D01*
X41815049Y-99872574D01*
X36992531Y-99872574D01*
X36992531Y-97511595D01*
X38905049Y-97511595D01*
X38905049Y-98201821D01*
X39169187Y-98839507D01*
X39657250Y-99327570D01*
X40294936Y-99591708D01*
X40985162Y-99591708D01*
X41622848Y-99327570D01*
X42110911Y-98839507D01*
X42375049Y-98201821D01*
X42375049Y-97511595D01*
X42110911Y-96873909D01*
X41622848Y-96385846D01*
X40985162Y-96121708D01*
X40294936Y-96121708D01*
X39657250Y-96385846D01*
X39169187Y-96873909D01*
X38905049Y-97511595D01*
X36992531Y-97511595D01*
X36992531Y-94971595D01*
X45255049Y-94971595D01*
X45255049Y-95661821D01*
X45519187Y-96299507D01*
X46007250Y-96787570D01*
X46644936Y-97051708D01*
X47335162Y-97051708D01*
X47972848Y-96787570D01*
X48460911Y-96299507D01*
X48725049Y-95661821D01*
X48725049Y-94971595D01*
X48460911Y-94333909D01*
X47972848Y-93845846D01*
X47335162Y-93581708D01*
X46644936Y-93581708D01*
X46007250Y-93845846D01*
X45519187Y-94333909D01*
X45255049Y-94971595D01*
X36992531Y-94971595D01*
X36992531Y-82986242D01*
X37109962Y-82868811D01*
X37267531Y-82488405D01*
X37267531Y-82076657D01*
X37109962Y-81696251D01*
X36992580Y-81578869D01*
X36992580Y-80755768D01*
X41815049Y-80755768D01*
X41815049Y-81804036D01*
X42216204Y-82772510D01*
X42957441Y-83513747D01*
X43925915Y-83914902D01*
X44974183Y-83914902D01*
X45942657Y-83513747D01*
X46683894Y-82772510D01*
X47085049Y-81804036D01*
X47085049Y-80755768D01*
X46683894Y-79787294D01*
X45942657Y-79046057D01*
X44974183Y-78644902D01*
X43925915Y-78644902D01*
X42957441Y-79046057D01*
X42216204Y-79787294D01*
X41815049Y-80755768D01*
X36992580Y-80755768D01*
X36992580Y-78394789D01*
X38905049Y-78394789D01*
X38905049Y-79085015D01*
X39169187Y-79722701D01*
X39657250Y-80210764D01*
X40294936Y-80474902D01*
X40985162Y-80474902D01*
X41622848Y-80210764D01*
X42110911Y-79722701D01*
X42375049Y-79085015D01*
X42375049Y-78394789D01*
X42110911Y-77757103D01*
X41622848Y-77269040D01*
X40985162Y-77004902D01*
X40294936Y-77004902D01*
X39657250Y-77269040D01*
X39169187Y-77757103D01*
X38905049Y-78394789D01*
X36992580Y-78394789D01*
X36992580Y-75854789D01*
X45255049Y-75854789D01*
X45255049Y-76545015D01*
X45519187Y-77182701D01*
X46007250Y-77670764D01*
X46644936Y-77934902D01*
X47335162Y-77934902D01*
X47972848Y-77670764D01*
X48460911Y-77182701D01*
X48725049Y-76545015D01*
X48725049Y-75854789D01*
X48460911Y-75217103D01*
X47972848Y-74729040D01*
X47335162Y-74464902D01*
X46644936Y-74464902D01*
X46007250Y-74729040D01*
X45519187Y-75217103D01*
X45255049Y-75854789D01*
X36992580Y-75854789D01*
X36992580Y-63936291D01*
X37110011Y-63818860D01*
X37267580Y-63438454D01*
X37267580Y-63026706D01*
X37110011Y-62646300D01*
X36917629Y-62453918D01*
X36917629Y-61705817D01*
X41815049Y-61705817D01*
X41815049Y-62754085D01*
X42216204Y-63722559D01*
X42957441Y-64463796D01*
X43925915Y-64864951D01*
X44974183Y-64864951D01*
X45942657Y-64463796D01*
X46683894Y-63722559D01*
X47085049Y-62754085D01*
X47085049Y-61705817D01*
X46683894Y-60737343D01*
X45942657Y-59996106D01*
X44974183Y-59594951D01*
X43925915Y-59594951D01*
X42957441Y-59996106D01*
X42216204Y-60737343D01*
X41815049Y-61705817D01*
X36917629Y-61705817D01*
X36917629Y-59344838D01*
X38905049Y-59344838D01*
X38905049Y-60035064D01*
X39169187Y-60672750D01*
X39657250Y-61160813D01*
X40294936Y-61424951D01*
X40985162Y-61424951D01*
X41622848Y-61160813D01*
X42110911Y-60672750D01*
X42375049Y-60035064D01*
X42375049Y-59344838D01*
X42110911Y-58707152D01*
X41622848Y-58219089D01*
X40985162Y-57954951D01*
X40294936Y-57954951D01*
X39657250Y-58219089D01*
X39169187Y-58707152D01*
X38905049Y-59344838D01*
X36917629Y-59344838D01*
X36917629Y-56804838D01*
X45255049Y-56804838D01*
X45255049Y-57495064D01*
X45519187Y-58132750D01*
X46007250Y-58620813D01*
X46644936Y-58884951D01*
X47335162Y-58884951D01*
X47972848Y-58620813D01*
X48460911Y-58132750D01*
X48725049Y-57495064D01*
X48725049Y-56804838D01*
X48460911Y-56167152D01*
X47972848Y-55679089D01*
X47335162Y-55414951D01*
X46644936Y-55414951D01*
X46007250Y-55679089D01*
X45519187Y-56167152D01*
X45255049Y-56804838D01*
X36917629Y-56804838D01*
X36917629Y-48340258D01*
X50225112Y-48340258D01*
X50240000Y-48415105D01*
X50240001Y-58975148D01*
X50225112Y-59050000D01*
X50240001Y-59124852D01*
X50283759Y-59344838D01*
X50284097Y-59346537D01*
X50404337Y-59526488D01*
X50452072Y-59597929D01*
X50515528Y-59640329D01*
X54147580Y-63272383D01*
X54147580Y-63438454D01*
X54305149Y-63818860D01*
X54497532Y-64011243D01*
X54497531Y-81578820D01*
X54380100Y-81696251D01*
X54222531Y-82076657D01*
X54222531Y-82488405D01*
X54380100Y-82868811D01*
X54522483Y-83011194D01*
X54522482Y-100628771D01*
X54405051Y-100746202D01*
X54247482Y-101126608D01*
X54247482Y-101538356D01*
X54405051Y-101918762D01*
X54572434Y-102086145D01*
X54572433Y-119678722D01*
X54455002Y-119796153D01*
X54297433Y-120176559D01*
X54297433Y-120588307D01*
X54455002Y-120968713D01*
X54746153Y-121259864D01*
X55126559Y-121417433D01*
X55538307Y-121417433D01*
X55918713Y-121259864D01*
X56209864Y-120968713D01*
X56367433Y-120588307D01*
X56367433Y-120176559D01*
X56209864Y-119796153D01*
X56092433Y-119678722D01*
X56092433Y-118855670D01*
X60865000Y-118855670D01*
X60865000Y-119903938D01*
X61266155Y-120872412D01*
X62007392Y-121613649D01*
X62975866Y-122014804D01*
X64024134Y-122014804D01*
X64992608Y-121613649D01*
X65733845Y-120872412D01*
X66135000Y-119903938D01*
X66135000Y-118855670D01*
X65733845Y-117887196D01*
X64992608Y-117145959D01*
X64024134Y-116744804D01*
X62975866Y-116744804D01*
X62007392Y-117145959D01*
X61266155Y-117887196D01*
X60865000Y-118855670D01*
X56092433Y-118855670D01*
X56092433Y-116494691D01*
X57955000Y-116494691D01*
X57955000Y-117184917D01*
X58219138Y-117822603D01*
X58707201Y-118310666D01*
X59344887Y-118574804D01*
X60035113Y-118574804D01*
X60672799Y-118310666D01*
X61160862Y-117822603D01*
X61425000Y-117184917D01*
X61425000Y-116494691D01*
X61160862Y-115857005D01*
X60672799Y-115368942D01*
X60035113Y-115104804D01*
X59344887Y-115104804D01*
X58707201Y-115368942D01*
X58219138Y-115857005D01*
X57955000Y-116494691D01*
X56092433Y-116494691D01*
X56092433Y-113954691D01*
X64305000Y-113954691D01*
X64305000Y-114644917D01*
X64569138Y-115282603D01*
X65057201Y-115770666D01*
X65694887Y-116034804D01*
X66385113Y-116034804D01*
X67022799Y-115770666D01*
X67510862Y-115282603D01*
X67775000Y-114644917D01*
X67775000Y-113954691D01*
X67510862Y-113317005D01*
X67022799Y-112828942D01*
X66385113Y-112564804D01*
X65694887Y-112564804D01*
X65057201Y-112828942D01*
X64569138Y-113317005D01*
X64305000Y-113954691D01*
X56092433Y-113954691D01*
X56092433Y-101986242D01*
X56159913Y-101918762D01*
X56317482Y-101538356D01*
X56317482Y-101126608D01*
X56159913Y-100746202D01*
X56042482Y-100628771D01*
X56042482Y-99805719D01*
X60865000Y-99805719D01*
X60865000Y-100853987D01*
X61266155Y-101822461D01*
X62007392Y-102563698D01*
X62975866Y-102964853D01*
X64024134Y-102964853D01*
X64992608Y-102563698D01*
X65733845Y-101822461D01*
X66135000Y-100853987D01*
X66135000Y-99805719D01*
X65733845Y-98837245D01*
X64992608Y-98096008D01*
X64024134Y-97694853D01*
X62975866Y-97694853D01*
X62007392Y-98096008D01*
X61266155Y-98837245D01*
X60865000Y-99805719D01*
X56042482Y-99805719D01*
X56042482Y-97444740D01*
X57955000Y-97444740D01*
X57955000Y-98134966D01*
X58219138Y-98772652D01*
X58707201Y-99260715D01*
X59344887Y-99524853D01*
X60035113Y-99524853D01*
X60672799Y-99260715D01*
X61160862Y-98772652D01*
X61425000Y-98134966D01*
X61425000Y-97444740D01*
X61160862Y-96807054D01*
X60672799Y-96318991D01*
X60035113Y-96054853D01*
X59344887Y-96054853D01*
X58707201Y-96318991D01*
X58219138Y-96807054D01*
X57955000Y-97444740D01*
X56042482Y-97444740D01*
X56042482Y-94904740D01*
X64305000Y-94904740D01*
X64305000Y-95594966D01*
X64569138Y-96232652D01*
X65057201Y-96720715D01*
X65694887Y-96984853D01*
X66385113Y-96984853D01*
X67022799Y-96720715D01*
X67510862Y-96232652D01*
X67775000Y-95594966D01*
X67775000Y-94904740D01*
X67510862Y-94267054D01*
X67022799Y-93778991D01*
X66385113Y-93514853D01*
X65694887Y-93514853D01*
X65057201Y-93778991D01*
X64569138Y-94267054D01*
X64305000Y-94904740D01*
X56042482Y-94904740D01*
X56042482Y-90384838D01*
X71265000Y-90384838D01*
X71265000Y-91075064D01*
X71529138Y-91712750D01*
X72017201Y-92200813D01*
X72654887Y-92464951D01*
X73345113Y-92464951D01*
X73982799Y-92200813D01*
X74470862Y-91712750D01*
X74735000Y-91075064D01*
X74735000Y-90384838D01*
X74470862Y-89747152D01*
X73982799Y-89259089D01*
X73345113Y-88994951D01*
X72654887Y-88994951D01*
X72017201Y-89259089D01*
X71529138Y-89747152D01*
X71265000Y-90384838D01*
X56042482Y-90384838D01*
X56042482Y-82961291D01*
X56134962Y-82868811D01*
X56292531Y-82488405D01*
X56292531Y-82076657D01*
X56134962Y-81696251D01*
X56017531Y-81578820D01*
X56017531Y-78394789D01*
X57955000Y-78394789D01*
X57955000Y-79085015D01*
X58219138Y-79722701D01*
X58707201Y-80210764D01*
X59344887Y-80474902D01*
X60035113Y-80474902D01*
X60672799Y-80210764D01*
X61160862Y-79722701D01*
X61425000Y-79085015D01*
X61425000Y-78394789D01*
X61160862Y-77757103D01*
X60672799Y-77269040D01*
X60035113Y-77004902D01*
X59344887Y-77004902D01*
X58707201Y-77269040D01*
X58219138Y-77757103D01*
X57955000Y-78394789D01*
X56017531Y-78394789D01*
X56017531Y-63861340D01*
X56060011Y-63818860D01*
X56217580Y-63438454D01*
X56217580Y-63026706D01*
X56060011Y-62646300D01*
X55768860Y-62355149D01*
X55388454Y-62197580D01*
X55222383Y-62197580D01*
X51760000Y-58735199D01*
X51760000Y-53214951D01*
X52014250Y-53214951D01*
X52173000Y-53056201D01*
X52173000Y-51856951D01*
X52427000Y-51856951D01*
X52427000Y-53056201D01*
X52585750Y-53214951D01*
X52876309Y-53214951D01*
X53109698Y-53118278D01*
X53288327Y-52939650D01*
X53385000Y-52706261D01*
X53385000Y-52015701D01*
X53226250Y-51856951D01*
X52427000Y-51856951D01*
X52173000Y-51856951D01*
X52153000Y-51856951D01*
X52153000Y-51602951D01*
X52173000Y-51602951D01*
X52173000Y-50403701D01*
X52427000Y-50403701D01*
X52427000Y-51602951D01*
X53226250Y-51602951D01*
X53385000Y-51444201D01*
X53385000Y-50753641D01*
X53288327Y-50520252D01*
X53109698Y-50341624D01*
X52876309Y-50244951D01*
X52585750Y-50244951D01*
X52427000Y-50403701D01*
X52173000Y-50403701D01*
X52014250Y-50244951D01*
X51760000Y-50244951D01*
X51760000Y-48655059D01*
X51961417Y-48453642D01*
X69315000Y-48453642D01*
X69315000Y-49294201D01*
X69473750Y-49452951D01*
X70573000Y-49452951D01*
X70573000Y-48103701D01*
X70414250Y-47944951D01*
X69823690Y-47944951D01*
X69590301Y-48041624D01*
X69411673Y-48220253D01*
X69315000Y-48453642D01*
X51961417Y-48453642D01*
X54399359Y-46015701D01*
X70265000Y-46015701D01*
X70265000Y-46556261D01*
X70361673Y-46789650D01*
X70540302Y-46968278D01*
X70773691Y-47064951D01*
X71189250Y-47064951D01*
X71348000Y-46906201D01*
X71348000Y-45856951D01*
X70423750Y-45856951D01*
X70265000Y-46015701D01*
X54399359Y-46015701D01*
X55197432Y-45217629D01*
X55363503Y-45217629D01*
X55743909Y-45060060D01*
X56035060Y-44768909D01*
X56192629Y-44388503D01*
X56192629Y-43976755D01*
X56035060Y-43596349D01*
X55743909Y-43305198D01*
X55363503Y-43147629D01*
X54951755Y-43147629D01*
X54571349Y-43305198D01*
X54280198Y-43596349D01*
X54122629Y-43976755D01*
X54122629Y-44142826D01*
X50515530Y-47749927D01*
X50452071Y-47792329D01*
X50284096Y-48043722D01*
X50240000Y-48265407D01*
X50240000Y-48265411D01*
X50225112Y-48340258D01*
X36917629Y-48340258D01*
X36917629Y-44886340D01*
X37035060Y-44768909D01*
X37192629Y-44388503D01*
X37192629Y-43976755D01*
X37035060Y-43596349D01*
X36743909Y-43305198D01*
X36363503Y-43147629D01*
X35951755Y-43147629D01*
X35571349Y-43305198D01*
X35280198Y-43596349D01*
X35122629Y-43976755D01*
X30410000Y-43976755D01*
X30410000Y-42655866D01*
X41815049Y-42655866D01*
X41815049Y-43704134D01*
X42216204Y-44672608D01*
X42957441Y-45413845D01*
X43925915Y-45815000D01*
X44974183Y-45815000D01*
X45942657Y-45413845D01*
X46683894Y-44672608D01*
X47085049Y-43704134D01*
X47085049Y-42655866D01*
X60865000Y-42655866D01*
X60865000Y-43704134D01*
X61266155Y-44672608D01*
X62007392Y-45413845D01*
X62975866Y-45815000D01*
X64024134Y-45815000D01*
X64992608Y-45413845D01*
X65502812Y-44903641D01*
X70265000Y-44903641D01*
X70265000Y-45444201D01*
X70423750Y-45602951D01*
X71348000Y-45602951D01*
X71348000Y-44553701D01*
X71189250Y-44394951D01*
X70773691Y-44394951D01*
X70540302Y-44491624D01*
X70361673Y-44670252D01*
X70265000Y-44903641D01*
X65502812Y-44903641D01*
X65733845Y-44672608D01*
X66135000Y-43704134D01*
X66135000Y-42655866D01*
X65733845Y-41687392D01*
X64992608Y-40946155D01*
X64024134Y-40545000D01*
X62975866Y-40545000D01*
X62007392Y-40946155D01*
X61266155Y-41687392D01*
X60865000Y-42655866D01*
X47085049Y-42655866D01*
X46683894Y-41687392D01*
X45942657Y-40946155D01*
X44974183Y-40545000D01*
X43925915Y-40545000D01*
X42957441Y-40946155D01*
X42216204Y-41687392D01*
X41815049Y-42655866D01*
X30410000Y-42655866D01*
X30410000Y-40294887D01*
X38905049Y-40294887D01*
X38905049Y-40985113D01*
X39169187Y-41622799D01*
X39657250Y-42110862D01*
X40294936Y-42375000D01*
X40985162Y-42375000D01*
X41622848Y-42110862D01*
X42110911Y-41622799D01*
X42375049Y-40985113D01*
X42375049Y-40294887D01*
X57955000Y-40294887D01*
X57955000Y-40985113D01*
X58219138Y-41622799D01*
X58707201Y-42110862D01*
X59344887Y-42375000D01*
X60035113Y-42375000D01*
X60672799Y-42110862D01*
X61160862Y-41622799D01*
X61425000Y-40985113D01*
X61425000Y-40294887D01*
X61160862Y-39657201D01*
X60672799Y-39169138D01*
X60035113Y-38905000D01*
X59344887Y-38905000D01*
X58707201Y-39169138D01*
X58219138Y-39657201D01*
X57955000Y-40294887D01*
X42375049Y-40294887D01*
X42110911Y-39657201D01*
X41622848Y-39169138D01*
X40985162Y-38905000D01*
X40294936Y-38905000D01*
X39657250Y-39169138D01*
X39169187Y-39657201D01*
X38905049Y-40294887D01*
X30410000Y-40294887D01*
X30410000Y-37754887D01*
X45255049Y-37754887D01*
X45255049Y-38445113D01*
X45519187Y-39082799D01*
X46007250Y-39570862D01*
X46644936Y-39835000D01*
X47335162Y-39835000D01*
X47972848Y-39570862D01*
X48460911Y-39082799D01*
X48725049Y-38445113D01*
X48725049Y-37754887D01*
X64305000Y-37754887D01*
X64305000Y-38445113D01*
X64569138Y-39082799D01*
X65057201Y-39570862D01*
X65694887Y-39835000D01*
X66385113Y-39835000D01*
X67022799Y-39570862D01*
X67510862Y-39082799D01*
X67775000Y-38445113D01*
X67775000Y-37754887D01*
X67510862Y-37117201D01*
X67022799Y-36629138D01*
X66385113Y-36365000D01*
X65694887Y-36365000D01*
X65057201Y-36629138D01*
X64569138Y-37117201D01*
X64305000Y-37754887D01*
X48725049Y-37754887D01*
X48460911Y-37117201D01*
X47972848Y-36629138D01*
X47335162Y-36365000D01*
X46644936Y-36365000D01*
X46007250Y-36629138D01*
X45519187Y-37117201D01*
X45255049Y-37754887D01*
X30410000Y-37754887D01*
X30410000Y-33284838D01*
X33165000Y-33284838D01*
X33165000Y-33975064D01*
X33429138Y-34612750D01*
X33917201Y-35100813D01*
X34554887Y-35364951D01*
X35245113Y-35364951D01*
X35882799Y-35100813D01*
X36370862Y-34612750D01*
X36635000Y-33975064D01*
X36635000Y-33284838D01*
X36370862Y-32647152D01*
X35882799Y-32159089D01*
X35245113Y-31894951D01*
X34554887Y-31894951D01*
X33917201Y-32159089D01*
X33429138Y-32647152D01*
X33165000Y-33284838D01*
X30410000Y-33284838D01*
X30410000Y-29139951D01*
X68326835Y-29139951D01*
X68265000Y-29450815D01*
G36*
X80490000Y-72794753D02*
X80490000Y-73194951D01*
X80294126Y-73194951D01*
X79913720Y-73352520D01*
X79622569Y-73643671D01*
X79465000Y-74024077D01*
X79465000Y-74190149D01*
X77060000Y-76595150D01*
X77060000Y-75534481D01*
X77198157Y-75327716D01*
X77247440Y-75079951D01*
X77247440Y-73964951D01*
X77464250Y-73964951D01*
X77623000Y-73806201D01*
X77623000Y-73177391D01*
X77877000Y-73177391D01*
X77877000Y-73806201D01*
X78035750Y-73964951D01*
X78476309Y-73964951D01*
X78709698Y-73868278D01*
X78888327Y-73689650D01*
X78985000Y-73456261D01*
X78985000Y-73315701D01*
X78826250Y-73156951D01*
X78452760Y-73156951D01*
X78597765Y-73128108D01*
X78807809Y-72987760D01*
X78941455Y-72787746D01*
X78985000Y-72744201D01*
X78985000Y-72603641D01*
X78983502Y-72600024D01*
X78997440Y-72529951D01*
X78997440Y-71929951D01*
X78977549Y-71829951D01*
X78997440Y-71729951D01*
X78997440Y-71302192D01*
X80490000Y-72794753D01*
X80490000Y-72794753D01*
G37*
X80490000Y-72794753D02*
X80490000Y-73194951D01*
X80294126Y-73194951D01*
X79913720Y-73352520D01*
X79622569Y-73643671D01*
X79465000Y-74024077D01*
X79465000Y-74190149D01*
X77060000Y-76595150D01*
X77060000Y-75534481D01*
X77198157Y-75327716D01*
X77247440Y-75079951D01*
X77247440Y-73964951D01*
X77464250Y-73964951D01*
X77623000Y-73806201D01*
X77623000Y-73177391D01*
X77877000Y-73177391D01*
X77877000Y-73806201D01*
X78035750Y-73964951D01*
X78476309Y-73964951D01*
X78709698Y-73868278D01*
X78888327Y-73689650D01*
X78985000Y-73456261D01*
X78985000Y-73315701D01*
X78826250Y-73156951D01*
X78452760Y-73156951D01*
X78597765Y-73128108D01*
X78807809Y-72987760D01*
X78941455Y-72787746D01*
X78985000Y-72744201D01*
X78985000Y-72603641D01*
X78983502Y-72600024D01*
X78997440Y-72529951D01*
X78997440Y-71929951D01*
X78977549Y-71829951D01*
X78997440Y-71729951D01*
X78997440Y-71302192D01*
X80490000Y-72794753D01*
G36*
X67415414Y-64714537D02*
X67706564Y-64909078D01*
X68049999Y-64977391D01*
X68922639Y-64977391D01*
X69752560Y-65807313D01*
X69752560Y-66494951D01*
X69535750Y-66494951D01*
X69377000Y-66653701D01*
X69377000Y-67282511D01*
X69123000Y-67282511D01*
X69123000Y-66653701D01*
X68964250Y-66494951D01*
X68523691Y-66494951D01*
X68290302Y-66591624D01*
X68111673Y-66770252D01*
X68015000Y-67003641D01*
X68015000Y-67144201D01*
X68173750Y-67302951D01*
X68547240Y-67302951D01*
X68402235Y-67331794D01*
X68195470Y-67469951D01*
X64723711Y-67469951D01*
X64877431Y-67316231D01*
X65035000Y-66935825D01*
X65035000Y-66769752D01*
X66984473Y-64820280D01*
X67047929Y-64777880D01*
X67215904Y-64526488D01*
X67232847Y-64441308D01*
X67415414Y-64714537D01*
X67415414Y-64714537D01*
G37*
X67415414Y-64714537D02*
X67706564Y-64909078D01*
X68049999Y-64977391D01*
X68922639Y-64977391D01*
X69752560Y-65807313D01*
X69752560Y-66494951D01*
X69535750Y-66494951D01*
X69377000Y-66653701D01*
X69377000Y-67282511D01*
X69123000Y-67282511D01*
X69123000Y-66653701D01*
X68964250Y-66494951D01*
X68523691Y-66494951D01*
X68290302Y-66591624D01*
X68111673Y-66770252D01*
X68015000Y-67003641D01*
X68015000Y-67144201D01*
X68173750Y-67302951D01*
X68547240Y-67302951D01*
X68402235Y-67331794D01*
X68195470Y-67469951D01*
X64723711Y-67469951D01*
X64877431Y-67316231D01*
X65035000Y-66935825D01*
X65035000Y-66769752D01*
X66984473Y-64820280D01*
X67047929Y-64777880D01*
X67215904Y-64526488D01*
X67232847Y-64441308D01*
X67415414Y-64714537D01*
G36*
X67261673Y-62639649D02*
X67416597Y-62794574D01*
X67415414Y-62795365D01*
X67260000Y-63027958D01*
X67260000Y-62635610D01*
X67261673Y-62639649D01*
X67261673Y-62639649D01*
G37*
X67261673Y-62639649D02*
X67416597Y-62794574D01*
X67415414Y-62795365D01*
X67260000Y-63027958D01*
X67260000Y-62635610D01*
X67261673Y-62639649D01*
M02*
