M48
;DRILL file {KiCad (5.0.2-5-10.14)} date Monday, 08 April 2019 at 09:19:06 pm
;FORMAT={-:-/ absolute / metric / decimal}
FMAT,2
METRIC,TZ
T1C0.400
T2C0.600
T3C0.850
T4C1.500
%
G90
G05
T1
X36.158Y-44.183
X36.233Y-82.283
X36.233Y-63.233
X36.282Y-101.332
X36.332Y-120.382
X55.158Y-44.183
X55.183Y-63.233
X55.258Y-82.283
X55.282Y-101.332
X55.332Y-120.382
X61.Y-67.98
X61.Y-69.23
X62.25Y-58.23
X62.75Y-65.98
X63.5Y-51.23
X64.Y-66.73
X64.Y-74.98
X66.5Y-59.23
X67.Y-82.73
X67.25Y-65.23
X67.75Y-77.48
X68.Y-83.48
X69.Y-80.73
X70.Y-78.48
X70.Y-81.48
X70.823Y-61.98
X71.Y-63.23
X71.25Y-78.98
X72.25Y-68.23
X73.25Y-52.73
X74.233Y-82.283
X74.282Y-101.332
X74.332Y-120.382
X74.8Y-34.73
X76.Y-67.73
X77.75Y-65.98
X78.Y-74.48
X79.5Y-53.98
X80.Y-76.23
X80.5Y-74.23
X85.5Y-53.98
X88.5Y-53.98
X93.133Y-44.183
X93.183Y-63.233
X93.258Y-82.283
X93.282Y-101.332
X93.357Y-120.382
T3
X70.5Y-32.622
X75.5Y-32.622
T4
X97.79Y-59.69
X104.14Y-57.15
X59.69Y-59.69
X66.04Y-57.15
X59.69Y-97.79
X66.04Y-95.25
X97.79Y-40.64
X104.14Y-38.1
X59.69Y-40.64
X66.04Y-38.1
X78.74Y-116.84
X85.09Y-114.3
X78.74Y-59.69
X85.09Y-57.15
X40.64Y-116.84
X46.99Y-114.3
X97.79Y-97.79
X104.14Y-95.25
X78.74Y-97.79
X85.09Y-95.25
X40.64Y-59.69
X46.99Y-57.15
X40.64Y-97.857
X46.99Y-95.317
X59.69Y-78.74
X66.04Y-76.2
X59.69Y-116.84
X66.04Y-114.3
X78.74Y-40.64
X85.09Y-38.1
X97.79Y-78.74
X104.14Y-76.2
X97.79Y-116.84
X104.14Y-114.3
X78.74Y-78.74
X85.09Y-76.2
X40.64Y-78.74
X46.99Y-76.2
X40.64Y-40.64
X46.99Y-38.1
T2
X69.5Y-30.272G85X69.5Y-29.572
G05
X76.5Y-29.572G85X76.5Y-30.272
G05
T0
M30
