%TF.GenerationSoftware,KiCad,Pcbnew,(5.0.2-5-10.14)*%
%TF.CreationDate,2019-04-08T21:19:03+10:00*%
%TF.ProjectId,macropod,6d616372-6f70-46f6-942e-6b696361645f,rev?*%
%TF.SameCoordinates,Original*%
%TF.FileFunction,Paste,Bot*%
%TF.FilePolarity,Positive*%
%FSLAX46Y46*%
G04 Gerber Fmt 4.6, Leading zero omitted, Abs format (unit mm)*
G04 Created by KiCad (PCBNEW (5.0.2-5-10.14)) date Monday, 08 April 2019 at 09:19:03 pm*
%MOMM*%
%LPD*%
G01*
G04 APERTURE LIST*
%ADD10C,0.150000*%
%ADD11C,1.150000*%
%ADD12R,1.500000X1.900000*%
%ADD13R,0.400000X1.350000*%
%ADD14R,0.740000X2.400000*%
%ADD15R,0.600000X1.200000*%
%ADD16R,1.200000X0.600000*%
%ADD17R,3.800000X2.000000*%
%ADD18R,1.500000X2.000000*%
%ADD19R,0.900000X1.700000*%
G04 APERTURE END LIST*
D10*
X29700000Y-28429951D02*
X29700000Y-134229951D01*
X29700000Y-134229951D02*
X116300000Y-134229951D01*
X116300000Y-28429951D02*
X116300000Y-134229951D01*
X29700000Y-28429951D02*
X116300000Y-28429951D01*
G36*
X73874505Y-45031155D02*
X73898773Y-45034755D01*
X73922572Y-45040716D01*
X73945671Y-45048981D01*
X73967850Y-45059471D01*
X73988893Y-45072083D01*
X74008599Y-45086698D01*
X74026777Y-45103174D01*
X74043253Y-45121352D01*
X74057868Y-45141058D01*
X74070480Y-45162101D01*
X74080970Y-45184280D01*
X74089235Y-45207379D01*
X74095196Y-45231178D01*
X74098796Y-45255446D01*
X74100000Y-45279950D01*
X74100000Y-46179952D01*
X74098796Y-46204456D01*
X74095196Y-46228724D01*
X74089235Y-46252523D01*
X74080970Y-46275622D01*
X74070480Y-46297801D01*
X74057868Y-46318844D01*
X74043253Y-46338550D01*
X74026777Y-46356728D01*
X74008599Y-46373204D01*
X73988893Y-46387819D01*
X73967850Y-46400431D01*
X73945671Y-46410921D01*
X73922572Y-46419186D01*
X73898773Y-46425147D01*
X73874505Y-46428747D01*
X73850001Y-46429951D01*
X73199999Y-46429951D01*
X73175495Y-46428747D01*
X73151227Y-46425147D01*
X73127428Y-46419186D01*
X73104329Y-46410921D01*
X73082150Y-46400431D01*
X73061107Y-46387819D01*
X73041401Y-46373204D01*
X73023223Y-46356728D01*
X73006747Y-46338550D01*
X72992132Y-46318844D01*
X72979520Y-46297801D01*
X72969030Y-46275622D01*
X72960765Y-46252523D01*
X72954804Y-46228724D01*
X72951204Y-46204456D01*
X72950000Y-46179952D01*
X72950000Y-45279950D01*
X72951204Y-45255446D01*
X72954804Y-45231178D01*
X72960765Y-45207379D01*
X72969030Y-45184280D01*
X72979520Y-45162101D01*
X72992132Y-45141058D01*
X73006747Y-45121352D01*
X73023223Y-45103174D01*
X73041401Y-45086698D01*
X73061107Y-45072083D01*
X73082150Y-45059471D01*
X73104329Y-45048981D01*
X73127428Y-45040716D01*
X73151227Y-45034755D01*
X73175495Y-45031155D01*
X73199999Y-45029951D01*
X73850001Y-45029951D01*
X73874505Y-45031155D01*
X73874505Y-45031155D01*
G37*
D11*
X73525000Y-45729951D03*
D10*
G36*
X71824505Y-45031155D02*
X71848773Y-45034755D01*
X71872572Y-45040716D01*
X71895671Y-45048981D01*
X71917850Y-45059471D01*
X71938893Y-45072083D01*
X71958599Y-45086698D01*
X71976777Y-45103174D01*
X71993253Y-45121352D01*
X72007868Y-45141058D01*
X72020480Y-45162101D01*
X72030970Y-45184280D01*
X72039235Y-45207379D01*
X72045196Y-45231178D01*
X72048796Y-45255446D01*
X72050000Y-45279950D01*
X72050000Y-46179952D01*
X72048796Y-46204456D01*
X72045196Y-46228724D01*
X72039235Y-46252523D01*
X72030970Y-46275622D01*
X72020480Y-46297801D01*
X72007868Y-46318844D01*
X71993253Y-46338550D01*
X71976777Y-46356728D01*
X71958599Y-46373204D01*
X71938893Y-46387819D01*
X71917850Y-46400431D01*
X71895671Y-46410921D01*
X71872572Y-46419186D01*
X71848773Y-46425147D01*
X71824505Y-46428747D01*
X71800001Y-46429951D01*
X71149999Y-46429951D01*
X71125495Y-46428747D01*
X71101227Y-46425147D01*
X71077428Y-46419186D01*
X71054329Y-46410921D01*
X71032150Y-46400431D01*
X71011107Y-46387819D01*
X70991401Y-46373204D01*
X70973223Y-46356728D01*
X70956747Y-46338550D01*
X70942132Y-46318844D01*
X70929520Y-46297801D01*
X70919030Y-46275622D01*
X70910765Y-46252523D01*
X70904804Y-46228724D01*
X70901204Y-46204456D01*
X70900000Y-46179952D01*
X70900000Y-45279950D01*
X70901204Y-45255446D01*
X70904804Y-45231178D01*
X70910765Y-45207379D01*
X70919030Y-45184280D01*
X70929520Y-45162101D01*
X70942132Y-45141058D01*
X70956747Y-45121352D01*
X70973223Y-45103174D01*
X70991401Y-45086698D01*
X71011107Y-45072083D01*
X71032150Y-45059471D01*
X71054329Y-45048981D01*
X71077428Y-45040716D01*
X71101227Y-45034755D01*
X71125495Y-45031155D01*
X71149999Y-45029951D01*
X71800001Y-45029951D01*
X71824505Y-45031155D01*
X71824505Y-45031155D01*
G37*
D11*
X71475000Y-45729951D03*
D10*
G36*
X67374505Y-52031155D02*
X67398773Y-52034755D01*
X67422572Y-52040716D01*
X67445671Y-52048981D01*
X67467850Y-52059471D01*
X67488893Y-52072083D01*
X67508599Y-52086698D01*
X67526777Y-52103174D01*
X67543253Y-52121352D01*
X67557868Y-52141058D01*
X67570480Y-52162101D01*
X67580970Y-52184280D01*
X67589235Y-52207379D01*
X67595196Y-52231178D01*
X67598796Y-52255446D01*
X67600000Y-52279950D01*
X67600000Y-53179952D01*
X67598796Y-53204456D01*
X67595196Y-53228724D01*
X67589235Y-53252523D01*
X67580970Y-53275622D01*
X67570480Y-53297801D01*
X67557868Y-53318844D01*
X67543253Y-53338550D01*
X67526777Y-53356728D01*
X67508599Y-53373204D01*
X67488893Y-53387819D01*
X67467850Y-53400431D01*
X67445671Y-53410921D01*
X67422572Y-53419186D01*
X67398773Y-53425147D01*
X67374505Y-53428747D01*
X67350001Y-53429951D01*
X66699999Y-53429951D01*
X66675495Y-53428747D01*
X66651227Y-53425147D01*
X66627428Y-53419186D01*
X66604329Y-53410921D01*
X66582150Y-53400431D01*
X66561107Y-53387819D01*
X66541401Y-53373204D01*
X66523223Y-53356728D01*
X66506747Y-53338550D01*
X66492132Y-53318844D01*
X66479520Y-53297801D01*
X66469030Y-53275622D01*
X66460765Y-53252523D01*
X66454804Y-53228724D01*
X66451204Y-53204456D01*
X66450000Y-53179952D01*
X66450000Y-52279950D01*
X66451204Y-52255446D01*
X66454804Y-52231178D01*
X66460765Y-52207379D01*
X66469030Y-52184280D01*
X66479520Y-52162101D01*
X66492132Y-52141058D01*
X66506747Y-52121352D01*
X66523223Y-52103174D01*
X66541401Y-52086698D01*
X66561107Y-52072083D01*
X66582150Y-52059471D01*
X66604329Y-52048981D01*
X66627428Y-52040716D01*
X66651227Y-52034755D01*
X66675495Y-52031155D01*
X66699999Y-52029951D01*
X67350001Y-52029951D01*
X67374505Y-52031155D01*
X67374505Y-52031155D01*
G37*
D11*
X67025000Y-52729951D03*
D10*
G36*
X65324505Y-52031155D02*
X65348773Y-52034755D01*
X65372572Y-52040716D01*
X65395671Y-52048981D01*
X65417850Y-52059471D01*
X65438893Y-52072083D01*
X65458599Y-52086698D01*
X65476777Y-52103174D01*
X65493253Y-52121352D01*
X65507868Y-52141058D01*
X65520480Y-52162101D01*
X65530970Y-52184280D01*
X65539235Y-52207379D01*
X65545196Y-52231178D01*
X65548796Y-52255446D01*
X65550000Y-52279950D01*
X65550000Y-53179952D01*
X65548796Y-53204456D01*
X65545196Y-53228724D01*
X65539235Y-53252523D01*
X65530970Y-53275622D01*
X65520480Y-53297801D01*
X65507868Y-53318844D01*
X65493253Y-53338550D01*
X65476777Y-53356728D01*
X65458599Y-53373204D01*
X65438893Y-53387819D01*
X65417850Y-53400431D01*
X65395671Y-53410921D01*
X65372572Y-53419186D01*
X65348773Y-53425147D01*
X65324505Y-53428747D01*
X65300001Y-53429951D01*
X64649999Y-53429951D01*
X64625495Y-53428747D01*
X64601227Y-53425147D01*
X64577428Y-53419186D01*
X64554329Y-53410921D01*
X64532150Y-53400431D01*
X64511107Y-53387819D01*
X64491401Y-53373204D01*
X64473223Y-53356728D01*
X64456747Y-53338550D01*
X64442132Y-53318844D01*
X64429520Y-53297801D01*
X64419030Y-53275622D01*
X64410765Y-53252523D01*
X64404804Y-53228724D01*
X64401204Y-53204456D01*
X64400000Y-53179952D01*
X64400000Y-52279950D01*
X64401204Y-52255446D01*
X64404804Y-52231178D01*
X64410765Y-52207379D01*
X64419030Y-52184280D01*
X64429520Y-52162101D01*
X64442132Y-52141058D01*
X64456747Y-52121352D01*
X64473223Y-52103174D01*
X64491401Y-52086698D01*
X64511107Y-52072083D01*
X64532150Y-52059471D01*
X64554329Y-52048981D01*
X64577428Y-52040716D01*
X64601227Y-52034755D01*
X64625495Y-52031155D01*
X64649999Y-52029951D01*
X65300001Y-52029951D01*
X65324505Y-52031155D01*
X65324505Y-52031155D01*
G37*
D11*
X64975000Y-52729951D03*
D10*
G36*
X75974505Y-77131155D02*
X75998773Y-77134755D01*
X76022572Y-77140716D01*
X76045671Y-77148981D01*
X76067850Y-77159471D01*
X76088893Y-77172083D01*
X76108599Y-77186698D01*
X76126777Y-77203174D01*
X76143253Y-77221352D01*
X76157868Y-77241058D01*
X76170480Y-77262101D01*
X76180970Y-77284280D01*
X76189235Y-77307379D01*
X76195196Y-77331178D01*
X76198796Y-77355446D01*
X76200000Y-77379950D01*
X76200000Y-78029952D01*
X76198796Y-78054456D01*
X76195196Y-78078724D01*
X76189235Y-78102523D01*
X76180970Y-78125622D01*
X76170480Y-78147801D01*
X76157868Y-78168844D01*
X76143253Y-78188550D01*
X76126777Y-78206728D01*
X76108599Y-78223204D01*
X76088893Y-78237819D01*
X76067850Y-78250431D01*
X76045671Y-78260921D01*
X76022572Y-78269186D01*
X75998773Y-78275147D01*
X75974505Y-78278747D01*
X75950001Y-78279951D01*
X75049999Y-78279951D01*
X75025495Y-78278747D01*
X75001227Y-78275147D01*
X74977428Y-78269186D01*
X74954329Y-78260921D01*
X74932150Y-78250431D01*
X74911107Y-78237819D01*
X74891401Y-78223204D01*
X74873223Y-78206728D01*
X74856747Y-78188550D01*
X74842132Y-78168844D01*
X74829520Y-78147801D01*
X74819030Y-78125622D01*
X74810765Y-78102523D01*
X74804804Y-78078724D01*
X74801204Y-78054456D01*
X74800000Y-78029952D01*
X74800000Y-77379950D01*
X74801204Y-77355446D01*
X74804804Y-77331178D01*
X74810765Y-77307379D01*
X74819030Y-77284280D01*
X74829520Y-77262101D01*
X74842132Y-77241058D01*
X74856747Y-77221352D01*
X74873223Y-77203174D01*
X74891401Y-77186698D01*
X74911107Y-77172083D01*
X74932150Y-77159471D01*
X74954329Y-77148981D01*
X74977428Y-77140716D01*
X75001227Y-77134755D01*
X75025495Y-77131155D01*
X75049999Y-77129951D01*
X75950001Y-77129951D01*
X75974505Y-77131155D01*
X75974505Y-77131155D01*
G37*
D11*
X75500000Y-77704951D03*
D10*
G36*
X75974505Y-79181155D02*
X75998773Y-79184755D01*
X76022572Y-79190716D01*
X76045671Y-79198981D01*
X76067850Y-79209471D01*
X76088893Y-79222083D01*
X76108599Y-79236698D01*
X76126777Y-79253174D01*
X76143253Y-79271352D01*
X76157868Y-79291058D01*
X76170480Y-79312101D01*
X76180970Y-79334280D01*
X76189235Y-79357379D01*
X76195196Y-79381178D01*
X76198796Y-79405446D01*
X76200000Y-79429950D01*
X76200000Y-80079952D01*
X76198796Y-80104456D01*
X76195196Y-80128724D01*
X76189235Y-80152523D01*
X76180970Y-80175622D01*
X76170480Y-80197801D01*
X76157868Y-80218844D01*
X76143253Y-80238550D01*
X76126777Y-80256728D01*
X76108599Y-80273204D01*
X76088893Y-80287819D01*
X76067850Y-80300431D01*
X76045671Y-80310921D01*
X76022572Y-80319186D01*
X75998773Y-80325147D01*
X75974505Y-80328747D01*
X75950001Y-80329951D01*
X75049999Y-80329951D01*
X75025495Y-80328747D01*
X75001227Y-80325147D01*
X74977428Y-80319186D01*
X74954329Y-80310921D01*
X74932150Y-80300431D01*
X74911107Y-80287819D01*
X74891401Y-80273204D01*
X74873223Y-80256728D01*
X74856747Y-80238550D01*
X74842132Y-80218844D01*
X74829520Y-80197801D01*
X74819030Y-80175622D01*
X74810765Y-80152523D01*
X74804804Y-80128724D01*
X74801204Y-80104456D01*
X74800000Y-80079952D01*
X74800000Y-79429950D01*
X74801204Y-79405446D01*
X74804804Y-79381178D01*
X74810765Y-79357379D01*
X74819030Y-79334280D01*
X74829520Y-79312101D01*
X74842132Y-79291058D01*
X74856747Y-79271352D01*
X74873223Y-79253174D01*
X74891401Y-79236698D01*
X74911107Y-79222083D01*
X74932150Y-79209471D01*
X74954329Y-79198981D01*
X74977428Y-79190716D01*
X75001227Y-79184755D01*
X75025495Y-79181155D01*
X75049999Y-79179951D01*
X75950001Y-79179951D01*
X75974505Y-79181155D01*
X75974505Y-79181155D01*
G37*
D11*
X75500000Y-79754951D03*
D10*
G36*
X68974505Y-63181155D02*
X68998773Y-63184755D01*
X69022572Y-63190716D01*
X69045671Y-63198981D01*
X69067850Y-63209471D01*
X69088893Y-63222083D01*
X69108599Y-63236698D01*
X69126777Y-63253174D01*
X69143253Y-63271352D01*
X69157868Y-63291058D01*
X69170480Y-63312101D01*
X69180970Y-63334280D01*
X69189235Y-63357379D01*
X69195196Y-63381178D01*
X69198796Y-63405446D01*
X69200000Y-63429950D01*
X69200000Y-64079952D01*
X69198796Y-64104456D01*
X69195196Y-64128724D01*
X69189235Y-64152523D01*
X69180970Y-64175622D01*
X69170480Y-64197801D01*
X69157868Y-64218844D01*
X69143253Y-64238550D01*
X69126777Y-64256728D01*
X69108599Y-64273204D01*
X69088893Y-64287819D01*
X69067850Y-64300431D01*
X69045671Y-64310921D01*
X69022572Y-64319186D01*
X68998773Y-64325147D01*
X68974505Y-64328747D01*
X68950001Y-64329951D01*
X68049999Y-64329951D01*
X68025495Y-64328747D01*
X68001227Y-64325147D01*
X67977428Y-64319186D01*
X67954329Y-64310921D01*
X67932150Y-64300431D01*
X67911107Y-64287819D01*
X67891401Y-64273204D01*
X67873223Y-64256728D01*
X67856747Y-64238550D01*
X67842132Y-64218844D01*
X67829520Y-64197801D01*
X67819030Y-64175622D01*
X67810765Y-64152523D01*
X67804804Y-64128724D01*
X67801204Y-64104456D01*
X67800000Y-64079952D01*
X67800000Y-63429950D01*
X67801204Y-63405446D01*
X67804804Y-63381178D01*
X67810765Y-63357379D01*
X67819030Y-63334280D01*
X67829520Y-63312101D01*
X67842132Y-63291058D01*
X67856747Y-63271352D01*
X67873223Y-63253174D01*
X67891401Y-63236698D01*
X67911107Y-63222083D01*
X67932150Y-63209471D01*
X67954329Y-63198981D01*
X67977428Y-63190716D01*
X68001227Y-63184755D01*
X68025495Y-63181155D01*
X68049999Y-63179951D01*
X68950001Y-63179951D01*
X68974505Y-63181155D01*
X68974505Y-63181155D01*
G37*
D11*
X68500000Y-63754951D03*
D10*
G36*
X68974505Y-61131155D02*
X68998773Y-61134755D01*
X69022572Y-61140716D01*
X69045671Y-61148981D01*
X69067850Y-61159471D01*
X69088893Y-61172083D01*
X69108599Y-61186698D01*
X69126777Y-61203174D01*
X69143253Y-61221352D01*
X69157868Y-61241058D01*
X69170480Y-61262101D01*
X69180970Y-61284280D01*
X69189235Y-61307379D01*
X69195196Y-61331178D01*
X69198796Y-61355446D01*
X69200000Y-61379950D01*
X69200000Y-62029952D01*
X69198796Y-62054456D01*
X69195196Y-62078724D01*
X69189235Y-62102523D01*
X69180970Y-62125622D01*
X69170480Y-62147801D01*
X69157868Y-62168844D01*
X69143253Y-62188550D01*
X69126777Y-62206728D01*
X69108599Y-62223204D01*
X69088893Y-62237819D01*
X69067850Y-62250431D01*
X69045671Y-62260921D01*
X69022572Y-62269186D01*
X68998773Y-62275147D01*
X68974505Y-62278747D01*
X68950001Y-62279951D01*
X68049999Y-62279951D01*
X68025495Y-62278747D01*
X68001227Y-62275147D01*
X67977428Y-62269186D01*
X67954329Y-62260921D01*
X67932150Y-62250431D01*
X67911107Y-62237819D01*
X67891401Y-62223204D01*
X67873223Y-62206728D01*
X67856747Y-62188550D01*
X67842132Y-62168844D01*
X67829520Y-62147801D01*
X67819030Y-62125622D01*
X67810765Y-62102523D01*
X67804804Y-62078724D01*
X67801204Y-62054456D01*
X67800000Y-62029952D01*
X67800000Y-61379950D01*
X67801204Y-61355446D01*
X67804804Y-61331178D01*
X67810765Y-61307379D01*
X67819030Y-61284280D01*
X67829520Y-61262101D01*
X67842132Y-61241058D01*
X67856747Y-61221352D01*
X67873223Y-61203174D01*
X67891401Y-61186698D01*
X67911107Y-61172083D01*
X67932150Y-61159471D01*
X67954329Y-61148981D01*
X67977428Y-61140716D01*
X68001227Y-61134755D01*
X68025495Y-61131155D01*
X68049999Y-61129951D01*
X68950001Y-61129951D01*
X68974505Y-61131155D01*
X68974505Y-61131155D01*
G37*
D11*
X68500000Y-61704951D03*
D12*
X72000000Y-29922451D03*
D13*
X73000000Y-32622451D03*
X73650000Y-32622451D03*
X74300000Y-32622451D03*
X71700000Y-32622451D03*
X72350000Y-32622451D03*
D12*
X74000000Y-29922451D03*
D14*
X94780000Y-51690000D03*
X94780000Y-47790000D03*
X93510000Y-51690000D03*
X93510000Y-47790000D03*
X92240000Y-51690000D03*
X92240000Y-47790000D03*
X90970000Y-51690000D03*
X90970000Y-47790000D03*
X89700000Y-51690000D03*
X89700000Y-47790000D03*
D15*
X76300000Y-74479951D03*
X75500000Y-74479951D03*
X74700000Y-74479951D03*
X73900000Y-74479951D03*
X73100000Y-74479951D03*
X72300000Y-74479951D03*
X71500000Y-74479951D03*
X70700000Y-74479951D03*
D16*
X69250000Y-73029951D03*
X69250000Y-72229951D03*
X69250000Y-71429951D03*
X69250000Y-70629951D03*
X69250000Y-69829951D03*
X69250000Y-69029951D03*
X69250000Y-68229951D03*
X69250000Y-67429951D03*
D15*
X70700000Y-65979951D03*
X71500000Y-65979951D03*
X72300000Y-65979951D03*
X73100000Y-65979951D03*
X73900000Y-65979951D03*
X74700000Y-65979951D03*
X75500000Y-65979951D03*
X76300000Y-65979951D03*
D16*
X77750000Y-67429951D03*
X77750000Y-68229951D03*
X77750000Y-69029951D03*
X77750000Y-69829951D03*
X77750000Y-70629951D03*
X77750000Y-71429951D03*
X77750000Y-72229951D03*
X77750000Y-73029951D03*
D17*
X73000000Y-55879951D03*
D18*
X73000000Y-49579951D03*
X75300000Y-49579951D03*
X70700000Y-49579951D03*
D10*
G36*
X73474505Y-77131155D02*
X73498773Y-77134755D01*
X73522572Y-77140716D01*
X73545671Y-77148981D01*
X73567850Y-77159471D01*
X73588893Y-77172083D01*
X73608599Y-77186698D01*
X73626777Y-77203174D01*
X73643253Y-77221352D01*
X73657868Y-77241058D01*
X73670480Y-77262101D01*
X73680970Y-77284280D01*
X73689235Y-77307379D01*
X73695196Y-77331178D01*
X73698796Y-77355446D01*
X73700000Y-77379950D01*
X73700000Y-78029952D01*
X73698796Y-78054456D01*
X73695196Y-78078724D01*
X73689235Y-78102523D01*
X73680970Y-78125622D01*
X73670480Y-78147801D01*
X73657868Y-78168844D01*
X73643253Y-78188550D01*
X73626777Y-78206728D01*
X73608599Y-78223204D01*
X73588893Y-78237819D01*
X73567850Y-78250431D01*
X73545671Y-78260921D01*
X73522572Y-78269186D01*
X73498773Y-78275147D01*
X73474505Y-78278747D01*
X73450001Y-78279951D01*
X72549999Y-78279951D01*
X72525495Y-78278747D01*
X72501227Y-78275147D01*
X72477428Y-78269186D01*
X72454329Y-78260921D01*
X72432150Y-78250431D01*
X72411107Y-78237819D01*
X72391401Y-78223204D01*
X72373223Y-78206728D01*
X72356747Y-78188550D01*
X72342132Y-78168844D01*
X72329520Y-78147801D01*
X72319030Y-78125622D01*
X72310765Y-78102523D01*
X72304804Y-78078724D01*
X72301204Y-78054456D01*
X72300000Y-78029952D01*
X72300000Y-77379950D01*
X72301204Y-77355446D01*
X72304804Y-77331178D01*
X72310765Y-77307379D01*
X72319030Y-77284280D01*
X72329520Y-77262101D01*
X72342132Y-77241058D01*
X72356747Y-77221352D01*
X72373223Y-77203174D01*
X72391401Y-77186698D01*
X72411107Y-77172083D01*
X72432150Y-77159471D01*
X72454329Y-77148981D01*
X72477428Y-77140716D01*
X72501227Y-77134755D01*
X72525495Y-77131155D01*
X72549999Y-77129951D01*
X73450001Y-77129951D01*
X73474505Y-77131155D01*
X73474505Y-77131155D01*
G37*
D11*
X73000000Y-77704951D03*
D10*
G36*
X73474505Y-79181155D02*
X73498773Y-79184755D01*
X73522572Y-79190716D01*
X73545671Y-79198981D01*
X73567850Y-79209471D01*
X73588893Y-79222083D01*
X73608599Y-79236698D01*
X73626777Y-79253174D01*
X73643253Y-79271352D01*
X73657868Y-79291058D01*
X73670480Y-79312101D01*
X73680970Y-79334280D01*
X73689235Y-79357379D01*
X73695196Y-79381178D01*
X73698796Y-79405446D01*
X73700000Y-79429950D01*
X73700000Y-80079952D01*
X73698796Y-80104456D01*
X73695196Y-80128724D01*
X73689235Y-80152523D01*
X73680970Y-80175622D01*
X73670480Y-80197801D01*
X73657868Y-80218844D01*
X73643253Y-80238550D01*
X73626777Y-80256728D01*
X73608599Y-80273204D01*
X73588893Y-80287819D01*
X73567850Y-80300431D01*
X73545671Y-80310921D01*
X73522572Y-80319186D01*
X73498773Y-80325147D01*
X73474505Y-80328747D01*
X73450001Y-80329951D01*
X72549999Y-80329951D01*
X72525495Y-80328747D01*
X72501227Y-80325147D01*
X72477428Y-80319186D01*
X72454329Y-80310921D01*
X72432150Y-80300431D01*
X72411107Y-80287819D01*
X72391401Y-80273204D01*
X72373223Y-80256728D01*
X72356747Y-80238550D01*
X72342132Y-80218844D01*
X72329520Y-80197801D01*
X72319030Y-80175622D01*
X72310765Y-80152523D01*
X72304804Y-80128724D01*
X72301204Y-80104456D01*
X72300000Y-80079952D01*
X72300000Y-79429950D01*
X72301204Y-79405446D01*
X72304804Y-79381178D01*
X72310765Y-79357379D01*
X72319030Y-79334280D01*
X72329520Y-79312101D01*
X72342132Y-79291058D01*
X72356747Y-79271352D01*
X72373223Y-79253174D01*
X72391401Y-79236698D01*
X72411107Y-79222083D01*
X72432150Y-79209471D01*
X72454329Y-79198981D01*
X72477428Y-79190716D01*
X72501227Y-79184755D01*
X72525495Y-79181155D01*
X72549999Y-79179951D01*
X73450001Y-79179951D01*
X73474505Y-79181155D01*
X73474505Y-79181155D01*
G37*
D11*
X73000000Y-79754951D03*
D10*
G36*
X61374505Y-52781155D02*
X61398773Y-52784755D01*
X61422572Y-52790716D01*
X61445671Y-52798981D01*
X61467850Y-52809471D01*
X61488893Y-52822083D01*
X61508599Y-52836698D01*
X61526777Y-52853174D01*
X61543253Y-52871352D01*
X61557868Y-52891058D01*
X61570480Y-52912101D01*
X61580970Y-52934280D01*
X61589235Y-52957379D01*
X61595196Y-52981178D01*
X61598796Y-53005446D01*
X61600000Y-53029950D01*
X61600000Y-53929952D01*
X61598796Y-53954456D01*
X61595196Y-53978724D01*
X61589235Y-54002523D01*
X61580970Y-54025622D01*
X61570480Y-54047801D01*
X61557868Y-54068844D01*
X61543253Y-54088550D01*
X61526777Y-54106728D01*
X61508599Y-54123204D01*
X61488893Y-54137819D01*
X61467850Y-54150431D01*
X61445671Y-54160921D01*
X61422572Y-54169186D01*
X61398773Y-54175147D01*
X61374505Y-54178747D01*
X61350001Y-54179951D01*
X60699999Y-54179951D01*
X60675495Y-54178747D01*
X60651227Y-54175147D01*
X60627428Y-54169186D01*
X60604329Y-54160921D01*
X60582150Y-54150431D01*
X60561107Y-54137819D01*
X60541401Y-54123204D01*
X60523223Y-54106728D01*
X60506747Y-54088550D01*
X60492132Y-54068844D01*
X60479520Y-54047801D01*
X60469030Y-54025622D01*
X60460765Y-54002523D01*
X60454804Y-53978724D01*
X60451204Y-53954456D01*
X60450000Y-53929952D01*
X60450000Y-53029950D01*
X60451204Y-53005446D01*
X60454804Y-52981178D01*
X60460765Y-52957379D01*
X60469030Y-52934280D01*
X60479520Y-52912101D01*
X60492132Y-52891058D01*
X60506747Y-52871352D01*
X60523223Y-52853174D01*
X60541401Y-52836698D01*
X60561107Y-52822083D01*
X60582150Y-52809471D01*
X60604329Y-52798981D01*
X60627428Y-52790716D01*
X60651227Y-52784755D01*
X60675495Y-52781155D01*
X60699999Y-52779951D01*
X61350001Y-52779951D01*
X61374505Y-52781155D01*
X61374505Y-52781155D01*
G37*
D11*
X61025000Y-53479951D03*
D10*
G36*
X59324505Y-52781155D02*
X59348773Y-52784755D01*
X59372572Y-52790716D01*
X59395671Y-52798981D01*
X59417850Y-52809471D01*
X59438893Y-52822083D01*
X59458599Y-52836698D01*
X59476777Y-52853174D01*
X59493253Y-52871352D01*
X59507868Y-52891058D01*
X59520480Y-52912101D01*
X59530970Y-52934280D01*
X59539235Y-52957379D01*
X59545196Y-52981178D01*
X59548796Y-53005446D01*
X59550000Y-53029950D01*
X59550000Y-53929952D01*
X59548796Y-53954456D01*
X59545196Y-53978724D01*
X59539235Y-54002523D01*
X59530970Y-54025622D01*
X59520480Y-54047801D01*
X59507868Y-54068844D01*
X59493253Y-54088550D01*
X59476777Y-54106728D01*
X59458599Y-54123204D01*
X59438893Y-54137819D01*
X59417850Y-54150431D01*
X59395671Y-54160921D01*
X59372572Y-54169186D01*
X59348773Y-54175147D01*
X59324505Y-54178747D01*
X59300001Y-54179951D01*
X58649999Y-54179951D01*
X58625495Y-54178747D01*
X58601227Y-54175147D01*
X58577428Y-54169186D01*
X58554329Y-54160921D01*
X58532150Y-54150431D01*
X58511107Y-54137819D01*
X58491401Y-54123204D01*
X58473223Y-54106728D01*
X58456747Y-54088550D01*
X58442132Y-54068844D01*
X58429520Y-54047801D01*
X58419030Y-54025622D01*
X58410765Y-54002523D01*
X58404804Y-53978724D01*
X58401204Y-53954456D01*
X58400000Y-53929952D01*
X58400000Y-53029950D01*
X58401204Y-53005446D01*
X58404804Y-52981178D01*
X58410765Y-52957379D01*
X58419030Y-52934280D01*
X58429520Y-52912101D01*
X58442132Y-52891058D01*
X58456747Y-52871352D01*
X58473223Y-52853174D01*
X58491401Y-52836698D01*
X58511107Y-52822083D01*
X58532150Y-52809471D01*
X58554329Y-52798981D01*
X58577428Y-52790716D01*
X58601227Y-52784755D01*
X58625495Y-52781155D01*
X58649999Y-52779951D01*
X59300001Y-52779951D01*
X59324505Y-52781155D01*
X59324505Y-52781155D01*
G37*
D11*
X58975000Y-53479951D03*
D10*
G36*
X61374505Y-49531155D02*
X61398773Y-49534755D01*
X61422572Y-49540716D01*
X61445671Y-49548981D01*
X61467850Y-49559471D01*
X61488893Y-49572083D01*
X61508599Y-49586698D01*
X61526777Y-49603174D01*
X61543253Y-49621352D01*
X61557868Y-49641058D01*
X61570480Y-49662101D01*
X61580970Y-49684280D01*
X61589235Y-49707379D01*
X61595196Y-49731178D01*
X61598796Y-49755446D01*
X61600000Y-49779950D01*
X61600000Y-50679952D01*
X61598796Y-50704456D01*
X61595196Y-50728724D01*
X61589235Y-50752523D01*
X61580970Y-50775622D01*
X61570480Y-50797801D01*
X61557868Y-50818844D01*
X61543253Y-50838550D01*
X61526777Y-50856728D01*
X61508599Y-50873204D01*
X61488893Y-50887819D01*
X61467850Y-50900431D01*
X61445671Y-50910921D01*
X61422572Y-50919186D01*
X61398773Y-50925147D01*
X61374505Y-50928747D01*
X61350001Y-50929951D01*
X60699999Y-50929951D01*
X60675495Y-50928747D01*
X60651227Y-50925147D01*
X60627428Y-50919186D01*
X60604329Y-50910921D01*
X60582150Y-50900431D01*
X60561107Y-50887819D01*
X60541401Y-50873204D01*
X60523223Y-50856728D01*
X60506747Y-50838550D01*
X60492132Y-50818844D01*
X60479520Y-50797801D01*
X60469030Y-50775622D01*
X60460765Y-50752523D01*
X60454804Y-50728724D01*
X60451204Y-50704456D01*
X60450000Y-50679952D01*
X60450000Y-49779950D01*
X60451204Y-49755446D01*
X60454804Y-49731178D01*
X60460765Y-49707379D01*
X60469030Y-49684280D01*
X60479520Y-49662101D01*
X60492132Y-49641058D01*
X60506747Y-49621352D01*
X60523223Y-49603174D01*
X60541401Y-49586698D01*
X60561107Y-49572083D01*
X60582150Y-49559471D01*
X60604329Y-49548981D01*
X60627428Y-49540716D01*
X60651227Y-49534755D01*
X60675495Y-49531155D01*
X60699999Y-49529951D01*
X61350001Y-49529951D01*
X61374505Y-49531155D01*
X61374505Y-49531155D01*
G37*
D11*
X61025000Y-50229951D03*
D10*
G36*
X59324505Y-49531155D02*
X59348773Y-49534755D01*
X59372572Y-49540716D01*
X59395671Y-49548981D01*
X59417850Y-49559471D01*
X59438893Y-49572083D01*
X59458599Y-49586698D01*
X59476777Y-49603174D01*
X59493253Y-49621352D01*
X59507868Y-49641058D01*
X59520480Y-49662101D01*
X59530970Y-49684280D01*
X59539235Y-49707379D01*
X59545196Y-49731178D01*
X59548796Y-49755446D01*
X59550000Y-49779950D01*
X59550000Y-50679952D01*
X59548796Y-50704456D01*
X59545196Y-50728724D01*
X59539235Y-50752523D01*
X59530970Y-50775622D01*
X59520480Y-50797801D01*
X59507868Y-50818844D01*
X59493253Y-50838550D01*
X59476777Y-50856728D01*
X59458599Y-50873204D01*
X59438893Y-50887819D01*
X59417850Y-50900431D01*
X59395671Y-50910921D01*
X59372572Y-50919186D01*
X59348773Y-50925147D01*
X59324505Y-50928747D01*
X59300001Y-50929951D01*
X58649999Y-50929951D01*
X58625495Y-50928747D01*
X58601227Y-50925147D01*
X58577428Y-50919186D01*
X58554329Y-50910921D01*
X58532150Y-50900431D01*
X58511107Y-50887819D01*
X58491401Y-50873204D01*
X58473223Y-50856728D01*
X58456747Y-50838550D01*
X58442132Y-50818844D01*
X58429520Y-50797801D01*
X58419030Y-50775622D01*
X58410765Y-50752523D01*
X58404804Y-50728724D01*
X58401204Y-50704456D01*
X58400000Y-50679952D01*
X58400000Y-49779950D01*
X58401204Y-49755446D01*
X58404804Y-49731178D01*
X58410765Y-49707379D01*
X58419030Y-49684280D01*
X58429520Y-49662101D01*
X58442132Y-49641058D01*
X58456747Y-49621352D01*
X58473223Y-49603174D01*
X58491401Y-49586698D01*
X58511107Y-49572083D01*
X58532150Y-49559471D01*
X58554329Y-49548981D01*
X58577428Y-49540716D01*
X58601227Y-49534755D01*
X58625495Y-49531155D01*
X58649999Y-49529951D01*
X59300001Y-49529951D01*
X59324505Y-49531155D01*
X59324505Y-49531155D01*
G37*
D11*
X58975000Y-50229951D03*
D19*
X52300000Y-51729951D03*
X55700000Y-51729951D03*
M02*
