M48
;DRILL file {KiCad (5.0.2-5-10.14)} date Monday, 08 April 2019 at 09:19:06 pm
;FORMAT={-:-/ absolute / metric / decimal}
FMAT,2
METRIC,TZ
T1C2.200
T2C4.000
%
G90
G05
T1
X73.Y-90.73
X34.9Y-33.63
X111.2Y-128.93
X34.9Y-128.93
X111.1Y-33.63
T2
X44.45Y-81.28
X44.45Y-43.18
X63.5Y-62.23
X63.5Y-100.33
X63.5Y-43.18
X82.55Y-62.23
X44.45Y-119.38
X82.55Y-100.33
X44.45Y-62.23
X44.45Y-100.397
X63.5Y-81.28
X63.5Y-119.38
X82.55Y-43.18
X101.6Y-81.28
X101.6Y-119.38
X82.55Y-81.28
X101.6Y-62.23
X101.6Y-43.18
X82.55Y-119.38
X101.6Y-100.33
T0
M30
